<svg width="32" height="32" viewBox="0 0 32 32" fill="none" xmlns="http://www.w3.org/2000/svg">
<path d="M31.6026 15.0693C31.8675 15.3635 32 15.7129 32 16.1174C32 16.5219 31.8675 16.8713 31.6026 17.1655L26.472 22.3508C26.2071 22.645 25.8699 22.7921 25.4604 22.7921C25.0509 22.7921 24.7137 22.645 24.4487 22.3508L22.3893 20.2914C22.1002 19.9972 21.9557 19.6478 21.9557 19.2433C21.9557 18.8388 22.1002 18.4894 22.3893 18.1952C22.6783 17.9255 23.0216 17.7907 23.419 17.7907C23.8164 17.7907 24.1597 17.9255 24.4487 18.1952L25.4604 19.2249L29.5431 15.0693C29.8322 14.7996 30.1754 14.6648 30.5728 14.6648C30.9703 14.6648 31.3135 14.7996 31.6026 15.0693ZM14.4767 29.6322L10.8636 26.2857C9.12937 24.6921 7.642 23.2702 6.40152 22.0198C5.16103 20.7694 4.13733 19.5926 3.33042 18.4894C2.5235 17.3861 1.93337 16.3197 1.56002 15.29C1.18667 14.2603 1 13.1815 1 12.0537C1 9.74917 1.75874 7.83074 3.27622 6.29844C4.79371 4.76615 6.68454 4 8.94872 4C10.2012 4 11.3936 4.26355 12.5256 4.79066C13.6577 5.31777 14.6333 6.07166 15.4522 7.05233C16.2712 6.07166 17.2467 5.31777 18.3788 4.79066C19.5109 4.26355 20.7032 4 21.9557 4C24.0031 4 25.7193 4.63131 27.1043 5.89392C28.4893 7.15653 29.3504 8.63366 29.6876 10.3253C29.2059 10.1292 28.7001 10.0066 28.1702 9.95757C27.6402 9.90853 27.0983 9.88402 26.5443 9.88402C24.4969 9.88402 22.6181 10.7237 20.9079 12.4031C19.1977 14.0825 18.3427 16.1848 18.3427 18.71C18.3427 19.8868 18.5956 21.082 19.1014 22.2956C19.6072 23.5092 20.3178 24.496 21.2331 25.256C20.7754 25.6728 20.1793 26.206 19.4446 26.8557C18.71 27.5054 18.0777 28.0754 17.5478 28.5658L16.3916 29.6322C16.1267 29.8774 15.8075 30 15.4341 30C15.0608 30 14.7416 29.8774 14.4767 29.6322Z" fill="black"/>
</svg>
