<svg xmlns="http://www.w3.org/2000/svg" width="1239" height="1239" viewBox="0 0 1239 1239">
  <g id="open_columbus_light" transform="translate(-280.085 -47.085)">
    <g id="Ellipse_2" data-name="Ellipse 2" transform="translate(280.085 47.085)" fill="#fff" stroke="#fff" stroke-width="5">
      <circle cx="619.5" cy="619.5" r="619.5" stroke="none"/>
      <circle cx="619.5" cy="619.5" r="617" fill="none"/>
    </g>
    <g id="Group_26" data-name="Group 26" transform="translate(594.436 270.145)">
      <g id="Group_25" data-name="Group 25" transform="translate(0 0)">
        <g id="Innovation">
          <path id="Path_115" data-name="Path 115" d="M231.854,8.25c-117.929,0-213.86,95.932-213.86,213.86A212.424,212.424,0,0,0,100.85,391.167l.55.519A153.475,153.475,0,0,1,155.476,508.7v49.478a30.551,30.551,0,1,0,0,61.1v38.189a6.924,6.924,0,0,0,.275,1.36,7.439,7.439,0,0,0,.978,5.026L225.469,768.6a7.638,7.638,0,0,0,12.771,0L306.98,663.854a7.424,7.424,0,0,0,.978-5.026,6.7,6.7,0,0,0,.275-1.359V619.279a30.551,30.551,0,0,0,0-61.1V508.7a153.46,153.46,0,0,1,54.061-117.012,6.04,6.04,0,0,0,.55-.535A212.485,212.485,0,0,0,445.714,222.11c0-117.929-95.932-213.86-213.86-213.86Zm0,742.232-15.933-24.273h31.865Zm25.954-39.549H205.9l-28.642-43.643H286.45Zm-87.056-61.1V619.279H201.3v30.551Zm45.827,0V619.279H247.13v30.551Zm76.379,0H262.406V619.279h30.551Zm30.551-61.1A15.291,15.291,0,0,1,308.233,604H155.476a15.291,15.291,0,0,1,0-30.551H308.233A15.291,15.291,0,0,1,323.509,588.728ZM167.941,281.747c7.607-1.7,13.779-4.7,20.775-8.371l5.117-2.643c1.94.917,3.85,1.909,5.774,2.887,8.661,4.461,18.484,9.532,31.9,9.578h.2c13.336,0,23.127-5.072,31.758-9.547,2-1.039,3.972-2.062,5.988-3.025,1.833.825,3.7,1.711,5.591,2.612a120.246,120.246,0,0,0,20.607,8.1,228.846,228.846,0,0,0-48.5,140.644V558.161H216.594v-135.6a229.03,229.03,0,0,0-48.653-140.812Zm184.622,98.04a7.426,7.426,0,0,0-1.115,1.069,168.6,168.6,0,0,0-58.2,122.389,7.784,7.784,0,0,0-.29,1.466v53.465H262.406V421.993A213.771,213.771,0,0,1,315,281.5a7.638,7.638,0,0,0-.749-10.785,8.331,8.331,0,0,0-.947-.535,7.623,7.623,0,0,0-5.408-2.245c-8.493,0-17.552-4.308-26.32-8.478-3.162-1.5-6.248-2.964-9.242-4.216a7.562,7.562,0,0,0-5.881,0c-3.422,1.421-6.721,3.132-10.051,4.858-7.775,4.033-15.108,7.836-24.716,7.836h-.137c-9.746-.031-17.124-3.849-24.961-7.882q-4.9-2.6-9.99-4.812a7.638,7.638,0,0,0-6.278.183c-3.193,1.558-6.049,3.04-8.677,4.43-9.654,5.056-15.474,8.1-26.488,8.1a9.17,9.17,0,0,0-6.416,14.191A213.769,213.769,0,0,1,201.3,422.589v135.6H170.751V504.726a7.79,7.79,0,0,0-.29-1.466A168.644,168.644,0,0,0,112.276,380.9a6.92,6.92,0,0,0-1.13-1.085A197.271,197.271,0,0,1,33.27,222.125c0-109.5,89.088-198.584,198.584-198.584s198.584,89.088,198.584,198.584a197.209,197.209,0,0,1-77.876,157.661Z" transform="translate(73.691 22.301)" fill="#2c4355"/>
          <path id="Path_116" data-name="Path 116" d="M623.052,240.759c0-34.034-33.484-65.563-92.663-88.278C556.358,94.173,557.717,48.9,533.551,24.729,507.017-1.8,453.6,2.549,387.057,36.66a7.641,7.641,0,1,0,6.981,13.6C453.4,19.826,501.564,14.311,522.751,35.529,542,54.777,539.325,95.38,516,147.317c-2.658-.9-5.27-1.8-8.02-2.673a7.637,7.637,0,1,0-4.568,14.575c2.047.64,3.988,1.312,5.973,1.984-25.159,50.2-66.052,104.944-116.264,155.156q-15.486,15.407-31.835,29.91c-14.344.84-28.9,1.405-43.765,1.405-14.848,0-29.39-.565-43.719-1.405q-16.387-14.487-31.911-29.91c-50.7-50.7-91.334-105.372-116.233-155.171,1.971-.657,3.9-1.329,5.927-1.971a7.637,7.637,0,1,0-4.568-14.575c-2.78.872-5.422,1.789-8.111,2.706q-5.248-11.607-9.486-23.632c-14.222-40.8-13.2-72.132,2.872-88.187,21.035-21.05,66.679-16.314,125.23,12.969a7.641,7.641,0,1,0,6.828-13.672c-65.808-32.9-116.493-36.478-142.874-10.1C80.748,45.459,78.5,81.433,94.97,128.757c2.7,7.76,5.9,15.7,9.486,23.8-59.056,22.7-92.464,54.214-92.464,88.2,0,35.043,35.241,66.144,92.449,88.233-25.785,57.88-27.1,103.676-2.979,127.8,11.579,11.579,28.016,17.353,48.455,17.353,22.852,0,50.685-7.225,82.26-21.63,27.4-12.511,56.291-29.833,85.254-50.945,63.471,46.347,123.932,72.468,167.651,72.468,20.149,0,36.769-5.56,48.455-17.246,24.12-24.12,22.807-69.917-2.979-127.8,57.253-22.089,92.495-53.19,92.495-88.233ZM317.537,362.965c8.448,0,16.727-.229,24.991-.489q-12.419,10.334-24.884,19.782-12.729-9.592-24.991-19.782C300.887,362.736,309.12,362.965,317.537,362.965ZM27.3,240.759c0-27.206,30.994-54.336,83.894-74.439,25.617,51.754,67.565,108.488,119.93,160.838Q239.967,336,248.9,344.389c-46.148-4.308-88.217-12.786-123.077-24.288,1.589-3.162,2.948-6.217,4.674-9.44a7.638,7.638,0,1,0-13.458-7.21c-2.139,3.987-3.8,7.76-5.728,11.64C59.7,295.69,27.3,269.34,27.3,240.759ZM225.852,438.61c-52.762,24.075-94.175,26.778-113.56,7.378-19.278-19.293-16.589-60.186,6.6-111.773,41.183,13.947,92.036,23.433,148.526,27.023q18.085,15.944,37.212,30.643C277.82,411.114,251.164,427.062,225.852,438.61Zm296.914,7.378c-30.322,30.322-108.61,5.621-192.337-54.275q19.029-14.6,37.044-30.46c56.551-3.574,107.48-13.076,148.694-27.038C539.325,385.8,542.045,426.695,522.767,445.988Zm.993-130.882c-1.925-3.9-3.59-7.668-5.728-11.655a7.638,7.638,0,0,0-13.458,7.21c1.726,3.223,3.086,6.278,4.674,9.44-34.9,11.5-77,19.981-123.2,24.288,6-5.637,11.991-11.35,17.888-17.246,51.892-51.892,94.16-108.717,119.976-160.823,52.885,20.1,83.848,47.217,83.848,74.408C607.776,269.34,575.376,295.69,523.759,315.106Z" transform="translate(-11.992 8.037)" fill="#2c4355"/>
          <circle id="Ellipse_29" data-name="Ellipse 29" cx="22.914" cy="22.914" r="22.914" transform="translate(84.23 8.539)" fill="#f15743"/>
          <path id="Path_117" data-name="Path 117" d="M47.557,67.412A30.551,30.551,0,1,1,78.109,36.86,30.582,30.582,0,0,1,47.557,67.412Zm0-45.827a15.291,15.291,0,0,0,0,30.551,15.291,15.291,0,0,0,0-30.551Z" transform="translate(59.587 -5.408)" fill="#f15743"/>
          <circle id="Ellipse_30" data-name="Ellipse 30" cx="22.914" cy="22.914" r="22.914" transform="translate(557.778 268.227)" fill="#f15743"/>
          <path id="Path_118" data-name="Path 118" d="M78.557,84.412A30.551,30.551,0,1,1,109.109,53.86,30.582,30.582,0,0,1,78.557,84.412Zm0-45.827a15.291,15.291,0,0,0,0,30.551,15.291,15.291,0,0,0,0-30.551Z" transform="translate(502.134 237.28)" fill="#f15743"/>
          <circle id="Ellipse_31" data-name="Ellipse 31" cx="22.914" cy="22.914" r="22.914" transform="translate(84.23 436.259)" fill="#f15743"/>
          <path id="Path_119" data-name="Path 119" d="M47.557,95.412A30.551,30.551,0,1,1,78.109,64.86,30.582,30.582,0,0,1,47.557,95.412Zm0-45.827a15.291,15.291,0,0,0,0,30.551,15.291,15.291,0,0,0,0-30.551Z" transform="translate(59.587 394.313)" fill="#f15743"/>
          <circle id="Ellipse_32" data-name="Ellipse 32" cx="7.638" cy="7.638" r="7.638" transform="translate(297.907)" fill="#f15743"/>
          <circle id="Ellipse_33" data-name="Ellipse 33" cx="7.638" cy="7.638" r="7.638" transform="translate(534.681 236.774)" fill="#f15743"/>
          <circle id="Ellipse_34" data-name="Ellipse 34" cx="7.638" cy="7.638" r="7.638" transform="translate(61.133 236.774)" fill="#f15743"/>
          <circle id="Ellipse_35" data-name="Ellipse 35" cx="7.638" cy="7.638" r="7.638" transform="matrix(0.707, -0.707, 0.707, 0.707, 462.172, 77.01)" fill="#f15743"/>
          <circle id="Ellipse_36" data-name="Ellipse 36" cx="7.638" cy="7.638" r="7.638" transform="matrix(0.707, -0.707, 0.707, 0.707, 127.307, 411.799)" fill="#f15743"/>
          <circle id="Ellipse_37" data-name="Ellipse 37" cx="7.638" cy="7.638" r="7.638" transform="matrix(0.707, -0.707, 0.707, 0.707, 462.163, 411.831)" fill="#f15743"/>
          <circle id="Ellipse_38" data-name="Ellipse 38" cx="7.638" cy="7.638" r="7.638" transform="matrix(0.707, -0.707, 0.707, 0.707, 127.32, 76.989)" fill="#f15743"/>
          <circle id="Ellipse_39" data-name="Ellipse 39" cx="7.638" cy="7.638" r="7.638" transform="translate(204.948 21.54) rotate(-22.497)" fill="#f15743"/>
          <circle id="Ellipse_40" data-name="Ellipse 40" cx="7.638" cy="7.638" r="7.638" transform="translate(386.164 29.796) rotate(-67.5)" fill="#f15743"/>
          <circle id="Ellipse_41" data-name="Ellipse 41" cx="7.638" cy="7.638" r="7.638" transform="translate(250.379 6.176) rotate(-11.246)" fill="#f15743"/>
          <circle id="Ellipse_42" data-name="Ellipse 42" cx="7.638" cy="7.638" r="7.638" transform="translate(528.802 192.198) rotate(-11.246)" fill="#f15743"/>
          <circle id="Ellipse_43" data-name="Ellipse 43" cx="7.638" cy="7.638" r="7.638" transform="translate(64.338 284.62) rotate(-11.246)" fill="#f15743"/>
          <circle id="Ellipse_44" data-name="Ellipse 44" cx="7.638" cy="7.638" r="7.638" transform="translate(426.492 49.677) rotate(-56.246)" fill="#f15743"/>
          <circle id="Ellipse_45" data-name="Ellipse 45" cx="7.638" cy="7.638" r="7.638" transform="translate(163.398 443.362) rotate(-56.255)" fill="#f15743"/>
          <circle id="Ellipse_46" data-name="Ellipse 46" cx="7.638" cy="7.638" r="7.638" transform="translate(491.786 378.04) rotate(-56.255)" fill="#f15743"/>
          <circle id="Ellipse_47" data-name="Ellipse 47" cx="7.638" cy="7.638" r="7.638" transform="translate(98.083 114.96) rotate(-56.25)" fill="#f15743"/>
          <circle id="Ellipse_48" data-name="Ellipse 48" cx="7.638" cy="7.638" r="7.638" transform="translate(163.397 45.431) rotate(-33.75)" fill="#f15743"/>
          <circle id="Ellipse_49" data-name="Ellipse 49" cx="7.638" cy="7.638" r="7.638" transform="translate(426.484 439.207) rotate(-33.747)" fill="#f15743"/>
          <circle id="Ellipse_50" data-name="Ellipse 50" cx="7.638" cy="7.638" r="7.638" transform="translate(491.813 110.799) rotate(-33.747)" fill="#f15743"/>
          <circle id="Ellipse_51" data-name="Ellipse 51" cx="7.638" cy="7.638" r="7.638" transform="translate(98.069 373.846) rotate(-33.754)" fill="#f15743"/>
          <circle id="Ellipse_52" data-name="Ellipse 52" cx="7.638" cy="7.638" r="7.638" transform="translate(342.746 18.177) rotate(-78.749)" fill="#f15743"/>
          <circle id="Ellipse_53" data-name="Ellipse 53" cx="7.638" cy="7.638" r="7.638" transform="translate(528.814 296.611) rotate(-78.749)" fill="#f15743"/>
          <circle id="Ellipse_54" data-name="Ellipse 54" cx="7.638" cy="7.638" r="7.638" transform="translate(64.318 204.19) rotate(-78.749)" fill="#f15743"/>
        </g>
        <rect id="Rectangle_9" data-name="Rectangle 9" width="113" height="36" transform="translate(248.649 270.94)" fill="#fff"/>
      </g>
      <g id="skyline" transform="translate(163.986 27.049)">
        <path id="Path_120" data-name="Path 120" d="M166.6,156.332H152.556a3.392,3.392,0,0,0,0,6.762H166.6a3.392,3.392,0,0,0,0-6.762Zm-101.435,0H51.121a3.392,3.392,0,0,0,0,6.762H65.166a3.392,3.392,0,0,0,0-6.762Zm77.506,0H75.049a3.381,3.381,0,1,0,0,6.762H102v3.381H88.574a3.381,3.381,0,1,0,0,6.762h42.264a3.381,3.381,0,0,0,0-6.762H115.725v-3.381h26.948a3.381,3.381,0,1,0,0-6.762Z" transform="translate(33.148 105.139)" fill="#0bceb2"/>
        <path id="Path_121" data-name="Path 121" d="M122.467,95.762h2.666a3.381,3.381,0,1,0,0-6.762h-2.585a2.8,2.8,0,0,1-2.785-2.812,2.846,2.846,0,0,1,3.025-2.8,3.381,3.381,0,0,0,3.639-3.819,2.769,2.769,0,0,1,2.754-3.187,2.719,2.719,0,0,1,1.259.309,3.38,3.38,0,0,0,4.521-1.384,6.13,6.13,0,0,1,11.519,2.651,3.382,3.382,0,0,0,3.3,3.209,3.922,3.922,0,0,1,3.8,3.911,3.878,3.878,0,0,1-3.784,3.909c-.056,0-.113,0-.169.009H145.73a3.381,3.381,0,1,0,0,6.762h4.15a3.4,3.4,0,0,0,.4-.024,10.6,10.6,0,0,0,10.054-10.657,10.752,10.752,0,0,0-7.537-10.2A12.885,12.885,0,0,0,130.65,69.74a9.332,9.332,0,0,0-1.47-.116,9.57,9.57,0,0,0-9.292,7.37,9.578,9.578,0,0,0,2.58,18.769Z" transform="translate(78.035 42.297)" fill="#2d4356"/>
        <path id="Path_122" data-name="Path 122" d="M36.453,76.332H31.382a3.381,3.381,0,0,0,0,6.762h5.072a3.381,3.381,0,1,0,0-6.762Z" transform="translate(19.337 49.893)" fill="#0bceb2"/>
        <path id="Path_123" data-name="Path 123" d="M55.05,76.332H49.978a3.381,3.381,0,0,0,0,6.762H55.05a3.381,3.381,0,1,0,0-6.762Zm-18.6,13.525H31.382a3.381,3.381,0,0,0,0,6.762h5.072a3.381,3.381,0,0,0,0-6.762Z" transform="translate(19.337 49.893)" fill="#2d4356"/>
        <path id="Path_124" data-name="Path 124" d="M58.431,87.713a3.381,3.381,0,0,0-3.381-3.381H49.978a3.381,3.381,0,0,0,0,6.762H55.05a3.381,3.381,0,0,0,3.381-3.381ZM36.453,97.856H31.382a3.381,3.381,0,1,0,0,6.762h5.072a3.381,3.381,0,1,0,0-6.762Z" transform="translate(19.337 55.418)" fill="#0bceb2"/>
        <path id="Path_125" data-name="Path 125" d="M36.453,100.332H31.382a3.381,3.381,0,0,0,0,6.762h5.072a3.381,3.381,0,1,0,0-6.762Z" transform="translate(19.337 66.467)" fill="#2d4356"/>
        <path id="Path_126" data-name="Path 126" d="M36.453,108.332H31.382a3.381,3.381,0,0,0,0,6.762h5.072a3.381,3.381,0,1,0,0-6.762Z" transform="translate(19.337 71.992)" fill="#0bceb2"/>
        <path id="Path_127" data-name="Path 127" d="M36.453,116.332H31.382a3.381,3.381,0,0,0,0,6.762h5.072a3.381,3.381,0,1,0,0-6.762Z" transform="translate(19.337 77.516)" fill="#2d4356"/>
        <path id="Path_128" data-name="Path 128" d="M36.453,124.332H31.382a3.381,3.381,0,1,0,0,6.762h5.072a3.381,3.381,0,1,0,0-6.762Z" transform="translate(19.337 83.041)" fill="#0bceb2"/>
        <path id="Path_129" data-name="Path 129" d="M36.453,132.332H31.382a3.381,3.381,0,0,0,0,6.762h5.072a3.381,3.381,0,0,0,0-6.762Z" transform="translate(19.337 88.565)" fill="#2d4356"/>
        <path id="Path_130" data-name="Path 130" d="M36.453,201.1H31.382a3.381,3.381,0,1,0,0,6.762h5.072a3.381,3.381,0,1,0,0-6.762ZM129.435,59.094h13.525a3.381,3.381,0,1,0,0-6.762H129.435a3.381,3.381,0,0,0,0,6.762Z" transform="translate(19.337 33.319)" fill="#0bceb2"/>
        <path id="Path_131" data-name="Path 131" d="M89.381,67.094h13.525a3.381,3.381,0,1,0,0-6.762H89.381a3.381,3.381,0,1,0,0,6.762Z" transform="translate(59.39 38.844)" fill="#2d4356"/>
        <path id="Path_132" data-name="Path 132" d="M89.381,75.094h13.525a3.381,3.381,0,1,0,0-6.762H89.381a3.381,3.381,0,0,0,0,6.762Z" transform="translate(59.39 44.368)" fill="#0bceb2"/>
        <path id="Path_133" data-name="Path 133" d="M89.381,83.094h13.525a3.381,3.381,0,1,0,0-6.762H89.381a3.381,3.381,0,0,0,0,6.762Z" transform="translate(59.39 49.893)" fill="#2d4356"/>
        <path id="Path_134" data-name="Path 134" d="M89.381,91.094h13.525a3.381,3.381,0,1,0,0-6.762H89.381a3.381,3.381,0,0,0,0,6.762Zm13.525,20.287H92.763v6.762h10.143a3.381,3.381,0,1,0,0-6.762Z" transform="translate(59.39 55.418)" fill="#0bceb2"/>
        <path id="Path_135" data-name="Path 135" d="M100.385,92.332H89.651a10.1,10.1,0,0,1,.59,3.381v3.381h10.143a3.381,3.381,0,1,0,0-6.762Z" transform="translate(61.911 60.942)" fill="#2d4356"/>
        <path id="Path_136" data-name="Path 136" d="M59.382,107.094H86.431a3.381,3.381,0,1,0,0-6.762H59.382a3.381,3.381,0,1,0,0,6.762Z" transform="translate(38.673 66.467)" fill="#0bceb2"/>
        <path id="Path_137" data-name="Path 137" d="M80.224,173.1h27.049a3.381,3.381,0,1,0,0-6.762H80.224a3.381,3.381,0,1,0,0,6.762Zm0,54.1h27.049a3.381,3.381,0,0,0,0-6.762H80.224a3.381,3.381,0,0,0,0,6.762ZM60.161,39.9a3.381,3.381,0,0,0,3.381-3.381v-8.81a3.381,3.381,0,1,0-6.762,0v8.809A3.381,3.381,0,0,0,60.161,39.9ZM33.248,48.838a3.381,3.381,0,1,0,4.715-4.847l-6.4-6.23a3.381,3.381,0,1,0-4.715,4.847Zm51.468.956a3.37,3.37,0,0,0,2.357-.957l6.406-6.228a3.381,3.381,0,1,0-4.713-4.849l-6.406,6.228a3.381,3.381,0,0,0,2.357,5.806Z" transform="translate(17.831 13.983)" fill="#2d4356"/>
        <path id="Path_138" data-name="Path 138" d="M47.79,39.091a3.381,3.381,0,1,0,6.222-2.646L50.549,28.3a3.381,3.381,0,1,0-6.222,2.646Zm28.415,1.815a3.38,3.38,0,0,0,4.44-1.776L84.132,31a3.381,3.381,0,0,0-6.216-2.665L74.43,36.466A3.382,3.382,0,0,0,76.205,40.906ZM93.05,57.14a3.38,3.38,0,0,0,4.41,1.848l8.35-3.419a3.381,3.381,0,1,0-2.562-6.259L94.9,52.73A3.382,3.382,0,0,0,93.05,57.14Zm-70.865-.47,8.443,3.2a3.382,3.382,0,1,0,2.4-6.325l-8.443-3.2a3.382,3.382,0,1,0-2.4,6.325Z" transform="translate(13.811 15.303)" fill="#0bceb2"/>
        <path id="Path_139" data-name="Path 139" d="M56.589,36.884A26.049,26.049,0,0,0,30.667,63a3.381,3.381,0,1,0,6.762,0A19.161,19.161,0,1,1,75.75,63a3.381,3.381,0,1,0,6.762,0A26.049,26.049,0,0,0,56.589,36.884Z" transform="translate(21.178 22.651)" fill="#2d4356"/>
        <path id="Path_140" data-name="Path 140" d="M86.032,116.332H58.983a3.369,3.369,0,0,0-2.406,1.008,26.655,26.655,0,0,1,3.225,5.754h26.23a3.381,3.381,0,0,0,0-6.762Z" transform="translate(39.071 77.516)" fill="#0bceb2"/>
        <path id="Path_141" data-name="Path 141" d="M100.144,108.332H90v6.762h10.143a3.381,3.381,0,1,0,0-6.762Z" transform="translate(62.152 71.992)" fill="#2d4356"/>
        <path id="Path_142" data-name="Path 142" d="M100.144,116.332H90v6.762h10.143a3.381,3.381,0,1,0,0-6.762Z" transform="translate(62.152 77.516)" fill="#0bceb2"/>
        <path id="Path_143" data-name="Path 143" d="M100.144,124.332H90v6.762h10.143a3.381,3.381,0,1,0,0-6.762Z" transform="translate(62.152 83.041)" fill="#2d4356"/>
        <path id="Path_144" data-name="Path 144" d="M100.144,132.332H90v6.762h10.143a3.381,3.381,0,1,0,0-6.762Z" transform="translate(62.152 88.565)" fill="#0bceb2"/>
        <path id="Path_145" data-name="Path 145" d="M135.363,173.479H125.22v6.762h10.143a3.381,3.381,0,1,0,0-6.762ZM44.072,95.713a10.1,10.1,0,0,1,.59-3.381h-2.28a3.381,3.381,0,1,0,0,6.762h1.691Z" transform="translate(26.933 60.942)" fill="#2d4356"/>
        <path id="Path_146" data-name="Path 146" d="M44.072,100.332H42.382a3.381,3.381,0,1,0,0,6.762h1.691Z" transform="translate(26.933 66.467)" fill="#0bceb2"/>
        <path id="Path_147" data-name="Path 147" d="M39,111.713a3.381,3.381,0,0,0,3.381,3.381h1.691v-6.762H42.382A3.381,3.381,0,0,0,39,111.713Z" transform="translate(26.933 71.992)" fill="#2d4356"/>
        <path id="Path_148" data-name="Path 148" d="M84.716,132.332H60.447a32.645,32.645,0,0,1-1.963,6.762H84.716a3.381,3.381,0,0,0,0-6.762Z" transform="translate(40.388 88.565)" fill="#0bceb2"/>
        <path id="Path_149" data-name="Path 149" d="M83.919,124.332H59.638a38.162,38.162,0,0,1,.613,6.762H83.919a3.381,3.381,0,1,0,0-6.762Z" transform="translate(41.185 83.041)" fill="#2d4356"/>
        <circle id="Ellipse_55" data-name="Ellipse 55" cx="3.381" cy="3.381" r="3.381" transform="translate(0 247.947)" fill="#2d4356"/>
        <path id="Path_150" data-name="Path 150" d="M14.453,148.332H9.381a3.381,3.381,0,1,0,0,6.762h5.072a3.381,3.381,0,1,0,0-6.762Zm251.9,0h-5.072a3.381,3.381,0,1,0,0,6.762h5.072a3.381,3.381,0,1,0,0-6.762Z" transform="translate(4.143 99.615)" fill="#2d4356"/>
        <circle id="Ellipse_56" data-name="Ellipse 56" cx="3.381" cy="3.381" r="3.381" transform="translate(277.255 247.947)" fill="#2d4356"/>
        <path id="Path_151" data-name="Path 151" d="M253.905,247.084H237.47V226.8h8.453a3.381,3.381,0,0,0,3.381-3.381V209.892a3.381,3.381,0,0,0-3.381-3.381H237.47V169.318a3.381,3.381,0,0,0-3.381-3.381H220.565a3.381,3.381,0,0,0-3.381,3.381v15.972c-15.722,10.143-30.728,5.3-38.883,1.019V78.027a6.77,6.77,0,0,0-6.762-6.762H137.727a6.77,6.77,0,0,0-6.762,6.762V145.65h6.762V78.027h33.811V247.084H144.489V155.793a3.381,3.381,0,0,0-3.381-3.381H124.2V142.268a6.77,6.77,0,0,0-6.762-6.762h-3.381V125.363a3.381,3.381,0,1,0-6.762,0v10.143h-3.381a6.77,6.77,0,0,0-6.762,6.762v10.143H80.248a3.381,3.381,0,0,0-3.381,3.381v30.8a15.472,15.472,0,0,1,6.762,0V159.174h54.1v87.91h-54.1V232.92c5.893-2.2,10.143-10.032,10.143-19.647,0-11.376-5.941-20.287-13.525-20.287S66.723,201.9,66.723,213.273c0,9.615,4.251,17.446,10.143,19.647v14.164H39.674V118.6H83.629V145.65h6.762V118.6a6.77,6.77,0,0,0-6.762-6.762H39.674a6.77,6.77,0,0,0-6.762,6.762V247.084h-4.6a3.41,3.41,0,1,0,0,6.762H253.905a3.41,3.41,0,1,0,0-6.762ZM117.44,152.412H103.916V142.268H117.44ZM73.485,213.273c0-7.74,3.57-13.525,6.762-13.525s6.762,5.784,6.762,13.525S83.44,226.8,80.248,226.8,73.485,221.013,73.485,213.273ZM223.946,172.7h6.762V206.51h-6.762ZM178.3,193.678A48.593,48.593,0,0,0,197.795,198a41.252,41.252,0,0,0,19.389-4.863V206.51H178.3Zm0,19.594h64.242v6.762H178.3Zm0,33.812V226.8h38.883v20.287Zm45.645,0V226.8h6.762v20.287ZM210.936,64.5a5.072,5.072,0,1,0-5.072-5.072A5.072,5.072,0,0,0,210.936,64.5Zm0-7.608A2.536,2.536,0,1,1,208.4,59.43,2.536,2.536,0,0,1,210.936,56.894Zm62.551-14.37a3.381,3.381,0,1,0,3.381,3.381A3.381,3.381,0,0,0,273.488,42.524Zm0,5.072a1.691,1.691,0,1,1,1.691-1.691A1.691,1.691,0,0,1,273.488,47.6ZM173.744,5.332a3.381,3.381,0,1,0,3.381,3.381,3.381,3.381,0,0,0-3.381-3.381Zm0,5.072a1.691,1.691,0,1,1,1.691-1.691,1.691,1.691,0,0,1-1.691,1.691Zm84.529,81.148a3.381,3.381,0,1,0,3.381,3.381A3.381,3.381,0,0,0,258.272,91.551Zm0,5.072a1.691,1.691,0,1,1,1.691-1.691,1.691,1.691,0,0,1-1.691,1.691ZM8.067,39.143a3.381,3.381,0,1,0-3.381,3.381,3.381,3.381,0,0,0,3.381-3.381ZM3,39.143a1.691,1.691,0,1,1,1.691,1.691A1.691,1.691,0,0,1,3,39.143Z" transform="translate(0.901 0.862)" fill="#2d4356"/>
        <path id="Path_152" data-name="Path 152" d="M13.093,68.06l2.514-3.307-1.587-.9-1.615,3.7h-.052l-1.64-3.677L9.1,64.808l2.487,3.227v.052l-3.89-.5v1.8l3.915-.5v.054L9.1,72.16l1.506.953,1.721-3.731h.052l1.587,3.7,1.667-.952L13.093,68.96v-.052l3.993.475v-1.8l-3.993.529Z" transform="translate(5.314 41.278)" fill="#0bceb2"/>
        <path id="Path_153" data-name="Path 153" d="M34,4.593,32.555,6.451,33.424,7l.991-2.149h.029l.915,2.134.96-.549L34.856,4.608v-.03l2.3.274V3.817l-2.3.3v-.03l1.447-1.9-.913-.519L34.46,3.8h-.03l-.945-2.117-.93.534,1.432,1.858v.03l-2.24-.289V4.851L34,4.562Z" transform="translate(21.924 -1.668)" fill="#0bceb2"/>
        <path id="Path_154" data-name="Path 154" d="M150.068,13.26V11.5l-3.917.517v-.051l2.465-3.243-1.557-.882-1.582,3.631h-.052l-1.608-3.606-1.584.908,2.439,3.166v.051l-3.816-.492V13.26l3.841-.492v.052l-2.465,3.163,1.479.935L145.4,13.26h.051l1.557,3.633,1.635-.935-2.49-3.112v-.052Z" transform="translate(97.272 2.593)" fill="#0bceb2"/>
        <path id="Path_155" data-name="Path 155" d="M78.613,27.37l2.127-2.8L79.4,23.813l-1.364,3.133h-.046L76.6,23.835l-1.368.783,2.1,2.732v.044l-3.29-.426v1.522l3.312-.424v.046l-2.127,2.729,1.276.806,1.456-3.156h.044l1.344,3.134,1.41-.806-2.149-2.685v-.046l3.378.4V26.968l-3.378.448Z" transform="translate(51.135 13.625)" fill="#0bceb2"/>
      </g>
    </g>
    <g id="Group_28" data-name="Group 28" transform="translate(784.316 1102.109)">
      <text id="Columbus" transform="translate(-0.231 114.976)" fill="#f4563c" font-size="52" font-family="HyliaSerifBeta-Regular, Hylia Serif Beta"><tspan x="0" y="0">Columbus</tspan></text>
      <text id="Open" transform="translate(56.769 52.976)" fill="#f4563c" font-size="52" font-family="HyliaSerifBeta-Regular, Hylia Serif Beta"><tspan x="0" y="0">Open</tspan></text>
    </g>
  </g>
</svg>
