<svg xmlns="http://www.w3.org/2000/svg" fill="none" viewBox="0 0 69 29"><g fill="#474747" stroke="#474747" stroke-width="1.5" opacity=".9"><path d="m17.4706 7.33616.5412-.54112-.5519-.53011c-1.3636-1.30974-3.2017-2.31971-5.7591-2.31971-4.6137 0-8.50262 3.75517-8.50262 8.39578 0 4.6407 3.88892 8.3958 8.50262 8.3958 2.4704 0 4.3765-.8188 5.8732-2.3679 1.5695-1.5729 2.0216-3.7363 2.0216-5.4119 0-.5232-.044-1.0254-.1295-1.4529l-.1206-.6029h-8.3947v3.5942h4.8301c-.1724.5966-.4321 1.0286-.7491 1.3461-.6288.6214-1.5823 1.3094-3.331 1.3094-2.65245 0-4.73598-2.1312-4.73598-4.8099 0-2.67861 2.08353-4.80981 4.73598-4.80981 1.4362 0 2.4752.5607 3.257 1.29229l.5298.49574.513-.51303z"/><path d="M24.8656 20.7286c3.089 0 5.6036-2.4192 5.6036-5.6692 0-3.2681-2.5162-5.66931-5.6036-5.66931-3.0873 0-5.6035 2.40121-5.6035 5.66931 0 3.25 2.5145 5.6692 5.6035 5.6692Zm0-7.9004c1.014 0 1.9766.837 1.9766 2.2312 0 1.3805-.9653 2.2311-1.9766 2.2311-1.0099 0-1.9765-.8574-1.9765-2.2311 0-1.3874.9639-2.2312 1.9765-2.2312Z"/><path d="M35.7511 17.2905h-.0042c-1.0099 0-1.9766-.8574-1.9766-2.2311 0-1.3874.964-2.2312 1.9766-2.2312 1.0139 0 1.9765.837 1.9765 2.2312 0 1.3845-.968 2.2367-1.9723 2.2311Zm-.0124 3.4381c3.089 0 5.6035-2.4192 5.6035-5.6692 0-3.2681-2.5162-5.66931-5.6035-5.66931-3.0874 0-5.6036 2.40121-5.6036 5.66931 0 3.2508 2.5236 5.6692 5.6036 5.6692Z"/><path d="M51.953 10.4357v-.74997h-3.5531v.12253c-.55-.26178-1.2022-.42639-1.9191-.42639-2.8837 0-5.464 2.51793-5.464 5.69393 0 2.1269 1.164 3.9479 2.8033 4.9137l-.0658.0273-1.8806.7802-.6929.2874.2876.6928c.6228 1.5004 2.2776 3.3697 5.0535 3.3697 1.4105 0 2.787-.4145 3.814-1.4093 1.0332-1.0009 1.6171-2.4965 1.6171-4.4653zm-7.2194 9.9844-.0002-.0005c.5552.2005 1.1446.309 1.7474.309.6808 0 1.3058-.1467 1.841-.3891-.0876.3891-.2417.671-.4252.8682-.2812.3022-.7202.5011-1.3747.5011-.91190000000001 0-1.5201-.6476-1.7883-1.2887Zm1.9361-7.5919c.9722 0 1.878.8483 1.878 2.2558 0 1.3796-.8956 2.2147-1.878 2.2147-1.0428 0-1.993-.8738-1.993-2.2147 0-1.3754.9595-2.2558 1.993-2.2558Zm9.069-7.60739v-.75h-3.6599V20.4412h3.6599z"/><path d="m63.9128 16.0614-.6183-.4122-.4179.6145c-.4562.6709-1.0102 1.0432-1.8025 1.0432-.4306 0-.7595-.0981-1.0197-.2622-.07-.0441-.1383-.0951-.2046-.1536l5.6999-2.3625.6825-.283L65.9596 13.5589l-.219-.5514c-.4528-1.2075-1.8899-3.60918-4.9128-3.60918-2.9833 0-5.3244 2.36358-5.3244 5.66928 0 3.1475 2.3222 5.6693 5.5625 5.6693 2.6043 0 4.1111-1.5991 4.7283-2.5156l.421-.625L65.5882 17.1783zm-2.5667-3.2103-1.9353.8015c.3795-.5743 1.0107-.8572 1.4909-.8572.1653 0 .3136.0207.4444.0557Z"/></g><path fill="#fff" d="M11.7008 19.9868c-4.21304 0-7.75262-3.4328-7.75262-7.6458 0-4.21297 3.53958-7.64578 7.75262-7.64578 2.3323 0 3.9912.91159 5.2395 2.11061l-1.47 1.47003c-.8952-.83767-2.1106-1.49467-3.7695-1.49467-3.07972 0-5.48598 2.48016-5.48598 5.55981 0 3.0797 2.40626 5.5599 5.48598 5.5599 1.9956 0 3.1289-.8048 3.8598-1.5275.5995-.5996.9855-1.4537 1.1333-2.628h-4.9931v-2.0942h7.0298c.0739.3695.115.8212.115 1.3058 0 1.5685-.427 3.5067-1.8067 4.8864-1.3469 1.3961-3.0551 2.1434-5.3381 2.1434m18.0184-4.9274c0 2.8333-2.1763 4.9192-4.8536 4.9192-2.6772 0-4.8535-2.0859-4.8535-4.9192 0-2.8498 2.1763-4.9193 4.8535-4.9193 2.6773 0 4.8536 2.0695 4.8536 4.9193m-2.127 0c0-1.7739-1.2648-2.9812-2.7266-2.9812s-2.7265 1.2155-2.7265 2.9812c0 1.7492 1.2647 2.9811 2.7265 2.9811s2.7266-1.2237 2.7266-2.9811m13 0c0 2.8333-2.1763 4.9192-4.8535 4.9192-2.6691 0-4.8536-2.0859-4.8536-4.9192 0-2.8498 2.1763-4.9193 4.8536-4.9193 2.6772 0 4.8535 2.0695 4.8535 4.9193m-2.1188 0c0-1.7739-1.2647-2.9812-2.7265-2.9812s-2.7266 1.2155-2.7266 2.9812c0 1.7492 1.2648 2.9811 2.7266 2.9811 1.4618.0082 2.7265-1.2237 2.7265-2.9811m12.7296-4.6237v8.8366c0 3.6382-2.1435 5.1246-4.6811 5.1246-2.3899 0-3.8188-1.6014-4.3609-2.9072l1.8807-.7802c.3367.8048 1.158 1.7493 2.4802 1.7493 1.626 0 2.628-1.0101 2.628-2.8908v-.7063h-.074c-.4845.5995-1.4207 1.1169-2.5951 1.1169-2.4637 0-4.714-2.1434-4.714-4.9028 0-2.7758 2.2585-4.9439 4.714-4.9439 1.1744 0 2.1106.5256 2.5951 1.1004h.074v-.7966zm-1.9053 4.6483c0-1.7328-1.158-3.0058-2.628-3.0058-1.4947 0-2.743 1.2647-2.743 3.0058 0 1.7164 1.2483 2.9647 2.743 2.9647 1.47 0 2.628-1.2483 2.628-2.9647m5.691-9.86319V19.6912h-2.1599V5.22081zm8.5081 11.46459 1.6754 1.1169c-.5421.8049-1.8478 2.1846-4.1063 2.1846-2.8004 0-4.8125-2.1599-4.8125-4.9193 0-2.9237 2.0367-4.9193 4.5744-4.9193 2.554 0 3.8023 2.0285 4.213 3.129l.2217.5584-6.5782 2.7266c.501.9855 1.2894 1.4946 2.3898 1.4946 1.1005 0 1.8643-.5502 2.4227-1.3715m-5.1656-1.7739 4.4019-1.8231c-.2464-.616-.9691-1.043-1.8314-1.043-1.1005 0-2.628.9691-2.5705 2.8661"/></svg>