<svg width="267" height="92" viewBox="0 0 267 92" fill="none" xmlns="http://www.w3.org/2000/svg">
<g clipPath="url(#clip0_101_6)">
<path fillRule="evenodd" clipRule="evenodd" d="M39.1346 55.9084V76.1525C39.1198 75.8157 39.1051 75.399 39.0861 74.9086C39.0314 73.488 38.9703 71.4508 38.924 68.9905C38.9008 67.7593 38.8945 66.4229 38.8987 65.0108C38.9029 63.5986 38.9282 62.1106 38.9661 60.5764C39.004 59.0421 39.0609 57.4847 39.1346 55.9084Z" fill="#0D92D2"/>
<path fillRule="evenodd" clipRule="evenodd" d="M50.373 0.26518C50.373 0.26518 48.6544 0.578764 46.9421 0.896557C45.2298 1.21435 43.5259 1.54898 43.5259 1.54898C41.7196 1.95745 39.9658 2.57033 38.2984 3.37576C36.653 4.17132 35.0993 5.14378 33.6649 6.27589C32.2895 7.3573 31.0479 8.59864 29.9665 9.97365C28.9672 11.2321 28.168 12.6369 27.597 14.1386C27.597 14.1386 27.3169 14.9384 26.8999 16.1759C26.4829 17.4134 25.9289 19.1055 25.3792 20.8817C24.8295 22.658 24.2861 24.529 23.8881 25.9685C23.49 27.4081 23.2267 28.4014 23.2267 28.4014C23.2267 28.4014 25.1223 27.8563 28.1678 27.044C29.6905 26.6399 31.5714 26.1748 33.688 25.6907C34.7411 25.4487 35.8721 25.2046 37.0432 24.9604C38.2142 24.7163 39.4358 24.4785 40.6868 24.247C41.9379 24.0155 43.2142 23.7924 44.5074 23.5819C45.8006 23.3715 47.0895 23.1778 48.368 23.0011C49.6464 22.8243 50.8954 22.6622 52.1106 22.5212C53.3259 22.3802 54.4801 22.2602 55.5689 22.1592C57.7467 21.9614 59.5833 21.8183 60.8744 21.7236C62.1654 21.6289 62.9131 21.5868 62.9131 21.5868C62.9131 21.5868 62.9889 20.5555 63.1006 19.076C63.2122 17.5965 63.3554 15.7087 63.5007 13.9429C63.6461 12.1772 63.7851 10.5293 63.8904 9.33385C63.9957 8.13845 64.061 7.37448 64.061 7.37448C64.193 6.12322 63.8798 4.86547 63.1764 3.82193C62.4222 2.753 61.4013 1.89977 60.2151 1.34694C58.827 0.685353 57.335 0.268133 55.8048 0.113649C53.999 -0.0753634 52.176 -0.0244094 50.3836 0.26518H50.373ZM57.8962 18.0027C57.8962 18.0027 55.729 18.2131 52.5613 18.5835C50.9754 18.7687 49.1725 19.0171 47.2959 19.3096C45.4194 19.6021 43.4564 19.941 41.5672 20.3009C39.678 20.6608 37.8519 21.0459 36.2007 21.4184C34.5495 21.7909 33.0562 22.1487 31.8283 22.4707C29.3725 23.1021 27.8119 23.523 27.8119 23.523C27.8119 23.523 28.6227 20.726 29.442 18.1142C30.2613 15.5024 31.0827 13.0632 31.0827 13.0632C31.4826 11.9894 32.0514 10.9862 32.7676 10.0915C33.56 9.09362 34.4678 8.19291 35.472 7.40815C36.5273 6.57799 37.6691 5.86392 38.8776 5.27831C40.0932 4.68373 41.373 4.23039 42.6919 3.92716C42.6919 3.92716 44.4358 3.58411 46.1881 3.24949C47.9404 2.91486 49.697 2.59496 49.697 2.59496C50.9974 2.38099 52.3208 2.34347 53.6313 2.48342C54.7209 2.59199 55.7819 2.89643 56.7631 3.38208C58.526 4.29336 59.5306 5.81498 59.2505 7.72174C59.2505 7.72174 58.9219 10.0684 58.5786 12.6338C58.2353 15.1993 57.8878 18.0027 57.8878 18.0027H57.8962Z" fill="#C7C6C6"/>
<path fillRule="evenodd" clipRule="evenodd" d="M1.75023 34.1827L0.400183 40.1471C0.0876619 41.6888 -0.0403091 43.2622 0.0189672 44.8341C0.0586886 46.1112 0.312859 47.3725 0.770866 48.5655C1.62597 50.6701 3.17189 51.8318 5.1938 51.4046C5.1938 51.4046 7.54006 50.9247 10.198 50.4091C12.856 49.8935 15.8678 49.3568 15.8678 49.3568C15.8678 49.3568 16.1837 46.804 16.7524 43.0957C17.0346 41.2415 17.4116 39.1475 17.8518 36.9797C18.0624 35.8959 18.3068 34.7952 18.5553 33.7008C18.8038 32.6064 19.0629 31.5162 19.3303 30.4492C19.8653 28.3151 20.4234 26.2779 20.9626 24.4469C21.5018 22.6159 22.0157 20.9849 22.4622 19.6548C23.3531 16.9925 23.9534 15.3193 23.9534 15.3193C23.9534 15.3193 20.8194 16.4537 17.9698 17.5859C15.1201 18.7182 12.5359 19.8315 12.5359 19.8315C11.2966 20.4102 10.1468 21.1636 9.12179 22.0687C7.96303 23.0782 6.91398 24.2068 5.99204 25.4361C5.01477 26.7346 4.16421 28.1236 3.45201 29.5842C2.72884 31.058 2.15589 32.6007 1.74181 34.189L1.75023 34.1827ZM19.7895 19.5432C19.7895 19.5432 19.3325 20.907 18.6564 23.0431C18.3194 24.1102 17.934 25.4003 17.5296 26.8314C17.1252 28.2625 16.7061 29.8178 16.3038 31.4341C15.9015 33.0505 15.5119 34.7173 15.1686 36.3189C14.8253 37.9205 14.5241 39.4568 14.284 40.8038C13.8059 43.4997 13.5195 45.3476 13.5195 45.3476C13.5195 45.3476 11.4238 45.8295 9.46931 46.3136C7.51479 46.7976 5.71192 47.2501 5.71192 47.2501C4.23761 47.6332 3.12555 46.886 2.51477 45.4423C1.90398 43.9985 1.77761 41.8961 2.25992 39.4316L3.66684 33.3283C3.97564 32.1729 4.39896 31.0513 4.93053 29.9799C5.45431 28.9112 6.07694 27.8937 6.79027 26.9408C8.18876 25.0825 9.86316 23.5903 11.4702 22.8811C11.4702 22.8811 13.4247 22.0561 15.5013 21.2164C17.578 20.3766 19.7811 19.5327 19.7811 19.5327L19.7895 19.5432Z" fill="#C7C6C6"/>
<path fillRule="evenodd" clipRule="evenodd" d="M5.42581 55.416C5.42581 55.416 5.34788 56.5251 5.25942 58.1941C5.17096 59.863 5.08882 62.1002 5.06355 64.3458C5.03827 66.5914 5.06355 68.837 5.11831 70.5164C5.17307 72.1959 5.22151 73.3113 5.22151 73.3113C5.34686 75.3238 5.71241 77.3141 6.31039 79.2399C6.86331 81.0323 7.64179 82.7472 8.62717 84.3436C9.52524 85.8065 10.645 87.1214 11.9465 88.2413C13.1066 89.2518 14.4782 89.9903 15.9608 90.4027L21.6306 91.7644C23.2203 92.1446 24.8861 92.0591 26.4284 91.5181C27.9868 90.933 29.3518 89.9268 30.3712 88.6117C31.498 87.2184 32.3952 85.3938 32.9723 83.2239C33.2738 82.075 33.4788 80.9029 33.5852 79.7198C33.7058 78.4135 33.7255 77.0998 33.6441 75.7905C33.6441 75.7905 33.5767 74.3173 33.5051 72.0696C33.4693 70.9521 33.4419 69.6409 33.4251 68.2351C33.4083 66.8292 33.4083 65.3244 33.4251 63.8154C33.4419 62.3064 33.4756 60.8164 33.522 59.4189C33.5683 58.0215 33.6231 56.7251 33.6821 55.6201C33.8 53.4124 33.8927 51.9561 33.8927 51.9561C33.8927 51.9561 31.4221 52.1855 27.9954 52.5327C26.281 52.7053 24.4149 52.9073 22.5531 53.122C20.6913 53.3367 18.8252 53.5619 17.0897 53.7828C15.3542 54.0038 13.7388 54.2185 12.3193 54.4142C10.8997 54.6099 9.65076 54.7846 8.65244 54.9298C6.6558 55.2203 5.41738 55.4055 5.41949 55.4055L5.42581 55.416ZM29.1664 75.4896C29.2898 77.2239 29.1478 78.9669 28.7452 80.6584C28.4215 82.0498 27.826 83.3637 26.9929 84.5246C26.3025 85.4896 25.3657 86.252 24.2802 86.7323C23.2148 87.1754 22.041 87.289 20.9103 87.0585L15.2679 85.9052C14.2147 85.6521 13.2376 85.1505 12.4183 84.4425C11.4765 83.6444 10.6688 82.7009 10.0257 81.6476C9.30751 80.4789 8.74131 79.2236 8.34073 77.912C7.90209 76.4981 7.63342 75.037 7.54039 73.5597C7.54039 73.5597 7.50248 72.6863 7.46246 71.3772C7.42245 70.0682 7.38243 68.315 7.374 66.5598C7.36558 64.8046 7.38664 63.0536 7.41402 61.7403C7.4414 60.427 7.46878 59.5515 7.46878 59.5515L10.131 59.3263C10.9503 59.2569 11.9528 59.1748 13.0796 59.0843C14.2064 58.9938 15.4638 58.897 16.7928 58.796C18.1217 58.6949 19.5308 58.5855 20.9103 58.4929C22.2898 58.4003 23.6483 58.3035 24.8825 58.2235C27.3404 58.0636 29.0948 57.9562 29.0948 57.9562C29.0948 57.9562 29.0548 59.0485 29.0169 60.6922C28.979 62.3359 28.9474 64.5331 28.96 66.7324C28.9727 68.9317 29.0211 71.1268 29.0759 72.7641C29.1306 74.4015 29.1791 75.4896 29.1791 75.4896H29.1664Z" fill="#C7C6C6"/>
<path fillRule="evenodd" clipRule="evenodd" d="M65.173 31.1563C64.7616 31.1381 64.3474 31.1381 63.9304 31.1563C63.9304 31.1563 62.7909 31.2111 61.0997 31.3079C59.4085 31.4047 57.1759 31.5562 54.9918 31.7288C52.8077 31.9014 50.6658 32.1202 49.0946 32.2886C47.5234 32.457 46.4745 32.5706 46.4724 32.5706C46.4703 32.5706 46.2049 34.6373 45.83 37.8952C45.6426 39.5242 45.4425 41.5025 45.2466 43.6871C45.1476 44.7793 45.055 45.9284 44.9644 47.1112C44.8738 48.294 44.7917 49.5168 44.7159 50.7522C44.6401 51.9876 44.5727 53.2419 44.5053 54.4836C44.4379 55.7253 44.4 56.9586 44.362 58.1624C44.2862 60.5659 44.2462 62.8346 44.2441 64.7835C44.2441 68.6854 44.2799 71.2803 44.2799 71.2803C44.2799 71.2803 45.3751 71.3077 47.0537 71.3435C48.7323 71.3792 51.0217 71.4234 53.3869 71.4634C55.7522 71.5034 58.1785 71.5371 60.0256 71.5602L63.1237 71.5939C63.8065 71.5979 64.4888 71.5592 65.1667 71.4781C66.6333 71.2978 68.0679 70.9153 69.4296 70.3417C73.343 68.6881 76.4573 65.5754 78.1112 61.6645C78.9426 59.6858 79.3584 57.5576 79.3327 55.4117C79.3327 55.4117 79.2885 52.6421 79.2358 49.9251C79.1832 47.208 79.1221 44.5584 79.1221 44.5584C79.0747 42.6435 78.6127 40.7616 77.7678 39.0422C76.9543 37.3954 75.8168 35.9295 74.4233 34.732C73.0194 33.5273 71.4001 32.599 69.6507 31.9961C68.2053 31.4977 66.6945 31.2141 65.1667 31.1542L65.173 31.1563ZM65.173 78.0234C64.5243 78.0697 63.8707 78.0887 63.2122 78.0802C63.2122 78.0802 61.5694 78.0487 59.1452 77.9876C57.9362 77.9561 56.542 77.9161 55.0719 77.8698C53.6018 77.8235 52.0601 77.7646 50.5478 77.7035C49.0356 77.6425 47.5613 77.5752 46.207 77.5099C44.8528 77.4447 43.6165 77.3815 42.5823 77.3268C40.512 77.2132 39.1788 77.1353 39.1788 77.1353C39.1788 77.1353 39.1619 76.8133 39.1367 76.2198V55.8411C39.2125 54.2731 39.3031 52.6947 39.4126 51.1394C39.5221 49.5841 39.6464 48.0204 39.7811 46.5283C39.9159 45.0361 40.0634 43.5818 40.215 42.2265C40.3667 40.8711 40.5225 39.5663 40.6784 38.3667C40.8342 37.167 40.9859 36.0516 41.1333 35.0667C41.7251 31.1016 42.1464 28.6182 42.1464 28.6182C42.1464 28.6182 43.4101 28.4225 45.3519 28.1468C46.3229 28.0079 47.475 27.8542 48.7323 27.7006C49.9897 27.547 51.3461 27.387 52.734 27.2439C54.122 27.1008 55.5205 26.9724 56.8516 26.863C58.1827 26.7535 59.44 26.6525 60.5268 26.5915C62.7004 26.4526 64.1663 26.381 64.1663 26.381C64.5054 26.3684 64.8402 26.3642 65.1751 26.3684C66.1915 26.3745 67.2063 26.4504 68.2122 26.5957C69.5073 26.7821 70.7826 27.0864 72.0222 27.5049C73.2318 27.9145 74.4008 28.4352 75.5143 29.0602C76.6173 29.6765 77.659 30.3968 78.6251 31.2111C79.5924 32.0226 80.4777 32.927 81.2683 33.9112C82.0669 34.9059 82.7634 35.9783 83.3471 37.1123C83.944 38.2753 84.4169 39.4978 84.7582 40.7596C85.1121 42.0723 85.3239 43.4193 85.39 44.7772C85.39 44.7772 85.4975 47.408 85.6007 50.0997C85.6723 52.1854 85.7355 54.3089 85.7607 55.1508V56.8344C85.5985 60.8714 84.319 64.7843 82.0644 68.1382C79.6073 71.8207 76.1126 74.6924 72.0222 76.3903C70.6464 76.9626 69.216 77.3941 67.7531 77.6783C66.9006 77.8454 66.0391 77.9627 65.173 78.0297V78.0234Z" fill="#0D92D2"/>
<path d="M107.182 20.2398C107.182 21.3272 106.976 22.068 106.563 22.4623C106.15 22.8565 105.391 23.053 104.284 23.0516C103.196 23.0516 102.451 22.8593 102.048 22.4749C101.645 22.0905 101.443 21.3644 101.443 20.2967C101.443 19.2086 101.654 18.4699 102.062 18.0742C102.471 17.6785 103.233 17.4849 104.341 17.4849C105.449 17.4849 106.174 17.6764 106.578 18.0616C106.982 18.4467 107.182 19.1728 107.182 20.2398ZM106.648 54.0921C106.652 54.2271 106.613 54.3599 106.536 54.471C106.439 54.5905 106.313 54.6826 106.169 54.7382C105.944 54.8275 105.707 54.8842 105.466 54.9066C105.083 54.9489 104.697 54.9679 104.312 54.9634C103.936 54.9674 103.56 54.9484 103.187 54.9066C102.941 54.8827 102.7 54.826 102.469 54.7382C102.323 54.6879 102.196 54.5947 102.105 54.471C102.035 54.3572 102.001 54.2254 102.006 54.0921V28.7824C102.004 28.6542 102.038 28.5281 102.105 28.4183C102.192 28.2874 102.32 28.1885 102.469 28.1362C102.7 28.0494 102.941 27.9929 103.187 27.9679C103.56 27.9261 103.936 27.9071 104.312 27.9111C104.697 27.9066 105.083 27.9256 105.466 27.9679C105.707 27.9913 105.944 28.0479 106.169 28.1362C106.316 28.1942 106.442 28.2919 106.536 28.4183C106.609 28.5258 106.648 28.6526 106.648 28.7824V54.0921Z" fill="#0D92D2"/>
<path d="M137.035 54.0921C137.039 54.227 137 54.3598 136.923 54.4709C136.826 54.5904 136.7 54.6825 136.557 54.7382C136.331 54.8275 136.095 54.8842 135.853 54.9065C135.48 54.9484 135.104 54.9674 134.729 54.9634C134.343 54.9677 133.958 54.9488 133.574 54.9065C133.333 54.8839 133.096 54.8272 132.871 54.7382C132.728 54.6832 132.602 54.5909 132.507 54.4709C132.429 54.3601 132.389 54.2273 132.393 54.0921V39.2737C132.421 38.1026 132.308 36.9324 132.056 35.7885C131.861 34.9782 131.528 34.2077 131.07 33.5113C130.65 32.8791 130.068 32.3705 129.385 32.0381C128.642 31.6885 127.828 31.5156 127.007 31.533C125.845 31.533 124.682 31.9448 123.52 32.7684C122.357 33.592 121.138 34.8014 119.861 36.3967V54.0752C119.866 54.2102 119.826 54.343 119.75 54.4541C119.653 54.5735 119.526 54.6657 119.383 54.7213C119.158 54.8104 118.921 54.8671 118.68 54.8897C118.296 54.932 117.911 54.951 117.525 54.9465C117.15 54.9505 116.774 54.9315 116.401 54.8897C116.155 54.8658 115.913 54.8091 115.683 54.7213C115.537 54.671 115.41 54.5778 115.318 54.4541C115.249 54.3403 115.214 54.2085 115.219 54.0752V28.7823C115.215 28.6509 115.244 28.5205 115.303 28.4035C115.386 28.2785 115.503 28.1805 115.64 28.1214C115.845 28.0283 116.065 27.9713 116.289 27.9531C116.635 27.9217 116.982 27.9076 117.33 27.911C117.751 27.911 118.084 27.9257 118.355 27.9531C118.575 27.9674 118.79 28.0246 118.987 28.1214C119.116 28.1889 119.227 28.2855 119.312 28.4035C119.379 28.5179 119.413 28.6493 119.408 28.7823V32.1286C120.835 30.5361 122.256 29.3695 123.671 28.6286C124.994 27.9118 126.472 27.531 127.976 27.5195C129.661 27.5195 131.082 27.8058 132.239 28.3782C133.342 28.9104 134.302 29.6984 135.038 30.6764C135.774 31.6827 136.295 32.8286 136.571 34.0438C136.906 35.5639 137.061 37.1177 137.035 38.6739V54.0921Z" fill="#0D92D2"/>
<path d="M159.038 18.3836C159.042 18.6709 159.024 18.958 158.983 19.2423C158.955 19.4187 158.913 19.5925 158.857 19.7621C158.827 19.8689 158.762 19.9627 158.674 20.0294C158.588 20.0785 158.49 20.1025 158.391 20.0989C158.22 20.0891 158.053 20.0462 157.899 19.9726C157.703 19.8884 157.463 19.7958 157.182 19.6927C156.856 19.5764 156.521 19.4822 156.182 19.4107C155.743 19.3211 155.295 19.2787 154.847 19.2844C154.238 19.2673 153.633 19.3822 153.073 19.6211C152.584 19.848 152.173 20.2141 151.892 20.6734C151.559 21.2448 151.339 21.8751 151.245 22.5297C151.101 23.4456 151.035 24.3722 151.047 25.2993V28.0542H156.704C156.838 28.0502 156.969 28.0845 157.083 28.1531C157.204 28.2401 157.301 28.3559 157.366 28.4899C157.46 28.6806 157.526 28.8841 157.562 29.0939C157.612 29.3914 157.635 29.6929 157.631 29.9947C157.631 30.6702 157.547 31.1564 157.378 31.4679C157.32 31.5986 157.226 31.7101 157.106 31.7894C156.987 31.8688 156.848 31.9127 156.704 31.9161H151.047V54.0922C151.051 54.2272 151.012 54.3599 150.936 54.471C150.836 54.5925 150.705 54.6849 150.556 54.7383C150.326 54.8258 150.084 54.8825 149.838 54.9067C149.09 54.9825 148.335 54.9825 147.587 54.9067C147.342 54.8828 147.101 54.8261 146.871 54.7383C146.722 54.6854 146.59 54.593 146.489 54.471C146.413 54.3599 146.374 54.2272 146.378 54.0922V31.9077H142.797C142.653 31.9092 142.511 31.8673 142.39 31.7874C142.27 31.7075 142.176 31.5932 142.121 31.4594C141.972 31.1585 141.898 30.6723 141.898 29.9862C141.894 29.685 141.912 29.3839 141.953 29.0855C141.981 28.8774 142.038 28.6742 142.121 28.4815C142.18 28.3436 142.278 28.2264 142.404 28.1447C142.524 28.0772 142.66 28.043 142.797 28.0458H146.378V25.4424C146.351 23.9139 146.517 22.3881 146.871 20.9007C147.134 19.7663 147.648 18.705 148.374 17.7944C149.052 16.9868 149.93 16.3714 150.921 16.0097C152.082 15.6021 153.307 15.4067 154.537 15.433C155.179 15.4316 155.82 15.4929 156.45 15.6161C156.94 15.7017 157.421 15.8335 157.886 16.0097C158.131 16.0956 158.359 16.2239 158.56 16.3885C158.682 16.5136 158.778 16.6617 158.842 16.8241C158.923 17.0312 158.975 17.2487 158.996 17.4702C159.027 17.7737 159.041 18.0786 159.038 18.3836Z" fill="#0D92D2"/>
<path d="M177.554 30.4471C177.554 30.868 177.554 31.2047 177.524 31.4868C177.516 31.711 177.478 31.9331 177.412 32.1476C177.369 32.2834 177.298 32.4083 177.202 32.5138C177.155 32.5575 177.099 32.5912 177.039 32.6129C176.978 32.6346 176.914 32.6438 176.85 32.6401C176.661 32.6316 176.474 32.5888 176.3 32.5138C176.09 32.4275 175.841 32.3433 175.57 32.2591C175.298 32.175 174.992 32.095 174.655 32.0213C174.295 31.9431 173.927 31.905 173.558 31.9077C173.084 31.909 172.615 32.0049 172.179 32.1897C171.659 32.4218 171.18 32.7351 170.759 33.1178C170.181 33.6348 169.657 34.2095 169.196 34.833C168.653 35.5444 168.053 36.4157 167.396 37.447V54.0921C167.4 54.2271 167.361 54.3599 167.284 54.471C167.187 54.5905 167.061 54.6826 166.917 54.7382C166.692 54.8273 166.455 54.884 166.214 54.9066C165.831 54.9488 165.445 54.9678 165.06 54.9634C164.684 54.9674 164.308 54.9484 163.935 54.9066C163.689 54.8827 163.448 54.826 163.217 54.7382C163.071 54.6879 162.944 54.5947 162.853 54.471C162.783 54.3572 162.749 54.2254 162.754 54.0921V28.7824C162.749 28.651 162.778 28.5206 162.838 28.4035C162.92 28.2786 163.037 28.1805 163.175 28.1215C163.38 28.0284 163.599 27.9714 163.823 27.9531C164.169 27.9218 164.517 27.9077 164.864 27.9111C165.285 27.9111 165.618 27.9258 165.89 27.9531C166.109 27.9675 166.324 28.0247 166.521 28.1215C166.65 28.1889 166.761 28.2855 166.846 28.4035C166.914 28.5179 166.947 28.6494 166.943 28.7824V32.4675C167.53 31.5932 168.187 30.767 168.906 29.9967C169.427 29.4351 170.007 28.9307 170.635 28.4919C171.128 28.15 171.676 27.8932 172.254 27.7322C172.782 27.5933 173.326 27.5226 173.872 27.5217C174.114 27.5217 174.392 27.5364 174.702 27.5638C175.028 27.5954 175.353 27.6474 175.673 27.7195C175.982 27.7864 176.287 27.8708 176.587 27.9721C176.793 28.0334 176.989 28.1287 177.164 28.2541C177.258 28.325 177.335 28.4164 177.389 28.5214C177.432 28.6254 177.464 28.7332 177.486 28.8434C177.521 29.0316 177.539 29.2224 177.541 29.4137C177.541 29.6726 177.554 30.0156 177.554 30.4471Z" fill="#0D92D2"/>
<path d="M200.738 54.1194C200.744 54.2159 200.727 54.3124 200.688 54.4008C200.648 54.4891 200.588 54.5666 200.512 54.6266C200.326 54.7536 200.115 54.8397 199.893 54.8792C199.513 54.9451 199.127 54.9733 198.741 54.9634C198.35 54.9713 197.958 54.9431 197.572 54.8792C197.344 54.8485 197.127 54.7618 196.94 54.6266C196.872 54.5622 196.818 54.4832 196.784 54.3954C196.75 54.3077 196.735 54.2134 196.742 54.1194V51.5939C195.69 52.7334 194.436 53.6675 193.042 54.3488C191.697 55.0021 190.22 55.339 188.724 55.3338C187.499 55.3489 186.279 55.1735 185.108 54.8139C184.097 54.5041 183.159 53.9922 182.351 53.3092C181.584 52.6435 180.978 51.8132 180.578 50.8805C180.141 49.8491 179.926 48.7379 179.946 47.6184C179.913 46.3273 180.213 45.0494 180.818 43.908C181.418 42.8383 182.279 41.9382 183.322 41.292C184.554 40.5419 185.909 40.014 187.324 39.7325C189.072 39.3681 190.855 39.1938 192.642 39.2126H196.13V37.2448C196.142 36.3727 196.038 35.5028 195.82 34.6583C195.644 33.9631 195.301 33.3211 194.822 32.7873C194.329 32.2698 193.715 31.8835 193.036 31.6635C192.162 31.3893 191.249 31.2606 190.333 31.2825C189.292 31.269 188.254 31.4065 187.252 31.6908C186.433 31.9284 185.634 32.2296 184.862 32.5916C184.175 32.9199 183.603 33.2195 183.145 33.4902C182.684 33.7617 182.343 33.8985 182.117 33.8985C181.978 33.9014 181.84 33.8617 181.723 33.7849C181.599 33.698 181.498 33.5825 181.429 33.4482C181.334 33.2681 181.272 33.0729 181.245 32.8715C181.206 32.616 181.187 32.3577 181.188 32.0991C181.18 31.7262 181.213 31.3534 181.287 30.9879C181.369 30.6899 181.535 30.4218 181.766 30.2155C182.163 29.8743 182.602 29.5857 183.073 29.3568C183.762 29.0009 184.477 28.7004 185.213 28.4582C186.079 28.1735 186.964 27.9499 187.861 27.7889C188.813 27.6115 189.78 27.5214 190.748 27.5195C192.574 27.5195 194.118 27.7258 195.382 28.1383C196.545 28.4842 197.606 29.1067 198.476 29.9524C199.285 30.7838 199.874 31.8027 200.192 32.9178C200.571 34.2623 200.751 35.6548 200.727 37.0512L200.738 54.1194ZM196.123 42.5652H192.155C191.04 42.5477 189.927 42.6543 188.836 42.883C188.005 43.0551 187.213 43.379 186.5 43.8385C185.92 44.217 185.449 44.7409 185.135 45.358C184.835 45.9943 184.685 46.6917 184.699 47.3953C184.699 48.7085 185.121 49.7538 185.963 50.5311C186.806 51.3084 187.973 51.6971 189.466 51.6971C190.66 51.7033 191.832 51.3823 192.857 50.7689C193.897 50.153 194.989 49.2066 196.134 47.9298L196.123 42.5652Z" fill="#0D92D2"/>
<path d="M230.675 44.3922C230.698 45.9403 230.401 47.4765 229.803 48.9044C229.236 50.2267 228.38 51.4053 227.298 52.3539C226.124 53.3576 224.754 54.1085 223.276 54.5595C221.526 55.0983 219.704 55.3596 217.873 55.334C216.727 55.3404 215.583 55.2411 214.455 55.0372C213.497 54.8676 212.552 54.6328 211.626 54.3343C210.919 54.1122 210.232 53.8306 209.573 53.4924C209.21 53.3173 208.865 53.1058 208.545 52.8611C208.418 52.7472 208.309 52.6145 208.223 52.4675C208.139 52.3163 208.073 52.156 208.025 51.9898C207.961 51.7649 207.919 51.5345 207.899 51.3016C207.871 51.0301 207.856 50.6954 207.856 50.3019C207.856 49.6284 207.927 49.1598 208.067 48.896C208.114 48.781 208.194 48.6823 208.296 48.6123C208.399 48.5423 208.52 48.5041 208.644 48.5025C208.817 48.5025 209.158 48.654 209.668 48.9528C210.302 49.3146 210.958 49.6386 211.631 49.9231C212.541 50.3093 213.477 50.6335 214.432 50.8933C215.593 51.206 216.793 51.3576 217.996 51.3437C219.13 51.3632 220.261 51.202 221.344 50.8659C222.236 50.5859 223.061 50.126 223.768 49.5148C224.414 48.9494 224.918 48.2419 225.243 47.4481C225.576 46.6225 225.743 45.7392 225.734 44.8489C225.758 43.8905 225.548 42.9407 225.119 42.0828C224.691 41.2249 224.059 40.4851 223.278 39.9284C222.386 39.2866 221.38 38.8189 220.314 38.5499C219.007 38.2148 217.662 38.0541 216.313 38.0721H212.732C212.577 38.0729 212.423 38.0391 212.281 37.9732C212.129 37.9021 211.999 37.7908 211.905 37.6512C211.783 37.4706 211.694 37.2706 211.641 37.0598C211.566 36.7471 211.532 36.4259 211.54 36.1043C211.534 35.8067 211.562 35.5094 211.624 35.2183C211.667 35.0172 211.749 34.8263 211.864 34.6564C211.955 34.5261 212.075 34.4199 212.216 34.347C212.356 34.2793 212.51 34.2455 212.665 34.2481H215.845C216.975 34.2648 218.1 34.1036 219.179 33.7703C220.1 33.4885 220.953 33.0192 221.683 32.3918C222.362 31.8012 222.901 31.0663 223.259 30.2409C223.635 29.3572 223.823 28.4044 223.809 27.444C223.811 26.7112 223.687 25.9836 223.442 25.2931C223.209 24.6261 222.835 24.0174 222.345 23.5084C221.818 22.9763 221.179 22.568 220.474 22.313C219.632 22.0086 218.74 21.8609 217.844 21.8773C216.824 21.8659 215.81 22.0326 214.847 22.3698C214.012 22.6649 213.199 23.0164 212.412 23.4221C211.8 23.7357 211.209 24.0871 210.641 24.4744C210.17 24.8027 209.842 24.9669 209.655 24.9669C209.534 24.9693 209.414 24.9448 209.303 24.8953C209.188 24.8355 209.098 24.7361 209.051 24.6154C208.972 24.4271 208.924 24.2274 208.91 24.024C208.878 23.6924 208.864 23.3594 208.867 23.0264C208.867 22.7444 208.867 22.4961 208.895 22.2814C208.908 22.09 208.947 21.9011 209.009 21.7195C209.061 21.568 209.126 21.4215 209.204 21.2817C209.312 21.1122 209.44 20.9567 209.586 20.8187C209.92 20.526 210.283 20.2673 210.668 20.0463C211.31 19.6584 211.983 19.324 212.68 19.0466C213.573 18.6908 214.495 18.4134 215.437 18.2174C216.545 17.9857 217.674 17.8728 218.806 17.8807C220.314 17.8534 221.815 18.0716 223.252 18.5268C224.434 18.9051 225.522 19.5284 226.445 20.3557C227.294 21.1356 227.949 22.1027 228.358 23.1801C228.792 24.3442 229.006 25.5787 228.99 26.821C228.998 27.9016 228.846 28.9775 228.539 30.0137C228.113 31.461 227.288 32.7594 226.159 33.7608C225.03 34.7623 223.642 35.4263 222.153 35.6771V35.7276C223.347 35.8428 224.513 36.1617 225.599 36.6705C226.595 37.1356 227.504 37.7677 228.286 38.5393C229.052 39.3077 229.658 40.2203 230.068 41.2242C230.478 42.2282 230.685 43.3036 230.677 44.388L230.675 44.3922Z" fill="#0D92D2"/>
<path d="M267 36.0684C267 39.2183 266.597 41.969 265.791 44.3205C264.985 46.6721 263.808 48.6216 262.259 50.1692C260.658 51.7504 258.711 52.9391 256.572 53.6418C254.326 54.4092 251.643 54.7937 248.525 54.7951H240.816C240.371 54.7905 239.94 54.6372 239.593 54.3594C239.208 54.069 239.015 53.5583 239.015 52.8273V20.3808C239.015 19.6512 239.208 19.1405 239.593 18.8487C239.94 18.571 240.371 18.4176 240.816 18.413H249.06C252.211 18.413 254.874 18.8206 257.051 19.6358C259.118 20.3801 260.99 21.5816 262.527 23.1505C264.034 24.7352 265.176 26.6301 265.873 28.7024C266.626 30.8785 267.001 33.3339 267 36.0684ZM261.907 36.2663C261.922 34.4088 261.676 32.5584 261.176 30.7691C260.732 29.1572 259.95 27.6579 258.883 26.3705C257.81 25.1092 256.456 24.1172 254.93 23.4746C253.335 22.7801 251.28 22.4328 248.767 22.4328H243.845V50.7458H248.824C251.149 50.7458 253.109 50.4554 254.704 49.8745C256.242 49.3348 257.618 48.4162 258.706 47.2038C259.834 45.8969 260.656 44.3556 261.113 42.6916C261.643 40.8816 261.907 38.7399 261.907 36.2663Z" fill="#0D92D2"/>
<path d="M122.53 74.212C122.538 74.8508 122.461 75.4878 122.3 76.1061C122.169 76.6224 121.94 77.1089 121.627 77.5394C121.34 77.9264 120.965 78.2384 120.531 78.4486C120.067 78.6661 119.559 78.7741 119.046 78.7642C118.806 78.7666 118.565 78.7404 118.33 78.6864C118.105 78.6336 117.889 78.5508 117.686 78.4401C117.462 78.3163 117.251 78.1719 117.054 78.0087C116.82 77.8115 116.598 77.6007 116.389 77.3773V78.3686C116.389 78.4132 116.376 78.4571 116.353 78.4949C116.323 78.5342 116.282 78.5635 116.235 78.579C116.167 78.6037 116.096 78.6206 116.024 78.6295C115.921 78.6417 115.818 78.6473 115.715 78.6464C115.612 78.6471 115.509 78.6415 115.407 78.6295C115.335 78.6208 115.264 78.6038 115.196 78.579C115.151 78.566 115.112 78.5358 115.089 78.4949C115.07 78.4556 115.06 78.4123 115.062 78.3686V66.3472C115.061 66.3031 115.072 66.2595 115.093 66.2209C115.121 66.1794 115.162 66.1483 115.209 66.1325C115.283 66.104 115.36 66.0856 115.439 66.0778C115.558 66.0639 115.678 66.0576 115.799 66.0588C115.923 66.0574 116.046 66.0638 116.169 66.0778C116.246 66.0849 116.321 66.1034 116.393 66.1325C116.44 66.1496 116.481 66.1804 116.511 66.2209C116.534 66.2588 116.547 66.3026 116.546 66.3472V71.1877C116.762 70.9629 116.995 70.7553 117.244 70.5669C117.451 70.4058 117.673 70.2648 117.907 70.1459C118.113 70.0446 118.33 69.9676 118.554 69.9166C118.778 69.8676 119.008 69.8436 119.238 69.845C119.763 69.8289 120.283 69.9501 120.746 70.1965C121.156 70.4234 121.504 70.7453 121.763 71.1351C122.037 71.5574 122.231 72.0259 122.336 72.5178C122.465 73.0734 122.53 73.6418 122.53 74.212ZM120.99 74.3825C120.991 73.9786 120.96 73.5753 120.896 73.1766C120.842 72.8158 120.73 72.4662 120.565 72.1411C120.417 71.8519 120.2 71.6034 119.933 71.4171C119.647 71.2263 119.308 71.1306 118.964 71.1435C118.771 71.1439 118.579 71.1708 118.394 71.2235C118.191 71.2855 117.999 71.377 117.823 71.495C117.607 71.6372 117.406 71.7992 117.22 71.9791C116.982 72.2127 116.759 72.4623 116.555 72.7262V75.9567C116.894 76.3874 117.29 76.7703 117.732 77.0953C118.071 77.3445 118.48 77.4813 118.901 77.4868C119.242 77.4967 119.577 77.402 119.862 77.2153C120.131 77.0321 120.354 76.7875 120.51 76.5018C120.685 76.1902 120.812 75.8538 120.885 75.5042C120.957 75.1347 120.992 74.759 120.99 74.3825Z" fill="#C7C6C6"/>
<path d="M128.366 78.5938L127.286 81.5718C127.257 81.6244 127.218 81.6704 127.171 81.7067C127.123 81.743 127.068 81.7687 127.01 81.7822C126.792 81.8436 126.566 81.8699 126.34 81.8601C126.213 81.8616 126.087 81.8539 125.961 81.8369C125.883 81.828 125.807 81.8022 125.74 81.7612C125.716 81.7448 125.696 81.7233 125.681 81.6982C125.667 81.673 125.658 81.6449 125.656 81.616C125.653 81.5432 125.668 81.471 125.7 81.4055L126.816 78.5896C126.758 78.5614 126.706 78.5213 126.664 78.4717C126.619 78.423 126.585 78.3647 126.565 78.3012L123.674 70.5627C123.634 70.4683 123.61 70.368 123.602 70.2659C123.6 70.2339 123.606 70.2019 123.618 70.1724C123.631 70.1429 123.65 70.1165 123.674 70.0954C123.743 70.0458 123.825 70.016 123.91 70.0092C124.049 69.9933 124.19 69.9863 124.331 69.9881C124.509 69.9881 124.65 69.9923 124.752 70.0007C124.835 70.005 124.917 70.0221 124.994 70.0512C125.049 70.0691 125.095 70.1057 125.125 70.1544C125.158 70.213 125.187 70.2743 125.211 70.3375L127.528 76.8343H127.555L129.788 70.3101C129.808 70.2277 129.853 70.1539 129.918 70.0997C129.99 70.0606 130.068 70.0356 130.148 70.026C130.295 70.0093 130.443 70.0023 130.59 70.0049C130.731 70.0026 130.872 70.0096 131.012 70.026C131.098 70.0333 131.181 70.063 131.252 70.1123C131.277 70.133 131.296 70.1591 131.31 70.1887C131.323 70.2182 131.329 70.2504 131.328 70.2827C131.324 70.3749 131.306 70.4659 131.273 70.5521L128.366 78.5938Z" fill="#C7C6C6"/>
<path d="M138.847 67.5363C138.847 67.8835 138.779 68.1213 138.649 68.2455C138.436 68.3953 138.176 68.4626 137.918 68.4349C137.664 68.4617 137.41 68.396 137.202 68.2497C137.073 68.1277 137.01 67.8961 137.01 67.5531C137.01 67.21 137.075 66.968 137.208 66.8417C137.424 66.6951 137.686 66.6322 137.945 66.665C138.198 66.6375 138.452 66.7026 138.661 66.8481C138.788 66.9617 138.847 67.1932 138.847 67.5363ZM138.674 78.3686C138.676 78.4115 138.664 78.4539 138.638 78.4885C138.608 78.5273 138.568 78.5571 138.522 78.5748C138.45 78.6027 138.374 78.6211 138.297 78.6295C138.174 78.6417 138.051 78.6473 137.928 78.6464C137.808 78.6473 137.688 78.6417 137.568 78.6295C137.49 78.621 137.412 78.6026 137.339 78.5748C137.291 78.5594 137.25 78.5292 137.221 78.4885C137.198 78.4526 137.187 78.4108 137.189 78.3686V70.2701C137.189 70.2294 137.2 70.1893 137.221 70.1544C137.249 70.1117 137.29 70.0798 137.339 70.0639C137.412 70.0361 137.49 70.0177 137.568 70.0092C137.688 69.997 137.808 69.9914 137.928 69.9923C138.051 69.9914 138.174 69.997 138.297 70.0092C138.374 70.0176 138.45 70.036 138.522 70.0639C138.569 70.0822 138.609 70.1137 138.638 70.1544C138.662 70.1881 138.675 70.2287 138.674 70.2701V78.3686Z" fill="#C7C6C6"/>
<path d="M150.397 77.954C150.4 78.0588 150.38 78.1631 150.338 78.2591C150.301 78.34 150.247 78.4118 150.18 78.4696C150.118 78.5213 150.046 78.5606 149.969 78.5854C149.891 78.6094 149.809 78.6215 149.727 78.6211H149.215C149.073 78.6236 148.932 78.6074 148.794 78.5727C148.668 78.5371 148.551 78.4754 148.451 78.3917C148.326 78.289 148.217 78.1701 148.124 78.0381C147.996 77.8543 147.88 77.6616 147.779 77.4615L144.224 70.8405C144.038 70.4967 143.851 70.1382 143.663 69.765C143.474 69.3904 143.299 69.0242 143.135 68.6706H143.118C143.118 69.1021 143.139 69.544 143.145 69.9944C143.151 70.4448 143.145 70.891 143.145 71.335V78.3602C143.145 78.4038 143.132 78.4464 143.107 78.4822C143.076 78.5263 143.031 78.5583 142.979 78.5727C142.901 78.5971 142.821 78.6154 142.741 78.6274C142.492 78.6555 142.24 78.6555 141.991 78.6274C141.912 78.616 141.833 78.5977 141.757 78.5727C141.707 78.5572 141.664 78.5253 141.635 78.4822C141.61 78.4464 141.597 78.4038 141.597 78.3602V67.6268C141.588 67.5305 141.603 67.4336 141.639 67.3442C141.676 67.2548 141.734 67.1755 141.808 67.1132C141.935 67.015 142.091 66.9617 142.252 66.9617H143C143.151 66.9587 143.303 66.9735 143.451 67.0059C143.568 67.0339 143.679 67.0847 143.777 67.1553C143.884 67.2358 143.978 67.3323 144.055 67.4416C144.16 67.5897 144.254 67.7452 144.337 67.9067L147.075 73.0166C147.244 73.3281 147.406 73.6326 147.562 73.93C147.718 74.2274 147.869 74.52 148.015 74.8076L148.436 75.6494C148.576 75.9301 148.717 76.2107 148.857 76.4913C148.844 76.0177 148.838 75.5253 148.834 75.0181C148.83 74.5109 148.834 74.0121 148.834 73.5449V67.2311C148.835 67.1763 148.858 67.1242 148.897 67.0859C148.931 67.0439 148.975 67.0113 149.026 66.9912C149.102 66.96 149.182 66.9402 149.264 66.9322C149.392 66.92 149.52 66.9143 149.649 66.9154C149.769 66.9148 149.889 66.9205 150.009 66.9322C150.091 66.9395 150.171 66.9594 150.247 66.9912C150.296 67.0118 150.339 67.0444 150.371 67.0859C150.395 67.1207 150.407 67.1618 150.407 67.2037L150.397 77.954Z" fill="#C7C6C6"/>
<path d="M160.86 74.2289C160.866 74.8462 160.778 75.4608 160.599 76.0515C160.44 76.5781 160.175 77.0666 159.819 77.4868C159.466 77.8952 159.022 78.2164 158.524 78.4254C157.952 78.6609 157.338 78.7763 156.719 78.7643C156.124 78.777 155.532 78.6763 154.975 78.4675C154.501 78.2848 154.077 77.9902 153.741 77.6089C153.398 77.2089 153.145 76.7393 153.002 76.2325C152.832 75.6358 152.75 75.0175 152.759 74.3973C152.753 73.7804 152.839 73.1661 153.014 72.5747C153.171 72.0489 153.435 71.561 153.789 71.1415C154.142 70.7331 154.585 70.4125 155.083 70.2049C155.657 69.9725 156.272 69.8593 156.892 69.8724C157.486 69.8598 158.077 69.9605 158.634 70.1691C159.109 70.3539 159.534 70.6498 159.872 71.032C160.214 71.4329 160.467 71.9021 160.613 72.4084C160.785 72.9997 160.868 73.6132 160.86 74.2289ZM159.32 74.3278C159.322 73.9108 159.282 73.4947 159.198 73.0861C159.126 72.7229 158.989 72.3757 158.794 72.0612C158.605 71.7661 158.342 71.5259 158.031 71.3645C157.658 71.1817 157.246 71.0935 156.831 71.1078C156.438 71.0974 156.048 71.1773 155.691 71.3414C155.378 71.4926 155.108 71.7198 154.906 72.0022C154.69 72.3076 154.534 72.6511 154.446 73.0145C154.343 73.4323 154.293 73.8616 154.297 74.292C154.294 74.7118 154.335 75.1308 154.419 75.5422C154.49 75.9057 154.628 76.2527 154.828 76.565C155.02 76.857 155.284 77.0953 155.594 77.2574C155.961 77.423 156.358 77.5104 156.76 77.5141C157.162 77.5177 157.561 77.4374 157.93 77.2784C158.244 77.1294 158.516 76.9035 158.72 76.6218C158.936 76.3194 159.09 75.9776 159.175 75.6158C159.275 75.194 159.324 74.7614 159.32 74.3278Z" fill="#C7C6C6"/>
<path d="M169.611 70.2533C169.613 70.2785 169.613 70.3038 169.611 70.329C169.609 70.358 169.604 70.3869 169.599 70.4153C169.599 70.4448 169.584 70.4785 169.575 70.5142C169.567 70.55 169.556 70.5879 169.544 70.63L166.78 78.3223C166.759 78.3818 166.727 78.4368 166.686 78.4843C166.637 78.5322 166.577 78.5663 166.511 78.5832C166.414 78.6116 166.313 78.6285 166.212 78.6338C166.091 78.6422 165.942 78.6464 165.763 78.6464C165.582 78.6464 165.433 78.6464 165.312 78.6295C165.213 78.6205 165.115 78.6022 165.02 78.5748C164.954 78.5564 164.894 78.5225 164.845 78.4759C164.801 78.4326 164.767 78.3801 164.746 78.3223L161.989 70.63C161.965 70.5585 161.946 70.4953 161.932 70.4406C161.919 70.4017 161.909 70.3615 161.905 70.3206C161.903 70.2982 161.903 70.2757 161.905 70.2533C161.903 70.2084 161.915 70.1642 161.941 70.127C161.97 70.086 162.012 70.0557 162.061 70.0407C162.134 70.0172 162.209 70.0037 162.286 70.0007C162.381 70.0007 162.497 70.0007 162.633 70.0007C162.808 70.0007 162.947 70.0007 163.055 70.0134C163.138 70.0169 163.219 70.034 163.297 70.0639C163.346 70.0816 163.39 70.1121 163.423 70.1523C163.454 70.1941 163.479 70.2393 163.499 70.287L165.786 76.9648L165.822 77.0722L165.85 76.9648L168.109 70.287C168.12 70.2379 168.142 70.1918 168.173 70.1523C168.208 70.1125 168.253 70.0822 168.303 70.0639C168.378 70.0346 168.457 70.0175 168.537 70.0134C168.635 70.0049 168.766 70.0007 168.929 70.0007C169.068 70.0007 169.182 70.0007 169.272 70.0007C169.344 70.0033 169.416 70.0183 169.483 70.0449C169.526 70.0633 169.563 70.0931 169.59 70.1312C169.609 70.1691 169.616 70.2114 169.611 70.2533Z" fill="#C7C6C6"/>
<path d="M172.952 67.5363C172.952 67.8836 172.887 68.1214 172.754 68.2456C172.543 68.3963 172.283 68.4638 172.025 68.435C171.772 68.4618 171.517 68.396 171.309 68.2498C171.181 68.1277 171.115 67.8962 171.115 67.5532C171.115 67.2101 171.183 66.9681 171.313 66.8418C171.526 66.6935 171.786 66.627 172.044 66.6545C172.296 66.6276 172.55 66.6926 172.758 66.8376C172.889 66.9618 172.952 67.1933 172.952 67.5363ZM172.781 78.3687C172.783 78.4115 172.77 78.4536 172.745 78.4886C172.715 78.5274 172.675 78.5572 172.63 78.5749C172.557 78.6028 172.481 78.6212 172.404 78.6296C172.281 78.6418 172.157 78.6474 172.034 78.6465C171.913 78.6473 171.793 78.6416 171.673 78.6296C171.595 78.6208 171.518 78.6025 171.444 78.5749C171.397 78.559 171.357 78.5288 171.328 78.4886C171.306 78.4527 171.295 78.4109 171.296 78.3687V70.2702C171.296 70.2295 171.307 70.1894 171.328 70.1545C171.356 70.1124 171.396 70.0806 171.444 70.064C171.518 70.0364 171.595 70.018 171.673 70.0092C171.793 69.9972 171.913 69.9916 172.034 69.9924C172.157 69.9914 172.281 69.9971 172.404 70.0092C172.481 70.0177 172.557 70.0361 172.63 70.064C172.676 70.0823 172.716 70.1137 172.745 70.1545C172.768 70.1887 172.781 70.229 172.781 70.2702V78.3687Z" fill="#C7C6C6"/>
<path d="M179.742 77.7751C179.745 77.9163 179.733 78.0574 179.706 78.196C179.691 78.2796 179.653 78.3574 179.596 78.4212C179.535 78.4786 179.464 78.5242 179.386 78.5559C179.28 78.6015 179.17 78.636 179.057 78.659C178.933 78.6864 178.802 78.7095 178.666 78.7264C178.526 78.7452 178.385 78.7543 178.244 78.7537C177.877 78.7624 177.511 78.7061 177.164 78.5875C176.879 78.4864 176.625 78.313 176.427 78.0845C176.221 77.8367 176.077 77.5439 176.005 77.23C175.912 76.8301 175.868 76.4201 175.875 76.0093V71.2698H174.74C174.694 71.2679 174.651 71.2533 174.613 71.2276C174.576 71.2019 174.547 71.1662 174.529 71.1246C174.464 70.9779 174.436 70.8175 174.447 70.6574C174.446 70.5607 174.454 70.4642 174.47 70.369C174.481 70.3022 174.501 70.2371 174.529 70.1754C174.548 70.1306 174.58 70.093 174.622 70.0681C174.662 70.047 174.707 70.0362 174.752 70.0365H175.879V68.1108C175.879 68.0701 175.89 68.03 175.911 67.9951C175.939 67.9528 175.979 67.9198 176.027 67.9004C176.1 67.8692 176.177 67.8493 176.256 67.8414C176.376 67.8275 176.496 67.8212 176.616 67.8225C176.74 67.821 176.864 67.8273 176.987 67.8414C177.065 67.849 177.141 67.8689 177.212 67.9004C177.258 67.9216 177.298 67.9542 177.328 67.9951C177.351 68.0293 177.364 68.0696 177.364 68.1108V70.0323H179.436C179.481 70.0318 179.525 70.0448 179.563 70.0695C179.601 70.0943 179.63 70.1297 179.647 70.1712C179.678 70.2318 179.698 70.2973 179.706 70.3648C179.72 70.4603 179.726 70.5567 179.725 70.6532C179.736 70.8133 179.708 70.9736 179.643 71.1204C179.625 71.1618 179.595 71.1974 179.558 71.223C179.521 71.2487 179.477 71.2634 179.432 71.2656H177.351V75.782C177.325 76.2173 177.41 76.652 177.6 77.0448C177.764 77.3254 178.06 77.4657 178.487 77.4657C178.611 77.4669 178.734 77.4528 178.855 77.4236C178.963 77.3963 179.066 77.3689 179.144 77.3394C179.222 77.31 179.3 77.2805 179.354 77.2531C179.404 77.2285 179.459 77.2148 179.514 77.2132C179.544 77.2126 179.574 77.2199 179.601 77.2342C179.631 77.2546 179.654 77.2852 179.664 77.3205C179.683 77.3759 179.696 77.433 179.704 77.491C179.725 77.5844 179.738 77.6794 179.742 77.7751Z" fill="#C7C6C6"/>
<path d="M187.583 78.3771C187.585 78.4079 187.58 78.4388 187.568 78.467C187.555 78.4953 187.536 78.52 187.512 78.5392C187.452 78.5799 187.385 78.6072 187.314 78.6191C187.192 78.6408 187.069 78.65 186.945 78.6465C186.82 78.6492 186.694 78.64 186.57 78.6191C186.494 78.6115 186.422 78.5839 186.36 78.5392C186.338 78.5182 186.321 78.4929 186.31 78.465C186.3 78.437 186.295 78.4071 186.296 78.3771V77.5668C185.964 77.9317 185.566 78.2315 185.123 78.4508C184.693 78.6601 184.22 78.7681 183.742 78.7665C183.35 78.7709 182.96 78.7148 182.585 78.6002C182.262 78.501 181.961 78.3371 181.703 78.1182C181.457 77.9065 181.263 77.6416 181.134 77.3437C180.99 77.0118 180.919 76.6531 180.924 76.2915C180.913 75.8783 181.01 75.4695 181.204 75.1045C181.395 74.7605 181.67 74.4707 182.004 74.2626C182.397 74.0219 182.83 73.8523 183.283 73.7617C183.842 73.6461 184.413 73.5904 184.984 73.5955H186.101V72.9641C186.105 72.6852 186.072 72.4069 186.002 72.137C185.945 71.9141 185.835 71.7082 185.681 71.5372C185.524 71.372 185.328 71.2484 185.111 71.1773C184.831 71.0907 184.54 71.0502 184.247 71.0573C183.913 71.0523 183.58 71.0962 183.259 71.1878C182.998 71.2639 182.742 71.3596 182.495 71.474C182.284 71.5793 182.093 71.6845 181.945 71.7624C181.848 71.8319 181.735 71.8767 181.617 71.8929C181.572 71.8947 181.527 71.8822 181.49 71.8571C181.45 71.8299 181.419 71.7929 181.397 71.7497C181.366 71.6923 181.346 71.6295 181.339 71.5646C181.325 71.4831 181.319 71.4008 181.32 71.3183C181.317 71.1989 181.327 71.0796 181.351 70.9626C181.377 70.8667 181.431 70.7805 181.505 70.7143C181.633 70.6054 181.775 70.5135 181.926 70.4407C182.146 70.3257 182.375 70.2293 182.611 70.1524C182.887 70.0637 183.168 69.9934 183.453 69.9419C183.759 69.8855 184.07 69.8574 184.382 69.8577C184.881 69.8474 185.378 69.9142 185.856 70.0556C186.228 70.1663 186.568 70.3656 186.846 70.6364C187.106 70.9022 187.294 71.2284 187.396 71.5856C187.517 72.0155 187.574 72.4608 187.566 72.9073L187.583 78.3771ZM186.109 74.6793H184.845C184.491 74.6746 184.138 74.7092 183.792 74.7825C183.526 74.8371 183.273 74.9406 183.045 75.0876C182.86 75.2095 182.71 75.377 182.609 75.5738C182.513 75.7778 182.465 76.001 182.47 76.2262C182.46 76.4124 182.491 76.5984 182.561 76.7716C182.63 76.9448 182.735 77.1011 182.87 77.2301C183.181 77.4942 183.583 77.6276 183.99 77.6026C184.372 77.6048 184.747 77.5022 185.075 77.3059C185.469 77.0571 185.824 76.7514 186.128 76.3988L186.109 74.6793Z" fill="#C7C6C6"/>
<path d="M195.399 76.163C195.406 76.5445 195.328 76.9228 195.169 77.27C195.019 77.5904 194.796 77.8709 194.517 78.0887C194.216 78.3204 193.873 78.4919 193.508 78.5938C193.089 78.7113 192.656 78.7687 192.221 78.7642C191.945 78.7649 191.669 78.7424 191.397 78.6969C191.159 78.6561 190.924 78.5992 190.694 78.5264C190.513 78.4698 190.337 78.3995 190.167 78.316C190.055 78.2582 189.95 78.1876 189.853 78.1055C189.782 78.037 189.731 77.9493 189.708 77.8529C189.675 77.7088 189.66 77.561 189.664 77.4131C189.663 77.3167 189.669 77.2204 189.681 77.1248C189.69 77.0602 189.705 76.9967 189.727 76.9353C189.739 76.8931 189.766 76.8566 189.803 76.8322C189.837 76.8111 189.877 76.8001 189.917 76.8006C190.022 76.8161 190.122 76.8581 190.207 76.9227C190.338 77.0027 190.496 77.0911 190.685 77.1879C190.902 77.2935 191.127 77.3822 191.357 77.4531C191.647 77.5376 191.947 77.578 192.248 77.573C192.479 77.5762 192.709 77.5493 192.933 77.4931C193.122 77.4451 193.302 77.3647 193.463 77.2552C193.611 77.1521 193.73 77.014 193.811 76.8533C193.895 76.6737 193.936 76.4769 193.931 76.2787C193.935 76.0771 193.875 75.8794 193.758 75.7147C193.631 75.547 193.474 75.4043 193.295 75.2938C193.089 75.1672 192.872 75.0601 192.646 74.9739L191.903 74.6813C191.647 74.5798 191.398 74.4639 191.155 74.3341C190.917 74.2078 190.697 74.0492 190.502 73.8626C190.307 73.6719 190.15 73.4463 190.039 73.1976C189.916 72.904 189.856 72.5877 189.864 72.2695C189.863 71.9556 189.926 71.6448 190.049 71.3561C190.174 71.0634 190.362 70.8024 190.601 70.5921C190.873 70.359 191.187 70.1803 191.526 70.066C191.942 69.9262 192.378 69.8592 192.817 69.8681C193.034 69.8679 193.251 69.8855 193.466 69.9207C193.663 69.9539 193.859 69.9996 194.051 70.0575C194.204 70.1024 194.353 70.1609 194.495 70.2322C194.593 70.2794 194.687 70.3351 194.776 70.3985C194.825 70.4327 194.868 70.4755 194.902 70.5248C194.924 70.5625 194.939 70.6038 194.946 70.6468C194.946 70.691 194.965 70.7458 194.974 70.8131C194.983 70.8934 194.987 70.9743 194.986 71.0551C194.987 71.1437 194.983 71.2322 194.974 71.3203C194.968 71.3839 194.953 71.4463 194.929 71.5055C194.914 71.5467 194.887 71.5825 194.851 71.6086C194.823 71.6293 194.788 71.6404 194.752 71.6402C194.667 71.6276 194.587 71.5935 194.519 71.5413C194.392 71.4618 194.26 71.3914 194.123 71.3308C193.937 71.2468 193.746 71.1765 193.55 71.1204C193.306 71.0514 193.053 71.0181 192.8 71.0215C192.574 71.0181 192.35 71.0472 192.132 71.1077C191.96 71.1542 191.799 71.2367 191.661 71.3498C191.54 71.4488 191.443 71.574 191.378 71.716C191.314 71.8641 191.282 72.024 191.284 72.1853C191.277 72.3963 191.341 72.6036 191.465 72.7746C191.594 72.9421 191.752 73.0847 191.932 73.1955C192.14 73.3236 192.361 73.4314 192.589 73.5175L193.337 73.8206C193.592 73.9216 193.845 74.031 194.093 74.1615C194.335 74.2819 194.557 74.4364 194.755 74.6203C194.95 74.8042 195.108 75.0244 195.22 75.2685C195.343 75.5503 195.404 75.8554 195.399 76.163Z" fill="#C7C6C6"/>
</g>
<defs>
<clipPath id="clip0_101_6">
<rect width="267" height="92" fill="white"/>
</clipPath>
</defs>
</svg>
