<?xml version="1.0" encoding="UTF-8" standalone="no"?>
<!-- Created with Inkscape (http://www.inkscape.org/) -->
<svg
   xmlns:svg="http://www.w3.org/2000/svg"
   xmlns="http://www.w3.org/2000/svg"
   version="1.0"
   width="600"
   height="600"
   id="svg2">
  <defs
     id="defs5" />
  <path
     d="M 3.2256306,500.60601 C 3.2256306,491.25372 43.758136,444.29477 93.297856,396.25279 C 142.83758,348.21081 190.58002,301.56316 199.39218,292.59134 C 208.20433,283.61953 199.05159,231.54121 179.05273,176.86176 C 137.62307,63.587785 133.84657,25.920941 162.44557,11.22195 C 201.53416,-8.8683761 255.17957,20.811156 300.20945,87.440355 L 345.82828,154.94098 L 431.49626,85.021183 C 487.8258,39.04656 528.03591,18.570758 548.9095,25.231984 C 590.2087,38.411479 614.04278,89.982978 582.83295,98.634538 C 547.40845,108.45442 400.79201,294.00339 401.07018,328.6626 C 401.20186,345.07435 422.03434,388.63634 447.36457,425.46705 C 465.23081,451.44496 489.24604,471.94435 479.71274,486.03505 L 428.75193,561.35761 C 418.86818,575.96632 382.36042,537.01753 339.11325,499.2103 L 263.67191,433.25848 L 180.03742,515.74309 C 134.03845,561.10962 91.093734,597.99391 84.60471,597.70816 C 78.115704,597.42239 3.2256306,509.95831 3.2256306,500.60601 z"
     id="X"
     style="fill:#f60000;fill-opacity:1;stroke:none;stroke-width:2;stroke-linejoin:round;stroke-miterlimit:4;stroke-dasharray:none;stroke-opacity:1" />
</svg>
