<?xml version="1.0" encoding="utf-8"?>
<!-- Generator: Adobe Illustrator 19.1.1, SVG Export Plug-In . SVG Version: 6.00 Build 0)  -->
<svg version="1.1" id="Layer_1" xmlns="http://www.w3.org/2000/svg" xmlns:xlink="http://www.w3.org/1999/xlink" x="0px" y="0px"
	 viewBox="0 0 155.5 30.8" style="enable-background:new 0 0 155.5 30.8;" xml:space="preserve">
<style type="text/css">
	.st0{fill-rule:evenodd;clip-rule:evenodd;}
	.st1{opacity:0.851;fill-rule:evenodd;clip-rule:evenodd;}
	.st2{opacity:0.851;}
</style>
<g>
	<path d="M130,18.1c0,0.9,0,1.7,0,2.5c0,0.2-0.1,0.6-0.3,0.7c-1.3,1-2.6,2.1-4,3.1c-0.5,0.4-1.2,0.3-1.6-0.2
		c-0.3-0.4-0.2-1.1,0.2-1.5c0.9-0.7,1.8-1.4,2.6-2.1c0.2-0.2,0.4-0.6,0.4-0.8c0-1.3,0-2.5-0.1-3.8c-0.1-1.2,0.4-2.2,0.8-3.3
		c0.2-0.7,0.5-1.4,0.9-2.1c0.5-1.1,1.9-1.8,3.2-0.8c0.7,0.5,0.7,1.3,0.4,2.2c-0.3,0.8-0.3,0.9,0.5,0.9c0.6,0,1.2,0.1,1.7,0
		c1.4-0.2,2.4,0.4,3.4,1.2c1.3,0.9,2.6,1.7,3.8,2.6c1.7,1.1,3.3,2.3,5,3.5c0.4,0.3,0.6,0.8,0.8,1.2c0.1,0.2,0.2,0.4,0.4,0.5
		c0.5,0.4,0.7,1,0.5,1.6c-0.2,0.6-0.5,1-1.2,1.1c-1.2,0.3-2,0-2.5-0.9c-0.4-0.8,0.1-1.9,1-2.2c0.3-0.1,0.7-0.3,0.7-0.4
		c-0.1-0.4-0.5-0.6-0.9-0.5c-0.6,0.1-1.3,0.3-1.9,0.5c-0.7,0.2-1.4,0.4-2.2,0c-0.1-0.1-0.4,0-0.4,0.1c-0.1,0.2-0.1,0.5,0,0.7
		c0.1,0.3,0.5,0.6,0.5,1c0.2,0.9-0.3,1.5-1.3,1.8c-1,0.3-1.9,0-2.4-0.9c-0.4-0.8,0.1-1.9,0.9-2.2c0,0,0,0,0.1,0
		c1.2,0,1.5-0.9,1.9-1.8c0.1-0.2-0.1-0.5-0.2-0.8c-0.3-0.7-0.7-1.4-0.8-2.2c-0.2-0.7-0.8-1-1.3-1.4c-0.5-0.4-1.2-0.7-1.7-1.1
		c-0.3-0.2-0.4-0.2-0.7,0c-0.2,0.2-0.5,0.4-0.8,0.4c-1.1,0-2.2,0.1-3.3,0c-0.6,0-0.8,0.4-0.8,0.8c0,0.2,0.2,0.6,0.5,0.8
		c0.9,0.6,1.9,1.1,2.8,1.8c0.3,0.2,0.6,0.8,0.6,1.2c0.1,1.5,0,3,0,4.4c0,0.6-0.6,1.2-1.2,1.2c-0.6,0-1.1-0.6-1.1-1.2
		c0-1.2,0-2.5,0-3.7c0-0.3-0.1-0.5-0.4-0.7C131.7,18.9,130.9,18.5,130,18.1z M140.5,23.1c0-0.4-0.3-0.4-0.6-0.4
		c-0.3,0-0.7,0-0.7,0.5c0,0.5,0.4,0.5,0.7,0.5C140.3,23.7,140.5,23.5,140.5,23.1z M147,22.5c-0.5,0.2-0.8,0.1-0.9,0.6
		c0,0.5,0.3,0.6,0.7,0.6c0.4,0,0.7-0.1,0.6-0.6C147.4,22.9,147.2,22.7,147,22.5z"/>
	<path d="M132.2,6c1.3,0,2,0.7,2,1.7c0,1.1-1.7,2-2.5,1.6c-0.4-0.2-0.8-0.4-1.1-0.8c-0.3-0.4-0.5-0.9-0.2-1.4
		C130.8,6.2,131.2,6,132.2,6z"/>
	<path d="M145.6,18.9c0.9-0.7,1.5-0.7,2.3-0.1c0.6,0.4,1.2,0.8,1.9,1.3c0.3,0.2,0.5,0.5,0.3,0.8c-0.2,0.3-0.5,0.6-0.9,0.3
		C148,20.4,146.9,19.7,145.6,18.9z"/>
	<path d="M140.8,15.6c0.4-0.9,0.9-1.3,1.8-1.3c0.6,0.1,1.3,0.7,1.4,1.2c0.1,0.4-0.3,1.1-0.8,1.3c-0.1,0.1-0.4,0.1-0.5,0
		C142.1,16.5,141.5,16,140.8,15.6z"/>
</g>
<g>
	<path d="M60.2,6.6c1.2,1.6,1.3,2.3,0.2,3c-1.1,0.6-2.1,0.5-2.8-0.6c-0.8-1.2,0.4-1.7,1-2.4C59.1,6.6,59.6,6.6,60.2,6.6z"/>
	<path d="M59.5,25c0-2.6,0-5.1,0-8.1c-0.8,0.4-1.3,0.7-2.2,1.2c1.5-2.1-0.3-3.2-0.7-4.7c-0.8,1.6-1.9,3-1.5,5.2
		c0.4,1.6,0,3.4-0.3,5.1c-0.1,0.4-1,0.7-1.5,1.1c-0.1-0.5-0.4-1.1-0.3-1.6c0.5-2.4,0.4-4.6-0.7-6.9c-1.3-2.8,1.3-7.1,4.4-7
		c0.4,0,0.9,0.8,1.1,1.3c0.6,1.7,1.1,3.5,1.7,5.2c0.3,0.9,0.6,1.7,0.6,2.6c0.1,2.2,0,4.5,0,6.7C59.9,25,59.7,25,59.5,25z"/>
</g>
<g>
	<path d="M82.8,20.5c0.3-0.5,0.5-1.1,0.8-1.6c0.3-0.5,0.6-1,1-1.5c-0.5,0-0.9-0.1-1.4-0.1c0-0.4-0.1-0.9-0.1-1.5c3.6,0,7.1,0,11,0
		c-0.3,0.7-0.7,1.1-0.8,1.6c-0.2,0.6-0.4,1.4-0.2,1.9c0.8,2.1,3.5,2.3,4.9,0.6c0.1-0.1,0.1-0.2,0.2-0.2c3.1-1.7,1.3-4.4,1.1-6.6
		c0-0.4-1.4-0.6-2.1-0.9c1.9-0.8,3.1-0.5,3.7,0.9c0.5,0,1,0.1,1.6,0.1c0.1,0.5,0.3,1,0.3,1.2c-0.5,0.7-1.1,1.2-1.1,1.7
		c0.1,0.8,0.3,1.7,1.6,1.8c0.8,0.1,1.6,0.8,2.2,1.4c-5.2-0.5-6.3-0.1-7.1,3c-5.2,0-10.5,0-15.7,0C82.8,21.6,82.8,21,82.8,20.5z"/>
	<path d="M102.5,19.5c1.6,0,3.1,1.4,3,2.9c-0.1,1.4-1.6,2.7-3.1,2.7c-1.5,0-3.1-1.5-3.1-2.9C99.5,20.7,100.9,19.5,102.5,19.5z"/>
	<path d="M90.9,22.9c-0.4,1.5-1.5,2-2.6,2.1c-1.5,0.2-2.4-0.8-3.4-2.1C87,22.9,88.9,22.9,90.9,22.9z"/>
</g>
<path class="st0" d="M100.2,12.7c0-0.3,0.3-0.6,0.6-0.6h2.6c0.3,0,0.6,0.3,0.6,0.6V15c0,0.3-0.3,0.6-0.6,0.6h-2.6
	c-0.3,0-0.6-0.3-0.6-0.6V12.7z"/>
<path d="M100.2,12.7c0-0.3,0.3-0.6,0.6-0.6h2.6c0.3,0,0.6,0.3,0.6,0.6V15c0,0.3-0.3,0.6-0.6,0.6h-2.6c-0.3,0-0.6-0.3-0.6-0.6V12.7z"
	/>
<path class="st0" d="M88.5,10.3c0-0.4,0.3-0.7,0.7-0.7h2.7c0.4,0,0.7,0.3,0.7,0.7V14c0,0.4-0.3,0.7-0.7,0.7h-2.7
	c-0.4,0-0.7-0.3-0.7-0.7V10.3z"/>
<path d="M88.5,10.3c0-0.4,0.3-0.7,0.7-0.7h2.7c0.4,0,0.7,0.3,0.7,0.7V14c0,0.4-0.3,0.7-0.7,0.7h-2.7c-0.4,0-0.7-0.3-0.7-0.7V10.3z"
	/>
<path class="st1" d="M89,7c0-0.7,0.6-1.3,1.4-1.3c0.8,0,1.4,0.6,1.4,1.3c0,0.7-0.6,1.3-1.4,1.3C89.6,8.3,89,7.7,89,7L89,7z"/>
<path class="st2" d="M89,7c0-0.7,0.6-1.3,1.4-1.3c0.8,0,1.4,0.6,1.4,1.3c0,0.7-0.6,1.3-1.4,1.3C89.6,8.3,89,7.7,89,7L89,7z"/>
<path class="st0" d="M89.7,13.3c0-0.1,0.1-0.3,0.3-0.3h6.2c0.1,0,0.3,0.1,0.3,0.3v1c0,0.1-0.1,0.3-0.3,0.3h-6.2
	c-0.1,0-0.3-0.1-0.3-0.3V13.3z"/>
<path d="M89.7,13.3c0-0.1,0.1-0.3,0.3-0.3h6.2c0.1,0,0.3,0.1,0.3,0.3v1c0,0.1-0.1,0.3-0.3,0.3h-6.2c-0.1,0-0.3-0.1-0.3-0.3V13.3z"/>
<path class="st0" d="M94.6,13.4c0-0.2,0.1-0.3,0.3-0.3h1.2c0.2,0,0.3,0.1,0.3,0.3v4.3c0,0.2-0.1,0.3-0.3,0.3h-1.2
	c-0.2,0-0.3-0.1-0.3-0.3V13.4z"/>
<path d="M94.6,13.4c0-0.2,0.1-0.3,0.3-0.3h1.2c0.2,0,0.3,0.1,0.3,0.3v4.3c0,0.2-0.1,0.3-0.3,0.3h-1.2c-0.2,0-0.3-0.1-0.3-0.3V13.4z"
	/>
<g>
	<path d="M22.8,18.9c-1.8,0-3.4,0-5,0c-1.4,0-2-0.7-2.1-2.1c0-1.1-0.2-2.2-0.4-3.4c-0.2-1.3,0.4-2.2,1.8-2.5
		c1.2-0.2,2.3,0.5,2.5,1.7c0,0.1,0,0.1,0,0.2c0.2,1,0.1,2.5,0.7,3c0.6,0.6,2,0.2,3.1,0.4c0.5,0.1,1.4,0.3,1.4,0.5
		c0.4,1.9,0.6,3.8,0.7,5.8c0,0.1-0.9,0.5-1.3,0.4c-0.3,0-0.8-0.5-0.9-0.8C23,21.1,22.9,20.1,22.8,18.9z"/>
	<path d="M21,19.6c0,0.7,0.1,1.2,0,1.5c-0.9,2.2-2.5,3.6-4.9,3.9c-3,0.3-5.6-0.3-7.1-3.2c-0.9-1.6-0.7-3.5,0.3-5.1
		c1.1-1.6,2.7-2.3,4.6-2.7c0.1,0,0.4,0.3,0.6,0.5c-1.2,0.7-2.4,1.1-3.3,1.9c-1.4,1.1-2,2.6-1.3,4.4c0.7,1.9,2.1,2.9,4.1,3.1
		c3.3,0.3,4.5-0.4,6.2-3.6C20.2,20.2,20.5,20,21,19.6z"/>
	<path d="M19,8.1c-0.2,1.7-1,2.2-2,2.2c-1.1,0.1-2-0.7-1.9-1.7C15.3,7.9,16.3,7,17,7C17.7,6.9,18.5,7.7,19,8.1z"/>
</g>
</svg>
