<svg width="20" height="20" viewBox="0 0 20 20" fill="none" xmlns="http://www.w3.org/2000/svg">
<path d="M6.64355 16H5.61816C5.32172 16 5.03676 15.884 4.82715 15.6777C4.61772 15.4716 4.50012 15.1919 4.5 14.9004V11.0498C4.50004 10.7583 4.61774 10.4787 4.82715 10.2725C5.03676 10.0662 5.32172 9.9502 5.61816 9.9502H6.64453L6.64355 16ZM9.53027 4.5C9.97477 4.50012 10.4015 4.67407 10.7158 4.9834C11.0301 5.29312 11.2061 6.21293 11.2061 6.65039V8.84961H14.3691C14.5311 8.8478 14.692 8.88103 14.8398 8.94629C14.9877 9.01158 15.1193 9.10819 15.2256 9.22852C15.3318 9.34881 15.4109 9.49049 15.4561 9.64355C15.5011 9.79656 15.5116 9.95773 15.4873 10.1152L14.7158 15.0645C14.6754 15.3267 14.5404 15.5665 14.335 15.7383C14.1296 15.91 13.8681 16.0029 13.5986 16H7.44434V9.58105L9.53027 4.5Z" fill="#78C9AB"/>
</svg>
