<svg width="20" height="20" viewBox="0 0 20 20" fill="none" xmlns="http://www.w3.org/2000/svg">
<path d="M6.64355 4H5.61816C5.32172 4 5.03676 4.11598 4.82715 4.32227C4.61772 4.52844 4.50012 4.80809 4.5 5.09961V8.9502C4.50004 9.24175 4.61774 9.52131 4.82715 9.72754C5.03676 9.93383 5.32172 10.0498 5.61816 10.0498H6.64453L6.64355 4ZM9.53027 15.5C9.97477 15.4999 10.4015 15.3259 10.7158 15.0166C11.0301 14.7069 11.2061 13.7871 11.2061 13.3496V11.1504H14.3691C14.5311 11.1522 14.692 11.119 14.8398 11.0537C14.9877 10.9884 15.1193 10.8918 15.2256 10.7715C15.3318 10.6512 15.4109 10.5095 15.4561 10.3564C15.5011 10.2034 15.5116 10.0423 15.4873 9.88477L14.7158 4.93555C14.6754 4.67325 14.5404 4.43354 14.335 4.26172C14.1296 4.08998 13.8681 3.99706 13.5986 4H7.44434V10.4189L9.53027 15.5Z" fill="#EB724E"/>
</svg>
