<svg width="20" height="20" viewBox="0 0 20 20" fill="none" xmlns="http://www.w3.org/2000/svg">
<g clip-path="url(#clip0_361_272)">
<path d="M19.502 6.62207C19.502 7.02464 19.5016 7.35727 19.4795 7.62793C19.4565 7.90898 19.4078 8.16748 19.2842 8.41016C19.0924 8.78645 18.7864 9.09238 18.4102 9.28418C18.1675 9.4078 17.9089 9.45749 17.6279 9.48047C17.3573 9.50258 17.0246 9.50196 16.6221 9.50195H13.3799C13.1048 9.50196 12.8626 9.49925 12.6504 9.49219L12.5488 8.4873C12.6751 8.49453 12.8214 8.49972 12.998 8.50098L13.001 8.50195H16.6016C17.0297 8.50195 17.3209 8.50177 17.5459 8.4834C17.7652 8.46548 17.8778 8.43243 17.9561 8.39258C18.144 8.2967 18.2968 8.14402 18.3926 7.95605C18.4324 7.87784 18.4655 7.76516 18.4834 7.5459C18.5018 7.32087 18.502 7.02965 18.502 6.60156V4.50098H19.502V6.62207ZM15.8818 6.74512H15.1025L14.9062 5.99023H13.8135L13.6182 6.74512H12.8379L13.8164 2.97168H14.9033L15.8818 6.74512ZM17.002 6.74512H16.2471V2.97168H17.002V6.74512ZM15.501 1.5H13.4004C12.9722 1.5 12.6811 1.50115 12.4561 1.51953C12.2368 1.53745 12.1241 1.56952 12.0459 1.60938C11.8578 1.70528 11.7052 1.85878 11.6094 2.04688C11.5696 2.12507 11.5365 2.23703 11.5186 2.45605C11.5002 2.68115 11.5 2.97298 11.5 3.40137V6.41602H10.5V3.37988C10.5 2.97758 10.5004 2.64554 10.5225 2.375C10.5454 2.09401 10.5942 1.83541 10.7178 1.59277C10.9095 1.21655 11.2156 0.910559 11.5918 0.71875C11.8345 0.595076 12.0939 0.545429 12.375 0.522461C12.6455 0.500388 12.9776 0.499994 13.3799 0.5H15.501V1.5ZM14.0088 5.23535H14.7109L14.3604 3.88184L14.0088 5.23535Z" fill="#242424"/>
<path fill-rule="evenodd" clip-rule="evenodd" d="M18.5296 2.52859L18.2054 3.50098L17.7978 3.50098L17.4736 2.52859L16.5013 2.20447L16.5013 1.7968L17.4736 1.47267L17.7978 0.500287L18.2054 0.500287L18.5296 1.47267L19.502 1.7968L19.502 2.20447L18.5296 2.52859Z" fill="#242424"/>
<path d="M4.04837 12.8392L6.48707 19C6.97215 19 7.43737 18.8035 7.78038 18.4537C8.12339 18.1039 8.31609 17.0643 8.31609 16.5696V14.0826H11.7668C11.9436 14.0847 12.1187 14.0475 12.2799 13.9737C12.4412 13.8999 12.5848 13.7912 12.7008 13.6552C12.8168 13.5192 12.9024 13.359 12.9516 13.1859C13.0009 13.0128 13.0127 12.8309 12.9862 12.6526L12.1448 7.05703C12.1008 6.76052 11.9531 6.49025 11.729 6.29602C11.5049 6.10179 11.2196 5.99669 10.9255 6.00008H4.04837M4.04837 12.8392V6.00008M4.04837 12.8392H2.21935C1.89596 12.8392 1.58581 12.7082 1.35714 12.475C1.12847 12.2418 1 11.9255 1 11.5957V7.24355C1 6.91376 1.12847 6.59748 1.35714 6.36428C1.58581 6.13109 1.89596 6.00008 2.21935 6.00008H4.04837" stroke="#242424" stroke-linecap="round" stroke-linejoin="round"/>
</g>
<defs>
<clipPath id="clip0_361_272">
<rect width="20" height="20" fill="white"/>
</clipPath>
</defs>
</svg>
