<svg width="20" height="20" viewBox="0 0 20 20" fill="none" xmlns="http://www.w3.org/2000/svg">
<path d="M4.79434 12.55L7.02981 18C7.47447 18 7.90093 17.8262 8.21535 17.5167C8.52977 17.2073 8.70642 16.2876 8.70642 15.85V13.65H11.8696C12.0316 13.6518 12.1921 13.6189 12.3399 13.5537C12.4878 13.4884 12.6194 13.3922 12.7257 13.2719C12.832 13.1516 12.9105 13.0099 12.9557 12.8568C13.0009 12.7037 13.0117 12.5427 12.9873 12.385L12.2161 7.43506C12.1757 7.17277 12.0403 6.93368 11.8349 6.76187C11.6295 6.59005 11.3679 6.49707 11.0984 6.50007H4.79434M4.79434 12.55V6.50007M4.79434 12.55H3.11774C2.82129 12.55 2.53699 12.4341 2.32738 12.2279C2.11776 12.0216 2 11.7418 2 11.45V7.60006C2 7.30833 2.11776 7.02854 2.32738 6.82225C2.53699 6.61596 2.82129 6.50007 3.11774 6.50007H4.79434" stroke="#242424" stroke-linecap="round" stroke-linejoin="round"/>
<path fill-rule="evenodd" clip-rule="evenodd" d="M19.002 6.78223C19.002 7.16222 19.0023 7.4759 18.9814 7.73145C18.9598 7.99694 18.9127 8.24146 18.7959 8.4707C18.6148 8.826 18.326 9.11477 17.9707 9.2959C17.7415 9.4127 17.4969 9.45975 17.2314 9.48145C16.9759 9.50231 16.6622 9.50196 16.2822 9.50195H14.1523L13.8604 8.55762H16.2627C16.6669 8.55762 16.9418 8.55737 17.1543 8.54004C17.3612 8.52314 17.4672 8.4917 17.541 8.4541C17.7187 8.36358 17.8635 8.21961 17.9541 8.04199C17.9917 7.96816 18.0231 7.86213 18.04 7.65527C18.0574 7.44269 18.0576 7.16728 18.0576 6.7627V4.7793H19.002V6.78223ZM11.6396 8.18555C11.6982 8.26214 11.7677 8.32925 11.8467 8.38477H11.6396V8.18555ZM15.583 6.89844H14.8467L14.6621 6.18555H13.6299L13.4443 6.89844H12.708L13.6318 3.33398H14.6592L15.583 6.89844ZM16.6406 6.89844H15.9277V3.33398H16.6406V6.89844ZM13.8145 5.47266H14.4766L14.1455 4.19434L13.8145 5.47266ZM15.2236 1.94531H13.2393C12.835 1.94531 12.5602 1.94555 12.3477 1.96289C12.1409 1.97978 12.0348 2.0103 11.9609 2.04785C11.7832 2.13842 11.6384 2.28319 11.5479 2.46094C11.5102 2.53481 11.4798 2.64067 11.4629 2.84766C11.4455 3.06024 11.4443 3.33569 11.4443 3.74023V5H10.5V3.7207C10.5 3.3405 10.4996 3.02613 10.5205 2.77051C10.5422 2.50515 10.5894 2.26137 10.7061 2.03223C10.8872 1.6768 11.1759 1.3872 11.5313 1.20605C11.7605 1.08925 12.005 1.04318 12.2705 1.02148C12.526 1.00061 12.8397 0.999994 13.2197 1H15.2236V1.94531Z" fill="#242424"/>
<path fill-rule="evenodd" clip-rule="evenodd" d="M18.0836 2.91587L17.7775 3.83423L17.3925 3.83423L17.0863 2.91587L16.168 2.60975L16.168 2.22473L17.0863 1.91861L17.3925 1.00024L17.7775 1.00024L18.0836 1.91861L19.002 2.22473L19.002 2.60975L18.0836 2.91587Z" fill="#242424"/>
</svg>
