<svg width="20" height="20" viewBox="0 0 20 20" fill="none" xmlns="http://www.w3.org/2000/svg">
<path d="M6.10645 4H4.82129C4.47101 4 4.13443 4.13617 3.88672 4.37988C3.63899 4.62368 3.5 4.95503 3.5 5.2998V9.84961C3.50002 10.1943 3.63913 10.5248 3.88672 10.7686C4.13445 11.0123 4.47095 11.1494 4.82129 11.1494H6.10645V4ZM9.44434 17.5908C9.96983 17.5908 10.4741 17.3852 10.8457 17.0195C11.2172 16.6539 11.4257 15.5671 11.4258 15.0498V12.4492H15.1641C15.3554 12.4513 15.5451 12.413 15.7197 12.3359C15.8944 12.2588 16.0502 12.1451 16.1758 12.0029C16.3014 11.8607 16.3939 11.6927 16.4473 11.5117C16.5006 11.3308 16.5141 11.1403 16.4854 10.9541L15.5732 5.10449C15.5255 4.79455 15.3658 4.51162 15.123 4.30859C14.8804 4.1057 14.5713 3.99654 14.2529 4H6.90723V11.4043L9.44434 17.5908Z" fill="#EB724E"/>
</svg>
