<svg width="20" height="20" viewBox="0 0 20 20" fill="none" xmlns="http://www.w3.org/2000/svg">
<path d="M5 10.75L6.13533 10.75C6.72815 10.75 7.31624 10.8554 7.87215 11.0613L11.9956 12.5888C12.6473 12.8302 13.1269 13.3925 13.2625 14.0741L13.3608 14.5682M5 10.75V16.7955M5 10.75H3.5C2.94772 10.75 2.5 11.1977 2.5 11.75V15.7955C2.5 16.3477 2.94772 16.7955 3.5 16.7955H5M5 16.7955L9.72039 17.5684C10.4504 17.688 11.1979 17.6441 11.9089 17.4398L16.8889 16.0092C17.2486 15.9058 17.5564 15.5973 17.4543 15.2372C17.3292 14.7961 16.9195 14.3961 15.8924 14.5682C14.0991 14.7803 10.0696 14.8227 8.29747 13.2955" stroke="#242424" stroke-linecap="round"/>
<path d="M9.35718 4.69823C9.45974 4.37321 9.83587 3.83616 10.5879 4.04819C11.511 4.30844 11.8187 5.6733 10.2803 6.32334V6.97337M10.2803 8.44841V8.5" stroke="#242424" stroke-linecap="round" stroke-linejoin="round"/>
<path d="M9.17857 9.28571L10.3929 10.5L11.6071 9.28571H12.7857C13.338 9.28571 13.7857 8.838 13.7857 8.28572V3.5C13.7857 2.94772 13.338 2.5 12.7857 2.5H8C7.44772 2.5 7 2.94771 7 3.5V8.28571C7 8.838 7.44772 9.28571 8 9.28571H9.17857Z" stroke="#242424" stroke-linecap="round" stroke-linejoin="round"/>
</svg>
