<svg width="20" height="20" viewBox="0 0 20 20" fill="none" xmlns="http://www.w3.org/2000/svg">
<path fill-rule="evenodd" clip-rule="evenodd" d="M19.502 4.42188C19.502 4.71264 19.5024 4.95295 19.4864 5.14844C19.4698 5.35127 19.4339 5.53773 19.3448 5.71289C19.2063 5.98476 18.9848 6.2062 18.713 6.34473C18.5378 6.43395 18.3514 6.46973 18.1485 6.48633C17.953 6.5023 17.7127 6.50196 17.4219 6.50195H15.0801C15.053 6.50195 15.0263 6.50099 15.0001 6.50098V5.7793H17.4073C17.7163 5.7793 17.9265 5.77985 18.0889 5.7666C18.247 5.75368 18.3284 5.72989 18.3848 5.70117C18.5207 5.63194 18.632 5.52159 18.7012 5.38574C18.73 5.3293 18.7527 5.24794 18.7657 5.08984C18.779 4.92728 18.7794 4.71659 18.7794 4.40723V2.88965H19.502V4.42188ZM13.8751 5.49902C13.8989 5.52975 13.9248 5.5585 13.9532 5.58496H13.8751V5.49902ZM16.8868 4.51074H16.3243L16.1827 3.96582H15.3936L15.252 4.51074H14.6885L15.3956 1.78516H16.1807L16.8868 4.51074ZM17.6964 4.51074H17.1505V1.78516H17.6964V4.51074ZM15.5342 3.4209H16.0411L15.7882 2.44336L15.5342 3.4209ZM16.6124 0.722656H15.0948C14.7858 0.722656 14.5756 0.723076 14.4132 0.736328C14.2549 0.74926 14.1737 0.772994 14.1173 0.801758C13.9813 0.87102 13.8701 0.981252 13.8009 1.11719C13.7721 1.17367 13.7493 1.25491 13.7364 1.41309C13.7351 1.4295 13.7346 1.44643 13.7335 1.46387L13.0157 1.36328C13.0159 1.36036 13.0155 1.35739 13.0157 1.35449C13.0323 1.15146 13.068 0.964368 13.1573 0.789062C13.2958 0.517218 13.5173 0.296731 13.7891 0.158203C13.9643 0.0689404 14.1507 0.0332059 14.3536 0.0166016C14.5491 0.000631158 14.7894 -4.2954e-06 15.0801 2.13108e-08H16.6124V0.722656Z" fill="#2D2A3F"/>
<path fill-rule="evenodd" clip-rule="evenodd" d="M18.7996 1.46515L18.5655 2.16748L18.2711 2.16748L18.037 1.46515L17.3346 1.23105L17.3346 0.936598L18.037 0.702489L18.2711 0.000162732L18.5655 0.000162758L18.7996 0.702489L19.502 0.936598L19.502 1.23105L18.7996 1.46515Z" fill="#2D2A3F"/>
<path d="M6.29492 9.75C6.83232 9.75001 7.36728 9.82838 7.88184 9.9834L12.251 11.2998C13.1447 11.5692 13.5916 12.4204 13.4873 13.2236C12.8751 13.5612 12.0414 13.6371 11.1172 13.5088C9.84862 13.3326 8.6229 12.7981 8.05664 12.3594C7.83853 12.1905 7.52466 12.2304 7.35547 12.4482C7.18641 12.6664 7.22546 12.9802 7.44336 13.1494C8.17307 13.7151 9.57254 14.3036 10.9795 14.499C12.2157 14.6706 13.6285 14.5556 14.5732 13.6611C14.8331 13.6521 15.0778 13.6405 15.3018 13.623L15.834 13.5713C16.4042 13.4794 16.8786 13.532 17.25 13.7334C17.6364 13.9429 17.8435 14.2762 17.9355 14.6006C18.039 14.9655 17.9244 15.2978 17.7334 15.5342C17.5501 15.7608 17.2898 15.9148 17.0273 15.9902L12.0469 17.4199C11.2648 17.6446 10.4427 17.693 9.63965 17.5615L4.96094 16.7959H4.90039V9.75H6.29492ZM4.09961 16.7959H3.5C2.67172 16.7959 2.00024 16.1241 2 15.2959V11.25C2 10.4216 2.67157 9.75 3.5 9.75H4.09961V16.7959Z" fill="#2D2A3F"/>
<path d="M13.2861 1.5C14.1144 1.50023 14.7861 2.17171 14.7861 3V7.78613C14.7859 8.61423 14.1142 9.28591 13.2861 9.28613H12.3145L11.2461 10.3535C11.0508 10.5486 10.7343 10.5487 10.5391 10.3535L9.47168 9.28613H8.5C7.67171 9.28613 7.00023 8.61437 7 7.78613V3C7 2.17157 7.67157 1.5 8.5 1.5H13.2861ZM10.7803 7.44824C10.5043 7.44836 10.2804 7.67225 10.2803 7.94824V8C10.2803 8.27607 10.5042 8.49988 10.7803 8.5C11.0563 8.49987 11.2803 8.27606 11.2803 8V7.94824C11.2802 7.67226 11.0562 7.44837 10.7803 7.44824ZM11.2236 3.06738C10.7014 2.92018 10.2595 3.02827 9.93262 3.26953C9.6281 3.49449 9.45617 3.80924 9.38086 4.04785C9.29777 4.31119 9.44369 4.5917 9.70703 4.6748C9.9703 4.75775 10.2509 4.61189 10.334 4.34863C10.3613 4.26227 10.4293 4.14599 10.5264 4.07422C10.6011 4.01907 10.723 3.9648 10.9521 4.0293C11.2049 4.10067 11.3574 4.31606 11.3574 4.54004C11.3572 4.73861 11.2264 5.09157 10.5859 5.3623C10.4009 5.4405 10.2803 5.62233 10.2803 5.82324V6.47363C10.2804 6.74958 10.5043 6.97351 10.7803 6.97363C11.0562 6.9735 11.2801 6.74957 11.2803 6.47363V6.13477C11.9812 5.74601 12.3572 5.16573 12.3574 4.54004C12.3574 3.85416 11.8937 3.25639 11.2236 3.06738Z" fill="#2D2A3F"/>
</svg>
