<?xml version="1.0" encoding="iso-8859-1"?>
<!-- Generator: Adobe Illustrator 17.1.0, SVG Export Plug-In . SVG Version: 6.00 Build 0)  -->
<!DOCTYPE svg PUBLIC "-//W3C//DTD SVG 1.1//EN" "http://www.w3.org/Graphics/SVG/1.1/DTD/svg11.dtd">
<svg version="1.1" id="Capa_1" xmlns="http://www.w3.org/2000/svg" xmlns:xlink="http://www.w3.org/1999/xlink" x="0px" y="0px"
	 viewBox="0 0 294 294" style="enable-background:new 0 0 294 294; fill:grey;" xml:space="preserve">
<path d="M15,161.635c-8.284,0-15-6.716-15-15V146.5c0-17.618,3.255-34.857,9.347-51.237c2.889-7.765,11.608-11.715,19.371-8.831
	c7.765,2.889,11.594,11.523,8.706,19.288C32.581,118.743,30,132.464,30,146.5v0.135C30,154.919,23.284,161.635,15,161.635z
	 M53.884,68.273c3.845,0,7.688-1.469,10.619-4.405c9.914-9.938,21.38-17.933,34.08-23.763c7.528-3.456,10.83-12.361,7.373-19.891
	c-3.456-7.528-12.357-10.829-19.891-7.373C70.11,20.167,55.71,30.205,43.265,42.679c-5.851,5.865-5.84,15.362,0.024,21.214
	C46.218,66.813,50.051,68.273,53.884,68.273z M147.13,30h0.203c14.016,0,27.718,2.198,40.725,7.028
	c1.721,0.639,3.484,0.691,5.219,0.691c6.092,0,11.819-3.613,14.064-9.658c2.883-7.766-1.075-16.274-8.842-19.158
	C182.14,2.83,164.925,0,147.333,0h-0.203c-8.284,0-15,6.716-15,15S138.846,30,147.13,30z M253.702,97.694
	c2.527,5.498,7.959,8.738,13.639,8.738c2.096,0,4.227-0.442,6.256-1.375c7.526-3.46,10.823-12.367,7.363-19.895
	c-7.334-15.952-17.38-30.347-29.859-42.784c-5.868-5.849-15.366-5.833-21.213,0.035c-5.849,5.868-5.832,15.365,0.035,21.213
	C239.865,73.536,247.865,84.998,253.702,97.694z M230.079,229.217c-9.925,9.928-21.398,17.91-34.103,23.727
	c-7.532,3.448-10.843,12.351-7.395,19.883c2.522,5.509,7.961,8.76,13.647,8.76c2.089,0,4.212-0.439,6.235-1.365
	c15.962-7.308,30.372-17.332,42.831-29.793c5.856-5.858,5.855-15.356-0.003-21.214C245.434,223.358,235.938,223.357,230.079,229.217
	z M40.914,195.196c-3.453-7.532-12.358-10.833-19.887-7.385c-7.53,3.452-10.837,12.355-7.385,19.887
	c7.316,15.959,17.348,30.365,29.816,42.816c2.929,2.925,6.764,4.387,10.6,4.387c3.842,0,7.685-1.467,10.613-4.4
	c5.854-5.861,5.848-15.359-0.014-21.213C54.726,219.368,46.736,207.898,40.914,195.196z M279,131.229c-8.284,0-15,6.716-15,15v0.271
	c0,14.078-2.303,27.837-7.173,40.893c-2.896,7.763,1.132,16.401,8.894,19.297c1.729,0.645,3.541,0.95,5.283,0.95
	c6.082,0,11.659-3.728,13.91-9.761C291.039,181.457,294,164.171,294,146.5v-0.271C294,137.944,287.284,131.229,279,131.229z
	 M147.333,263.531c-14.059,0-27.798-2.432-40.837-7.289c-7.764-2.889-16.4,1.119-19.293,8.883
	c-2.892,7.763,1.058,16.525,8.82,19.418c16.4,6.109,33.663,9.457,51.31,9.457h0.067c8.284,0,14.967-6.95,14.967-15.234
	S155.617,263.531,147.333,263.531z"/>
<g>
</g>
<g>
</g>
<g>
</g>
<g>
</g>
<g>
</g>
<g>
</g>
<g>
</g>
<g>
</g>
<g>
</g>
<g>
</g>
<g>
</g>
<g>
</g>
<g>
</g>
<g>
</g>
<g>
</g>
</svg>
