<?xml version="1.0" encoding="utf-8"?>
<!-- Generator: Adobe Illustrator 17.0.0, SVG Export Plug-In . SVG Version: 6.00 Build 0)  -->
<!DOCTYPE svg PUBLIC "-//W3C//DTD SVG 1.1//EN" "http://www.w3.org/Graphics/SVG/1.1/DTD/svg11.dtd">
<svg version="1.1" id="Layer_1" xmlns="http://www.w3.org/2000/svg" xmlns:xlink="http://www.w3.org/1999/xlink" x="0px" y="0px"
	  viewBox="0 0 20 20" enable-background="new 0 0 20 20" xml:space="preserve">
<g>
	<g>
		<path fill="#83FF00" stroke="#010200" stroke-width="0.2" stroke-miterlimit="10" d="M-37.9,11c0.7-0.7,1.4-1.3,2.3-1.7l0.8-0.4
			l-0.8-1.7l-0.8,0.4c-1.1,0.5-2.1,1.2-2.9,2.1l-0.6,0.7l1.4,1.2L-37.9,11z"/>
		<path fill="#83FF00" stroke="#010200" stroke-width="0.2" stroke-miterlimit="10" d="M-38.5,11.9l-1.5-1.4l0.7-0.8
			c0.8-0.9,1.8-1.6,2.9-2.2l0.9-0.5l0.9,1.9l-0.9,0.5c-0.9,0.4-1.6,1-2.3,1.7L-38.5,11.9z M-39.7,10.5l1.2,1.1l0.5-0.6
			c0.7-0.7,1.5-1.3,2.3-1.7l0.7-0.3l-0.7-1.4l-0.7,0.3c-1.1,0.5-2,1.2-2.8,2.1L-39.7,10.5z"/>
	</g>
	<g>
		<path fill="#83FF00" stroke="#010200" stroke-width="0.2" stroke-miterlimit="10" d="M-39.9,16.3c0-0.1,0-0.2,0-0.3
			c0-0.9,0.2-1.7,0.5-2.6l0.3-0.9l-1.7-0.6l-0.3,0.9c-0.4,1-0.6,2.1-0.6,3.2c0,0.1,0,0.2,0,0.4l0,0.9l1.8-0.1L-39.9,16.3z"/>
		<path fill="#83FF00" stroke="#010200" stroke-width="0.2" stroke-miterlimit="10" d="M-41.8,17.4l0-1c0-0.1,0-0.2,0-0.4
			c0-1.1,0.2-2.2,0.6-3.2l0.4-1l2,0.7l-0.4,1c-0.3,0.8-0.4,1.7-0.4,2.5c0,0.1,0,0.2,0,0.3l0,1L-41.8,17.4z M-40.8,12.1l-0.3,0.7
			c-0.4,1-0.6,2.1-0.6,3.1c0,0.1,0,0.2,0,0.3l0,0.8l1.6-0.1l0-0.8c0-0.1,0-0.2,0-0.3c0-0.9,0.2-1.8,0.5-2.6l0.3-0.7L-40.8,12.1z"/>
	</g>
	<g>
		<path fill="#83FF00" stroke="#010200" stroke-width="0.2" stroke-miterlimit="10" d="M-25.7,12.7l0.4,0.8l1.6-0.8l-0.4-0.8
			c-0.5-1.1-1.3-2-2.2-2.8L-27,8.4l-1.2,1.4l0.7,0.6C-26.8,11.1-26.2,11.8-25.7,12.7z"/>
		<path fill="#83FF00" stroke="#010200" stroke-width="0.2" stroke-miterlimit="10" d="M-25.4,13.7l-0.5-0.9c-0.4-0.9-1-1.6-1.7-2.2
			l-0.8-0.7l1.4-1.6l0.8,0.7c0.9,0.8,1.7,1.8,2.2,2.9l0.5,0.9L-25.4,13.7z M-28,9.8l0.6,0.5c0.7,0.7,1.3,1.4,1.8,2.3l0.4,0.7
			l1.4-0.7l-0.4-0.7c-0.5-1.1-1.3-2-2.2-2.8L-27,8.6L-28,9.8z"/>
	</g>
	<g>
		<path fill="#83FF00" stroke="#010200" stroke-width="0.2" stroke-miterlimit="10" d="M-32.8,8.6c1-0.1,1.9,0.1,2.9,0.4l0.9,0.3
			l0.6-1.7l-0.9-0.3c-1.1-0.4-2.4-0.6-3.6-0.5l-0.9,0.1l0.1,1.8L-32.8,8.6z"/>
		<path fill="#83FF00" stroke="#010200" stroke-width="0.2" stroke-miterlimit="10" d="M-29,9.4l-1-0.3c-0.9-0.3-1.8-0.4-2.8-0.4
			l-1,0.1L-34,6.7l1-0.1c1.2-0.1,2.5,0.1,3.6,0.5l1,0.3L-29,9.4z M-32.4,8.5c0.9,0,1.7,0.1,2.5,0.4l0.8,0.3l0.5-1.5l-0.8-0.3
			c-1.1-0.4-2.3-0.5-3.5-0.5l-0.8,0l0.1,1.6l0.8,0C-32.7,8.5-32.6,8.5-32.4,8.5z"/>
	</g>
	<g>
		<path fill="#83FF00" stroke="#010200" stroke-width="0.2" stroke-miterlimit="10" d="M-23.1,15.3l-0.1-0.9l-1.8,0.1l0.1,0.9
			c0,0.2,0,0.4,0,0.6c0,1-0.2,1.9-0.6,2.8l-0.3,0.9l1.7,0.7l0.3-0.9c0.5-1.1,0.7-2.3,0.7-3.5C-23.1,15.8-23.1,15.6-23.1,15.3z"/>
		<path fill="#83FF00" stroke="#010200" stroke-width="0.2" stroke-miterlimit="10" d="M-24.1,20.6l-1.9-0.8l0.4-1
			c0.4-0.9,0.5-1.8,0.5-2.8c0-0.2,0-0.4,0-0.6l-0.1-1l2.1-0.2l0.1,1c0,0.2,0,0.5,0,0.7c0,1.2-0.2,2.4-0.7,3.6L-24.1,20.6z
			 M-25.7,19.6l1.5,0.6l0.3-0.7c0.5-1.1,0.7-2.3,0.7-3.5c0-0.2,0-0.5,0-0.7l-0.1-0.8l-1.6,0.1l0.1,0.8c0,0.2,0,0.4,0,0.6
			c0,1-0.2,2-0.6,2.9L-25.7,19.6z"/>
	</g>
	<g>
		<path fill="#83FF00" stroke="#010200" stroke-width="0.2" stroke-miterlimit="10" d="M-27.1,21.3c-0.7,0.7-1.5,1.2-2.4,1.6
			l-0.8,0.4l0.7,1.7l0.8-0.4c1.1-0.5,2.1-1.2,3-2l0.6-0.7l-1.3-1.3L-27.1,21.3z"/>
		<path fill="#83FF00" stroke="#010200" stroke-width="0.2" stroke-miterlimit="10" d="M-29.6,25.1l-0.8-1.9l1-0.4
			c0.9-0.4,1.7-0.9,2.3-1.6l0.7-0.7l1.5,1.5l-0.7,0.7c-0.9,0.9-1.9,1.6-3,2.1L-29.6,25.1z M-30.1,23.3l0.6,1.5l0.7-0.3
			c1.1-0.5,2.1-1.1,2.9-2l0.6-0.6l-1.1-1.1l-0.6,0.6c-0.7,0.7-1.5,1.3-2.4,1.7L-30.1,23.3z"/>
	</g>
	<g>
		<path fill="#83FF00" stroke="#010200" stroke-width="0.2" stroke-miterlimit="10" d="M-39.2,19.1l-0.4-0.8l-1.7,0.8l0.4,0.8
			c0.5,1.1,1.2,2.1,2.1,2.9l0.7,0.6l1.3-1.3l-0.7-0.6C-38.2,20.8-38.8,20-39.2,19.1z"/>
		<path fill="#83FF00" stroke="#010200" stroke-width="0.2" stroke-miterlimit="10" d="M-38.1,23.6l-0.8-0.7c-0.9-0.8-1.6-1.8-2.1-3
			l-0.4-1l1.9-0.9l0.4,1c0.4,0.9,0.9,1.6,1.6,2.3l0.8,0.7L-38.1,23.6z M-41.1,19.1l0.3,0.7c0.5,1.1,1.2,2.1,2.1,2.9l0.6,0.5l1.1-1.2
			l-0.6-0.5c-0.7-0.7-1.3-1.5-1.7-2.4l-0.3-0.7L-41.1,19.1z"/>
	</g>
	<g>
		<path fill="#83FF00" stroke="#010200" stroke-width="0.2" stroke-miterlimit="10" d="M-32.4,23.5c-0.9,0-1.8-0.2-2.7-0.5l-0.9-0.3
			l-0.7,1.7l0.9,0.3c1.1,0.4,2.2,0.6,3.4,0.6l1.1,0l0-1.8L-32.4,23.5z"/>
		<path fill="#83FF00" stroke="#010200" stroke-width="0.2" stroke-miterlimit="10" d="M-32.4,25.5L-32.4,25.5
			c-1.2,0-2.3-0.2-3.4-0.6l-1-0.4l0.8-1.9l1,0.4c0.8,0.3,1.7,0.5,2.6,0.5l1.2,0l0,2.1L-32.4,25.5z M-36.5,24.3l0.7,0.3
			c1.1,0.4,2.2,0.6,3.3,0.6l1,0l0-1.6l-0.9,0c-0.9,0-1.9-0.2-2.7-0.5l-0.7-0.3L-36.5,24.3z"/>
	</g>
</g>
<g>
	<path fill="#FFFFFF" stroke="#010200" stroke-width="0.5" stroke-miterlimit="10" d="M19.2,8.3l-2,0.3c0.1,0.4,0.1,0.8,0.1,1.1
		c0,2-0.8,3.9-2.2,5.3l1.4,1.4c1.8-1.8,2.8-4.2,2.8-6.7C19.3,9.3,19.3,8.8,19.2,8.3z"/>
	<path fill="#FFFFFF" stroke="#010200" stroke-width="0.5" stroke-miterlimit="10" d="M16.8,6.9l1.8-0.8C17.7,3.9,15.8,2,13.5,1
		l-0.8,1.8C14.6,3.6,16,5.1,16.8,6.9z"/>
	<path fill="#FFFFFF" stroke="#010200" stroke-width="0.5" stroke-miterlimit="10" d="M2.4,9.7c0-1.8,0.6-3.5,1.8-4.9L2.7,3.6
		C1.2,5.3,0.4,7.5,0.4,9.7c0,0.2,0,0.5,0,0.7l2-0.2C2.4,10.1,2.4,9.9,2.4,9.7z"/>
	<path fill="#FFFFFF" stroke="#010200" stroke-width="0.5" stroke-miterlimit="10" d="M9.9,2.3c0.4,0,0.8,0,1.2,0.1l0.3-2
		c-0.5-0.1-1-0.1-1.5-0.1c-2,0-3.9,0.6-5.5,1.8l1.2,1.6C6.8,2.8,8.3,2.3,9.9,2.3z"/>
	<path fill="#FFFFFF" stroke="#010200" stroke-width="0.5" stroke-miterlimit="10" d="M2.8,12l-1.9,0.6C1.7,15,3.4,17,5.6,18.2
		l0.9-1.8C4.7,15.5,3.4,13.9,2.8,12z"/>
	<path fill="#FFFFFF" stroke="#010200" stroke-width="0.5" stroke-miterlimit="10" d="M8.1,17l-0.5,1.9c0.7,0.2,1.5,0.3,2.2,0.3
		c1.7,0,3.5-0.5,4.9-1.4l-1-1.7C12.1,17.1,10,17.4,8.1,17z"/>
</g>
<path fill="#13FF00" stroke="#FFFFFF" stroke-width="0.5" stroke-miterlimit="10" d="M6.7,25.2"/>
<g>
	<path fill="#13FF00" stroke="#030500" stroke-width="0.3" stroke-miterlimit="10" d="M37.8,20.7c-1.4,0-2.8-0.3-4.1-0.9l-0.6-0.3
		l0.6-1.3l0.6,0.3c1.2,0.6,2.5,0.8,3.8,0.8l0.7,0l0.1,1.4l-0.7,0C38.1,20.7,38,20.7,37.8,20.7z M40.3,20.4l-0.5-1.3l0.7-0.2
		c1.2-0.4,2.4-1.1,3.3-2.1l0.5-0.5l1,1l-0.5,0.5c-1.1,1.1-2.4,2-3.8,2.4L40.3,20.4z M31.9,18.7l-0.5-0.5c-1.1-1-2-2.3-2.6-3.7
		l-0.3-0.7l1.3-0.5l0.3,0.7c0.5,1.2,1.2,2.3,2.2,3.2l0.5,0.5L31.9,18.7z M46.2,16l-1.2-0.6l0.3-0.6c0.6-1.2,0.9-2.5,0.9-3.8
		c0-0.4,0-0.8-0.1-1.2L46,9.1l1.4-0.2l0.1,0.7c0.1,0.5,0.1,0.9,0.1,1.4c0,1.6-0.4,3-1.1,4.4L46.2,16z M28.2,12.4l-0.1-0.7
		c0-0.2,0-0.5,0-0.7c0-1.3,0.3-2.6,0.8-3.8l0.3-0.6l1.3,0.5l-0.3,0.6c-0.4,1-0.7,2.1-0.7,3.2c0,0.2,0,0.4,0,0.6l0.1,0.7L28.2,12.4z
		 M45.7,8.1l-0.3-0.6c-0.6-1.2-1.4-2.2-2.4-3L42.4,4l0.9-1.1l0.6,0.4C45,4.3,46,5.5,46.6,6.9l0.3,0.6L45.7,8.1z M31,6.2l-1.1-0.9
		l0.4-0.5c1-1.2,2.2-2.1,3.6-2.7l0.6-0.3l0.5,1.3l-0.6,0.3c-1.2,0.5-2.3,1.3-3.1,2.3L31,6.2z M41.5,3.5l-0.7-0.2
		c-0.9-0.4-1.9-0.6-3-0.5c-0.3,0-0.6,0-0.9,0l-0.7,0.1l-0.2-1.4l0.7-0.1c0.3,0,0.7-0.1,1.1-0.1c1.2,0,2.3,0.2,3.5,0.6L42,2.2
		L41.5,3.5z"/>
</g>
</svg>
