<svg height='40px' width='40px'  fill="#000000" xmlns="http://www.w3.org/2000/svg" xmlns:xlink="http://www.w3.org/1999/xlink" version="1.1" x="0px" y="0px" viewBox="0 0 100 100" enable-background="new 0 0 100 100" xml:space="preserve"><path d="M74.2,64.9c-3.7,0-7.2,1.5-9.7,3.8l-24.3-15c0.3-1.2,0.6-2.4,0.6-3.6c0-1.4-0.3-2.6-0.6-3.7l24.3-14.9  c2.6,2.2,6.1,3.6,9.7,3.6c8.3,0,15.1-6.7,15.1-15c0-8.2-6.7-15-15.1-15c-8.2,0-15,6.7-15,15c0,1.2,0.1,2.5,0.6,3.5L35.5,38.7  c-2.6-2.2-6.2-3.7-9.8-3.7c-8.2,0-15,6.7-15,15.1c0,8.2,6.7,14.8,15,14.8c3.6,0,7.2-1.3,9.8-3.5l24.3,14.9c-0.5,1.1-0.6,2.3-0.6,3.6  c0,8.2,6.7,15,15,15c8.3,0,15.1-6.7,15.1-15C89.3,71.6,82.6,64.9,74.2,64.9z"></path></svg>