<svg width="32" height="40" viewBox="0 0 32 40" fill="none" xmlns="http://www.w3.org/2000/svg">
<path d="M14.5 23.5H17.5V17.5H23.5V14.5H17.5V8.5H14.5V14.5H8.5V17.5H14.5V23.5ZM16 36.05C20.4333 32.0167 23.7083 28.3583 25.825 25.075C27.9417 21.7917 29 18.9 29 16.4C29 12.4737 27.7451 9.25875 25.2354 6.75525C22.7257 4.25175 19.6472 3 16 3C12.3528 3 9.2743 4.25175 6.7646 6.75525C4.25487 9.25875 3 12.4737 3 16.4C3 18.9 4.08333 21.7917 6.25 25.075C8.41667 28.3583 11.6667 32.0167 16 36.05ZM16 40C10.6333 35.4333 6.625 31.1917 3.975 27.275C1.325 23.3583 0 19.7333 0 16.4C0 11.4 1.60833 7.41667 4.825 4.45C8.04167 1.48333 11.7667 0 16 0C20.2333 0 23.9583 1.48333 27.175 4.45C30.3917 7.41667 32 11.4 32 16.4C32 19.7333 30.675 23.3583 28.025 27.275C25.375 31.1917 21.3667 35.4333 16 40Z" fill="#1C1B1F"/>
</svg>
