<svg width="80" height="80" viewBox="0 0 80 80" fill="none" xmlns="http://www.w3.org/2000/svg">
<g id="Vector">
<path d="M80 40C80 62.0914 62.0914 80 40 80C17.9086 80 0 62.0914 0 40C0 17.9086 17.9086 0 40 0C62.0914 0 80 17.9086 80 40Z" fill="white"/>
<path d="M40 0C50.6087 0 60.7828 4.21427 68.2843 11.7157C75.7857 19.2172 80 29.3913 80 40C80 50.6087 75.7857 60.7828 68.2843 68.2843C60.7828 75.7857 50.6087 80 40 80C29.3913 80 19.2172 75.7857 11.7157 68.2843C4.21427 60.7828 0 50.6087 0 40C0 29.3913 4.21427 19.2172 11.7157 11.7157C19.2172 4.21427 29.3913 0 40 0ZM40 17.1429C39.2745 17.1422 38.5569 17.2929 37.8929 17.5853C37.229 17.8777 36.6333 18.3054 36.1439 18.841C35.6546 19.3766 35.2823 20.0083 35.0509 20.6959C34.8195 21.3835 34.7341 22.1118 34.8 22.8343L36.8857 45.7257C36.9666 46.4953 37.3295 47.2078 37.9046 47.7256C38.4797 48.2434 39.2261 48.5299 40 48.5299C40.7739 48.5299 41.5203 48.2434 42.0954 47.7256C42.6705 47.2078 43.0334 46.4953 43.1143 45.7257L45.1943 22.8343C45.2602 22.1123 45.1749 21.3845 44.9438 20.6973C44.7128 20.0101 44.341 19.3786 43.8523 18.8431C43.3635 18.3076 42.7686 17.8798 42.1053 17.5871C41.442 17.2943 40.725 17.143 40 17.1429ZM40 62.8571C41.2124 62.8571 42.3752 62.3755 43.2325 61.5182C44.0898 60.6609 44.5714 59.4981 44.5714 58.2857C44.5714 57.0733 44.0898 55.9105 43.2325 55.0532C42.3752 54.1959 41.2124 53.7143 40 53.7143C38.7876 53.7143 37.6248 54.1959 36.7675 55.0532C35.9102 55.9105 35.4286 57.0733 35.4286 58.2857C35.4286 59.4981 35.9102 60.6609 36.7675 61.5182C37.6248 62.3755 38.7876 62.8571 40 62.8571Z" fill="#F68D3E"/>
</g>
</svg>
