<svg width="48" height="48" viewBox="0 0 48 48" fill="none" xmlns="http://www.w3.org/2000/svg">
<mask id="mask0_97_229" style="mask-type:alpha" maskUnits="userSpaceOnUse" x="0" y="0" width="48" height="48">
<rect width="48" height="48" fill="#D9D9D9"/>
</mask>
<g mask="url(#mask0_97_229)">
<path d="M24.0501 40.1001C19.6834 40.1001 15.9251 38.5251 12.7751 35.3751C9.6251 32.2251 8.0501 28.4668 8.0501 24.1001V21.8501L4.0501 25.8501L2.1001 23.9001L9.5501 16.4501L17.0001 23.9001L15.0501 25.8501L11.0501 21.8501V24.1001C11.0501 27.6668 12.3251 30.7251 14.8751 33.2751C17.4251 35.8251 20.4834 37.1001 24.0501 37.1001C25.0168 37.1001 25.9334 37.0168 26.8001 36.8501C27.6668 36.6834 28.4834 36.4334 29.2501 36.1001L31.4001 38.2501C30.2001 38.9168 28.9918 39.3918 27.7751 39.6751C26.5584 39.9584 25.3168 40.1001 24.0501 40.1001ZM38.5001 31.6501L31.0501 24.2001L33.0501 22.2001L37.0001 26.1501V24.1001C37.0001 20.5334 35.7251 17.4751 33.1751 14.9251C30.6251 12.3751 27.5668 11.1001 24.0001 11.1001C23.0334 11.1001 22.1168 11.1918 21.2501 11.3751C20.3834 11.5584 19.5668 11.7834 18.8001 12.0501L16.6501 9.9001C17.8501 9.23343 19.0584 8.76676 20.2751 8.5001C21.4918 8.23343 22.7334 8.1001 24.0001 8.1001C28.3668 8.1001 32.1251 9.6751 35.2751 12.8251C38.4251 15.9751 40.0001 19.7334 40.0001 24.1001V26.2501L44.0001 22.2501L45.9501 24.2001L38.5001 31.6501Z" fill="#1C1B1F"/>
</g>
</svg>
