<svg xmlns="http://www.w3.org/2000/svg" viewBox="0 0 60 60"><path opacity=".3" fill="#111" d="M30.33 27.19c-11.24 0-20.35 6.46-20.35 14.42s9.11 14.42 20.35 14.42 20.35-6.46 20.35-14.42S41.57 27.19 30.33 27.19zM30.21 55.03c-10.75 0-19.47-6.06-19.47-13.53s8.72-13.53 19.47-13.53 19.47 6.06 19.47 13.53S40.96 55.03 30.21 55.03z"/><ellipse opacity=".1" fill="#111" cx="30.21" cy="41.5" rx="19.47" ry="13.53"/><path opacity=".3" d="M29.65 44.14l8.24-3.85-4.47-2.69"/><path fill="#333" d="M29.21 44.46c-.16 0-.31-.03-.46-.09-.21-.07-.7-.24-1.2-.49-.74-.37-1-1.07-1-1.54l-.51-6.63c-.37-.32-.61-.82-.71-1.49-.02-.11-.54-2.33-.68-4.59-.01-.69-.03-3.9.01-4.37.05-.67.2-1.24.45-1.69l-.07-.85c-.04-.48.27-.91.73-1.04l.14-.04c-.04-.04-.07-.08-.1-.12-1.16-1.13-1.83-2.68-1.83-4.29 0-1.6.62-3.11 1.74-4.24 1.13-1.14 2.61-1.76 4.22-1.76 1.59 0 3.09.62 4.21 1.75s1.74 2.64 1.75 4.24c0 1.59-.64 3.11-1.77 4.24.05.02.09.03.14.06.36.18.6.64.58 1.04l-.06 1.09c.01.12.01.24.01.37.04.92.16 3.59.21 4.13.08.84.37 3.06.37 3.06l.03.19c.27 1.54-.44 2.15-1.17 2.37-.17 3.07-.31 5.61-.31 5.76-.03.63-.32.96-.45 1.08-.85.93-.9.96-1.02 1.04-.26.17-.61.22-.96.12-.03-.01-.06-.01-.09-.02C31.4 41.92 31.4 41.98 31.4 42c-.01.69-.31 1.08-.5 1.26-.83.85-.91.91-.95.95C29.73 44.38 29.47 44.46 29.21 44.46zM28.54 42.14c.16.08.32.14.45.2.15-.15.3-.31.4-.41.01-.17.04-.69.22-3.12.04-.52.47-.92.99-.93h.01c.52 0 .95.39 1 .91l.07.82c.09-.1.18-.19.25-.27.04-.81.3-5.56.36-6.57.02-.32.19-.62.46-.79.21-.13.46-.18.7-.14-.01-.04-.01-.07-.02-.1-.02-.1-.03-.19-.04-.28 0 0-.29-2.27-.38-3.12-.07-.7-.21-4.15-.21-4.3s-.01-.22-.01-.3V23.6l.02-.44-1.25-.36c-.41-.12-.7-.48-.72-.9s.22-.82.61-.98c.04-.02.07-.04.11-.06l.15-.08c.13-.06.25-.13.37-.2l.21-.15.14-.1.08-.08c.9-.77 1.41-1.87 1.41-3.03 0-1.07-.41-2.07-1.16-2.83-.75-.75-1.74-1.16-2.79-1.16-1.06 0-2.05.42-2.8 1.17-.75.76-1.16 1.76-1.16 2.83 0 1.15.49 2.21 1.36 2.99.03.02.05.05.07.07l.22.16c.05.04.11.09.16.12.1.07.21.12.32.17l.2.1c.04.02.09.05.13.07.05.02.1.03.15.05L28.76 21c.42.14.7.53.69.97s-.31.82-.73.94l-1.6.45.03.37c.02.25-.06.5-.21.7-.06.08-.22.34-.27.96-.02.26-.02 2.31 0 4.15.13 2.03.63 4.16.63 4.19.01.03.03.15.03.18.01.05.02.16.04.24.36.14.61.47.64.86L28.54 42.14zM29.63 41.72C29.62 41.72 29.62 41.72 29.63 41.72 29.62 41.72 29.62 41.72 29.63 41.72zM32.06 39.2c-.03.02-.05.04-.06.07C32.04 39.22 32.06 39.2 32.06 39.2z"/><path fill="#FABD2C" d="M34.38 31.34c.06.52.36 1.3-.56 1.51-.92.21-1.03-.7-1.1-.95 0 0-.65-1.97-.95-3.96 0 0-.33-3.44-.33-3.85-.02-1.52.66-1.99 1.35-1.84.5.11 1.03.5 1.01 1.75 0 0 .15 3.56.21 4.24C34.09 29.09 34.38 31.34 34.38 31.34z"/><path fill="#CE592C" d="M34.38 31.34c.06.52.36 1.3-.56 1.51-.92.21-1.03-.7-1.1-.95 0 0-.65-1.97-.95-3.96 0 0-.33-3.44-.33-3.85-.02-1.52.66-1.99 1.35-1.84.5.11 1.03.5 1.01 1.75 0 0 .15 3.56.21 4.24C34.09 29.09 34.38 31.34 34.38 31.34z"/><path fill="#FABD2C" d="M26.04 22.64l4.31-1.2s3.41 1.02 3.43 1.02L32.8 39.77l-1.04 1.03s-.81-.22-.91-.26c-.1-.03-.1-.18-.1-.18l-.15-1.68-.7 4.1-.72.66s-.6-.18-1.16-.47c-.45-.23-.45-.65-.45-.65L26.04 22.64z"/><path fill="#FABD2C" d="M29.92 23.71l3.89-1.29s.03.01.03.09c-.08 1.5-.91 16.72-.92 16.99s-.12.37-.12.37-.82.89-.88.93c-.06.04-.17 0-.17 0s.08-.04.09-.23-.38-7.48-.38-7.48c-.01-.37-.07-.52-.23-.52-.15 0-.19.15-.19.53 0 0-.63 8.45-.64 8.88s-.2.56-.2.56-.82.83-.89.89c-.08.06-.19.01-.19.01s.14-.01.14-.3C29.25 42.94 29.92 23.71 29.92 23.71z"/><path opacity=".3" fill="#CE592C" d="M29.92 23.71l3.89-1.29s.03.01.03.09c-.08 1.5-.91 16.72-.92 16.99s-.12.37-.12.37-.82.89-.88.93c-.06.04-.17 0-.17 0s.08-.04.09-.23-.38-7.48-.38-7.48c-.01-.37-.07-.52-.23-.52-.15 0-.19.15-.19.53 0 0-.63 8.45-.64 8.88s-.2.56-.2.56-.82.83-.89.89c-.08.06-.19.01-.19.01s.14-.01.14-.3C29.25 42.94 29.92 23.71 29.92 23.71z"/><path fill="#CE592C" d="M33.82 22.42l-3.9 1.29-3.88-1.07 4.36-1.2"/><ellipse opacity=".5" fill="#CE592C" cx="30.19" cy="22.4" rx="2.13" ry=".52"/><path fill="#CE592C" d="M25.92 25.66c.04-1.67.72-2.46 1.44-2.22.81.27 1.29 1.03 1.21 2.4 0 0-.07 3.73-.03 4.48.05.93.27 3.4.27 3.4.05.57.33 1.44-.68 1.63-.22.04-.39-.01-.53-.12l-.28-.43s-.97-2.72-1.21-4.91C26.11 29.87 25.91 26.11 25.92 25.66z"/><path fill="#FABD2C" d="M28.16 33.53c.02.57.27 1.45-.76 1.59-1.02.14-1.05-.86-1.11-1.14 0 0-.52-2.21-.66-4.41 0 0-.03-3.78.01-4.23.12-1.66.91-2.11 1.64-1.87.53.17 1.08.65.94 2.01 0 0-.18 3.89-.18 4.64C28.06 31.05 28.16 33.53 28.16 33.53z"/><ellipse fill="#FABD2C" cx="29.94" cy="17.23" rx="4.96" ry="5"/><path opacity=".25" fill="#CE592C" d="M29.96 21.74c1.19 0 2.3-.27 3.24-.75-.87.77-2.01 1.24-3.26 1.24-1.28 0-2.44-.49-3.32-1.28C27.59 21.45 28.73 21.74 29.96 21.74z"/><path opacity=".8" fill="#CE592C" d="M32.76 22.77l-.94 4.66-.76-4.1"/><path opacity=".25" fill="#CF572E" d="M28.14 33.53c.04 1.16-.54.95-.82.81-.99-.52-1.09-5.12-1.2-6.56-.07-.97-.16-3.58.78-4.26.55-.21 1.04.42 1.09.51.19.31.29.77.22 1.45 0 0-.18 3.89-.18 4.64C28.04 31.05 28.14 33.53 28.14 33.53z"/><path fill="#FFF" d="M47.48 45.15C47.47 45.15 47.47 45.15 47.48 45.15l-15.9-.08c-.22 0-.42-.15-.48-.37s.03-.45.23-.56c.66-.39 2.48-1.56 2.96-2.25.57-.8.71-2.24.71-2.26.01-.16.1-.3.24-.38.14-.08.3-.09.45-.03l11.98 4.97c.22.09.35.33.3.56C47.92 44.99 47.71 45.15 47.48 45.15zM33.25 44.09l11.68.06-9.04-3.75c-.11.59-.34 1.45-.79 2.08C34.75 42.98 33.97 43.59 33.25 44.09z"/><path fill="#3F3F3F" d="M31.58 44.58s2.46-1.47 3.12-2.39c.66-.93.8-2.5.8-2.5l11.98 4.97L31.58 44.58z"/></svg>