<svg xmlns="http://www.w3.org/2000/svg" viewBox="0 0 60 60"><path opacity=".3" fill="#111" d="M30.33 27.19c-11.24 0-20.35 6.46-20.35 14.42s9.11 14.42 20.35 14.42 20.35-6.46 20.35-14.42S41.57 27.19 30.33 27.19zM30.21 55.03c-10.75 0-19.47-6.06-19.47-13.53s8.72-13.53 19.47-13.53 19.47 6.06 19.47 13.53S40.96 55.03 30.21 55.03z"/><ellipse opacity=".1" fill="#111" cx="30.21" cy="41.5" rx="19.47" ry="13.53"/><path fill="#333" d="M34.25 23.78h-8.51c-.42 0-.8-.26-.94-.66s-.02-.84.3-1.11l.64-.53c-1.12-1.12-1.77-2.65-1.77-4.25 0-3.3 2.69-5.99 5.98-5.99 1.6 0 3.1.63 4.23 1.76s1.75 2.64 1.75 4.24c0 1.45-.53 2.84-1.49 3.94-.03.05-.06.09-.1.14l-.13.13-.03.03L34.86 22c.34.26.48.71.34 1.12C35.06 23.51 34.68 23.78 34.25 23.78zM29.49 21.78h.93c.08-.33.33-.6.68-.71.09-.03.17-.06.25-.1l.12-.05c.25-.11.45-.21.64-.34.01-.01.08-.05.09-.06.16-.11.31-.24.45-.37.01-.01.09-.08.1-.09l.05-.05c.02-.02.03-.04.05-.06.71-.75 1.1-1.72 1.1-2.74 0-1.07-.41-2.07-1.16-2.83-.75-.75-1.75-1.17-2.81-1.17C27.79 13.21 26 15 26 17.2c0 1.3.64 2.52 1.71 3.27.05.03.09.07.13.11.3.19.64.35 1 .46C29.16 21.18 29.41 21.45 29.49 21.78z"/><path fill="#333" d="M33.97 43.59h-3.04c-.45 0-.84-.3-.96-.72-.12.42-.51.72-.96.72h-3c-.55 0-.99-.44-1-.99l-.13-9.18-.38.97c-.3.71-1.04 1.08-1.79.89l-1.01-.33c-.74-.27-1.13-1.03-.94-1.78 0-.01 0-.02.01-.02.06-.22 2.59-9.54 2.59-9.54.23-.93 1.04-1.66 1.95-1.79.08-.02.17-.03.26-.03h8.84c.06 0 .15.01.22.02.96.11 1.8.83 2.04 1.79 2.15 8.31 2.42 9.38 2.46 9.53.2.78-.14 1.5-.83 1.75l-1.08.35c-.8.21-1.55-.16-1.84-.85l-.28-.73-.13 8.96C34.97 43.15 34.52 43.59 33.97 43.59zM31.87 41.59h1.12l.19-13.22c.01-.48.35-.88.82-.97.47-.08.93.17 1.11.62l.09.23 1.86 4.92h.01c-.48-1.88-2.34-9.09-2.34-9.09-.04-.16-.21-.29-.33-.29-.03 0-.06 0-.09-.01h-8.6c-.03 0-.07.01-.1.01-.09 0-.26.13-.31.32-1.6 5.91-2.22 8.19-2.47 9.08l2.06-5.18c.18-.44.64-.7 1.11-.61.47.09.81.49.82.97L27 41.59h1.08l.48-6.92c.06-.79.65-1.34 1.43-1.34.6 0 1.32.36 1.4 1.34L31.87 41.59zM22.7 33.66c.01-.01.01-.02.01-.04C22.71 33.64 22.7 33.65 22.7 33.66z"/><path fill="#CE592C" d="M25.74 22.78l.9-.75h6.62l.99.75"/><ellipse opacity=".5" fill="#CE592C" cx="29.95" cy="22.37" rx="2.25" ry=".3"/><path fill="#FDBF2D" d="M38.15 33.37c0-.01-2.46-9.53-2.46-9.53-.15-.6-.72-1.05-1.31-1.05H25.6c-.59 0-1.13.49-1.28 1.08 0 0-2.59 9.54-2.59 9.55-.06.24.04.49.29.58l.94.31c.25.06.51-.05.61-.29l2.24-5.65.2 14.21h3l.55-7.85c.02-.21.13-.41.44-.41s.38.2.39.41l.54 7.85h3.04l.2-14.21 2.12 5.61c.1.23.36.35.61.29l1.04-.34C38.18 33.85 38.21 33.6 38.15 33.37z"/><path opacity=".25" fill="#CF572E" d="M34.17 28.38l.08-5.6h.17l.48 5.44.45 3.13M25.81 28.38l-.08-5.59h-.17s-.31 4.2-.48 5.43c-.17 1.24-.45 3.13-.45 3.13L25.81 28.38z"/><ellipse fill="#FDBF2D" cx="29.95" cy="17.23" rx="4.98" ry="5"/><path opacity=".25" fill="#CE592C" d="M30.35 21.74c-1.18.11-2.31-.06-3.3-.44.94.68 2.12 1.04 3.36.92 1.27-.12 2.38-.71 3.19-1.59C32.69 21.23 31.57 21.63 30.35 21.74z"/></svg>