<svg xmlns="http://www.w3.org/2000/svg" viewBox="0 0 60 60"><path opacity=".3" fill="#111" d="M30.33 27.19c-11.24 0-20.35 6.46-20.35 14.42s9.11 14.42 20.35 14.42 20.35-6.46 20.35-14.42S41.57 27.19 30.33 27.19zM30.21 55.03c-10.75 0-19.47-6.06-19.47-13.53s8.72-13.53 19.47-13.53 19.47 6.06 19.47 13.53S40.96 55.03 30.21 55.03z"/><ellipse opacity=".1" fill="#111" cx="30.21" cy="41.5" rx="19.47" ry="13.53"/><path fill="#FFF" d="M15.6 48.74c-.19 0-.36-.11-.45-.28-.1-.21-.05-.46.14-.61l8.99-7.24c.12-.1.29-.14.45-.09.16.04.28.16.34.31 0 .01.5 1.37 1.25 2.01.64.54 3.01 1.28 3.87 1.51.22.06.37.26.37.49s-.16.42-.39.48l-14.45 3.4C15.68 48.73 15.64 48.74 15.6 48.74zM24.39 41.8l-6.76 5.44 10.53-2.48c-.94-.33-2-.75-2.49-1.16C25.09 43.11 24.65 42.34 24.39 41.8z"/><path fill="#3F3F3F" d="M30.05 44.83s-3.19-.88-4.06-1.61c-.87-.73-1.4-2.22-1.4-2.22l-8.99 7.24L30.05 44.83z"/><path fill="#333" d="M32.45 44.49c-.09 0-.17-.01-.26-.03-.17-.01-.34-.06-.49-.14-.12-.07-1.39-.81-1.6-.93-.39-.2-.81-.67-.84-1.41 0-.02-.01-.07-.02-.16-.12.04-.25.09-.37.14-.12.09-.25.16-.41.19 0 0-.12.02-.26.03-.1.01-.19.01-.29-.01-.1-.01-.2-.04-.28-.07-.11-.05-.2-.08-1.59-1.03-.24-.13-.58-.54-.63-1.13-.01-.15-.17-2.85-.37-6.09-1.54-.33-1.47-1.65-1.44-2.15 0-.08.01-.16.01-.25 0-.12.09-2.27.17-3.13.05-.54.17-3.21.21-4.19-.01-.59.1-1.13.33-1.56-.02-.5.27-.93.72-1.08.06-.02.12-.04.18-.04l.37-.11c-1.04-1.11-1.63-2.57-1.63-4.09 0-1.6.62-3.11 1.75-4.24 1.12-1.13 2.62-1.75 4.21-1.75h.01c1.59 0 3.09.63 4.21 1.76s1.74 2.64 1.74 4.24c0 1.59-.65 3.13-1.8 4.26l.81.17c.44.09.77.47.8.92.01.14-.01.28-.06.41l-.03.43c.3.47.48 1.09.54 1.84.04.48-.1 3.1-.14 3.89-.14 2.25-.6 4.73-.62 4.84l-.06.25c-.11.41-.21.79-.41 1.09l-.38 6.47c0 .22-.04.79-.41 1.3-.25.34-.87.97-.99 1.1C32.97 44.39 32.71 44.49 32.45 44.49zM31.25 41.75c.23.13.63.37.95.55.15-.16.28-.31.33-.38 0-.04.02-.16.03-.2l.4-6.87c.02-.26.13-.51.33-.68.04-.11.08-.29.13-.45l.05-.18s.44-2.42.58-4.51c.08-1.56.16-3.35.14-3.62-.04-.55-.17-.87-.28-.98-.19-.2-.3-.47-.28-.75l.01-.24-2.37-.49c-.44-.09-.77-.47-.8-.92-.03-.45.26-.87.69-1.01l.15-.04c.05-.01.1-.03.14-.05.05-.02.1-.05.15-.08l.13-.07c.17-.08.28-.14.38-.2.07-.04.12-.08.17-.12l.22-.17c.02-.03.05-.05.07-.07.88-.78 1.36-1.84 1.37-2.99 0-1.07-.41-2.07-1.16-2.83-.75-.75-1.77-1.18-2.8-1.17-1.06 0-2.05.41-2.79 1.17-.75.75-1.16 1.76-1.16 2.83 0 1.16.51 2.26 1.41 3.03.03.02.06.05.08.08l.08.06c.13.1.2.15.27.2.1.06.21.12.32.17.02.01.12.06.13.07.35.2.56.6.51 1s-.31.74-.7.85l-1.56.45c-.09.1-.2.19-.32.25-.02.01-.03.02-.05.02 0 .01-.01.01-.02.02-.03.04-.14.21-.13.71-.01.2-.15 3.65-.22 4.35-.08.81-.16 2.97-.16 2.99 0 .09-.01.2-.01.3v.04c.25-.1.53-.1.78.01.34.15.57.48.59.85.19 3.16.37 6.02.42 6.86.22.15.53.36.77.52.04-.02.09-.03.14-.05l.28-3.18c.04-.51.46-.9.97-.91h.03c.5 0 .92.37.99.86C31.09 40.41 31.22 41.42 31.25 41.75zM27.13 39.36c.01.01.04.03.1.07C27.19 39.41 27.16 39.38 27.13 39.36z"/><path fill="#E58A2C" d="M34.68 22.64l-4.46-.83s-2.42.35-2.43.35l-.46 17.98.78 1.03s1.02-.38 1.1-.41c.08-.03.07-.18.07-.18l.66-7.54 1.46 9.74 1.04.7s.68-.69.89-.98c.24-.33.22-.73.22-.73L34.68 22.64z"/><path fill="#FABD2C" d="M32.66 33.53c-.02.57-.27 1.23.75 1.41.74.13.75-.11 1.02-1.13 0 0 .47-2.5.61-4.71 0 0 .18-3.31.14-3.76-.12-1.66-.91-2.11-1.64-1.87-.53.17-1.08.65-.94 2.01 0 0 .18 3.89.18 4.64C32.76 31.05 32.66 33.53 32.66 33.53z"/><path opacity=".25" fill="#CF572E" d="M32.66 33.53c-.02.4.19-1.86.42-4.94.1-1.35-.08-4.87-.27-4.56s-.29.77-.22 1.45c0 0 .18 3.89.18 4.64C32.76 31.05 32.66 33.53 32.66 33.53z"/><path fill="#FABD2C" d="M24.64 31.45c-.01.67-.2 1.27.73 1.43.91.15.86-.61.93-.87 0 0 .45-1.92.75-3.91 0 0 .33-3.44.33-3.85.02-1.52-.66-1.99-1.35-1.84-.5.11-1.03.5-1.01 1.75 0 0-.15 3.56-.21 4.24C24.72 29.24 24.64 31.45 24.64 31.45z"/><path opacity=".25" fill="#CE592C" d="M24.64 31.45c-.01.67-.2 1.27.73 1.43.91.15.86-.61.93-.87 0 0 .45-1.92.75-3.91 0 0 .33-3.44.33-3.85.02-1.52-.66-1.99-1.35-1.84-.5.11-1.03.5-1.01 1.75 0 0-.15 3.56-.21 4.24C24.72 29.24 24.64 31.45 24.64 31.45z"/><path fill="#FABD2C" d="M31.56 23.71l-6.17-1.29s-.05.01-.04.09c.13 1.5 1.07 17.08 1.09 17.34.02.27.19.37.19.37s1.3.89 1.39.93.27 0 .27 0-.13-.04-.14-.23c-.02-.19.3-7.46.3-7.46.01-.37.11-.52.36-.53.24 0 .29.15.31.53 0 0 1.14 8.05 1.15 8.48s.31.56.31.56 1.47.86 1.59.92.3.01.3.01-.22-.01-.22-.3C32.25 42.94 31.56 23.71 31.56 23.71z"/><path opacity=".6" fill="#CE592C" d="M26.74 22.67l2.02 4.98 1.23-4.26"/><path fill="#CE592C" d="M25.43 22.42l6.13 1.29 3.16-1.07-5.88-1.2"/><ellipse opacity=".5" fill="#CE592C" cx="29.89" cy="22.41" rx="2.25" ry=".43"/><ellipse fill="#FABD2C" cx="29.95" cy="17.23" rx="4.96" ry="5"/><path opacity=".25" fill="#CE592C" d="M29.93 21.74c-1.19 0-2.3-.27-3.24-.75.87.77 2.01 1.24 3.26 1.24 1.28 0 2.44-.49 3.32-1.28C32.31 21.45 31.16 21.74 29.93 21.74z"/></svg>