<svg xmlns="http://www.w3.org/2000/svg" viewBox="0 0 60 60"><path opacity=".3" fill="#111" d="M30.33 27.19c-11.24 0-20.35 6.46-20.35 14.42s9.11 14.42 20.35 14.42 20.35-6.46 20.35-14.42C50.68 33.64 41.57 27.19 30.33 27.19zM30.21 55.03c-10.75 0-19.47-6.06-19.47-13.53s8.72-13.53 19.47-13.53 19.47 6.06 19.47 13.53S40.96 55.03 30.21 55.03z"/><ellipse opacity=".1" fill="#111" cx="30.21" cy="41.5" rx="19.47" ry="13.53"/><path fill="#FFF" d="M35.19 41.88c-.04 0-.08 0-.12-.01-.18-.04-.32-.18-.36-.36-.12-.44-.52-1.68-1-2.16-.31-.31-2.39-.5-4.56-.42-.22.02-.46-.16-.51-.4-.05-.24.08-.48.3-.57l13.95-5.63c.22-.09.47-.01.6.18s.12.45-.04.62l-7.88 8.59C35.47 41.82 35.33 41.88 35.19 41.88zM31.64 37.94c1.16.07 2.34.26 2.77.69.44.44.78 1.19 1 1.77l5.81-6.33L31.64 37.94z"/><path fill="#3F3F3F" d="M35.19 41.38s-.38-1.63-1.13-2.39c-.75-.75-4.93-.57-4.93-.57l13.95-5.63L35.19 41.38z"/><path fill="#333" d="M32.56 44.49c-.09 0-.17-.01-.26-.03-.21-.02-.37-.08-.48-.14-.12-.06-1.39-.8-1.6-.93-.39-.2-.81-.67-.84-1.41 0-.03-.01-.08-.02-.16-.12.04-.25.09-.37.14-.11.09-.25.16-.4.18-.04.01-.14.02-.26.03-.09.01-.19.01-.28-.01-.11-.01-.21-.04-.31-.08s-.18-.07-1.57-1.03c-.24-.13-.59-.54-.63-1.13-.01-.12-.2-3.22-.42-6.77-.2-.32-.25-.65-.28-.83-.04-.17-.47-2.07-.78-4.08-.06-.64-.34-3.56-.34-3.99-.02-1.62.64-2.32 1.14-2.61.14-.12.32-.19.5-.21l.28-.08c-1.06-1.11-1.65-2.58-1.65-4.11 0-1.6.62-3.11 1.74-4.24 1.12-1.13 2.62-1.76 4.22-1.76h.01c1.59 0 3.09.62 4.21 1.75 1.13 1.13 1.75 2.64 1.75 4.24 0 1.59-.64 3.12-1.78 4.25l.9.19c.44.09.77.47.8.92.01.14-.01.28-.06.41l-.06.99c.16.45.21.98.14 1.59 0 0-.07 3.73-.07 4.47.01.92.11 3.37.11 3.37l.01.13c.02.41.08 1.51-.88 2.08l-.36 6.17c0 .22-.04.79-.41 1.3-.25.34-.87.97-.99 1.1C33.08 44.39 32.82 44.49 32.56 44.49zM31.36 41.75c.23.13.63.37.95.55.15-.16.28-.31.33-.38.01-.02.03-.08.03-.11l.4-6.94c.03-.46.36-.84.81-.92.01 0 .02 0 .04-.01 0-.08 0-.19-.01-.27l-.01-.16s-.1-2.5-.11-3.44c-.01-.76.07-4.6.07-4.6.05-.53-.01-.76-.06-.88-.07-.15-.11-.32-.1-.49l.04-.65-2.43-.5c-.44-.09-.77-.47-.8-.92-.03-.45.25-.86.68-1.01l.11-.04c.04-.01.08-.03.12-.04.06-.02.11-.05.17-.08l.11-.06c.13-.06.26-.13.37-.2.06-.04.13-.09.19-.14.07-.05.12-.09.16-.12.02-.03.05-.05.08-.07.9-.77 1.41-1.87 1.41-3.03 0-1.07-.41-2.07-1.16-2.83-.75-.75-1.74-1.16-2.79-1.16-1.06 0-2.05.42-2.8 1.17C26.41 15.18 26 16.18 26 17.25c0 1.15.49 2.21 1.37 2.99.03.02.05.05.08.07l.12.09s.08.06.09.07c.06.05.11.09.17.13.11.07.22.12.33.18l.14.08c.35.2.58.61.53 1.01-.02.16-.07.31-.15.45.13.17.21.39.21.62 0 .3-.14.59-.37.78s-.54.27-.83.21l-1.31-.27c-.14-.03-.27-.09-.38-.17-.02-.01-.04-.03-.05-.04-.02-.02-.04-.03-.06-.05 0 0-.01 0-.02.01-.02.03-.15.27-.14.85 0 .24.17 2.1.33 3.77.29 1.87.72 3.76.73 3.78s.02.11.04.2c0 .03.01.06.01.09.16.17.26.39.27.63.2 3.16.37 6.03.42 6.86.22.15.53.36.77.52.04-.02.09-.03.14-.05l.28-3.18c.04-.51.46-.9.97-.91.56-.02.95.36 1.02.86C31.19 40.33 31.33 41.39 31.36 41.75zM27.24 39.36c.01.01.04.03.1.07C27.3 39.41 27.27 39.38 27.24 39.36z"/><path fill="#E58A2C" d="M34.79 22.64l-4.46-.83s-2.42.35-2.43.35l-.46 17.98.78 1.03s1.02-.38 1.1-.41.07-.18.07-.18l.66-7.54 1.46 9.74 1.04.7s.68-.69.89-.98c.24-.33.22-.73.22-.73L34.79 22.64z"/><path fill="#FABD2C" d="M34.9 33.46c.02.57.16 1.3-.85 1.48-.74.13-.75-.11-1.02-1.13 0 0-.47-2.5-.61-4.71 0 0-.18-3.31-.14-3.76.12-1.66.91-2.11 1.64-1.87.53.17 1.08.65.94 2.01 0 0-.08 3.82-.07 4.58C34.8 30.98 34.9 33.46 34.9 33.46z"/><path opacity=".25" fill="#CF572E" d="M34.9 33.46c.04 1.16-.68 1.07-.93.87-.63-.5-.71-5.21-.82-6.64-.07-.97.09-3.4.4-4.17.55-.21 1.04.42 1.09.51.19.31.29.77.22 1.45 0 0-.08 3.82-.07 4.58C34.8 30.98 34.9 33.46 34.9 33.46z"/><path fill="#E58A2C" d="M27.47 31.45c.01.67.2 1.27-.73 1.43-.91.15-.86-.61-.93-.87 0 0-.45-1.92-.75-3.91 0 0-.33-3.44-.33-3.85-.02-1.52.66-1.99 1.35-1.84.5.11 1.03.5 1.01 1.75 0 0 .15 3.56.21 4.24C27.38 29.24 27.47 31.45 27.47 31.45z"/><path fill="#FABD2C" d="M31.67 23.71l-6.17-1.29s-.05.01-.04.09c.13 1.5 1.07 17.08 1.09 17.34.02.27.19.37.19.37s1.3.89 1.39.93.27 0 .27 0-.13-.04-.14-.23c-.02-.19.3-7.46.3-7.46.01-.37.11-.52.36-.53.24 0 .29.15.31.53 0 0 1.14 8.05 1.15 8.48s.31.56.31.56 1.47.86 1.59.92.3.01.3.01-.22-.01-.22-.3C32.36 42.94 31.67 23.71 31.67 23.71z"/><path fill="#FABD2C" d="M31.67 23.71l-6.17-1.29s-.05.01-.04.09c.13 1.5 1.07 17.08 1.09 17.34.02.27.19.37.19.37s1.3.89 1.39.93.27 0 .27 0-.13-.04-.14-.23c-.02-.19.3-7.46.3-7.46.01-.37.11-.52.36-.53.24 0 .29.15.31.53 0 0 1.14 8.05 1.15 8.48s.31.56.31.56 1.47.86 1.59.92.3.01.3.01-.22-.01-.22-.3C32.36 42.94 31.67 23.71 31.67 23.71z"/><path fill="#CE592C" d="M25.54 22.42l6.13 1.29 3.16-1.07-5.88-1.2"/><ellipse opacity=".5" fill="#CE592C" cx="30" cy="22.41" rx="2.25" ry=".43"/><ellipse fill="#FABD2C" cx="29.95" cy="17.23" rx="4.96" ry="5"/><path opacity=".25" fill="#CE592C" d="M29.98 21.74c1.19 0 2.3-.27 3.24-.75-.87.77-2.01 1.24-3.26 1.24-1.28 0-2.44-.49-3.32-1.28C27.6 21.45 28.75 21.74 29.98 21.74z"/></svg>