<svg xmlns="http://www.w3.org/2000/svg" viewBox="0 0 60 60"><path opacity=".3" fill="#111" d="M30.33 27.19c-11.24 0-20.35 6.46-20.35 14.42s9.11 14.42 20.35 14.42 20.35-6.46 20.35-14.42S41.57 27.19 30.33 27.19zM30.21 55.03c-10.75 0-19.47-6.06-19.47-13.53s8.72-13.53 19.47-13.53 19.47 6.06 19.47 13.53S40.96 55.03 30.21 55.03z"/><ellipse opacity=".1" fill="#111" cx="30.21" cy="41.5" rx="19.47" ry="13.53"/><path fill="#FFF" d="M33.43 43.9c-.19 0-.36-.1-.45-.27-.1-.19-.06-.42.08-.57.01-.01.76-.81 1.19-1.75.29-.63-.76-1.38-.77-1.39-.19-.13-.26-.38-.18-.59.08-.21.3-.34.53-.32l14.81 1.91c.25.03.44.24.44.5 0 .25-.19.46-.44.5l-15.16 1.99C33.47 43.89 33.45 43.9 33.43 43.9zM35.06 40.17c.25.46.36 1 .11 1.55-.17.37-.38.73-.59 1.03l10.13-1.33L35.06 40.17z"/><path fill="#3F3F3F" d="M33.43 43.4s.81-.86 1.28-1.89c.47-1.03-.94-2.01-.94-2.01l14.81 1.91L33.43 43.4z"/><path fill="#333" d="M30.22 43.83c-.55 0-1.15-.05-1.58-.22-.39-.15-1.17-.46-1.21-1.2l-1.97-19.66c-.03-.33.1-.66.36-.88L26 21.73c-.01-.01-.03-.02-.04-.03-.05-.05-.1-.1-.14-.16-1.16-1.13-1.83-2.68-1.83-4.29 0-1.6.62-3.11 1.74-4.24 1.12-1.13 2.62-1.76 4.22-1.76h.01c1.59 0 3.09.62 4.21 1.75s1.75 2.64 1.75 4.24c0 1.55-.61 3.04-1.69 4.16.05.14.07.28.06.42-.1 1.48-1.1 20.03-1.11 20.22-.01.18-.07.36-.17.51-.59.87-.73.96-.87 1.05-.16.1-.39.21-.72.18C31.12 43.79 30.68 43.83 30.22 43.83zM29.42 42.22v.02c0 .04.01.08 0 .12C29.43 42.31 29.42 42.26 29.42 42.22zM29.37 41.74c.24.09.98.11 1.71.04.04-.05.07-.1.11-.15.12-2.19.83-15.48 1.05-19.13-.39-.09-.69-.42-.75-.81-.06-.41.13-.81.48-1.02l.12-.08c.06-.04.12-.09.19-.14.07-.05.12-.09.15-.12.02-.03.05-.05.08-.07.9-.77 1.41-1.87 1.41-3.03 0-1.07-.41-2.07-1.16-2.83-.75-.75-1.74-1.16-2.79-1.16-1.06 0-2.05.42-2.8 1.17-.75.76-1.16 1.76-1.16 2.83 0 1.15.49 2.21 1.36 2.99.03.02.05.05.07.07l.21.16c.06.04.11.09.17.13.09.06.19.11.29.16.41.21.66.69.55 1.14-.07.31-.27.56-.53.69l-.62.5L29.37 41.74z"/><path fill="#FABD2C" d="M26.45 22.64l5.6-1.2s1.12.24 1.14.24l-1.43 20.54-.35.53s-1.68.21-2.41-.08c-.58-.23-.58-.34-.58-.34L26.45 22.64z"/><path fill="#FABD2C" d="M32.52 22.7l.73-1.06s.04.01.03.09c-.1 1.5-1.11 20.23-1.11 20.23s-.47.7-.58.76c-.1.06-.25.01-.25.01s.18-.01.18-.3C31.53 42.24 32.52 22.7 32.52 22.7z"/><path opacity=".5" fill="#CE592C" d="M32.52 22.7l.73-1.06s.04.01.03.09c-.1 1.5-1.11 20.23-1.11 20.23s-.47.7-.58.76c-.1.06-.25.01-.25.01s.18-.01.18-.3C31.53 42.24 32.52 22.7 32.52 22.7z"/><path fill="#CE592C" d="M33.25 21.65l-.73 1.05-6.07-.06 1.2-.97"/><ellipse opacity=".5" fill="#CE592C" cx="30" cy="22.01" rx="2.13" ry=".52"/><path fill="#CE592C" d="M31.24 33.25c-.13.72.11 1.68-1.06 1.87-.83.13-.88-.7-.94-.99 0 0-.47-3.98-.63-6.18 0 0-.23-3.69-.01-4 .37-.52.92-.63 1.45-.49.61.17 1.52.64 1.36 2 0 0-.01 3.9 0 4.66C31.41 31.06 31.24 33.25 31.24 33.25z"/><path fill="#E58A2C" d="M30.64 33.53c.02.57.31 1.45-.87 1.59-1.17.14-1.21-.86-1.27-1.14 0 0-.42-2.16-.58-4.36 0 0-.21-3.83-.17-4.28.14-1.66 1.05-2.11 1.88-1.87.61.17 1.24.65 1.08 2.01 0 0-.03 3.94-.02 4.69C30.71 31.1 30.64 33.53 30.64 33.53z"/><path fill="#FABD2C" d="M30.64 33.53c.02.57.3 1.41-.87 1.59-.83.13-.88-.7-.94-.99 0 0-.47-3.98-.63-6.18 0 0-.23-3.69 0-4 .37-.52.92-.63 1.45-.49.61.17 1.24.65 1.08 2.01 0 0-.03 3.94-.02 4.69C30.71 31.1 30.64 33.53 30.64 33.53z"/><ellipse fill="#FABD2C" cx="29.95" cy="17.23" rx="4.96" ry="5"/><path opacity=".25" fill="#CE592C" d="M29.97 21.74c1.19 0 2.3-.27 3.24-.75-.87.77-2.01 1.24-3.26 1.24-1.28 0-2.44-.49-3.32-1.28C27.59 21.45 28.74 21.74 29.97 21.74z"/></svg>