<svg xmlns="http://www.w3.org/2000/svg" viewBox="0 0 60 60"><g fill="#111"><path opacity=".3" d="M30.33 27.2c-11.24 0-20.35 6.46-20.35 14.42s9.11 14.42 20.35 14.42 20.35-6.46 20.35-14.42C50.68 33.65 41.57 27.2 30.33 27.2zM30.21 55.04c-10.75 0-19.47-6.06-19.47-13.53s8.72-13.53 19.47-13.53 19.47 6.06 19.47 13.53S40.96 55.04 30.21 55.04z"/><ellipse opacity=".1" cx="30.21" cy="41.51" rx="19.47" ry="13.53"/></g><path fill="#FFF" d="M25.76 42.6c-.07 0-.14-.01-.2-.04l-12.42-5.44c-.23-.1-.35-.35-.28-.59.06-.24.29-.4.54-.37l15.03 1.64c.24.03.42.21.44.45s-.12.45-.35.53c-1.03.33-2.18.96-2.26 1.39-.18 1-.02 1.82-.01 1.83.04.18-.03.37-.17.49C25.99 42.57 25.87 42.6 25.76 42.6zM16.53 37.52l8.65 3.79c-.01-.37.01-.82.1-1.32.1-.56.63-1.03 1.21-1.39L16.53 37.52z"/><path fill="#3F3F3F" d="M25.76 42.1s-.22-.92.01-2.03c.22-1.04 2.6-1.78 2.6-1.78l-15.03-1.64L25.76 42.1z"/><path fill="#333" d="M28.81 44.46c-.16 0-.31-.03-.46-.09-.2-.07-.69-.24-1.19-.49-.74-.37-1-1.07-1-1.54l-.51-6.59c-.82-.58-.73-1.65-.7-2.06l.01-.2c0-.01.1-2.46.11-3.38 0-.24-.02-1.02-.12-3.38l-.31-4.02c-.04-.48.27-.91.73-1.04l.46-.13c-.01-.01-.01-.02-.02-.03-1.16-1.13-1.82-2.68-1.83-4.28 0-1.6.62-3.11 1.74-4.24 1.12-1.13 2.62-1.76 4.22-1.76h.01c1.59 0 3.09.62 4.21 1.75 1.13 1.13 1.75 2.64 1.75 4.24 0 1.63-.67 3.19-1.86 4.33.06.04.12.09.18.14.58.5.86 1.31.85 2.41 0 .43-.28 3.35-.34 3.93-.2 1.33-.53 2.6-.78 3.47-.22 4-.43 7.85-.44 8.03-.03.63-.32.96-.45 1.07-.84.92-.89.96-1.01 1.03-.4.25-.81.17-.99.12-.02 0-.04-.01-.06-.01C31 41.87 31 41.95 31 41.99c-.01.69-.31 1.08-.5 1.26-.13.13-.87.88-.95.94C29.34 44.37 29.08 44.46 28.81 44.46zM28.15 42.14c.16.08.32.14.45.2.14-.15.3-.31.4-.4.02-.46.16-2.31.22-3.12.04-.52.47-.92.99-.93h.01c.52 0 .95.39 1 .91l.07.82c.09-.1.18-.19.25-.27.02-.4.11-2.03.44-8.06 0-.08.02-.15.04-.23.24-.81.56-2.04.75-3.26.15-1.61.32-3.47.32-3.71.01-.69-.16-.87-.16-.87-.15.02-.25.04-.39 0l-1.14-.33c-.41-.12-.7-.48-.72-.91-.02-.43.23-.82.63-.98l.12-.05c.06-.03.12-.06.17-.08l.11-.06c.13-.06.25-.12.37-.2.07-.04.13-.1.2-.15.06-.05.11-.08.15-.11.02-.03.05-.05.08-.07.9-.77 1.41-1.88 1.41-3.03 0-1.07-.41-2.07-1.16-2.83-.75-.75-1.74-1.17-2.79-1.17-1.06 0-2.05.42-2.8 1.17-.75.76-1.16 1.76-1.16 2.83 0 1.15.49 2.21 1.37 2.99.03.02.05.05.08.08l.22.17.15.12c.11.07.22.13.34.18l.17.09c.05.03.1.05.15.08 0 0 .12.05.13.05.41.15.67.55.65.98s-.31.81-.73.92l-1.81.51.25 3.23c.09 1.99.13 3.13.12 3.51-.01.94-.11 3.44-.11 3.44 0 .08-.01.18-.02.28-.01.08-.02.2-.02.29.36.14.64.48.67.87L28.15 42.14zM31.67 39.2c-.03.02-.05.04-.06.07C31.64 39.22 31.67 39.2 31.67 39.2z"/><path fill="#CE592C" d="M31.14 31.34c-.06.52-.36 1.3.56 1.51s1.03-.7 1.1-.95c0 0 .65-1.97.95-3.96 0 0 .33-3.44.33-3.85.02-1.52-.66-1.99-1.35-1.84-.5.11-1.03.5-1.01 1.75 0 0-.15 3.56-.21 4.24C31.43 29.09 31.14 31.34 31.14 31.34z"/><path fill="#FDBF2D" d="M25.64 22.64l4.31-1.2s3.41 1.02 3.43 1.02L32.4 39.77l-1.04 1.03s-.81-.22-.91-.26c-.1-.03-.1-.18-.1-.18l-.15-1.68-.7 4.1-.72.66s-.6-.18-1.16-.47c-.45-.23-.45-.65-.45-.65L25.64 22.64z"/><path fill="#CE592C" d="M26.43 33.85c-.01.58-.14 1.33.9 1.51.76.13.77-.13 1.03-1.17 0 0 .44-2.57.55-4.83 0 0 .13-3.4.08-3.86-.16-1.71-.98-2.15-1.72-1.91-.55.18-1.1.67-.93 2.07 0 0 .14 3.92.15 4.7C26.5 31.3 26.43 33.85 26.43 33.85z"/><path fill="#FABD2C" d="M29.53 23.71l3.89-1.29s.03.01.03.09c-.08 1.5-.91 16.72-.92 16.99s-.12.37-.12.37-.82.89-.88.93-.17 0-.17 0 .08-.04.09-.23-.38-7.48-.38-7.48c-.01-.37-.07-.52-.23-.53-.15 0-.19.15-.19.53 0 0-.63 8.45-.64 8.88s-.2.56-.2.56-.82.83-.89.89c-.08.06-.19.01-.19.01s.14-.01.14-.3C28.86 42.94 29.53 23.71 29.53 23.71z"/><path opacity=".3" fill="#CE592C" d="M29.53 23.71l3.89-1.29s.03.01.03.09c-.08 1.5-.91 16.72-.92 16.99s-.12.37-.12.37-.82.89-.88.93-.17 0-.17 0 .08-.04.09-.23-.38-7.48-.38-7.48c-.01-.37-.07-.52-.23-.53-.15 0-.19.15-.19.53 0 0-.63 8.45-.64 8.88s-.2.56-.2.56-.82.83-.89.89c-.08.06-.19.01-.19.01s.14-.01.14-.3C28.86 42.94 29.53 23.71 29.53 23.71z"/><path fill="#CE592C" d="M33.42 22.42l-3.89 1.29-3.89-1.07 4.37-1.2"/><ellipse opacity=".5" fill="#CE592C" cx="29.8" cy="22.4" rx="2.13" ry=".52"/><path fill="#FABD2C" d="M25.97 33.53c-.02.57-.27 1.45.76 1.59 1.02.14 1.05-.86 1.11-1.14 0 0 .52-2.21.66-4.41 0 0 .03-3.78-.01-4.23-.12-1.66-.91-2.11-1.64-1.87-.53.17-1.08.65-.94 2.01 0 0 .18 3.89.18 4.64C26.07 31.05 25.97 33.53 25.97 33.53z"/><path opacity=".25" fill="#CF572E" d="M25.97 33.53c-.02.57-.27 1.45.76 1.59 1.02.14 1.05-.86 1.11-1.14 0 0 .52-2.21.66-4.41 0 0 .03-3.78-.01-4.23-.12-1.66-.91-2.11-1.64-1.87-.53.17-1.08.65-.94 2.01 0 0 .18 3.89.18 4.64C26.07 31.05 25.97 33.53 25.97 33.53z"/><ellipse fill="#FABD2C" cx="29.95" cy="17.23" rx="4.96" ry="5"/><path opacity=".25" fill="#CE592C" d="M29.98 21.74c1.19 0 2.3-.27 3.24-.75-.87.77-2.01 1.24-3.26 1.24-1.28 0-2.44-.49-3.32-1.28C27.6 21.45 28.75 21.74 29.98 21.74z"/><path fill="#FDBF2D" d="M25.99 33.53c-.04 1.16.54.95.82.81.99-.52 1.09-5.12 1.2-6.56.07-.97.16-3.58-.78-4.26-.55-.21-1.04.42-1.09.51-.19.31-.29.77-.22 1.45 0 0 .18 3.89.18 4.64C26.09 31.05 25.99 33.53 25.99 33.53z"/></svg>