<svg xmlns="http://www.w3.org/2000/svg" viewBox="0 0 60 60"><g fill="#111"><path opacity=".3" d="M30.33 27.2c-11.24 0-20.35 6.46-20.35 14.42s9.11 14.42 20.35 14.42 20.35-6.46 20.35-14.42C50.68 33.65 41.57 27.2 30.33 27.2zM30.21 55.04c-10.75 0-19.47-6.06-19.47-13.53s8.72-13.53 19.47-13.53 19.47 6.06 19.47 13.53S40.96 55.04 30.21 55.04z"/><ellipse opacity=".1" cx="30.21" cy="41.51" rx="19.47" ry="13.53"/></g><path fill="#FFF" d="M25.23 41.88c-.14 0-.27-.06-.37-.16l-7.88-8.59c-.16-.17-.18-.43-.04-.62.13-.19.38-.26.6-.18l13.95 5.63c.22.09.35.33.3.57s-.25.41-.51.4c-2.16-.08-4.25.11-4.56.42-.49.49-.89 1.73-1 2.16-.05.18-.19.32-.36.36C25.31 41.88 25.27 41.88 25.23 41.88zM19.21 34.08l5.81 6.33c.21-.58.55-1.33.99-1.77.43-.43 1.61-.62 2.77-.69L19.21 34.08z"/><path fill="#3F3F3F" d="M25.23 41.38s.38-1.63 1.13-2.39c.75-.75 4.93-.57 4.93-.57l-13.95-5.63L25.23 41.38z"/><path fill="#333" d="M27.48 44.47c-.26 0-.52-.09-.7-.28-.12-.12-.75-.76-.99-1.1-.37-.51-.41-1.07-.41-1.3l-.36-6.17c-.96-.56-.9-1.66-.88-2.07l.01-.14c0-.01.1-2.46.11-3.38.01-.75-.07-4.55-.07-4.55-.06-.55-.01-1.06.15-1.51l-.06-1.08c-.03-.1-.04-.2-.03-.31.03-.45.33-.84.78-.93l.79-.16c-1.15-1.13-1.8-2.67-1.81-4.26 0-1.6.62-3.11 1.74-4.24 1.12-1.13 2.62-1.76 4.22-1.76h.01c1.59 0 3.09.62 4.21 1.75 1.13 1.13 1.75 2.64 1.75 4.24 0 1.52-.58 2.97-1.62 4.09l.46.13c.16.03.31.1.43.19.51.3 1.17.99 1.14 2.61 0 .43-.28 3.35-.34 3.93-.31 2.06-.75 3.97-.77 4.05-.04.25-.1.6-.3.92-.22 3.53-.41 6.62-.41 6.76-.04.61-.39 1.01-.7 1.19-1.32.91-1.4.94-1.52.99-.06.02-.14.04-.23.06-.11.03-.22.03-.33.02-.14-.01-.27-.03-.27-.03-.16-.03-.31-.1-.43-.19-.11-.04-.23-.09-.34-.13-.01.09-.02.15-.02.18-.02.72-.45 1.19-.83 1.39-.21.12-1.48.86-1.6.92-.19.1-.41.13-.63.15C27.57 44.47 27.52 44.47 27.48 44.47zM26.13 33.94c.01 0 .02 0 .04.01.45.09.79.47.81.92l.4 6.85v.12c0 .01.01.07.03.09.05.07.18.22.33.38.32-.18.72-.42.95-.55.04-.36.17-1.41.66-4.95.07-.5.49-.86.99-.86h.03c.51.01.93.41.97.91l.28 3.18c.05.02.09.03.14.05.24-.16.56-.38.77-.52.05-.82.23-3.69.42-6.86.01-.24.11-.46.27-.63.01-.03.01-.06.01-.09.02-.1.03-.18.05-.25 0 0 .43-1.88.72-3.79.15-1.61.32-3.47.32-3.71.01-.55-.11-.8-.15-.86-.05.04-.1.08-.15.11-.1.07-.22.12-.34.14l-1.31.27c-.29.06-.6-.01-.83-.2s-.37-.48-.37-.78c0-.2.06-.39.17-.55-.13-.15-.21-.35-.23-.55-.04-.41.18-.8.55-.99.19-.1.31-.16.43-.23.07-.05.14-.1.21-.16.06-.04.1-.08.14-.1.02-.03.05-.05.08-.07.9-.77 1.41-1.88 1.41-3.03 0-1.07-.41-2.07-1.16-2.83-.75-.75-1.74-1.17-2.79-1.17-1.06 0-2.05.42-2.8 1.17-.75.76-1.16 1.76-1.16 2.83 0 1.15.49 2.21 1.37 2.99.03.02.05.05.08.08l.21.16c.05.04.11.09.16.12.11.07.22.13.34.18l.17.09c.05.03.1.05.15.08.06.02.11.04.17.05l.13.04c.43.14.72.55.7 1.01-.02.45-.35.84-.8.93l-2.36.48.04.65c.01.17-.02.33-.09.49-.06.12-.11.35-.07.8 0 .08.08 3.93.08 4.68-.01.94-.11 3.44-.11 3.44l-.01.16C26.13 33.75 26.13 33.85 26.13 33.94zM32.74 39.41c-.03.01-.05.03-.07.05C32.72 39.43 32.74 39.41 32.74 39.41z"/><path fill="#FDBF2D" d="M25.26 22.64l4.46-.83s2.42.35 2.43.35l.46 17.98-.78 1.03s-1.02-.38-1.1-.41c-.08-.03-.07-.18-.07-.18L30 33.05l-1.46 9.74-1.04.7s-.68-.69-.89-.98c-.24-.33-.22-.73-.22-.73L25.26 22.64z"/><path fill="#CE592C" d="M25.55 33.57c-.01.57-.14 1.3.87 1.46.74.12.75-.12 1-1.14 0 0 .44-2.51.55-4.71 0 0 .13-3.31.09-3.76-.15-1.66-.94-2.09-1.67-1.85-.53.18-1.07.66-.91 2.02 0 0 .13 3.82.13 4.57C25.63 31.09 25.55 33.57 25.55 33.57z"/><path fill="#FABD2C" d="M25.15 33.46c-.02.57-.16 1.3.85 1.48.74.13.75-.11 1.02-1.13 0 0 .47-2.5.61-4.71 0 0 .18-3.31.14-3.76-.12-1.66-.91-2.11-1.64-1.87-.53.17-1.08.65-.94 2.01 0 0 .08 3.82.07 4.58C25.25 30.98 25.15 33.46 25.15 33.46z"/><path opacity=".3" fill="#CE592C" d="M25.15 33.46c-.02.57-.16 1.3.85 1.48.74.13.75-.11 1.02-1.13 0 0 .47-2.5.61-4.71 0 0 .18-3.31.14-3.76-.12-1.66-.91-2.11-1.64-1.87-.53.17-1.08.65-.94 2.01 0 0 .08 3.82.07 4.58C25.25 30.98 25.15 33.46 25.15 33.46z"/><path fill="#FDBF2D" d="M25.15 33.46c-.04 1.16.68 1.07.93.87.63-.5.71-5.21.82-6.64.07-.97-.09-3.4-.4-4.17-.55-.21-1.04.42-1.09.51-.19.31-.29.77-.22 1.45 0 0 .08 3.82.07 4.58C25.25 30.98 25.15 33.46 25.15 33.46z"/><path fill="#E58A2C" d="M32.58 31.45c-.01.67-.2 1.27.73 1.43.91.15.86-.61.93-.87 0 0 .45-1.92.75-3.91 0 0 .33-3.44.33-3.85.02-1.52-.66-1.99-1.35-1.84-.5.11-1.03.5-1.01 1.75 0 0-.15 3.56-.21 4.24C32.67 29.24 32.58 31.45 32.58 31.45z"/><path fill="#FABD2C" d="M28.38 23.71l6.17-1.29s.05.01.04.09c-.13 1.5-1.07 17.08-1.09 17.34-.02.27-.19.37-.19.37s-1.3.89-1.39.93-.27 0-.27 0 .13-.04.14-.23c.02-.19-.3-7.46-.3-7.46-.01-.37-.11-.52-.36-.53-.24 0-.29.15-.31.53 0 0-1.14 8.05-1.15 8.48s-.31.56-.31.56-1.47.86-1.59.92-.3.01-.3.01.22-.01.22-.3C27.69 42.94 28.38 23.71 28.38 23.71z"/><path opacity=".3" fill="#CE592C" d="M28.38 23.71l6.17-1.29s.05.01.04.09c-.13 1.5-1.07 17.08-1.09 17.34-.02.27-.19.37-.19.37s-1.3.89-1.39.93-.27 0-.27 0 .13-.04.14-.23c.02-.19-.3-7.46-.3-7.46-.01-.37-.11-.52-.36-.53-.24 0-.29.15-.31.53 0 0-1.14 8.05-1.15 8.48s-.31.56-.31.56-1.47.86-1.59.92-.3.01-.3.01.22-.01.22-.3C27.69 42.94 28.38 23.71 28.38 23.71z"/><path fill="#CE592C" d="M34.51 22.42l-6.14 1.29-3.15-1.07 5.88-1.2"/><ellipse opacity=".5" fill="#CE592C" cx="30.05" cy="22.41" rx="2.25" ry=".43"/><ellipse fill="#FABD2C" cx="29.95" cy="17.23" rx="4.96" ry="5"/><path opacity=".25" fill="#CE592C" d="M29.98 21.74c1.19 0 2.3-.27 3.24-.75-.87.77-2.01 1.24-3.26 1.24-1.28 0-2.44-.49-3.32-1.28C27.6 21.45 28.75 21.74 29.98 21.74z"/></svg>