<svg xmlns="http://www.w3.org/2000/svg" viewBox="0 0 60 60"><path opacity=".3" fill="#111" d="M30.33 27.19c-11.24 0-20.35 6.46-20.35 14.42s9.11 14.42 20.35 14.42 20.35-6.46 20.35-14.42S41.57 27.19 30.33 27.19zM30.21 55.03c-10.75 0-19.47-6.06-19.47-13.53s8.72-13.53 19.47-13.53 19.47 6.06 19.47 13.53S40.96 55.03 30.21 55.03z"/><ellipse opacity=".1" fill="#111" cx="30.21" cy="41.5" rx="19.47" ry="13.53"/><path fill="#FFF" d="M40.14 52.96c-.09 0-.18-.02-.26-.07l-12.27-7.33c-.19-.12-.29-.35-.22-.56.06-.22.26-.37.48-.37 1.16.01 4.24-.05 5.06-.32.68-.22 1.75-1.35 2.26-2.02.11-.14.28-.21.45-.19.17.02.32.13.4.29l4.55 9.86c.09.2.04.43-.12.58C40.38 52.92 40.26 52.96 40.14 52.96zM29.64 45.6L39 51.2l-3.54-7.68c-.55.61-1.42 1.47-2.22 1.73C32.57 45.48 30.94 45.57 29.64 45.6z"/><path fill="#3F3F3F" d="M27.87 45.13s4.14.01 5.22-.35c1.08-.35 2.5-2.18 2.5-2.18l4.55 9.86L27.87 45.13z"/><path fill="#333" d="M26.53 43.7c-.18 0-.37-.03-.58-.08l-.5-.14-.11-.3c-.65-.61-1.01-1.18-1.06-1.69-.02-.2-.04-.42-.01-.65l-.17-5.13c-.05.01-.09.02-.13.02-.53.08-1.22-.13-1.58-.26-.62-.16-1.02-.85-.9-1.64.08-.68.45-3.36.75-5.23.4-2.47.88-4.5.9-4.58.06-.39.25-.83.53-1.2l-.01-.46c-.01-.33.11-.65.34-.9s.54-.38.88-.39l.47-.01c-.86-1.05-1.37-2.39-1.37-3.82 0-1.6.62-3.11 1.74-4.24 1.12-1.13 2.62-1.76 4.22-1.76h.01c1.59 0 3.09.62 4.21 1.75s1.74 2.64 1.75 4.24c0 1.62-.63 3.12-1.71 4.22.37.21.8.46 1.15.68 1.08.67 1.28 1.95 1.31 2.31.21 1.1.74 3.9.88 4.48.23.93.66 3.25.68 3.35.02.12.04.21.06.3.11.54.4 1.96-1.3 2.51-.54.17-1.03.15-1.45-.06-.35-.18-.57-.46-.71-.72-.22 3.57-.41 6.62-.42 6.74-.04.61-.39 1.01-.7 1.19l-.29.11s-1.71.35-2.08.44l-.04.03-.25.04c-.14.02-.42.03-.7-.09-.1-.04-.17-.07-.51-.36-.18.41-.49.68-.77.8l-.22.07c-.72.13-1.59.31-1.82.37C26.88 43.67 26.71 43.7 26.53 43.7zM26.21 41.78s-.01 0-.01.01C26.2 41.79 26.21 41.79 26.21 41.78zM26.28 41.24c.06.1.19.25.35.41.25-.06.66-.14 1.36-.28.07-.72.3-2.64.67-5.71l1.99.1.11 4.79c.09.08.18.16.27.23.25-.06.67-.15 1.4-.3.09-1.51.42-6.79.69-11.21l1.95-.23c.39 1.26.83 2.48 1.1 3.21-.13-.69-.42-2.2-.58-2.86-.19-.75-.89-4.48-.92-4.63l-.02-.13c-.01-.19-.12-.64-.37-.8-.55-.34-1.3-.77-1.68-.98l-.81.02-.4-1.93c1.52-.61 2.5-2.07 2.5-3.71 0-1.07-.41-2.07-1.16-2.83-.75-.75-1.74-1.16-2.79-1.16-1.06 0-2.05.42-2.8 1.17-.75.76-1.16 1.76-1.16 2.83 0 1.72 1.09 3.24 2.71 3.79l-.29 1.95-2.71.08.02.57-.35.31c-.12.11-.23.31-.25.47-.02.1-.5 2.12-.89 4.51-.31 1.92-.59 3.97-.7 4.8.02 0 .03.01.04.01L24 31.81 25.97 32 26.28 41.24zM22.99 33.56c.03.01.05.02.08.03C23.04 33.58 23.02 33.57 22.99 33.56z"/><path fill="#FABD2C" d="M37.24 32.44c.12.73.42 1.35-.57 1.67-.97.31-1.03-.53-1.15-.79 0 0-.79-2.02-1.44-4.14 0 0-.9-3.69-.98-4.14-.26-1.66.41-2.27 1.17-2.21.56.04 1.2.38 1.38 1.75 0 0 .72 3.85.91 4.58C36.79 30.06 37.24 32.44 37.24 32.44z"/><path opacity=".25" fill="#CF572E" d="M34.23 29.87l.2-7.11.41.31s-.06 5.4.11 6.64c.17 1.24.45 3.13.45 3.13L34.23 29.87z"/><path fill="#E58A2C" d="M24.66 22.08l.61 18.85s-.04.03.01.47c.05.48.95 1.24.95 1.24l1.86-.57 1.26-10.05.23.77.19 8.22.95.81.18.02 1.44-1.03.51-18.03-2.05-.32L24.66 22.08"/><path fill="#FABD2C" d="M34.51 22.74L26.24 23c-.49 15.18.06 15.86-.04 19.32-.01.29.02.32.02.32s.18.05.33.05c.05 0 .09-.01.12-.02.13-.07 2-.41 2-.41s.3-.14.31-.57c.02-.43.88-7.48.88-7.48.05-.65.14-.75.39-.76.25.01.35.16.36.53 0 0 .3 7.4.28 7.59-.02.2-.14.23-.14.23H31c.09-.04 2.21-.48 2.21-.48s.18-.1.2-.37L34.51 22.74"/><path opacity=".1" fill="#CE592C" d="M34.51 22.74L26.24 23c-.49 15.18.06 15.86-.04 19.32-.01.29.02.32.02.32s.18.05.33.05c.05 0 .09-.01.12-.02.13-.07 2-.41 2-.41s.3-.14.31-.57c.02-.43.88-7.48.88-7.48.05-.65.14-.75.39-.76.25.01.35.16.36.53 0 0 .3 7.4.28 7.59-.02.2-.14.23-.14.23H31c.09-.04 2.21-.48 2.21-.48s.18-.1.2-.37L34.51 22.74"/><path fill="#CE592C" d="M32.87 21.84l-8.21.24 1.56.95 8.25-.29L32.87 21.84"/><ellipse opacity=".5" fill="#CE592C" cx="29.98" cy="22.37" rx="2.25" ry=".3"/><ellipse fill="#FABD2C" cx="29.94" cy="17.23" rx="4.96" ry="5"/><path opacity=".8" fill="#CE592C" d="M33.29 22.77l-3.09 5.36-2.77-5.3"/><path opacity=".25" fill="#CE592C" d="M29.97 21.74c1.19 0 2.3-.27 3.24-.75-.87.77-2.01 1.24-3.26 1.24-1.28 0-2.44-.49-3.32-1.28C27.59 21.45 28.74 21.74 29.97 21.74z"/><path fill="#FABD2C" d="M25.91 26.06c-.1 1.59-.92 5.97-.92 5.97l-.54 2.33c-.08.24-.27.33-.62.38-.35.05-1.09-.21-1.09-.21-.23-.06-.29-.3-.25-.55 0 0 .35-2.72.75-5.23.4-2.46.89-4.51.89-4.51.1-.61.59-1.29 1.17-1.34 0 0 .69 0 .71 1.06C26.03 25.08 25.91 26.06 25.91 26.06z"/><path opacity=".25" fill="#CF572E" d="M25.49 22.95c.2.08.5.32.52 1.01.03 1.12-.1 2.1-.1 2.1-.09 1.36-.7 4.73-.87 5.7l-.01.05C25.02 31.81 25.6 26.32 25.49 22.95z"/></svg>