<svg xmlns="http://www.w3.org/2000/svg" viewBox="0 0 60 60"><path opacity=".3" fill="#111" d="M30.33 27.19c-11.24 0-20.35 6.46-20.35 14.42s9.11 14.42 20.35 14.42 20.35-6.46 20.35-14.42S41.57 27.19 30.33 27.19zM30.21 55.03c-10.75 0-19.47-6.06-19.47-13.53s8.72-13.53 19.47-13.53 19.47 6.06 19.47 13.53S40.96 55.03 30.21 55.03z"/><ellipse opacity=".1" fill="#111" cx="30.21" cy="41.5" rx="19.47" ry="13.53"/><path fill="#FFF" d="M34.67 42.6c-.11 0-.22-.04-.32-.11-.15-.12-.21-.31-.17-.49 0-.01.17-.84-.01-1.83-.08-.43-1.23-1.06-2.26-1.39-.23-.07-.37-.29-.35-.53s.21-.42.44-.45l15.03-1.64c.25-.03.47.13.54.37.06.24-.06.49-.28.59l-12.42 5.44C34.8 42.59 34.73 42.6 34.67 42.6zM33.94 38.6c.58.36 1.1.82 1.21 1.39.09.49.11.95.1 1.32l8.65-3.79L33.94 38.6z"/><path fill="#3F3F3F" d="M34.66 42.1s.22-.92-.01-2.03c-.22-1.04-2.6-1.78-2.6-1.78l15.03-1.64L34.66 42.1z"/><path fill="#333" d="M30.91 44.46c-.27 0-.53-.09-.73-.26-.04-.03-.12-.1-.95-.95-.19-.18-.48-.57-.5-1.26 0-.03 0-.1-.01-.25-.05.01-.08.02-.08.02-.48.12-.79-.01-.98-.13-.11-.07-.16-.1-1.07-1.09-.06-.05-.36-.38-.38-1.01-.01-.18-.22-4.03-.44-8.03-.21-.74-.57-2.07-.78-3.42-.06-.64-.34-3.56-.34-3.99-.01-1.1.27-1.91.85-2.41.09-.08.19-.15.29-.2C24.65 20.35 24 18.82 24 17.23c0-1.6.62-3.11 1.74-4.24 1.12-1.13 2.62-1.76 4.22-1.76h.01c1.59 0 3.09.62 4.21 1.75 1.13 1.13 1.75 2.64 1.75 4.24 0 1.64-.68 3.21-1.88 4.35 0 0 0 .01-.01.01l.33.09c.46.13.76.56.73 1.04l-.31 4.05c-.1 2.32-.12 3.1-.12 3.34.01.92.11 3.37.11 3.37l.01.2c.03.4.12 1.47-.7 2.06l-.51 6.67c0 .4-.26 1.09-.99 1.46-.49.25-.98.42-1.2.49C31.22 44.43 31.07 44.46 30.91 44.46zM30.72 41.93c.1.1.25.26.4.41.14-.05.29-.12.45-.2l.55-7.13c.03-.4.3-.74.67-.87 0-.09-.01-.21-.02-.29-.01-.1-.02-.2-.02-.29 0 0-.1-2.5-.11-3.44 0-.38.04-1.52.12-3.48l.25-3.26-1.72-.48c-.42-.12-.72-.5-.73-.93-.01-.44.26-.83.67-.98l.19-.06c.05-.02.11-.05.17-.08l.11-.06c.13-.06.26-.13.37-.2.06-.04.13-.09.2-.15.07-.05.11-.09.15-.11.02-.03.05-.05.08-.07.9-.77 1.41-1.87 1.41-3.03 0-1.07-.41-2.07-1.16-2.83-.75-.75-1.74-1.16-2.79-1.16-1.06 0-2.05.42-2.8 1.17C26.41 15.17 26 16.17 26 17.24c0 1.15.49 2.21 1.37 2.99.03.02.05.05.08.07l.22.16c.05.04.11.09.16.12.11.07.22.12.33.18l.18.09c.05.02.09.05.14.07l.14.07c.39.16.61.54.58.96-.02.43-.35.77-.76.89l-1.23.36c-.14.04-.28.05-.43.03 0 .03-.13.24-.12.84 0 .24.17 2.1.33 3.77.19 1.25.55 2.55.74 3.21.02.07.04.15.04.23.33 6.01.42 7.66.44 8.06.07.08.16.17.25.27l.07-.82c.05-.52.48-.91 1-.91h.01c.52 0 .95.41.99.93C30.68 41.19 30.72 41.76 30.72 41.93zM27.99 39.13l.1.1L27.99 39.13z"/><path fill="#E58A2C" d="M28.59 31.34c.06.52.36 1.3-.56 1.51-.92.21-1.03-.7-1.1-.95 0 0-.65-1.97-.95-3.96 0 0-.33-3.44-.33-3.85-.02-1.52.66-1.99 1.35-1.84.5.11 1.03.5 1.01 1.75 0 0 .15 3.56.21 4.24C28.3 29.09 28.59 31.34 28.59 31.34z"/><path fill="#E58A2C" d="M34.08 22.64l-4.31-1.2s-3.41 1.02-3.43 1.02l.98 17.31 1.04 1.03s.81-.22.91-.26c.1-.03.1-.18.1-.18l.15-1.68.7 4.1.72.66s.6-.18 1.16-.47c.45-.23.45-.65.45-.65L34.08 22.64z"/><path fill="#FABD2C" d="M30.19 23.71l-3.89-1.29s-.03.01-.03.09c.08 1.5.91 16.72.92 16.99s.12.37.12.37.82.89.88.93.17 0 .17 0-.08-.04-.09-.23.38-7.48.38-7.48c.01-.37.07-.52.23-.53.15 0 .19.15.19.53 0 0 .63 8.45.64 8.88.01.43.2.56.2.56s.82.83.89.89c.08.06.19.01.19.01s-.14-.01-.14-.3C30.87 42.94 30.19 23.71 30.19 23.71z"/><path fill="#FABD2C" d="M30.19 23.71l-3.89-1.29s-.03.01-.03.09c.08 1.5.91 16.72.92 16.99s.12.37.12.37.82.89.88.93.17 0 .17 0-.08-.04-.09-.23.38-7.48.38-7.48c.01-.37.07-.52.23-.53.15 0 .19.15.19.53 0 0 .63 8.45.64 8.88.01.43.2.56.2.56s.82.83.89.89c.08.06.19.01.19.01s-.14-.01-.14-.3C30.87 42.94 30.19 23.71 30.19 23.71z"/><path fill="#CE592C" d="M26.3 22.42l3.89 1.29 3.89-1.07-4.37-1.2"/><ellipse opacity=".5" fill="#CE592C" cx="29.93" cy="22.4" rx="2.13" ry=".52"/><path fill="#FABD2C" d="M33.76 33.53c.02.57.27 1.45-.76 1.59-1.02.14-1.05-.86-1.11-1.14 0 0-.52-2.21-.66-4.41 0 0-.03-3.78.01-4.23.12-1.66.91-2.11 1.64-1.87.53.17 1.08.65.94 2.01 0 0-.18 3.89-.18 4.64C33.65 31.05 33.76 33.53 33.76 33.53z"/><ellipse fill="#FABD2C" cx="29.95" cy="17.23" rx="4.96" ry="5"/><path opacity=".25" fill="#CE592C" d="M29.98 21.74c1.19 0 2.3-.27 3.24-.75-.87.77-2.01 1.24-3.26 1.24-1.28 0-2.44-.49-3.32-1.28C27.6 21.45 28.75 21.74 29.98 21.74z"/><path opacity=".25" fill="#CF572E" d="M33.74 33.53c.04 1.16-.54.95-.82.81-.99-.52-1.09-5.12-1.2-6.56-.07-.97-.16-3.58.78-4.26.55-.21 1.04.42 1.09.51.19.31.29.77.22 1.45 0 0-.18 3.89-.18 4.64C33.63 31.05 33.74 33.53 33.74 33.53z"/></svg>