<svg xmlns="http://www.w3.org/2000/svg" viewBox="0 0 60 60"><path opacity=".3" fill="#111" d="M30.33 27.19c-11.24 0-20.35 6.46-20.35 14.42s9.11 14.42 20.35 14.42 20.35-6.46 20.35-14.42S41.57 27.19 30.33 27.19zM30.21 55.03c-10.75 0-19.47-6.06-19.47-13.53s8.72-13.53 19.47-13.53 19.47 6.06 19.47 13.53S40.96 55.03 30.21 55.03z"/><ellipse opacity=".1" fill="#111" cx="30.21" cy="41.5" rx="19.47" ry="13.53"/><path fill="#FFF" d="M34.56 41.4c-.21 0-.39-.13-.47-.32-.58-1.56-1.42-3.02-1.79-3.13-.41-.13-2.39.7-4.22 1.77-.21.12-.48.08-.63-.11-.16-.18-.16-.45-.01-.64l8.2-9.97c.14-.17.38-.23.58-.14.2.09.33.3.3.52l-1.46 11.59c-.03.23-.21.41-.44.43C34.59 41.39 34.57 41.4 34.56 41.4zM32.25 36.94c.13 0 .24.01.34.04.62.19 1.23 1.13 1.7 2.05l1.02-8.07-5.53 6.74C30.67 37.29 31.61 36.94 32.25 36.94z"/><path fill="#3F3F3F" d="M34.56 40.9s-1.09-3.12-2.11-3.43-4.62 1.82-4.62 1.82l8.2-9.97L34.56 40.9z"/><path fill="#333" d="M33.37 43.7c-.18 0-.35-.03-.5-.09-.22-.06-1.1-.23-1.82-.37l-.22-.07c-.28-.12-.59-.39-.77-.8-.34.29-.41.31-.51.36-.28.12-.55.11-.69.09l-.29-.06c-.38-.09-2.08-.44-2.08-.44l-.3-.11c-.31-.18-.65-.58-.7-1.17-.01-.12-.19-3.18-.42-6.75-.14.27-.36.54-.7.72-.42.22-.91.24-1.45.06-1.69-.54-1.41-1.97-1.3-2.51.02-.09.04-.18.05-.27.02-.12.46-2.45.68-3.37.14-.58.68-3.38.89-4.48.03-.36.23-1.64 1.31-2.31.35-.22.78-.47 1.15-.68-1.08-1.1-1.72-2.6-1.71-4.22 0-1.6.62-3.11 1.75-4.24 1.12-1.13 2.62-1.75 4.21-1.75h.01c1.59 0 3.09.63 4.21 1.76s1.74 2.64 1.74 4.24c0 1.43-.5 2.77-1.37 3.82l.47.01c.33.01.65.15.88.39s.35.56.34.89l-.02.46c.28.37.48.82.55 1.27.01.01.49 2.04.89 4.51.3 1.87.67 4.54.75 5.23.13.8-.27 1.48-.98 1.67-.28.11-.97.31-1.5.23-.04-.01-.08-.01-.13-.02l-.17 5.13c.03.22.01.45-.01.65-.05.52-.42 1.1-1.09 1.72l-.13.29-.45.12C33.74 43.67 33.54 43.7 33.37 43.7zM28.51 42.73l.05.02L28.51 42.73zM31.9 41.37c.71.13 1.11.22 1.36.28.16-.16.29-.31.35-.41l.3-9.24 1.97-.19.44 1.92c.01 0 .03-.01.04-.01-.11-.83-.39-2.88-.7-4.81-.39-2.39-.87-4.42-.87-4.44-.04-.24-.15-.44-.27-.55l-.35-.31.02-.57-2.71-.08-.29-1.95c1.62-.54 2.71-2.07 2.71-3.79 0-1.07-.41-2.07-1.16-2.83-.75-.75-1.74-1.17-2.79-1.17-1.06 0-2.05.41-2.79 1.16C26.41 15.13 26 16.14 26 17.21c0 1.65.98 3.11 2.5 3.72l-.4 1.93-.81-.02c-.38.21-1.12.64-1.68.98-.25.15-.36.61-.37.8l-.02.12c-.03.16-.73 3.88-.92 4.64-.16.65-.45 2.15-.58 2.86.27-.72.71-1.94 1.1-3.21l1.95.23c.28 4.41.6 9.68.69 11.21.73.15 1.15.24 1.4.3.09-.07.18-.16.27-.23l.11-4.79 1.99-.1C31.7 39.55 31.85 40.88 31.9 41.37zM36.83 33.58c-.02.01-.04.01-.06.02C36.79 33.6 36.81 33.59 36.83 33.58z"/><path fill="#FABD2C" d="M22.66 32.44c-.12.73-.42 1.35.57 1.67.97.31 1.03-.53 1.15-.79 0 0 .79-2.02 1.44-4.14 0 0 .9-3.69.98-4.14.26-1.66-.41-2.27-1.17-2.21-.56.04-1.2.38-1.38 1.75 0 0-.72 3.85-.91 4.58C23.11 30.06 22.66 32.44 22.66 32.44z"/><path opacity=".25" fill="#CF572E" d="M25.67 29.87l-.2-7.11-.41.31s.06 5.4-.11 6.64-.45 3.13-.45 3.13L25.67 29.87z"/><path fill="none" d="M27.03 22.08h8.2v20.56h-8.2C27.03 42.64 27.03 22.08 27.03 22.08z"/><path fill="#E58A2C" d="M35.23 22.08l-6.16.37-2.04.32.51 18.03 1.43 1.03.19-.02L30.1 41l.19-8.22.24-.77 1.25 10.05 1.87.57s.9-.77.95-1.24c.04-.44 0-.47 0-.47L35.23 22.08"/><path fill="none" d="M25.39 22.74h8.31V42.7h-8.31V22.74z"/><path fill="#FABD2C" d="M25.39 22.74l1.1 18.22c.02.27.2.37.2.37s2.11.44 2.2.48h.28s-.13-.04-.14-.23c-.02-.19.27-7.59.27-7.59.02-.37.12-.52.36-.53.24.01.35.11.4.76 0 0 .85 7.05.87 7.48s.31.57.31.57 1.86.34 1.99.41c.03.02.08.02.13.02.14 0 .32-.05.32-.05s.03-.04.02-.32c-.1-3.46.46-4.14-.04-19.32L25.39 22.74"/><path fill="none" d="M25.42 21.84h9.81v1.19h-9.81V21.84z"/><path fill="#CE592C" d="M27.03 21.84l-1.61.9 8.25.29 1.56-.95L27.03 21.84"/><ellipse opacity=".5" fill="#CE592C" cx="29.92" cy="22.37" rx="2.25" ry=".3"/><ellipse fill="#FABD2C" cx="29.95" cy="17.23" rx="4.96" ry="5"/><path opacity=".25" fill="#CE592C" d="M29.93 21.74c-1.19 0-2.3-.27-3.24-.75.87.77 2.01 1.24 3.26 1.24 1.28 0 2.44-.49 3.32-1.28C32.31 21.45 31.16 21.74 29.93 21.74z"/><path fill="#FABD2C" d="M33.99 26.06c.1 1.59.92 5.97.92 5.97l.54 2.33c.08.24.27.33.62.38.35.05 1.09-.21 1.09-.21.23-.06.29-.3.25-.55 0 0-.35-2.72-.75-5.23-.4-2.46-.89-4.51-.89-4.51-.1-.61-.59-1.29-1.17-1.34 0 0-.69 0-.71 1.06C33.86 25.08 33.99 26.06 33.99 26.06z"/><path opacity=".25" fill="#CF572E" d="M34.41 22.95c-.2.08-.5.32-.52 1.01-.03 1.12.1 2.1.1 2.1.09 1.36.7 4.73.87 5.7l.01.05C34.88 31.81 34.3 26.32 34.41 22.95z"/></svg>