<svg xmlns="http://www.w3.org/2000/svg" viewBox="0 0 60 60"><g fill="#111"><path opacity=".3" d="M30.33 27.19c-11.24 0-20.35 6.46-20.35 14.42s9.11 14.42 20.35 14.42 20.35-6.46 20.35-14.42C50.68 33.64 41.57 27.19 30.33 27.19zM30.21 55.03c-10.75 0-19.47-6.06-19.47-13.53s8.72-13.53 19.47-13.53 19.47 6.06 19.47 13.53S40.96 55.03 30.21 55.03z"/><ellipse opacity=".1" cx="30.21" cy="41.5" rx="19.47" ry="13.53"/></g><path fill="#FFF" d="M12.95 45.15c-.24 0-.44-.17-.49-.4-.05-.23.08-.47.3-.56l11.98-4.97c.15-.06.31-.05.45.03s.23.22.24.38c0 .01.14 1.46.71 2.26.49.69 2.3 1.86 2.96 2.25.19.12.29.34.23.56-.06.22-.26.37-.48.37L12.95 45.15zM24.54 40.39l-9.04 3.75 11.68-.06c-.71-.5-1.49-1.11-1.85-1.61C24.88 41.85 24.65 40.98 24.54 40.39z"/><path fill="#3F3F3F" d="M28.85 44.58s-2.46-1.47-3.12-2.39c-.66-.93-.8-2.5-.8-2.5l-11.98 4.97L28.85 44.58z"/><path fill="#333" d="M30.68 44.46c-.26 0-.52-.09-.73-.26-.08-.07-.83-.82-.95-.95-.19-.18-.49-.57-.5-1.26 0-.04-.01-.12-.01-.25-.05.01-.08.02-.08.02-.46.12-.78 0-.97-.12-.12-.08-.17-.11-1.08-1.1-.06-.05-.36-.38-.38-1.01-.01-.16-.15-2.69-.31-5.77-.72-.23-1.44-.83-1.17-2.37l.03-.18c0-.01.29-2.23.37-3.07.05-.54.17-3.21.21-4.19 0-.08 0-.19.01-.31l-.06-1.09c-.02-.39.21-.84.55-1.03.05-.03.11-.05.16-.07-1.13-1.13-1.78-2.65-1.77-4.24 0-1.6.62-3.11 1.75-4.24 1.12-1.13 2.62-1.75 4.21-1.75h.01c1.59 0 3.09.63 4.21 1.76s1.74 2.64 1.74 4.24c0 1.61-.66 3.15-1.83 4.29-.03.04-.06.08-.1.12l.14.04c.46.13.76.56.73 1.04l-.07.85c.25.45.4 1.02.45 1.69.03.47.01 3.67.01 4.31-.14 2.31-.66 4.54-.69 4.63-.1.68-.34 1.18-.71 1.5l-.52 6.71c0 .4-.26 1.09-.99 1.46-.5.25-.99.42-1.19.49C31 44.43 30.84 44.46 30.68 44.46zM30.5 41.93c.1.1.25.26.4.41.14-.05.29-.12.45-.2l.55-7.12c.03-.39.28-.72.64-.86.02-.08.04-.19.05-.24 0-.01.02-.12.02-.13.01-.07.51-2.2.64-4.28.01-1.78.01-3.84 0-4.09-.04-.6-.19-.86-.27-.96-.16-.2-.23-.45-.21-.7l.03-.37-1.61-.45c-.42-.12-.72-.5-.73-.94s.27-.84.69-.97l.15-.04c.05-.01.1-.03.14-.05.05-.02.1-.05.15-.08l.13-.07c.17-.08.28-.14.38-.2.07-.04.12-.08.17-.12l.22-.17c.02-.03.05-.05.07-.07.88-.78 1.36-1.84 1.37-2.99 0-1.07-.41-2.07-1.16-2.83-.75-.75-1.74-1.17-2.79-1.17-1.06 0-2.05.41-2.79 1.17-.75.75-1.16 1.76-1.16 2.83 0 1.16.51 2.26 1.41 3.03.03.02.06.05.08.08l.08.06c.13.1.2.15.27.2.1.06.21.12.32.17l.19.1c.03.02.07.04.1.05.39.16.64.55.62.98-.02.42-.31.79-.72.91l-1.25.36.02.44v.13c-.01.08-.01.16-.01.25-.01.2-.15 3.65-.22 4.35-.08.85-.38 3.12-.38 3.12-.01.08-.03.18-.04.28 0 .02-.01.04-.01.06.24-.03.49.02.71.16.27.17.44.49.45.81.23 4.28.33 6.11.36 6.57.07.08.16.17.25.27l.07-.82c.05-.52.48-.91 1-.91h.01c.52 0 .95.41.99.93C30.43 40.79 30.49 41.69 30.5 41.93zM27.77 39.13l.1.1L27.77 39.13z"/><path fill="#FABD2C" d="M25.51 31.34c-.06.52-.36 1.3.56 1.51s1.03-.7 1.1-.95c0 0 .65-1.97.95-3.96 0 0 .33-3.44.33-3.85.02-1.52-.66-1.99-1.35-1.84-.5.11-1.03.5-1.01 1.75 0 0-.15 3.56-.21 4.24C25.81 29.09 25.51 31.34 25.51 31.34z"/><path opacity=".25" fill="#CE592C" d="M25.51 31.34c-.06.52-.36 1.3.56 1.51s1.03-.7 1.1-.95c0 0 .65-1.97.95-3.96 0 0 .33-3.44.33-3.85.02-1.52-.66-1.99-1.35-1.84-.5.11-1.03.5-1.01 1.75 0 0-.15 3.56-.21 4.24C25.81 29.09 25.51 31.34 25.51 31.34z"/><path fill="#E58A2C" d="M33.86 22.64l-4.31-1.2s-3.41 1.02-3.43 1.02l.98 17.31 1.04 1.03s.81-.22.91-.26c.1-.03.1-.18.1-.18l.15-1.68.7 4.1.72.66s.6-.18 1.16-.47c.45-.23.45-.65.45-.65L33.86 22.64z"/><path fill="#FABD2C" d="M29.97 23.71l-3.89-1.29s-.03.01-.03.09c.08 1.5.91 16.72.92 16.99s.12.37.12.37.82.89.88.93.17 0 .17 0-.08-.04-.09-.23.38-7.48.38-7.48c.01-.37.07-.52.23-.53.15 0 .19.15.19.53 0 0 .63 8.45.64 8.88s.2.56.2.56.82.83.89.89c.08.06.19.01.19.01s-.14-.01-.14-.3C30.64 42.94 29.97 23.71 29.97 23.71z"/><path fill="#CE592C" d="M26.08 22.42l3.89 1.29 3.89-1.07-4.37-1.2"/><ellipse opacity=".5" fill="#CE592C" cx="29.7" cy="22.4" rx="2.13" ry=".52"/><path opacity=".25" fill="#CE592C" d="M33.97 25.66c-.04-1.67-.72-2.46-1.44-2.22-.81.27-1.29 1.03-1.21 2.4 0 0 .07 3.73.03 4.48-.05.93-.27 3.4-.27 3.4-.05.57-.33 1.44.68 1.63.22.04.39-.01.53-.12l.28-.43s.97-2.72 1.21-4.91C33.78 29.87 33.98 26.11 33.97 25.66z"/><path fill="#FABD2C" d="M31.73 33.53c-.02.57-.27 1.45.76 1.59 1.02.14 1.05-.86 1.11-1.14 0 0 .52-2.21.66-4.41 0 0 .03-3.78-.01-4.23-.12-1.66-.91-2.11-1.64-1.87-.53.17-1.08.65-.94 2.01 0 0 .18 3.89.18 4.64C31.83 31.05 31.73 33.53 31.73 33.53z"/><path opacity=".3" fill="#CE592C" d="M32.08 33.84s.08-2.81.08-3.77c.01-.79-.3-4.73-.3-4.73-.08-.79.06-1.31.29-1.63-.34.28-.59.82-.49 1.79 0 0 .18 3.89.18 4.64-.01.93-.11 3.41-.11 3.41-.02.45-.17 1.1.28 1.42C32.03 34.69 32.07 34.22 32.08 33.84z"/><ellipse fill="#FABD2C" cx="29.95" cy="17.23" rx="4.96" ry="5"/><path opacity=".25" fill="#CE592C" d="M29.93 21.74c-1.19 0-2.3-.27-3.24-.75.87.77 2.01 1.24 3.26 1.24 1.28 0 2.44-.49 3.32-1.28C32.31 21.45 31.16 21.74 29.93 21.74z"/><path opacity=".6" fill="#CE592C" d="M27.13 22.77l.94 4.66.76-4.1"/></svg>