<svg xmlns="http://www.w3.org/2000/svg" viewBox="0 0 60 60"><g fill="#111"><path opacity=".3" d="M30.33 27.19c-11.24 0-20.35 6.46-20.35 14.42s9.11 14.42 20.35 14.42 20.35-6.46 20.35-14.42S41.57 27.19 30.33 27.19zM30.21 55.03c-10.75 0-19.47-6.06-19.47-13.53s8.72-13.53 19.47-13.53 19.47 6.06 19.47 13.53S40.96 55.03 30.21 55.03z"/><ellipse opacity=".1" cx="30.21" cy="41.5" rx="19.47" ry="13.53"/></g><path fill="#333" d="M29.67 43.83c-.5 0-.95-.04-1.17-.07-.33.02-.56-.08-.71-.18s-.29-.18-.88-1.05c-.1-.15-.16-.33-.17-.51-.01-.19-1.01-18.74-1.11-20.21-.01-.14.01-.28.06-.42-1.07-1.11-1.69-2.6-1.69-4.16 0-1.6.62-3.11 1.75-4.24 1.12-1.13 2.62-1.75 4.21-1.75h.01c1.59 0 3.09.63 4.21 1.76s1.74 2.64 1.74 4.24c0 1.74-.75 3.35-2.02 4.47l.19.15c.26.21.4.54.36.88L32.48 42.4c-.04.75-.83 1.05-1.22 1.2C30.82 43.78 30.21 43.83 29.67 43.83zM30.48 42.22c0 .05-.01.09-.01.14v-.12L30.48 42.22zM28.82 41.78c.63.06 1.44.06 1.71-.04l1.87-18.66-.69-.56c-.23-.14-.4-.36-.46-.62-.1-.45.08-.91.49-1.12 1.35-.69 2.18-2.05 2.18-3.54 0-1.07-.41-2.07-1.16-2.83-.75-.75-1.77-1.14-2.8-1.17-1.06 0-2.05.41-2.79 1.17-.75.75-1.16 1.76-1.16 2.83 0 1.42.73 2.7 1.97 3.44.35.21.54.61.48 1.02-.07.41-.37.73-.77.82.21 3.64.93 16.94 1.05 19.13C28.75 41.68 28.78 41.73 28.82 41.78z"/><path fill="#FFF" d="M26.99 43.9h-.06l-15.16-1.99c-.25-.03-.44-.25-.44-.5s.19-.46.44-.5L26.58 39c.23-.03.45.1.53.32s.01.46-.18.59c-.01.01-1.05.76-.77 1.39.43.94 1.18 1.75 1.19 1.75.14.15.18.38.08.57C27.35 43.79 27.18 43.9 26.99 43.9zM15.71 41.41l10.13 1.33c-.2-.3-.42-.65-.59-1.02-.25-.55-.14-1.09.11-1.55L15.71 41.41z"/><path fill="#3F3F3F" d="M26.99 43.4s-.81-.86-1.28-1.89c-.47-1.03.94-2.01.94-2.01l-14.81 1.91L26.99 43.4z"/><path fill="#E58A2C" d="M33.45 22.64l-5.6-1.2s-1.12.24-1.14.24l1.43 20.54.35.53s1.68.21 2.41-.08c.58-.23.58-.34.58-.34L33.45 22.64z"/><path fill="#FABD2C" d="M27.38 22.7l-.73-1.06s-.04.01-.03.09c.1 1.5 1.11 20.23 1.11 20.23s.47.7.58.76c.1.06.25.01.25.01s-.18-.01-.18-.3C28.37 42.24 27.38 22.7 27.38 22.7z"/><path fill="#CE592C" d="M26.65 21.65l.73 1.05 6.07-.06-1.2-.97"/><ellipse opacity=".5" fill="#CE592C" cx="29.9" cy="22.01" rx="2.13" ry=".52"/><path fill="#FABD2C" d="M29.26 33.53c-.02.57-.31 1.45.87 1.59 1.17.14 1.21-.86 1.27-1.14 0 0 .42-2.16.58-4.36 0 0 .21-3.83.17-4.28-.14-1.66-1.05-2.11-1.88-1.87-.61.17-1.24.65-1.08 2.01 0 0 .03 3.94.02 4.69C29.19 31.1 29.26 33.53 29.26 33.53z"/><path opacity=".3" fill="#CE592C" d="M29.66 33.84s-.09-2.76-.09-3.72c.01-.79-.16-4.78-.16-4.78-.09-.79.06-1.31.33-1.63-.39.28-.68.82-.56 1.79 0 0 .03 3.94.02 4.69-.01.93.05 3.36.05 3.36-.02.45-.2 1.1.32 1.42C29.6 34.69 29.65 34.22 29.66 33.84z"/><ellipse fill="#FABD2C" cx="29.95" cy="17.23" rx="4.96" ry="5"/><path opacity=".25" fill="#CE592C" d="M29.93 21.74c-1.19 0-2.3-.27-3.24-.75.87.77 2.01 1.24 3.26 1.24 1.28 0 2.44-.49 3.32-1.28C32.31 21.45 31.16 21.74 29.93 21.74z"/></svg>