<svg xmlns="http://www.w3.org/2000/svg" viewBox="0 0 60 60"><path opacity=".3" fill="#111" d="M30.33 27.19c-11.24 0-20.35 6.46-20.35 14.42s9.11 14.42 20.35 14.42 20.35-6.46 20.35-14.42C50.68 33.64 41.57 27.19 30.33 27.19zM30.21 55.03c-10.75 0-19.47-6.06-19.47-13.53s8.72-13.53 19.47-13.53 19.47 6.06 19.47 13.53S40.96 55.03 30.21 55.03z"/><ellipse opacity=".1" fill="#111" cx="30.21" cy="41.5" rx="19.47" ry="13.53"/><path fill="#333" d="M27.43 44.47c-.26 0-.52-.09-.7-.28-.12-.12-.75-.76-.99-1.1-.37-.51-.41-1.07-.41-1.3l-.38-6.47c-.2-.3-.3-.68-.41-1.09l-.05-.17c-.04-.18-.5-2.67-.64-4.9-.04-.8-.18-3.42-.14-3.9.06-.75.24-1.37.54-1.84l-.03-.52c-.03-.1-.04-.2-.03-.31.03-.45.33-.84.78-.93l.81-.17c-1.15-1.13-1.8-2.66-1.8-4.26 0-1.61.62-3.12 1.75-4.25 1.12-1.13 2.62-1.75 4.2-1.75h.01c1.59 0 3.09.62 4.21 1.75s1.74 2.64 1.75 4.24c0 1.52-.59 2.98-1.63 4.09l.37.11c.06.01.11.02.16.04.47.15.77.59.74 1.09.23.44.34.98.33 1.62.04.93.16 3.59.21 4.13.08.86.17 3.01.17 3.1v.02c0 .08.01.17.01.25.03.51.1 1.83-1.44 2.16-.2 3.24-.36 5.94-.37 6.07-.04.61-.39 1.02-.7 1.19-1.32.91-1.41.95-1.52.99-.01.01-.03.01-.05.02-.19.09-.39.11-.61.06-.08-.01-.14-.02-.17-.02-.16-.03-.31-.1-.43-.19-.11-.04-.23-.09-.34-.13-.01.1-.02.15-.02.18-.02.72-.45 1.19-.84 1.4-.21.12-1.48.86-1.6.92-.18.1-.39.14-.61.14h-.01C27.52 44.47 27.47 44.47 27.43 44.47zM26.6 34.17c.19.17.31.42.33.68l.4 6.87v.12c0 .01.01.07.03.09.05.07.18.22.33.38.32-.18.72-.42.95-.55.03-.33.16-1.33.66-4.95.07-.5.49-.86.99-.86h.03c.51.01.93.41.97.91l.28 3.18c.05.02.1.04.14.05.22-.15.55-.38.76-.52.05-.82.22-3.69.42-6.86.02-.37.25-.7.6-.85.25-.11.53-.11.78-.01V31.8c-.01-.1-.01-.21-.01-.31-.01-.17-.09-2.2-.16-2.98-.07-.7-.21-4.15-.22-4.29.01-.55-.1-.72-.13-.76l-.02-.02c-.02-.01-.03-.02-.05-.02-.13-.06-.24-.15-.32-.25l-1.56-.45c-.4-.11-.68-.46-.72-.87-.04-.41.18-.8.55-.99.2-.1.33-.17.44-.24.07-.04.13-.1.2-.15l.14-.1c.03-.03.05-.06.08-.08.9-.77 1.41-1.87 1.41-3.03 0-1.07-.41-2.07-1.16-2.83-.75-.75-1.74-1.16-2.79-1.16s-2.04.41-2.79 1.16c-.75.76-1.17 1.76-1.17 2.84 0 1.15.49 2.21 1.36 2.99.03.02.05.05.08.07l.12.09s.08.06.08.07c.06.05.11.09.17.13.1.07.21.12.32.17l.2.1c.04.02.09.05.13.07.05.02.1.03.15.05l.14.04c.43.14.71.55.69 1.01-.03.45-.35.83-.8.92l-2.37.49.01.24c.02.28-.08.55-.28.75-.05.06-.23.29-.28.99-.02.27.06 2.06.14 3.63.13 2.1.59 4.55.59 4.57l.03.1C26.52 33.88 26.57 34.06 26.6 34.17zM32.69 39.41c-.03.02-.05.03-.07.05C32.67 39.43 32.69 39.41 32.69 39.41z"/><path fill="#FABD2C" d="M25.21 22.64l4.46-.83s2.42.35 2.43.35l.46 17.98-.78 1.03s-1.02-.38-1.1-.41-.07-.18-.07-.18l-.66-7.54-1.46 9.74-1.04.7s-.68-.69-.89-.98c-.24-.33-.22-.73-.22-.73L25.21 22.64z"/><path fill="#CE592C" d="M24.75 25.66c.04-1.67.72-2.46 1.44-2.22.81.27 1.29 1.03 1.21 2.4 0 0-.07 3.73-.03 4.48.05.93.27 3.4.27 3.4.05.57.33 1.44-.68 1.63-.22.04-.39-.01-.53-.12l-.28-.43s-.97-2.72-1.21-4.91C24.95 29.87 24.74 26.11 24.75 25.66z"/><path fill="#FABD2C" d="M27.23 33.53c.02.57.27 1.23-.75 1.41-.74.13-.75-.11-1.02-1.13 0 0-.47-2.5-.61-4.71 0 0-.18-3.31-.14-3.76.12-1.66.91-2.11 1.64-1.87.53.17 1.08.65.94 2.01 0 0-.18 3.89-.18 4.64C27.12 31.05 27.23 33.53 27.23 33.53z"/><path opacity=".25" fill="#CF572E" d="M27.23 33.53c.04 1.16-.58 1-.82.81-.63-.5-.71-5.21-.82-6.64-.07-.97.09-3.4.4-4.17.55-.21 1.04.42 1.09.51.19.31.29.77.22 1.45 0 0-.18 3.89-.18 4.64C27.12 31.05 27.23 33.53 27.23 33.53z"/><path fill="#FABD2C" d="M35.25 31.45c.01.67.2 1.27-.73 1.43-.91.15-.86-.61-.93-.87 0 0-.45-1.92-.75-3.91 0 0-.33-3.44-.33-3.85-.02-1.52.66-1.99 1.35-1.84.5.11 1.03.5 1.01 1.75 0 0 .15 3.56.21 4.24C35.16 29.24 35.25 31.45 35.25 31.45z"/><path fill="#CE592C" d="M35.25 31.45c.01.67.2 1.27-.73 1.43-.91.15-.86-.61-.93-.87 0 0-.45-1.92-.75-3.91 0 0-.33-3.44-.33-3.85-.02-1.52.66-1.99 1.35-1.84.5.11 1.03.5 1.01 1.75 0 0 .15 3.56.21 4.24C35.16 29.24 35.25 31.45 35.25 31.45z"/><path fill="#FABD2C" d="M28.33 23.71l6.17-1.29s.05.01.04.09c-.13 1.5-1.07 17.08-1.09 17.34-.02.27-.19.37-.19.37s-1.3.89-1.39.93c-.09.04-.27 0-.27 0s.13-.04.14-.23c.02-.19-.3-7.46-.3-7.46-.01-.37-.11-.52-.36-.52s-.29.15-.31.53c0 0-1.14 8.05-1.15 8.48-.01.43-.31.56-.31.56s-1.47.86-1.59.92c-.12.06-.3.01-.3.01s.22-.01.22-.3C27.64 42.94 28.33 23.71 28.33 23.71z"/><path opacity=".3" fill="#CE592C" d="M28.33 23.71l6.17-1.29s.05.01.04.09c-.13 1.5-1.07 17.08-1.09 17.34-.02.27-.19.37-.19.37s-1.3.89-1.39.93c-.09.04-.27 0-.27 0s.13-.04.14-.23c.02-.19-.3-7.46-.3-7.46-.01-.37-.11-.52-.36-.52s-.29.15-.31.53c0 0-1.14 8.05-1.15 8.48-.01.43-.31.56-.31.56s-1.47.86-1.59.92c-.12.06-.3.01-.3.01s.22-.01.22-.3C27.64 42.94 28.33 23.71 28.33 23.71z"/><path opacity=".5" fill="#CE592C" d="M33.15 22.67l-2.02 4.98-1.23-4.26"/><path opacity=".8" fill="#CE592C" d="M33.15 22.67l-2.02 4.98-1.23-4.26"/><path fill="#CE592C" d="M34.46 22.42l-6.14 1.29-3.15-1.07 5.88-1.2"/><ellipse opacity=".5" fill="#CE592C" cx="30" cy="22.4" rx="2.25" ry=".43"/><ellipse fill="#FABD2C" cx="29.94" cy="17.23" rx="4.96" ry="5"/><path opacity=".25" fill="#CE592C" d="M29.96 21.74c1.19 0 2.3-.27 3.24-.75-.87.77-2.01 1.24-3.26 1.24-1.28 0-2.44-.49-3.32-1.28C27.58 21.45 28.73 21.74 29.96 21.74z"/><path fill="#FFF" d="M44.83 48.74c-.04 0-.08 0-.11-.01l-14.45-3.4c-.22-.05-.38-.25-.39-.48 0-.23.15-.43.37-.49.86-.24 3.23-.97 3.87-1.51.62-.53 1.11-1.63 1.25-2.01.05-.15.18-.27.33-.31.16-.04.32-.01.45.09l8.99 7.24c.18.15.24.4.14.61C45.19 48.63 45.01 48.74 44.83 48.74zM32.27 44.77l10.53 2.48-6.76-5.44c-.26.54-.7 1.31-1.28 1.8C34.27 44.01 33.21 44.44 32.27 44.77z"/><path fill="#3F3F3F" d="M30.37 44.83s3.19-.88 4.06-1.61c.87-.73 1.4-2.22 1.4-2.22l8.99 7.24L30.37 44.83z"/></svg>