<svg xmlns="http://www.w3.org/2000/svg" viewBox="0 0 60 60"><g fill="#111"><path opacity=".3" d="M30.33 27.2c-11.24 0-20.35 6.46-20.35 14.42s9.11 14.42 20.35 14.42 20.35-6.46 20.35-14.42C50.68 33.65 41.57 27.2 30.33 27.2zM30.21 55.04c-10.75 0-19.47-6.06-19.47-13.53s8.72-13.53 19.47-13.53 19.47 6.06 19.47 13.53S40.96 55.04 30.21 55.04z"/><ellipse opacity=".1" cx="30.21" cy="41.51" rx="19.47" ry="13.53"/></g><path fill="#FFF" d="M25.23 41.88c-.21 0-.4-.13-.47-.33l-4.3-11.67c-.08-.21 0-.45.18-.58s.44-.12.61.03l10.37 8.71c.16.14.22.36.15.56-.08.2-.29.31-.49.32-2.16-.08-4.25.11-4.56.42-.49.49-.89 1.73-1 2.16-.05.21-.24.36-.46.37C25.25 41.88 25.24 41.88 25.23 41.88zM22.05 31.3l3.17 8.6c.2-.46.47-.94.79-1.27.58-.58 2.47-.71 3.89-.73L22.05 31.3z"/><path fill="#3F3F3F" d="M25.23 41.38s.38-1.63 1.13-2.39c.75-.75 4.93-.57 4.93-.57l-10.37-8.71L25.23 41.38z"/><path fill="#333" d="M26.56 43.7c-.18 0-.37-.03-.58-.08l-.5-.14-.11-.3c-.65-.61-1.01-1.18-1.06-1.69-.02-.21-.04-.44-.01-.65l-.17-5.13c-.05.01-.09.02-.13.02-.53.08-1.21-.13-1.58-.26-.62-.16-1.02-.85-.9-1.64.08-.68.45-3.36.75-5.23.4-2.47.88-4.5.9-4.58.06-.39.25-.83.53-1.2l-.01-.46c-.01-.33.11-.65.34-.9.23-.24.54-.38.88-.39l.47-.01c-.86-1.05-1.37-2.39-1.37-3.82 0-1.6.62-3.11 1.74-4.24 1.12-1.13 2.62-1.76 4.22-1.76h.01c1.59 0 3.09.62 4.21 1.75s1.74 2.64 1.75 4.24c0 1.62-.63 3.12-1.71 4.22.37.21.8.46 1.15.68 1.08.67 1.28 1.95 1.31 2.31.21 1.1.74 3.9.88 4.48.23.93.66 3.25.68 3.34.02.12.04.21.06.3.11.54.4 1.96-1.3 2.51-.54.18-1.03.16-1.45-.06-.35-.18-.57-.46-.7-.71-.22 3.57-.41 6.62-.42 6.74-.04.61-.39 1.01-.7 1.19l-.3.11s-1.5.31-1.99.42l-.04.04-.24.03c-.01 0-.03 0-.05.01l-.05.01c-.14.02-.41.03-.69-.08-.11-.04-.18-.07-.52-.36-.18.41-.49.68-.77.8l-.22.07c-.72.13-1.59.31-1.82.37C26.91 43.67 26.75 43.7 26.56 43.7zM26.25 41.78c-.01 0-.01.01-.02.01C26.23 41.79 26.24 41.78 26.25 41.78zM26.31 41.24c.06.09.19.24.36.41.25-.06.66-.14 1.36-.28.07-.72.3-2.64.67-5.71l1.99.1.11 4.79c.09.08.18.16.27.23.25-.06.67-.15 1.4-.3.09-1.51.42-6.79.69-11.21l1.95-.23c.39 1.26.83 2.48 1.1 3.21-.13-.69-.42-2.2-.58-2.86-.19-.75-.89-4.48-.92-4.63l-.02-.13c-.01-.19-.12-.64-.37-.79-.55-.34-1.3-.77-1.68-.98l-.81.02-.4-1.93c1.52-.61 2.5-2.07 2.5-3.71 0-1.07-.41-2.07-1.16-2.83-.75-.75-1.74-1.17-2.79-1.17-1.06 0-2.05.42-2.8 1.17-.75.76-1.16 1.76-1.16 2.83 0 1.72 1.09 3.24 2.71 3.79l-.29 1.95-2.71.08.02.57-.35.31c-.12.11-.23.31-.25.47-.02.09-.5 2.12-.89 4.51-.31 1.94-.59 3.97-.7 4.8.02 0 .03.01.04.01l.44-1.92L26.01 32 26.31 41.24zM23.02 33.56c.03.01.05.02.08.03C23.08 33.58 23.05 33.57 23.02 33.56z"/><path fill="#FABD2C" d="M37.27 32.44c.12.73.42 1.35-.57 1.67-.97.31-1.03-.53-1.15-.79 0 0-.79-2.02-1.44-4.14 0 0-.9-3.69-.98-4.14-.26-1.66.41-2.27 1.17-2.21.56.04 1.2.38 1.38 1.75 0 0 .72 3.85.91 4.58C36.82 30.06 37.27 32.44 37.27 32.44z"/><path fill="#E58A2C" d="M37.29 32.44c.12.73.42 1.35-.57 1.67-.97.31-1.03-.53-1.15-.79 0 0-.79-2.02-1.44-4.14 0 0-.9-3.69-.98-4.14-.26-1.66.41-2.27 1.17-2.21.56.04 1.2.38 1.38 1.75 0 0 .72 3.85.91 4.58C36.84 30.06 37.29 32.44 37.29 32.44z"/><path opacity=".25" fill="#CF572E" d="M34.26 29.87l.2-7.11.41.31s-.06 5.4.11 6.64c.17 1.24.45 3.13.45 3.13L34.26 29.87z"/><path fill="none" d="M24.69 22.07h8.2v20.56h-8.2V22.07z"/><path fill="#FDBF2D" d="M24.69 22.07l.6 18.85s-.04.04.01.47c.04.48.95 1.24.95 1.24l1.87-.57 1.25-10.04.24.77.18 8.22.95.81.18.02 1.44-1.03.51-18.03-2.05-.32L24.69 22.07"/><path fill="#FABD2C" d="M34.54 22.74L26.27 23c-.5 15.19.06 15.86-.04 19.32-.01.3.01.32.01.32s.18.05.33.05c.05 0 .1-.01.13-.02.12-.06 1.99-.41 1.99-.41s.3-.13.32-.56c.01-.43.87-7.49.87-7.49.05-.65.14-.75.4-.75.24 0 .34.15.35.52 0 0 .3 7.41.28 7.6-.02.19-.14.22-.14.22h.27c.1-.04 2.21-.47 2.21-.47s.17-.1.19-.38L34.54 22.74"/><path opacity=".3" fill="#CE592C" d="M34.57 22.74L26.3 23c-.5 15.19.06 15.86-.05 19.32-.01.3.02.32.02.32s.18.05.32.05c.05 0 .09-.01.12-.02.13-.06 2-.41 2-.41s.3-.13.31-.56c.02-.43.88-7.49.88-7.49.04-.65.14-.75.39-.75s.35.15.36.52c0 0 .3 7.41.27 7.6-.01.19-.14.22-.14.22h.27c.09-.04 2.2-.47 2.2-.47s.18-.1.2-.38c.02-.26 1.02-16.63 1.14-18.14L34.57 22.74"/><path fill="#CE592C" d="M32.89 21.84l-8.2.23 1.57.96 8.25-.29L32.89 21.84"/><ellipse opacity=".5" fill="#CE592C" cx="30.01" cy="22.37" rx="2.25" ry=".3"/><ellipse fill="#FABD2C" cx="29.98" cy="17.23" rx="4.96" ry="5"/><path opacity=".25" fill="#CE592C" d="M30 21.74c1.19 0 2.3-.27 3.24-.75-.87.77-2.01 1.24-3.26 1.24-1.28 0-2.44-.49-3.32-1.28C27.62 21.45 28.77 21.74 30 21.74z"/><path fill="#FABD2C" d="M25.94 26.06c-.1 1.59-.92 5.97-.92 5.97l-.54 2.33c-.08.24-.27.33-.62.38s-1.09-.21-1.09-.21c-.23-.06-.29-.3-.25-.55 0 0 .35-2.72.75-5.23.4-2.46.89-4.51.89-4.51.1-.61.59-1.29 1.17-1.34 0 0 .69 0 .71 1.06C26.06 25.08 25.94 26.06 25.94 26.06z"/><path opacity=".25" fill="#CF572E" d="M25.52 22.95c.2.08.5.32.52 1.01.03 1.12-.1 2.1-.1 2.1-.09 1.36-.7 4.73-.87 5.7l-.01.05C25.05 31.81 25.63 26.32 25.52 22.95z"/></svg>