<svg xmlns="http://www.w3.org/2000/svg" viewBox="0 0 60 60"><g fill="#111"><path opacity=".3" d="M30.33 27.19c-11.24 0-20.35 6.46-20.35 14.42s9.11 14.42 20.35 14.42 20.35-6.46 20.35-14.42S41.57 27.19 30.33 27.19zM30.21 55.03c-10.75 0-19.47-6.06-19.47-13.53s8.72-13.53 19.47-13.53 19.47 6.06 19.47 13.53S40.96 55.03 30.21 55.03z"/><ellipse opacity=".1" cx="30.21" cy="41.5" rx="19.47" ry="13.53"/></g><path fill="#FFF" d="M20.29 52.96c-.12 0-.24-.04-.33-.13-.16-.15-.21-.38-.12-.58l4.55-9.86c.07-.16.22-.27.4-.29.17-.02.35.05.45.19.37.48 1.49 1.76 2.26 2.02.82.27 3.92.32 5.06.32.22 0 .42.15.48.37s-.03.45-.22.56l-12.27 7.33C20.47 52.94 20.38 52.96 20.29 52.96zM24.97 43.52l-3.54 7.68 9.36-5.6c-1.3-.04-2.93-.12-3.6-.35C26.39 45 25.51 44.13 24.97 43.52z"/><path fill="#3F3F3F" d="M32.56 45.13s-4.14.01-5.22-.35c-1.08-.35-2.5-2.18-2.5-2.18l-4.55 9.86L32.56 45.13z"/><path fill="#333" d="M33.37 43.7c-.18 0-.35-.03-.49-.09-.22-.06-1.1-.23-1.82-.37l-.22-.07c-.28-.12-.59-.39-.77-.8-.34.29-.41.31-.51.36-.28.12-.54.11-.69.09l-.33-.07c-.43-.1-2.05-.43-2.05-.43l-.3-.11c-.31-.18-.65-.58-.7-1.17-.01-.12-.19-3.18-.42-6.75-.14.27-.36.54-.7.72-.42.22-.91.24-1.45.06-1.69-.54-1.41-1.97-1.3-2.5.02-.09.04-.18.05-.27.02-.13.46-2.45.68-3.37.14-.58.68-3.38.89-4.48.03-.36.23-1.64 1.31-2.31.35-.22.78-.47 1.15-.68-1.08-1.1-1.72-2.6-1.71-4.22 0-1.6.62-3.11 1.75-4.24 1.12-1.13 2.62-1.75 4.21-1.75h.01c1.59 0 3.09.63 4.21 1.76s1.74 2.64 1.74 4.24c0 1.43-.5 2.77-1.37 3.82l.47.01c.33.01.65.15.88.39s.35.56.34.89l-.02.46c.28.37.48.82.55 1.27.01.01.49 2.04.89 4.51.3 1.87.67 4.54.75 5.23.13.8-.27 1.48-.98 1.67-.28.11-.98.31-1.5.23-.03 0-.08-.01-.13-.02l-.17 5.13c.03.22.01.45-.01.65-.05.52-.42 1.09-1.09 1.72l-.13.29-.45.12C33.74 43.67 33.54 43.7 33.37 43.7zM33.68 41.78s.01 0 .01.01C33.69 41.78 33.68 41.78 33.68 41.78zM31.9 41.37c.71.13 1.11.22 1.36.28.17-.17.29-.32.36-.41l.3-9.24 1.97-.19.44 1.92c.01 0 .03-.01.04-.01-.11-.83-.38-2.87-.7-4.81-.39-2.4-.87-4.42-.87-4.44-.04-.24-.15-.44-.27-.55l-.35-.31.02-.57-2.71-.08-.29-1.95c1.62-.54 2.71-2.07 2.71-3.79 0-1.07-.41-2.07-1.16-2.83-.75-.75-1.74-1.17-2.79-1.17-1.06 0-2.05.41-2.8 1.17C26.41 15.14 26 16.15 26 17.22c0 1.65.98 3.11 2.5 3.72l-.4 1.93-.82-.02c-.38.21-1.12.64-1.68.98-.25.15-.36.61-.37.8l-.02.12c-.03.16-.73 3.88-.92 4.64-.16.66-.45 2.16-.58 2.86.27-.72.71-1.95 1.1-3.22l1.95.23c.28 4.42.6 9.68.69 11.21.73.15 1.15.24 1.4.3.09-.07.18-.16.27-.23l.11-4.79 1.99-.1C31.7 39.55 31.85 40.88 31.9 41.37zM36.82 33.59c-.02 0-.04.01-.06.02C36.78 33.6 36.8 33.59 36.82 33.59z"/><path fill="#FABD2C" d="M22.66 32.44c-.12.73-.42 1.35.57 1.67.97.31 1.03-.53 1.15-.79 0 0 .79-2.02 1.44-4.14 0 0 .9-3.69.98-4.14.26-1.66-.41-2.27-1.17-2.21-.56.04-1.2.38-1.38 1.75 0 0-.72 3.85-.91 4.58C23.11 30.06 22.66 32.44 22.66 32.44z"/><path opacity=".25" fill="#CF572E" d="M25.67 29.87l-.2-7.11-.41.31s.06 5.4-.11 6.64-.45 3.13-.45 3.13L25.67 29.87z"/><path fill="none" d="M27.03 22.07h8.2v20.56h-8.2C27.03 42.63 27.03 22.07 27.03 22.07z"/><path fill="#E58A2C" d="M35.23 22.07l-6.16.37-2.04.32.51 18.03 1.43 1.03.19-.02.94-.81.19-8.22L30.53 32l1.25 10.04 1.87.57s.9-.77.95-1.24c.04-.43 0-.47 0-.47L35.23 22.07"/><path fill="none" d="M25.39 22.74h8.31V42.7h-8.31V22.74z"/><path fill="#FABD2C" d="M25.39 22.74l1.1 18.22c.02.28.2.38.2.38s2.11.43 2.2.47h.28s-.13-.04-.14-.22c-.02-.19.27-7.6.27-7.6.02-.37.12-.52.36-.52s.35.1.4.75c0 0 .85 7.06.87 7.49s.31.56.31.56 1.86.35 1.99.41c.03.02.08.02.13.02.14 0 .32-.05.32-.05s.03-.03.02-.32c-.1-3.46.46-4.13-.04-19.32L25.39 22.74"/><path fill="none" d="M25.42 21.84h9.81v1.19h-9.81V21.84z"/><path fill="#CE592C" d="M27.03 21.84l-1.61.9 8.25.29 1.56-.96L27.03 21.84"/><ellipse opacity=".5" fill="#CE592C" cx="29.92" cy="22.37" rx="2.25" ry=".3"/><ellipse fill="#FABD2C" cx="29.95" cy="17.23" rx="4.96" ry="5"/><path opacity=".6" fill="#CE592C" d="M26.61 22.77l3.09 5.36 2.76-5.3"/><path opacity=".25" fill="#CE592C" d="M29.93 21.74c-1.19 0-2.3-.27-3.24-.75.87.77 2.01 1.24 3.26 1.24 1.28 0 2.44-.49 3.32-1.28C32.31 21.45 31.16 21.74 29.93 21.74z"/><path fill="#FABD2C" d="M33.99 26.06c.1 1.59.92 5.97.92 5.97l.54 2.33c.08.24.27.33.62.38s1.09-.21 1.09-.21c.23-.06.29-.3.25-.55 0 0-.35-2.72-.75-5.23-.4-2.46-.89-4.51-.89-4.51-.1-.61-.59-1.29-1.17-1.34 0 0-.69 0-.71 1.06C33.86 25.08 33.99 26.06 33.99 26.06z"/><path opacity=".25" fill="#CF572E" d="M34.41 22.95c-.2.08-.5.32-.52 1.01-.03 1.12.1 2.1.1 2.1.09 1.36.7 4.73.87 5.7l.01.05C34.88 31.81 34.3 26.32 34.41 22.95z"/></svg>