<?xml version="1.0" encoding="utf-8"?>
<!-- Generator: Adobe Illustrator 16.0.0, SVG Export Plug-In . SVG Version: 6.00 Build 0)  -->
<!DOCTYPE svg PUBLIC "-//W3C//DTD SVG 1.1//EN" "http://www.w3.org/Graphics/SVG/1.1/DTD/svg11.dtd">
<svg version="1.1" id="Layer_1" xmlns="http://www.w3.org/2000/svg" xmlns:xlink="http://www.w3.org/1999/xlink" x="0px" y="0px"
	 width="560px" height="560px" viewBox="0 0 560 560" enable-background="new 0 0 560 560" xml:space="preserve">
<g id="_x32_D_NoRamp">
</g>
<g id="_x32_D_No_Ramp">
</g>
<g id="_x33_D_Ramp" display="none">
</g>
<path fill="#DDDDDD" d="M232.472,309.467c-0.002-28.982-0.009-57.964,0.002-86.946c0.002-8.716,0.899-9.61,9.46-9.622
	c5.132-0.008,10.264-0.014,15.396-0.007c7.689,0.013,8.97,1.265,8.972,8.866c0.006,35.775-0.022,71.549,0.006,107.322
	c0.02,22.643,0.133,45.281,0.173,67.924c0.016,8.841-0.977,9.779-9.907,9.779c-5.134,0-10.266,0.001-15.397,0
	c-7.481-0.005-8.868-1.361-8.86-9.017c0.014-13.583,0.127-27.167,0.151-40.751C232.495,341.166,232.474,325.316,232.472,309.467z"/>
<path fill="#DDDDDD" d="M280.438,139.623c-0.005,15.395,0.094,30.791-0.035,46.184c-0.11,13.181-7.274,20.973-20.037,22.139
	c-1.349,0.123-2.716,0.059-4.073,0.059c-4.981,0-9.961,0.009-14.944-0.02c-14.818-0.086-22.952-8.028-23.015-22.858
	c-0.106-25.509-0.064-51.019-0.008-76.526c0.017-6.474-0.189-13.009,0.609-19.402c1.227-9.822,7.546-16.508,17.235-17.408
	c8.82-0.819,17.87-0.928,26.657,0.077c11.036,1.261,17.494,9.819,17.587,21.573C280.534,108.834,280.442,124.229,280.438,139.623z
	 M249.299,200.171c10.882,0.012,19.541-8.482,19.564-19.194c0.025-10.845-8.877-19.816-19.611-19.77
	c-10.528,0.047-19.366,8.981-19.353,19.562C229.916,191.572,238.502,200.159,249.299,200.171z M249.517,79.578
	c-10.927-0.005-19.629,8.547-19.608,19.268c0.022,10.543,8.936,19.248,19.779,19.316c10.174,0.064,19.207-9.125,19.149-19.479
	C268.779,88.125,260.139,79.582,249.517,79.578z M249.196,158.489c10.674,0.018,18.712-7.537,18.774-17.641
	c0.065-11.186-7.7-19.419-18.403-19.511c-10.548-0.09-18.646,7.973-18.758,18.68C230.697,150.564,238.566,158.471,249.196,158.489z"
	/>
<path fill="#DDDDDD" d="M212.896,122.264c0,10.748,0.086,20.666-0.104,30.576c-0.026,1.301-1.241,3.34-2.312,3.654
	c-1.139,0.334-3.279-0.576-4.091-1.629c-6.405-8.336-12.682-16.775-18.774-25.342c-1.049-1.477-1.985-4.33-1.268-5.426
	c0.829-1.262,3.542-1.705,5.458-1.758C198.841,122.146,205.885,122.264,212.896,122.264z"/>
<path fill="#DDDDDD" d="M286.059,122.273c7.78,0,15.596-0.105,23.403,0.048c3.353,0.065,4.749,2.364,2.864,5.048
	c-6.725,9.569-13.624,19.02-20.702,28.328c-1.841,2.422-5.397,1.293-5.47-1.736C285.904,143.629,286.059,133.287,286.059,122.273z"
	/>
<path fill="#DDDDDD" d="M212.719,81.48c0,10.826,0.047,21.143-0.081,31.459c-0.01,0.934-1.002,2.421-1.808,2.637
	c-1.074,0.287-2.975,0-3.553-0.77c-7.118-9.457-14.14-18.99-20.99-28.643c-1.75-2.465-0.5-4.548,2.418-4.617
	C196.779,81.355,204.862,81.48,212.719,81.48z"/>
<path fill="#DDDDDD" d="M285.982,81.486c7.942,0,16.041-0.119,24.132,0.062c3.016,0.067,4.075,2.195,2.353,4.621
	c-6.768,9.537-13.688,18.969-20.73,28.303c-0.68,0.901-2.731,1.362-3.922,1.078c-0.813-0.195-1.739-2.029-1.754-3.143
	C285.926,102.354,285.982,92.299,285.982,81.486z"/>
<path fill="#DDDDDD" d="M285.27,178.167c0-3.774,0.112-7.552-0.041-11.319c-0.095-2.32,0.722-3.291,3.062-3.3
	c6.942-0.026,13.885-0.278,20.824-0.206c3.832,0.041,5.218,2.479,2.983,5.646c-6.502,9.223-13.242,18.279-20.047,27.282
	c-0.732,0.97-2.713,1.854-3.707,1.529c-1.035-0.339-2.111-2.133-2.242-3.388c-0.557-5.39-0.771-10.814-1.109-16.226
	C285.083,178.178,285.177,178.172,285.27,178.167z"/>
<path fill="#DDDDDD" d="M212.703,163.376c0,11.084,0.173,21.429-0.105,31.761c-0.084,3.091-3.559,4.084-5.505,1.525
	c-7.088-9.316-13.948-18.811-20.724-28.359c-2.098-2.956-0.131-4.762,2.717-4.846C197.027,163.225,204.98,163.376,212.703,163.376z"
	/>
<path fill="none" d="M249.299,200.171c-10.797-0.012-19.383-8.599-19.399-19.401c-0.014-10.581,8.824-19.516,19.353-19.562
	c10.734-0.047,19.637,8.925,19.611,19.77C268.84,191.688,260.181,200.183,249.299,200.171z"/>
<path fill="none" d="M249.517,79.578c10.622,0.004,19.263,8.547,19.32,19.105c0.058,10.354-8.976,19.543-19.149,19.479
	c-10.844-0.068-19.757-8.773-19.779-19.316C229.888,88.125,238.59,79.573,249.517,79.578z"/>
<g>
	<g>
		<path fill="none" d="M57.145,326.193c0-47.014,0-94.028,0-141.179c20.827,0,41.654,0,62.482,0
			c-0.114,0.064-0.223,0.168-0.344,0.188c-6.91,1.067-11.788,5.004-15.474,10.755c-2.458,3.835-2.469,13.349,0.093,17.163
			c0.402,0.601,0.75,1.35,0.809,2.056c0.511,6.237,0.969,12.479,1.408,18.722c1.637,23.197,3.256,46.396,4.891,69.593
			c0.18,2.547,0.408,5.091,0.632,7.848c1.011,0,1.852,0,2.692,0c23.131,0,46.262,0,69.393,0c0.527,0,1.104-0.133,1.57,0.036
			c0.59,0.216,1.333,0.553,1.59,1.053c1.398,2.725,2.709,5.497,3.975,8.287c2.869,6.324,5.699,12.665,8.537,19.003
			c2.836,6.339,5.691,12.667,8.479,19.026c2.378,5.422,4.639,10.896,7.026,16.314c0.725,1.644,1.701,3.176,2.563,4.764
			c13.318-4.986,26.537-9.937,39.883-14.932c-2.038-4.844-3.99-9.479-5.993-14.236c-7.637,2.619-15.072,5.171-22.498,7.717
			c-1.934-3.995-3.826-7.784-5.609-11.623c-2.758-5.939-5.444-11.913-8.15-17.876c-3.088-6.804-6.191-13.601-9.234-20.423
			c-2.037-4.565-4.022-9.156-5.943-13.771c-0.5-1.197-1.089-1.664-2.461-1.652c-19.372,0.182-38.746,0.293-58.119,0.414
			c-3.281,0.021-6.562,0.004-10.025,0.004c-0.303-4.111-0.596-8.084-0.908-12.327c16.871,0,33.558,0,50.285,0
			c0-6.164,0-12.067,0-18.203c-17.398,0-34.686,0-52.124,0c-0.739-13.153-1.467-26.083-2.193-39.003
			c0.971-0.203,1.737-0.385,2.511-0.521c5.528-0.972,9.846-4.138,12.695-8.629c6.631-10.446,2.512-22.662-8.814-28.006
			c-1.752-0.826-3.73-1.171-5.604-1.738c44.159,0,88.319,0,132.479,0c0,72.633,0,145.265,0,217.897c-39.282,0-78.563,0-117.847,0
			c0.438-0.121,0.867-0.302,1.312-0.354c15.518-1.808,29.275-7.834,41.229-17.77c5.92-4.921,11.127-10.618,14.908-17.455
			c0.497-0.898,1.36-1.627,1.721-2.562c0.281-0.729,0.244-1.728-0.012-2.483c-0.299-0.888-1.057-1.608-1.495-2.465
			c-3.555-6.946-7.079-13.908-10.624-20.861c-0.131-0.258-0.363-0.465-0.514-0.651c-0.734,2.951-1.244,5.894-2.219,8.67
			c-0.987,2.81-2.311,5.521-3.709,8.158c-2.217,4.18-4.914,7.976-8.262,11.432c-7.357,7.597-16.091,12.621-26.262,15.199
			c-15.113,3.83-29.417,1.53-42.812-6.246c-6.659-3.867-12.087-9.242-16.593-15.459c-4.518-6.23-6.826-13.48-8.32-20.887
			c-1.28-6.345-0.906-12.736,0.963-19.086c2-6.791,4.373-13.244,8.804-18.941c3.853-4.954,8.27-9.158,13.454-12.604
			c0.936-0.621,1.305-1.258,1.192-2.397c-0.331-3.344-0.53-6.698-0.8-10.048c-0.251-3.112-0.524-6.223-0.796-9.426
			c-5.757,2.114-10.647,5.334-15.318,8.819c-6.296,4.698-11.71,10.387-16.151,16.841c-4.744,6.895-8.232,14.486-10.312,22.622
			C58.24,318.635,57.808,322.443,57.145,326.193z"/>
		<path d="M125.163,185.015c1.874,0.567,3.853,0.912,5.604,1.738c11.326,5.344,15.445,17.56,8.814,28.006
			c-2.85,4.491-7.167,7.657-12.695,8.629c-0.773,0.136-1.54,0.317-2.511,0.521c0.727,12.92,1.454,25.85,2.193,39.003
			c17.438,0,34.726,0,52.124,0c0,6.136,0,12.039,0,18.203c-16.728,0-33.414,0-50.285,0c0.312,4.244,0.605,8.216,0.908,12.326
			c3.463,0,6.744,0.019,10.025-0.002c19.373-0.121,38.747-0.233,58.119-0.414c1.372-0.014,1.961,0.453,2.461,1.651
			c1.921,4.615,3.906,9.206,5.943,13.771c3.043,6.823,6.146,13.618,9.234,20.423c2.706,5.963,5.393,11.936,8.15,17.876
			c1.783,3.839,3.676,7.628,5.609,11.623c7.426-2.546,14.861-5.097,22.498-7.716c2.003,4.757,3.955,9.393,5.993,14.234
			c-13.346,4.996-26.564,9.945-39.883,14.932c-0.862-1.586-1.839-3.119-2.563-4.764c-2.388-5.418-4.648-10.893-7.026-16.313
			c-2.788-6.359-5.644-12.688-8.479-19.026c-2.838-6.338-5.668-12.679-8.537-19.003c-1.266-2.79-2.576-5.562-3.975-8.287
			c-0.257-0.5-1-0.837-1.59-1.053c-0.467-0.169-1.043-0.036-1.57-0.036c-23.131,0-46.262,0-69.393,0c-0.841,0-1.682,0-2.692,0
			c-0.224-2.757-0.452-5.301-0.632-7.848c-1.635-23.197-3.254-46.396-4.891-69.593c-0.439-6.243-0.897-12.484-1.408-18.722
			c-0.059-0.706-0.406-1.455-0.809-2.056c-2.562-3.814-2.551-13.328-0.093-17.163c3.686-5.751,8.563-9.688,15.474-10.755
			c0.121-0.02,0.229-0.123,0.344-0.188C121.473,185.015,123.318,185.015,125.163,185.015z"/>
		<path d="M57.145,326.193c0.663-3.75,1.096-7.56,2.036-11.238c2.079-8.137,5.567-15.729,10.312-22.622
			c4.441-6.454,9.855-12.143,16.151-16.841c4.671-3.485,9.562-6.705,15.318-8.819c0.271,3.203,0.545,6.313,0.796,9.426
			c0.27,3.35,0.469,6.705,0.8,10.047c0.112,1.142-0.257,1.777-1.192,2.398c-5.185,3.445-9.602,7.648-13.454,12.604
			c-4.431,5.699-6.804,12.151-8.804,18.942c-1.869,6.349-2.243,12.741-0.963,19.085c1.494,7.406,3.803,14.656,8.32,20.889
			c4.506,6.215,9.934,11.59,16.593,15.457c13.395,7.777,27.698,10.076,42.812,6.246c10.171-2.578,18.904-7.603,26.262-15.199
			c3.348-3.455,6.045-7.25,8.262-11.432c1.398-2.637,2.722-5.349,3.709-8.156c0.975-2.777,1.484-5.72,2.219-8.672
			c0.15,0.188,0.383,0.396,0.514,0.652c3.545,6.953,7.069,13.915,10.624,20.861c0.438,0.854,1.196,1.576,1.495,2.465
			c0.256,0.757,0.293,1.754,0.012,2.484c-0.36,0.936-1.224,1.662-1.721,2.562c-3.781,6.837-8.988,12.534-14.908,17.455
			c-11.953,9.937-25.711,15.962-41.229,17.77c-0.445,0.053-0.875,0.232-1.312,0.354c-5.009,0-10.018,0-15.027,0
			c-0.696-0.146-1.387-0.341-2.09-0.428c-14.022-1.744-26.645-6.949-37.826-15.543c-5.906-4.539-11.074-9.918-15.289-16.03
			c-4.786-6.94-8.367-14.567-10.383-22.8c-0.934-3.816-1.372-7.754-2.035-11.637C57.145,333.048,57.145,329.621,57.145,326.193z"/>
		<path fill="none" d="M57.145,336.475c0.663,3.883,1.102,7.82,2.035,11.637c2.016,8.232,5.597,15.859,10.383,22.801
			c4.215,6.113,9.383,11.49,15.289,16.029c11.182,8.595,23.804,13.8,37.826,15.544c0.703,0.087,1.394,0.281,2.09,0.428
			c-22.541,0-45.082,0-67.623,0C57.145,380.768,57.145,358.621,57.145,336.475z"/>
	</g>
</g>
<polyline stroke="#FFFFFF" stroke-miterlimit="10" points="293.5,406 293.5,478.17 495.165,478.891 "/>
<polygon fill="#DDDDDD" stroke="#AAAAAA" stroke-width="4" stroke-miterlimit="10" points="294.5,478.5 294.5,405.5 -10.5,405.5 
	-10.5,478.5 -10.5,483.5 -10.5,515.5 574.5,515.5 574.5,478.5 "/>
<g>
	<path fill="none" d="M414.135,414.959"/>
</g>
<g>
	<path fill="none" d="M475,293.566"/>
</g>
<g>
	<g>
		<line fill="none" stroke="#000000" stroke-width="20" stroke-miterlimit="10" x1="481.65" y1="280" x2="435.425" y2="378.879"/>
		<g>
			<polygon points="422.434,354.203 438.564,372.164 462.689,373.021 420.256,411.326 			"/>
		</g>
	</g>
</g>
</svg>
