<?xml version="1.0" encoding="utf-8"?>
<!-- Generator: Adobe Illustrator 16.0.4, SVG Export Plug-In . SVG Version: 6.00 Build 0)  -->
<!DOCTYPE svg PUBLIC "-//W3C//DTD SVG 1.1//EN" "http://www.w3.org/Graphics/SVG/1.1/DTD/svg11.dtd">
<svg version="1.1" id="Layer_1" xmlns="http://www.w3.org/2000/svg" xmlns:xlink="http://www.w3.org/1999/xlink" x="0px" y="0px"
	 width="559.5px" height="559.5px" viewBox="0 0 559.5 559.5" enable-background="new 0 0 559.5 559.5" xml:space="preserve">
<path d="M280.026,148.96c-37.856,0-69.015,31.159-69.015,69.015c0,11.357,9.609,20.966,21.258,20.966
	c11.939,0,21.258-9.609,21.258-20.966c0-14.56,11.939-26.5,26.499-26.5c14.269,0,25.917,11.939,25.917,26.5
	c0,13.395-5.824,20.093-16.599,32.323c-13.395,13.686-31.158,32.614-31.158,68.723c0,12.23,9.609,21.549,21.549,21.549
	c11.648,0,20.967-9.318,20.967-21.549c0-19.511,8.153-28.245,19.219-39.894c12.522-13.686,27.955-30.285,27.955-61.443
	C348.458,180.119,317.883,148.96,280.026,148.96L280.026,148.96z M280.026,359.789c-14.269,0-25.917,11.064-25.917,25.625
	c0,14.27,11.648,25.626,25.917,25.626c13.687,0,25.626-11.356,25.626-25.626C305.652,371.146,294.004,359.789,280.026,359.789z"/>
</svg>
