<?xml version="1.0" encoding="utf-8"?>
<!-- Generator: Adobe Illustrator 16.0.4, SVG Export Plug-In . SVG Version: 6.00 Build 0)  -->
<!DOCTYPE svg PUBLIC "-//W3C//DTD SVG 1.1//EN" "http://www.w3.org/Graphics/SVG/1.1/DTD/svg11.dtd">
<svg version="1.1" xmlns="http://www.w3.org/2000/svg" xmlns:xlink="http://www.w3.org/1999/xlink" x="0px" y="0px" width="560px"
	 height="560px" viewBox="0 0 560 560" enable-background="new 0 0 560 560" xml:space="preserve">
<g id="Layer_7">
	<rect x="-9" y="407" fill="#E8E8E8" width="571" height="95"/>
</g>
<g id="Wheelchair_1_">
	<g id="Wheelchair_3_">
		<g>
			<path fill="none" d="M84.327,405.514c0-71.025,0-142.05,0-213.072c62.16,0,124.322,0,186.481,0c0,71.022,0,142.047,0,213.072
				C208.649,405.514,146.487,405.514,84.327,405.514z M264.8,354.161c-7.114,2.558-13.957,5.019-20.897,7.518
				c-0.35-0.777-0.624-1.364-0.883-1.962c-8.638-19.941-17.288-39.877-25.879-59.841c-0.585-1.359-1.277-1.834-2.773-1.819
				c-20.055,0.184-40.113,0.296-60.169,0.426c-0.761,0.005-1.519,0-2.411,0c-0.299-4.067-0.583-7.917-0.883-11.986
				c15.668,0,31.08,0,46.596,0c0-5.978,0-11.748,0-17.755c-16.127,0-32.143,0-48.301,0c-0.081-0.854-0.161-1.494-0.198-2.135
				c-0.641-11.357-1.252-22.718-1.949-34.072c-0.091-1.434,0.26-1.883,1.707-2.159c9.511-1.819,16.148-10.785,15.194-20.343
				c-0.961-9.653-9.117-17.148-18.743-17.224c-13.313-0.108-22.521,13.528-17.656,26.05c0.657,1.69,1.088,3.541,1.217,5.349
				c2.157,29.677,4.241,59.359,6.361,89.039c0.208,2.886-0.184,2.612,2.734,2.612c21.553,0.02,43.105,0.044,64.662-0.016
				c1.724-0.005,2.481,0.572,3.135,2.113c8.831,20.837,17.728,41.644,26.612,62.461c0.297,0.694,0.622,1.374,0.979,2.166
				c12.524-4.915,24.859-9.758,37.327-14.648C268.622,363.264,266.752,358.812,264.8,354.161z M125.392,272.438
				c-0.453,0.081-0.642,0.083-0.8,0.152c-0.438,0.19-0.868,0.403-1.297,0.618c-7.016,3.526-13.318,8.029-18.698,13.776
				c-14.053,15.009-21.022,32.683-19.621,53.319c1.265,18.61,9.059,34.267,22.771,46.778c14.424,13.168,31.681,19.281,51.125,17.784
				c25.542-1.971,44.559-14.668,57.205-36.903c0.364-0.636,0.389-1.771,0.073-2.436c-3.58-7.514-7.258-14.982-10.919-22.456
				c-0.157-0.317-0.433-0.577-0.817-1.075c-0.179,1.017-0.296,1.721-0.421,2.426c-4.016,22.621-23.769,40.288-46.524,41.618
				c-24.507,1.429-46.173-14.429-52.206-38.21c-4.945-19.49,2.279-40.675,18.288-52.499c2.785-2.057,3.546-3.975,3.13-7.195
				C126.02,282.989,125.805,277.782,125.392,272.438z"/>
			<path fill-rule="evenodd" clip-rule="evenodd" d="M264.8,354.161c1.952,4.651,3.822,9.103,5.781,13.773
				c-12.468,4.891-24.803,9.733-37.327,14.648c-0.356-0.792-0.682-1.472-0.979-2.166c-8.885-20.817-17.781-41.624-26.612-62.461
				c-0.653-1.541-1.411-2.118-3.135-2.113c-21.557,0.06-43.109,0.035-64.662,0.016c-2.918,0-2.526,0.273-2.734-2.612
				c-2.12-29.68-4.204-59.362-6.361-89.039c-0.129-1.808-0.56-3.658-1.217-5.349c-4.865-12.521,4.343-26.158,17.656-26.05
				c9.626,0.075,17.782,7.57,18.743,17.224c0.954,9.558-5.684,18.523-15.194,20.343c-1.447,0.276-1.798,0.726-1.707,2.159
				c0.697,11.354,1.309,22.715,1.949,34.072c0.037,0.641,0.117,1.281,0.198,2.135c16.158,0,32.174,0,48.301,0
				c0,6.007,0,11.777,0,17.755c-15.516,0-30.928,0-46.596,0c0.3,4.069,0.584,7.919,0.883,11.986c0.893,0,1.65,0.005,2.411,0
				c20.056-0.13,40.114-0.242,60.169-0.426c1.496-0.015,2.188,0.46,2.773,1.819c8.591,19.964,17.241,39.899,25.879,59.841
				c0.259,0.598,0.533,1.185,0.883,1.962C250.843,359.18,257.686,356.719,264.8,354.161z"/>
			<path fill-rule="evenodd" clip-rule="evenodd" d="M125.392,272.438c0.413,5.344,0.628,10.551,1.288,15.698
				c0.416,3.221-0.345,5.139-3.13,7.195c-16.009,11.824-23.233,33.009-18.288,52.499c6.033,23.781,27.699,39.639,52.206,38.21
				c22.756-1.33,42.509-18.997,46.524-41.618c0.125-0.705,0.242-1.409,0.421-2.426c0.385,0.498,0.66,0.758,0.817,1.075
				c3.661,7.474,7.339,14.942,10.919,22.456c0.315,0.665,0.291,1.8-0.073,2.436c-12.646,22.235-31.663,34.933-57.205,36.903
				c-19.444,1.497-36.701-4.616-51.125-17.784c-13.712-12.512-21.506-28.168-22.771-46.778
				c-1.401-20.637,5.568-38.311,19.621-53.319c5.38-5.747,11.683-10.25,18.698-13.776c0.429-0.215,0.859-0.428,1.297-0.618
				C124.75,272.521,124.938,272.52,125.392,272.438z"/>
		</g>
	</g>
</g>
<g id="Arrow">
	<g>
		<g>
			<line fill="none" stroke="#000000" stroke-width="20" stroke-miterlimit="10" x1="443.096" y1="326.145" x2="485.001" y2="211"/>
			<g>
				<polygon points="431.506,357.991 466.176,319.788 443.963,323.764 429.505,306.442 				"/>
			</g>
		</g>
	</g>
</g>
<g id="Layer_4" display="none">
	<polygon display="inline" stroke="#000000" stroke-miterlimit="10" points="79.705,66.5 76.75,70.086 73.795,66.5 71.705,66.5 
		68.75,70.086 65.795,66.5 63.705,66.5 60.75,70.086 57.795,66.5 55.705,66.5 52.409,70.5 60.409,70.5 61.091,70.5 68.409,70.5 
		69.091,70.5 76.409,70.5 77.091,70.5 85.091,70.5 81.795,66.5 	"/>
</g>
<g id="Layer_5">
	<g>
		<polygon points="487.828,407.725 487.454,409.234 488.185,409.234 		"/>
		<polygon points="429.889,407.845 429.541,409.234 430.236,409.234 		"/>
		<polygon points="371.948,408.328 371.723,409.234 372.175,409.234 		"/>
		<polygon points="414.125,471 429.541,409 427.703,409 374.134,409 372.175,409 387.651,471 		"/>
		<polygon points="299.16,471 314.009,410.047 329.355,471 356.376,471 371.723,409 369.764,409 316.193,409 311.825,409 
			253.885,409 269.989,471 		"/>
		<polygon points="472.02,471 487.454,409 485.644,409 432.073,409 430.236,409 445.688,471 		"/>
		<polygon points="531.856,471 547.952,409 490.013,409 488.185,409 502.975,471 		"/>
	</g>
</g>
</svg>
