<?xml version="1.0" encoding="utf-8"?>
<!-- Generator: Adobe Illustrator 16.0.4, SVG Export Plug-In . SVG Version: 6.00 Build 0)  -->
<!DOCTYPE svg PUBLIC "-//W3C//DTD SVG 1.1//EN" "http://www.w3.org/Graphics/SVG/1.1/DTD/svg11.dtd">
<svg version="1.1" id="Layer_1" xmlns="http://www.w3.org/2000/svg" xmlns:xlink="http://www.w3.org/1999/xlink" x="0px" y="0px"
	 width="560px" height="560px" viewBox="0 0 560 560" enable-background="new 0 0 560 560" xml:space="preserve">
<g id="_x32_D_NoRamp">
</g>
<path fill="#DDDDDD" d="M232.479,309.139c-0.002-28.98-0.009-57.965,0.002-86.947c0.002-8.715,0.899-9.609,9.46-9.622
	c5.132-0.007,10.264-0.013,15.396-0.007c7.689,0.013,8.97,1.266,8.972,8.867c0.006,35.774-0.022,71.548,0.006,107.322
	c0.02,22.641,0.133,45.281,0.173,67.923c0.016,8.841-0.977,9.779-9.907,9.779c-5.134,0-10.266,0.001-15.397,0
	c-7.481-0.005-8.868-1.361-8.86-9.016c0.014-13.583,0.127-27.167,0.151-40.753C232.503,340.837,232.481,324.988,232.479,309.139z"/>
<path fill="#DDDDDD" d="M280.445,139.295c-0.005,15.395,0.094,30.79-0.035,46.184c-0.11,13.18-7.274,20.972-20.037,22.139
	c-1.349,0.123-2.716,0.059-4.073,0.059c-4.981-0.001-9.961,0.008-14.944-0.02c-14.818-0.086-22.952-8.029-23.015-22.859
	c-0.106-25.508-0.064-51.018-0.008-76.526c0.017-6.474-0.189-13.009,0.609-19.402c1.227-9.821,7.546-16.507,17.235-17.407
	c8.82-0.82,17.87-0.928,26.657,0.076c11.036,1.262,17.494,9.82,17.587,21.574C280.542,108.505,280.45,123.9,280.445,139.295z
	 M249.307,199.842c10.882,0.012,19.541-8.482,19.564-19.194c0.025-10.845-8.877-19.816-19.611-19.769
	c-10.528,0.047-19.366,8.98-19.353,19.562C229.924,191.244,238.51,199.83,249.307,199.842z M249.524,79.249
	c-10.927-0.005-19.629,8.548-19.608,19.269c0.022,10.543,8.936,19.248,19.779,19.316c10.174,0.064,19.207-9.125,19.149-19.479
	C268.787,87.797,260.146,79.253,249.524,79.249z M249.204,158.16c10.674,0.018,18.712-7.537,18.774-17.641
	c0.065-11.186-7.7-19.418-18.403-19.51c-10.548-0.09-18.646,7.973-18.758,18.68C230.705,150.236,238.574,158.143,249.204,158.16z"/>
<path fill="#DDDDDD" d="M212.903,121.935c0,10.749,0.086,20.666-0.104,30.576c-0.026,1.302-1.241,3.34-2.312,3.654
	c-1.139,0.335-3.279-0.575-4.091-1.629c-6.405-8.335-12.682-16.775-18.774-25.342c-1.049-1.476-1.985-4.329-1.268-5.425
	c0.829-1.262,3.542-1.706,5.458-1.759C198.849,121.818,205.893,121.935,212.903,121.935z"/>
<path fill="#DDDDDD" d="M286.066,121.944c7.779,0,15.595-0.104,23.401,0.048c3.354,0.066,4.749,2.365,2.864,5.049
	c-6.727,9.568-13.624,19.02-20.702,28.328c-1.841,2.422-5.396,1.292-5.47-1.736C285.912,143.301,286.066,132.959,286.066,121.944z"
	/>
<path fill="#DDDDDD" d="M212.727,81.152c0,10.826,0.047,21.143-0.081,31.459c-0.01,0.933-1.002,2.42-1.808,2.637
	c-1.074,0.287-2.975-0.001-3.553-0.77c-7.118-9.457-14.14-18.99-20.99-28.643c-1.75-2.465-0.5-4.549,2.418-4.617
	C196.787,81.027,204.87,81.152,212.727,81.152z"/>
<path fill="#DDDDDD" d="M285.99,81.158c7.943,0,16.041-0.119,24.132,0.062c3.016,0.066,4.075,2.195,2.353,4.621
	c-6.768,9.536-13.687,18.968-20.729,28.302c-0.682,0.901-2.73,1.362-3.924,1.079c-0.812-0.195-1.738-2.03-1.754-3.144
	C285.934,102.025,285.99,91.97,285.99,81.158z"/>
<path fill="#DDDDDD" d="M285.277,177.838c0-3.773,0.111-7.552-0.041-11.318c-0.096-2.321,0.721-3.291,3.061-3.301
	c6.943-0.025,13.885-0.278,20.824-0.205c3.832,0.041,5.218,2.478,2.984,5.645c-6.504,9.223-13.244,18.279-20.047,27.283
	c-0.732,0.969-2.713,1.854-3.707,1.529c-1.037-0.34-2.112-2.134-2.244-3.389c-0.555-5.389-0.771-10.814-1.108-16.226
	C285.091,177.85,285.186,177.844,285.277,177.838z"/>
<path fill="#DDDDDD" d="M212.711,163.047c0,11.084,0.173,21.429-0.105,31.761c-0.084,3.091-3.559,4.085-5.505,1.526
	c-7.088-9.316-13.948-18.811-20.724-28.359c-2.098-2.957-0.131-4.762,2.717-4.846C197.035,162.896,204.988,163.047,212.711,163.047z
	"/>
<path fill="none" d="M249.307,199.842c-10.797-0.012-19.383-8.598-19.399-19.4c-0.014-10.582,8.824-19.516,19.353-19.562
	c10.734-0.048,19.637,8.924,19.611,19.769C268.848,191.359,260.188,199.854,249.307,199.842z"/>
<path fill="none" d="M249.524,79.249c10.622,0.004,19.263,8.548,19.32,19.105c0.058,10.354-8.976,19.544-19.149,19.479
	c-10.844-0.068-19.757-8.773-19.779-19.316C229.896,87.797,238.598,79.244,249.524,79.249z"/>
<path fill="none" d="M249.204,158.16c-10.63-0.018-18.499-7.924-18.387-18.471c0.112-10.707,8.21-18.77,18.758-18.68
	c10.703,0.092,18.469,8.324,18.403,19.51C267.916,150.623,259.878,158.178,249.204,158.16z"/>
<g id="WFA5wE.tif_13_">
	<g>
		<g>
			<path fill="none" d="M57.152,325.864c0-47.015,0-94.028,0-141.179c20.827,0,41.654,0,62.482,0
				c-0.114,0.064-0.223,0.168-0.344,0.188c-6.91,1.067-11.788,5.004-15.474,10.755c-2.458,3.835-2.469,13.349,0.093,17.163
				c0.403,0.602,0.75,1.35,0.809,2.056c0.511,6.237,0.969,12.479,1.408,18.722c1.637,23.197,3.257,46.396,4.891,69.594
				c0.18,2.547,0.408,5.09,0.632,7.849c1.011,0,1.852,0,2.692,0c23.131,0,46.263,0,69.394,0c0.527,0,1.104-0.135,1.569,0.034
				c0.59,0.216,1.333,0.554,1.59,1.054c1.399,2.726,2.709,5.498,3.975,8.287c2.869,6.323,5.7,12.664,8.537,19.002
				c2.836,6.338,5.691,12.668,8.479,19.025c2.379,5.423,4.64,10.896,7.027,16.314c0.725,1.645,1.7,3.178,2.563,4.765
				c13.318-4.986,26.536-9.937,39.883-14.933c-2.039-4.844-3.991-9.479-5.994-14.234c-7.637,2.619-15.072,5.17-22.497,7.716
				c-1.934-3.996-3.827-7.784-5.61-11.623c-2.757-5.94-5.444-11.912-8.15-17.876c-3.088-6.804-6.19-13.6-9.234-20.423
				c-2.037-4.563-4.021-9.156-5.943-13.771c-0.499-1.199-1.089-1.666-2.46-1.652c-19.373,0.181-38.746,0.293-58.119,0.414
				c-3.281,0.021-6.562,0.002-10.026,0.002c-0.303-4.11-0.596-8.082-0.908-12.326c16.871,0,33.558,0,50.285,0
				c0-6.164,0-12.066,0-18.203c-17.398,0-34.686,0-52.124,0c-0.739-13.152-1.467-26.084-2.193-39.003
				c0.971-0.202,1.737-0.384,2.511-0.521c5.528-0.971,9.846-4.138,12.696-8.629c6.63-10.446,2.511-22.662-8.815-28.006
				c-1.752-0.826-3.73-1.171-5.604-1.738c44.16,0,88.319,0,132.479,0c0,72.633,0,145.266,0,217.897c-39.283,0-78.564,0-117.848,0
				c0.438-0.121,0.868-0.302,1.313-0.354c15.518-1.81,29.274-7.834,41.228-17.771c5.921-4.922,11.128-10.618,14.908-17.455
				c0.498-0.898,1.36-1.627,1.721-2.562c0.282-0.729,0.244-1.729-0.011-2.483c-0.299-0.89-1.058-1.608-1.495-2.465
				c-3.556-6.946-7.08-13.908-10.624-20.86c-0.132-0.259-0.364-0.466-0.514-0.652c-0.735,2.953-1.245,5.895-2.22,8.672
				c-0.987,2.809-2.311,5.521-3.709,8.156c-2.217,4.182-4.914,7.977-8.261,11.433c-7.358,7.597-16.092,12.62-26.262,15.198
				c-15.113,3.83-29.418,1.531-42.812-6.246c-6.659-3.866-12.087-9.241-16.593-15.457c-4.518-6.231-6.826-13.48-8.32-20.889
				c-1.28-6.345-0.906-12.734,0.964-19.084c1.999-6.791,4.372-13.244,8.803-18.943c3.853-4.953,8.27-9.156,13.455-12.604
				c0.935-0.621,1.305-1.257,1.191-2.398c-0.33-3.342-0.53-6.696-0.8-10.046c-0.251-3.112-0.524-6.223-0.796-9.426
				c-5.757,2.113-10.647,5.334-15.318,8.82c-6.296,4.697-11.71,10.385-16.151,16.84c-4.744,6.896-8.232,14.486-10.312,22.623
				C58.249,318.307,57.815,322.114,57.152,325.864z"/>
			<path d="M125.171,184.686c1.874,0.567,3.853,0.912,5.604,1.738c11.326,5.344,15.445,17.56,8.815,28.006
				c-2.851,4.491-7.168,7.658-12.696,8.629c-0.773,0.137-1.54,0.318-2.511,0.521c0.727,12.919,1.454,25.851,2.193,39.003
				c17.438,0,34.726,0,52.124,0c0,6.137,0,12.039,0,18.203c-16.728,0-33.414,0-50.285,0c0.312,4.243,0.605,8.216,0.908,12.327
				c3.464,0,6.745,0.018,10.026-0.004c19.373-0.12,38.746-0.232,58.119-0.414c1.371-0.012,1.961,0.455,2.46,1.652
				c1.922,4.614,3.906,9.207,5.943,13.771c3.044,6.821,6.146,13.618,9.234,20.423c2.706,5.964,5.394,11.938,8.15,17.876
				c1.783,3.839,3.677,7.627,5.61,11.623c7.425-2.546,14.86-5.099,22.497-7.716c2.003,4.756,3.955,9.393,5.994,14.234
				c-13.347,4.996-26.564,9.944-39.883,14.933c-0.863-1.589-1.839-3.12-2.563-4.765c-2.388-5.418-4.648-10.894-7.027-16.314
				c-2.788-6.357-5.644-12.688-8.479-19.023c-2.837-6.34-5.668-12.681-8.537-19.005c-1.266-2.788-2.575-5.562-3.975-8.286
				c-0.257-0.5-1-0.836-1.59-1.054c-0.466-0.169-1.042-0.035-1.569-0.035c-23.131,0-46.263,0-69.394,0c-0.841,0-1.682,0-2.692,0
				c-0.224-2.758-0.452-5.301-0.632-7.848c-1.634-23.198-3.254-46.396-4.891-69.594c-0.439-6.242-0.897-12.484-1.408-18.722
				c-0.059-0.706-0.405-1.454-0.809-2.056c-2.562-3.814-2.551-13.328-0.093-17.163c3.686-5.751,8.563-9.688,15.474-10.755
				c0.121-0.02,0.229-0.123,0.344-0.188C121.48,184.686,123.326,184.686,125.171,184.686z"/>
			<path d="M57.152,325.864c0.663-3.75,1.097-7.56,2.036-11.237c2.079-8.137,5.567-15.729,10.312-22.623
				c4.441-6.455,9.855-12.143,16.151-16.84c4.671-3.486,9.562-6.707,15.318-8.82c0.271,3.203,0.545,6.313,0.796,9.426
				c0.27,3.35,0.47,6.705,0.8,10.048c0.113,1.142-0.257,1.774-1.191,2.396c-5.186,3.446-9.603,7.649-13.455,12.604
				c-4.431,5.697-6.804,12.15-8.803,18.941c-1.87,6.35-2.244,12.741-0.964,19.086c1.494,7.406,3.803,14.655,8.32,20.887
				c4.506,6.218,9.934,11.593,16.593,15.459c13.395,7.777,27.699,10.076,42.812,6.246c10.17-2.578,18.903-7.604,26.262-15.198
				c3.347-3.456,6.044-7.251,8.261-11.433c1.398-2.638,2.722-5.35,3.709-8.158c0.975-2.775,1.484-5.719,2.22-8.67
				c0.149,0.188,0.382,0.396,0.514,0.652c3.544,6.952,7.068,13.914,10.624,20.86c0.438,0.854,1.196,1.575,1.495,2.465
				c0.255,0.757,0.293,1.754,0.011,2.483c-0.36,0.937-1.223,1.662-1.721,2.562c-3.78,6.837-8.987,12.533-14.908,17.455
				c-11.953,9.937-25.71,15.962-41.228,17.771c-0.445,0.053-0.876,0.231-1.313,0.354c-5.009,0-10.018,0-15.027,0
				c-0.696-0.146-1.386-0.341-2.09-0.428c-14.022-1.744-26.645-6.949-37.826-15.544c-5.906-4.539-11.074-9.916-15.289-16.029
				c-4.786-6.941-8.367-14.566-10.383-22.8c-0.935-3.816-1.372-7.753-2.035-11.636C57.152,332.719,57.152,329.292,57.152,325.864z"
				/>
			<path fill="none" d="M57.152,336.146c0.663,3.883,1.101,7.817,2.035,11.636c2.016,8.231,5.597,15.858,10.383,22.8
				c4.215,6.113,9.383,11.49,15.289,16.029c11.182,8.595,23.804,13.8,37.826,15.544c0.704,0.087,1.394,0.28,2.09,0.428
				c-22.541,0-45.082,0-67.623,0C57.152,380.438,57.152,358.292,57.152,336.146z"/>
		</g>
	</g>
</g>
<polygon fill="#E8E8E8" stroke="#AAAAAA" stroke-width="5" stroke-miterlimit="10" points="296.5,478.5 296.5,405.5 -9.5,405.5 
	-9.5,478.5 -9.5,483.5 -9.5,515.5 574.5,515.5 574.5,478.5 "/>
<polyline fill="none" stroke="#000000" stroke-width="20" stroke-miterlimit="10" points="233,415 288,415 288,479 "/>
<g id="_x33_D_Ramp" display="none">
</g>
<g id="_x32_D_Ramp">
	<g>
		<g>
			<line fill="none" stroke="#000000" stroke-width="20" stroke-miterlimit="10" x1="417" y1="280" x2="340.759" y2="369.491"/>
			<g>
				<polygon points="334.773,342.255 345.565,363.85 368.6,371.073 317.53,396.757 				"/>
			</g>
		</g>
	</g>
</g>
</svg>
