<?xml version="1.0" encoding="utf-8"?>
<!-- Generator: Adobe Illustrator 16.0.4, SVG Export Plug-In . SVG Version: 6.00 Build 0)  -->
<!DOCTYPE svg PUBLIC "-//W3C//DTD SVG 1.1//EN" "http://www.w3.org/Graphics/SVG/1.1/DTD/svg11.dtd">
<svg version="1.1" xmlns="http://www.w3.org/2000/svg" xmlns:xlink="http://www.w3.org/1999/xlink" x="0px" y="0px" width="560px"
	 height="560px" viewBox="0 0 560 560" enable-background="new 0 0 560 560" xml:space="preserve">
<g id="Sidewalk" display="none">
	<polygon display="inline" fill="#CCCCCC" points="93.411,68 6.078,68 5.513,68.731 4.012,73 91.667,73 	"/>
	
		<rect x="42.669" y="62.877" transform="matrix(0.9394 0.3428 -0.3428 0.9394 26.9039 -10.5838)" display="inline" fill="#FFFFFF" width="1.45" height="15.887"/>
	
		<rect x="82.999" y="62.877" transform="matrix(0.9395 0.3426 -0.3426 0.9395 29.3252 -24.3954)" display="inline" fill="#FFFFFF" width="1.451" height="15.887"/>
</g>
<g id="Sidewalk_copy">
	<g>
		<polygon fill="#CCCCCC" stroke="#AAAAAA" stroke-miterlimit="10" points="244.91,504.5 502.017,504.5 514.076,431.5 
			256.974,431.5 		"/>
		<polygon fill="#CCCCCC" stroke="#AAAAAA" stroke-miterlimit="10" points="524.31,431.5 512.251,504.5 565.039,504.5 
			576.601,431.5 		"/>
		<polygon fill="#CCCCCC" stroke="#AAAAAA" stroke-miterlimit="10" points="246.749,431.5 -2.294,431.5 -6.036,443.125 
			-15.988,504.5 234.684,504.5 		"/>
	</g>
</g>
<g id="Layer_5">
</g>
<g id="Wheelchair_1_">
	<g id="Wheelchair_3_">
		<g>
			<path fill="none" d="M51.578,473.492c0-84.7,0-169.4,0-254.102c74.13,0,148.261,0,222.392,0c0,84.701,0,169.401,0,254.102
				C199.839,473.492,125.708,473.492,51.578,473.492z M266.806,412.253c-8.484,3.052-16.645,5.987-24.924,8.967
				c-0.416-0.927-0.743-1.63-1.051-2.34c-10.302-23.782-20.616-47.561-30.863-71.366c-0.697-1.619-1.522-2.187-3.306-2.171
				c-23.92,0.219-47.84,0.354-71.759,0.51c-0.904,0.006-1.812,0-2.875,0c-0.357-4.852-0.694-9.441-1.052-14.293
				c18.684,0,37.066,0,55.565,0c0-7.128,0-14.015,0-21.174c-19.23,0-38.331,0-57.6,0c-0.097-1.021-0.193-1.782-0.236-2.549
				c-0.766-13.544-1.492-27.091-2.325-40.631c-0.106-1.711,0.312-2.246,2.037-2.576c11.343-2.171,19.258-12.861,18.121-24.262
				c-1.148-11.511-10.873-20.448-22.354-20.541c-15.877-0.128-26.856,16.134-21.058,31.068c0.784,2.014,1.297,4.224,1.454,6.377
				c2.569,35.393,5.057,70.792,7.586,106.188c0.245,3.438-0.221,3.113,3.259,3.116c25.704,0.021,51.408,0.05,77.113-0.021
				c2.058-0.006,2.962,0.682,3.74,2.519c10.531,24.85,21.141,49.665,31.736,74.488c0.354,0.829,0.742,1.644,1.167,2.584
				c14.938-5.861,29.646-11.636,44.517-17.472C271.362,423.109,269.134,417.798,266.806,412.253z M100.549,314.792
				c-0.539,0.099-0.763,0.1-0.953,0.182c-0.522,0.228-1.034,0.482-1.544,0.737c-8.37,4.207-15.886,9.576-22.303,16.431
				c-16.757,17.897-25.069,38.975-23.398,63.585c1.507,22.196,10.804,40.868,27.155,55.791
				c17.205,15.703,37.783,22.995,60.97,21.205c30.462-2.351,53.142-17.491,68.225-44.007c0.433-0.759,0.464-2.114,0.085-2.908
				c-4.271-8.96-8.655-17.867-13.023-26.78c-0.184-0.377-0.513-0.683-0.974-1.28c-0.21,1.213-0.353,2.053-0.501,2.89
				c-4.788,26.98-28.345,48.054-55.484,49.637c-29.227,1.705-55.064-17.205-62.259-45.566c-5.897-23.246,2.719-48.508,21.811-62.61
				c3.321-2.454,4.227-4.74,3.732-8.581C101.299,327.376,101.044,321.166,100.549,314.792z"/>
			<path fill-rule="evenodd" clip-rule="evenodd" d="M266.806,412.253c2.328,5.545,4.557,10.856,6.895,16.423
				c-14.871,5.836-29.579,11.61-44.517,17.472c-0.425-0.94-0.813-1.755-1.167-2.584c-10.596-24.823-21.205-49.639-31.736-74.488
				c-0.778-1.837-1.683-2.524-3.74-2.519c-25.705,0.07-51.409,0.042-77.113,0.021c-3.479-0.003-3.014,0.321-3.259-3.116
				c-2.529-35.396-5.017-70.796-7.586-106.188c-0.157-2.153-0.67-4.363-1.454-6.377c-5.799-14.935,5.181-31.196,21.058-31.068
				c11.48,0.093,21.205,9.03,22.354,20.541c1.137,11.4-6.778,22.091-18.121,24.262c-1.726,0.33-2.144,0.865-2.037,2.576
				c0.833,13.54,1.56,27.087,2.325,40.631c0.043,0.767,0.14,1.528,0.236,2.549c19.269,0,38.369,0,57.6,0c0,7.159,0,14.046,0,21.174
				c-18.499,0-36.882,0-55.565,0c0.357,4.852,0.694,9.441,1.052,14.293c1.062,0,1.971,0.006,2.875,0
				c23.919-0.155,47.839-0.291,71.759-0.51c1.783-0.016,2.608,0.552,3.306,2.171c10.247,23.806,20.562,47.584,30.863,71.366
				c0.308,0.71,0.635,1.413,1.051,2.34C250.161,418.24,258.321,415.305,266.806,412.253z"/>
			<path fill-rule="evenodd" clip-rule="evenodd" d="M100.549,314.792c0.495,6.374,0.75,12.584,1.538,18.724
				c0.494,3.841-0.411,6.127-3.732,8.581c-19.092,14.103-27.708,39.364-21.811,62.61c7.194,28.361,33.032,47.271,62.259,45.566
				c27.14-1.583,50.696-22.656,55.484-49.637c0.148-0.837,0.291-1.677,0.501-2.89c0.461,0.598,0.79,0.903,0.974,1.28
				c4.368,8.913,8.753,17.82,13.023,26.78c0.379,0.794,0.348,2.149-0.085,2.908c-15.083,26.516-37.763,41.656-68.225,44.007
				c-23.187,1.79-43.765-5.502-60.97-21.205c-16.352-14.923-25.648-33.595-27.155-55.791c-1.671-24.61,6.642-45.688,23.398-63.585
				c6.417-6.854,13.933-12.224,22.303-16.431c0.51-0.255,1.021-0.51,1.544-0.737C99.786,314.892,100.01,314.891,100.549,314.792z"/>
		</g>
	</g>
</g>
<g id="Obstacle">
	<g>
		<g>
			<path fill="none" d="M279.778,484.736c0-92.105,0-184.213,0-276.318c88.733,0,177.467,0,266.2,0c0,92.105,0,184.213,0,276.318
				C457.245,484.736,368.512,484.736,279.778,484.736z M370.052,470.341c1.706,0,3.108,0,4.511,0c25.425,0,50.85,0.003,76.276-0.001
				c5.107,0,5.119-0.009,5.12-5.064c0.003-32.819,0.001-65.639,0.001-98.459c0-1.644,0-3.288,0-5.322
				c3.522,0,6.507,0.193,9.44-0.109c0.977-0.1,2.603-1.462,2.611-2.263c0.161-13.865,0.116-27.732,0.116-41.977
				c-2.026-0.14-3.798-0.345-5.572-0.369c-7.263-0.097-6.553,0.737-6.591-6.788c-0.022-4.28,0.001-8.562-0.006-12.843
				c-0.01-5.199-0.015-5.213-5.058-5.214c-25.425-0.005-50.851-0.002-76.276-0.002c-1.393,0-2.787,0-4.654,0
				c0,5.729,0,11.008,0,16.286c0,8.163,0,8.163-8.252,8.553c-0.13,0.007-0.26,0.013-0.389,0.005
				c-2.102-0.129-3.03,0.754-3.021,2.959c0.056,12.843,0.066,25.686-0.01,38.527c-0.015,2.602,1.076,3.413,3.522,3.279
				c2.638-0.144,5.291-0.032,8.229-0.032C370.052,398.142,370.052,434.029,370.052,470.341z M406.04,222.704
				c0,4.275-0.073,8.149,0.027,12.019c0.062,2.368-0.405,3.613-3.214,4.172c-3.477,0.691-6.925,2.112-10.063,3.812
				c-11.423,6.188-17.744,16.499-21.684,28.39c-1.088,3.282-0.875,6.995-1.287,10.777c28.3,0,55.782-0.017,83.265,0.03
				c2.358,0.004,2.868-1.086,2.663-3.133c-0.7-7.008-2.495-13.548-6.188-19.726c-6.124-10.242-14.721-16.976-26.132-20.096
				c-2.23-0.609-2.925-1.598-2.87-3.743c0.104-4.095,0.03-8.194,0.03-12.503C415.565,222.704,411.083,222.704,406.04,222.704z
				 M315.045,346.318c3.844,0,7.447-0.125,11.031,0.081c1.013,0.058,2.453,0.849,2.875,1.706c3.255,6.626,8.229,10.928,15.5,12.673
				c4.163,1,4.578,0.907,4.585-3.254c0.021-12.31,0.016-24.619-0.008-36.928c-0.002-1.098-0.208-2.194-0.362-3.711
				c-2.301,0.306-4.258,0.328-6.074,0.848c-6.021,1.723-10.193,5.878-12.981,11.222c-1.127,2.159-2.286,2.692-4.416,2.616
				c-3.321-0.117-6.649-0.03-10.149-0.03C315.045,336.602,315.045,341.098,315.045,346.318z M477.899,317.518
				c0,14.525,0,29.051,0,43.883c8.06-1.217,14.561-4.112,17.832-11.606c1.264-2.893,2.96-3.794,5.934-3.531
				c2.804,0.247,5.646,0.053,8.574,0.053c0-5.095,0-9.801,0-14.773c-2.142,0-3.967-0.183-5.742,0.035
				c-4.816,0.588-8.016-0.568-10.165-5.653C491.884,320.129,483.994,316.704,477.899,317.518z"/>
			<path fill-rule="evenodd" clip-rule="evenodd" d="M370.052,470.341c0-36.312,0-72.199,0-108.834
				c-2.938,0-5.592-0.111-8.229,0.032c-2.446,0.134-3.537-0.678-3.522-3.279c0.076-12.842,0.065-25.685,0.01-38.527
				c-0.01-2.205,0.919-3.088,3.021-2.959c0.129,0.008,0.259,0.002,0.389-0.005c8.252-0.39,8.252-0.39,8.252-8.553
				c0-5.278,0-10.558,0-16.286c1.867,0,3.262,0,4.654,0c25.426,0,50.852-0.003,76.276,0.002c5.043,0.001,5.048,0.015,5.058,5.214
				c0.007,4.281-0.017,8.562,0.006,12.843c0.038,7.525-0.672,6.691,6.591,6.788c1.774,0.024,3.546,0.229,5.572,0.369
				c0,14.244,0.045,28.111-0.116,41.977c-0.009,0.801-1.635,2.163-2.611,2.263c-2.934,0.303-5.918,0.109-9.44,0.109
				c0,2.034,0,3.679,0,5.322c0,32.82,0.002,65.64-0.001,98.459c-0.001,5.056-0.013,5.064-5.12,5.064
				c-25.427,0.004-50.852,0.001-76.276,0.001C373.16,470.341,371.758,470.341,370.052,470.341z M438.955,338.924
				c0.613-15.423-12.904-27.117-25.989-27.091c-14.841,0.03-26.486,13.189-26.404,27.396c0.08,13.883,11.627,27.126,26.691,26.948
				C426.598,366.021,439.708,354.069,438.955,338.924z"/>
			<path fill-rule="evenodd" clip-rule="evenodd" d="M406.04,222.704c5.043,0,9.525,0,14.547,0c0,4.309,0.073,8.408-0.03,12.503
				c-0.055,2.146,0.64,3.134,2.87,3.743c11.411,3.12,20.008,9.854,26.132,20.096c3.693,6.178,5.488,12.718,6.188,19.726
				c0.205,2.047-0.305,3.137-2.663,3.133c-27.482-0.047-54.965-0.03-83.265-0.03c0.412-3.782,0.199-7.495,1.287-10.777
				c3.939-11.891,10.261-22.201,21.684-28.39c3.139-1.7,6.587-3.121,10.063-3.812c2.809-0.559,3.275-1.804,3.214-4.172
				C405.967,230.854,406.04,226.979,406.04,222.704z"/>
			<path fill-rule="evenodd" clip-rule="evenodd" d="M315.045,346.318c0-5.221,0-9.717,0-14.777c3.5,0,6.828-0.087,10.149,0.03
				c2.13,0.076,3.289-0.457,4.416-2.616c2.788-5.344,6.96-9.499,12.981-11.222c1.816-0.52,3.773-0.542,6.074-0.848
				c0.154,1.517,0.36,2.613,0.362,3.711c0.023,12.309,0.029,24.618,0.008,36.928c-0.007,4.161-0.422,4.254-4.585,3.254
				c-7.271-1.745-12.245-6.047-15.5-12.673c-0.422-0.857-1.862-1.648-2.875-1.706C322.492,346.193,318.889,346.318,315.045,346.318z
				"/>
			<path fill-rule="evenodd" clip-rule="evenodd" d="M477.899,317.518c6.095-0.813,13.984,2.611,16.433,8.406
				c2.149,5.085,5.349,6.241,10.165,5.653c1.775-0.218,3.601-0.035,5.742-0.035c0,4.973,0,9.679,0,14.773
				c-2.928,0-5.771,0.194-8.574-0.053c-2.974-0.263-4.67,0.639-5.934,3.531c-3.271,7.494-9.772,10.39-17.832,11.606
				C477.899,346.568,477.899,332.043,477.899,317.518z"/>
			<path fill-rule="evenodd" clip-rule="evenodd" fill="none" d="M438.955,338.924c0.753,15.146-12.357,27.098-25.702,27.254
				c-15.064,0.178-26.611-13.065-26.691-26.948c-0.082-14.207,11.563-27.366,26.404-27.396
				C426.051,311.807,439.568,323.501,438.955,338.924z M429.514,338.969c0.488-8.385-7.353-17.411-16.666-17.22
				c-9.192,0.189-16.19,7.54-16.233,17.24c-0.043,9.713,6.831,17.36,16.394,17.349C422.142,356.326,429.535,348.562,429.514,338.969
				z"/>
			<path fill-rule="evenodd" clip-rule="evenodd" d="M429.514,338.969c0.021,9.594-7.372,17.357-16.506,17.369
				c-9.562,0.012-16.437-7.636-16.394-17.349c0.043-9.7,7.041-17.051,16.233-17.24C422.161,321.558,430.002,330.584,429.514,338.969
				z"/>
		</g>
	</g>
</g>
<g id="Arrow">
	<g>
		<g>
			
				<line fill="none" stroke="#000000" stroke-width="20" stroke-miterlimit="10" x1="445.035" y1="171.221" x2="480.897" y2="84.352"/>
			<g>
				<polygon points="474.699,163.413 448.146,163.685 429.518,144.761 430,207.64 				"/>
			</g>
		</g>
	</g>
</g>
</svg>
