<?xml version="1.0" encoding="utf-8"?>
<!-- Generator: Adobe Illustrator 19.1.1, SVG Export Plug-In . SVG Version: 6.00 Build 0)  -->
<svg version="1.1" id="Layer_1" xmlns="http://www.w3.org/2000/svg" xmlns:xlink="http://www.w3.org/1999/xlink" x="0px" y="0px"
	 viewBox="-25 117 560 560" style="enable-background:new -25 117 560 560;" xml:space="preserve">
<style type="text/css">
	.st0{display:none;}
	.st1{fill:#DDDDDD;}
	.st2{fill:none;}
	.st3{stroke:#FFFFFF;stroke-miterlimit:10;}
	.st4{fill:#DDDDDD;stroke:#AAAAAA;stroke-width:4;stroke-miterlimit:10;}
	.st5{display:inline;fill:#FFFFFF;stroke:#000000;stroke-miterlimit:10;}
	.st6{fill:none;stroke:#000000;stroke-width:20;stroke-miterlimit:10;}
</style>
<g id="_x32_D_NoRamp">
</g>
<g id="_x32_D_No_Ramp">
</g>
<g id="_x33_D_Ramp" class="st0">
</g>
<path class="st1" d="M207.5,426.5c0-29,0-58,0-86.9c0-8.7,0.9-9.6,9.5-9.6c5.1,0,10.3,0,15.4,0c7.7,0,9,1.3,9,8.9
	c0,35.8,0,71.5,0,107.3c0,22.6,0.1,45.3,0.2,67.9c0,8.8-1,9.8-9.9,9.8c-5.1,0-10.3,0-15.4,0c-7.5,0-8.9-1.4-8.9-9
	c0-13.6,0.1-27.2,0.2-40.8C207.5,458.2,207.5,442.3,207.5,426.5z"/>
<path class="st1" d="M255.4,256.6c0,15.4,0.1,30.8,0,46.2c-0.1,13.2-7.3,21-20,22.1c-1.3,0.1-2.7,0.1-4.1,0.1c-5,0-10,0-14.9,0
	c-14.8-0.1-23-8-23-22.9c-0.1-25.5-0.1-51,0-76.5c0-6.5-0.2-13,0.6-19.4c1.2-9.8,7.5-16.5,17.2-17.4c8.8-0.8,17.9-0.9,26.7,0.1
	c11,1.3,17.5,9.8,17.6,21.6C255.5,225.8,255.4,241.2,255.4,256.6z M224.3,317.2c10.9,0,19.5-8.5,19.6-19.2
	c0-10.8-8.9-19.8-19.6-19.8c-10.5,0-19.4,9-19.4,19.6C204.9,308.6,213.5,317.2,224.3,317.2z M224.5,196.6
	c-10.9,0-19.6,8.5-19.6,19.3c0,10.5,8.9,19.2,19.8,19.3c10.2,0.1,19.2-9.1,19.1-19.5C243.8,205.1,235.1,196.6,224.5,196.6z
	 M224.2,275.5c10.7,0,18.7-7.5,18.8-17.6c0.1-11.2-7.7-19.4-18.4-19.5c-10.5-0.1-18.6,8-18.8,18.7
	C205.7,267.6,213.6,275.5,224.2,275.5z"/>
<path class="st1" d="M187.9,239.3c0,10.7,0.1,20.7-0.1,30.6c0,1.3-1.2,3.3-2.3,3.7c-1.1,0.3-3.3-0.6-4.1-1.6
	c-6.4-8.3-12.7-16.8-18.8-25.3c-1-1.5-2-4.3-1.3-5.4c0.8-1.3,3.5-1.7,5.5-1.8C173.8,239.1,180.9,239.3,187.9,239.3z"/>
<path class="st1" d="M261.1,239.3c7.8,0,15.6-0.1,23.4,0c3.4,0.1,4.7,2.4,2.9,5c-6.7,9.6-13.6,19-20.7,28.3
	c-1.8,2.4-5.4,1.3-5.5-1.7C260.9,260.6,261.1,250.3,261.1,239.3z"/>
<path class="st1" d="M187.7,198.5c0,10.8,0,21.1-0.1,31.5c0,0.9-1,2.4-1.8,2.6c-1.1,0.3-3,0-3.6-0.8c-7.1-9.5-14.1-19-21-28.6
	c-1.8-2.5-0.5-4.5,2.4-4.6C171.8,198.4,179.9,198.5,187.7,198.5z"/>
<path class="st1" d="M261,198.5c7.9,0,16-0.1,24.1,0.1c3,0.1,4.1,2.2,2.4,4.6c-6.8,9.5-13.7,19-20.7,28.3c-0.7,0.9-2.7,1.4-3.9,1.1
	c-0.8-0.2-1.7-2-1.8-3.1C260.9,219.4,261,209.3,261,198.5z"/>
<path class="st1" d="M260.3,295.2c0-3.8,0.1-7.6,0-11.3c-0.1-2.3,0.7-3.3,3.1-3.3c6.9,0,13.9-0.3,20.8-0.2c3.8,0,5.2,2.5,3,5.6
	c-6.5,9.2-13.2,18.3-20,27.3c-0.7,1-2.7,1.9-3.7,1.5c-1-0.3-2.1-2.1-2.2-3.4c-0.6-5.4-0.8-10.8-1.1-16.2
	C260.1,295.2,260.2,295.2,260.3,295.2z"/>
<path class="st1" d="M187.7,280.4c0,11.1,0.2,21.4-0.1,31.8c-0.1,3.1-3.6,4.1-5.5,1.5c-7.1-9.3-13.9-18.8-20.7-28.4
	c-2.1-3-0.1-4.8,2.7-4.8C172,280.2,180,280.4,187.7,280.4z"/>
<path class="st2" d="M224.3,317.2c-10.8,0-19.4-8.6-19.4-19.4c0-10.6,8.8-19.5,19.4-19.6c10.7,0,19.6,8.9,19.6,19.8
	C243.8,308.7,235.2,317.2,224.3,317.2z"/>
<path class="st2" d="M224.5,196.6c10.6,0,19.3,8.5,19.3,19.1c0.1,10.4-9,19.5-19.1,19.5c-10.8-0.1-19.8-8.8-19.8-19.3
	C204.9,205.1,213.6,196.6,224.5,196.6z"/>
<g>
	<g>
		<path class="st2" d="M32.1,443.2c0-47,0-94,0-141.2c20.8,0,41.7,0,62.5,0c-0.1,0.1-0.2,0.2-0.3,0.2c-6.9,1.1-11.8,5-15.5,10.8
			c-2.5,3.8-2.5,13.3,0.1,17.2c0.4,0.6,0.8,1.4,0.8,2.1c0.5,6.2,1,12.5,1.4,18.7c1.6,23.2,3.3,46.4,4.9,69.6
			c0.2,2.5,0.4,5.1,0.6,7.8c1,0,1.9,0,2.7,0c23.1,0,46.3,0,69.4,0c0.5,0,1.1-0.1,1.6,0c0.6,0.2,1.3,0.6,1.6,1.1
			c1.4,2.7,2.7,5.5,4,8.3c2.9,6.3,5.7,12.7,8.5,19c2.8,6.3,5.7,12.7,8.5,19c2.4,5.4,4.6,10.9,7,16.3c0.7,1.6,1.7,3.2,2.6,4.8
			c13.3-5,26.5-9.9,39.9-14.9c-2-4.8-4-9.5-6-14.2c-7.6,2.6-15.1,5.2-22.5,7.7c-1.9-4-3.8-7.8-5.6-11.6c-2.8-5.9-5.4-11.9-8.1-17.9
			c-3.1-6.8-6.2-13.6-9.2-20.4c-2-4.6-4-9.2-5.9-13.8c-0.5-1.2-1.1-1.7-2.5-1.7c-19.4,0.2-38.7,0.3-58.1,0.4c-3.3,0-6.6,0-10,0
			c-0.3-4.1-0.6-8.1-0.9-12.3c16.9,0,33.6,0,50.3,0c0-6.2,0-12.1,0-18.2c-17.4,0-34.7,0-52.1,0c-0.7-13.2-1.5-26.1-2.2-39
			c1-0.2,1.7-0.4,2.5-0.5c5.5-1,9.8-4.1,12.7-8.6c6.6-10.4,2.5-22.7-8.8-28c-1.8-0.8-3.7-1.2-5.6-1.7c44.2,0,88.3,0,132.5,0
			c0,72.6,0,145.3,0,217.9c-39.3,0-78.6,0-117.8,0c0.4-0.1,0.9-0.3,1.3-0.4c15.5-1.8,29.3-7.8,41.2-17.8
			c5.9-4.9,11.1-10.6,14.9-17.5c0.5-0.9,1.4-1.6,1.7-2.6c0.3-0.7,0.2-1.7,0-2.5c-0.3-0.9-1.1-1.6-1.5-2.5
			c-3.6-6.9-7.1-13.9-10.6-20.9c-0.1-0.3-0.4-0.5-0.5-0.7c-0.7,3-1.2,5.9-2.2,8.7c-1,2.8-2.3,5.5-3.7,8.2c-2.2,4.2-4.9,8-8.3,11.4
			c-7.4,7.6-16.1,12.6-26.3,15.2c-15.1,3.8-29.4,1.5-42.8-6.2c-6.7-3.9-12.1-9.2-16.6-15.5c-4.5-6.2-6.8-13.5-8.3-20.9
			c-1.3-6.3-0.9-12.7,1-19.1c2-6.8,4.4-13.2,8.8-18.9c3.9-5,8.3-9.2,13.5-12.6c0.9-0.6,1.3-1.3,1.2-2.4c-0.3-3.3-0.5-6.7-0.8-10
			c-0.3-3.1-0.5-6.2-0.8-9.4c-5.8,2.1-10.6,5.3-15.3,8.8c-6.3,4.7-11.7,10.4-16.2,16.8c-4.7,6.9-8.2,14.5-10.3,22.6
			C33.2,435.6,32.8,439.4,32.1,443.2z"/>
		<path d="M100.2,302c1.9,0.6,3.9,0.9,5.6,1.7c11.3,5.3,15.4,17.6,8.8,28c-2.9,4.5-7.2,7.7-12.7,8.6c-0.8,0.1-1.5,0.3-2.5,0.5
			c0.7,12.9,1.5,25.9,2.2,39c17.4,0,34.7,0,52.1,0c0,6.1,0,12,0,18.2c-16.7,0-33.4,0-50.3,0c0.3,4.2,0.6,8.2,0.9,12.3
			c3.5,0,6.7,0,10,0c19.4-0.1,38.7-0.2,58.1-0.4c1.4,0,2,0.5,2.5,1.7c1.9,4.6,3.9,9.2,5.9,13.8c3,6.8,6.1,13.6,9.2,20.4
			c2.7,6,5.4,11.9,8.1,17.9c1.8,3.8,3.7,7.6,5.6,11.6c7.4-2.5,14.9-5.1,22.5-7.7c2,4.8,4,9.4,6,14.2c-13.3,5-26.6,9.9-39.9,14.9
			c-0.9-1.6-1.8-3.1-2.6-4.8c-2.4-5.4-4.6-10.9-7-16.3c-2.8-6.4-5.6-12.7-8.5-19c-2.8-6.3-5.7-12.7-8.5-19c-1.3-2.8-2.6-5.6-4-8.3
			c-0.3-0.5-1-0.8-1.6-1.1c-0.5-0.2-1,0-1.6,0c-23.1,0-46.3,0-69.4,0c-0.8,0-1.7,0-2.7,0c-0.2-2.8-0.5-5.3-0.6-7.8
			c-1.6-23.2-3.3-46.4-4.9-69.6c-0.4-6.2-0.9-12.5-1.4-18.7c-0.1-0.7-0.4-1.5-0.8-2.1c-2.6-3.8-2.6-13.3-0.1-17.2
			c3.7-5.8,8.6-9.7,15.5-10.8c0.1,0,0.2-0.1,0.3-0.2C96.5,302,98.3,302,100.2,302z"/>
		<path d="M32.1,443.2c0.7-3.8,1.1-7.6,2-11.2c2.1-8.1,5.6-15.7,10.3-22.6c4.4-6.5,9.9-12.1,16.2-16.8c4.7-3.5,9.6-6.7,15.3-8.8
			c0.3,3.2,0.5,6.3,0.8,9.4c0.3,3.4,0.5,6.7,0.8,10c0.1,1.1-0.3,1.8-1.2,2.4c-5.2,3.4-9.6,7.6-13.5,12.6c-4.4,5.7-6.8,12.2-8.8,18.9
			c-1.9,6.3-2.2,12.7-1,19.1c1.5,7.4,3.8,14.7,8.3,20.9c4.5,6.2,9.9,11.6,16.6,15.5c13.4,7.8,27.7,10.1,42.8,6.2
			c10.2-2.6,18.9-7.6,26.3-15.2c3.3-3.5,6-7.3,8.3-11.4c1.4-2.6,2.7-5.3,3.7-8.2c1-2.8,1.5-5.7,2.2-8.7c0.1,0.2,0.4,0.4,0.5,0.7
			c3.5,7,7.1,13.9,10.6,20.9c0.4,0.9,1.2,1.6,1.5,2.5c0.3,0.8,0.3,1.8,0,2.5c-0.4,0.9-1.2,1.7-1.7,2.6c-3.8,6.8-9,12.5-14.9,17.5
			c-12,9.9-25.7,16-41.2,17.8c-0.4,0.1-0.9,0.2-1.3,0.4c-5,0-10,0-15,0c-0.7-0.1-1.4-0.3-2.1-0.4c-14-1.7-26.6-6.9-37.8-15.5
			c-5.9-4.5-11.1-9.9-15.3-16c-4.8-6.9-8.4-14.6-10.4-22.8c-0.9-3.8-1.4-7.8-2-11.6C32.1,450,32.1,446.6,32.1,443.2z"/>
		<path class="st2" d="M32.1,453.5c0.7,3.9,1.1,7.8,2,11.6c2,8.2,5.6,15.9,10.4,22.8c4.2,6.1,9.4,11.5,15.3,16
			c11.2,8.6,23.8,13.8,37.8,15.5c0.7,0.1,1.4,0.3,2.1,0.4c-22.5,0-45.1,0-67.6,0C32.1,497.8,32.1,475.6,32.1,453.5z"/>
	</g>
</g>
<polyline class="st3" points="268.5,523 268.5,595.2 470.2,595.9 "/>
<polygon class="st4" points="269.5,595.5 269.5,522.5 -35.5,522.5 -35.5,595.5 -35.5,600.5 -35.5,632.5 549.5,632.5 549.5,595.5 "/>
<g>
	<path class="st2" d="M389.1,532"/>
</g>
<g id="Layer_2" class="st0">
	<circle class="st5" cx="255" cy="397" r="280"/>
</g>
<g>
	<path class="st2" d="M450,410.6"/>
</g>
<g>
	<g>
		<line class="st6" x1="456.6" y1="397" x2="410.4" y2="495.9"/>
		<g>
			<polygon points="397.4,471.2 413.6,489.2 437.7,490 395.3,528.3 			"/>
		</g>
	</g>
</g>
</svg>
