<svg xmlns="http://www.w3.org/2000/svg" xmlns:xlink="http://www.w3.org/1999/xlink" xml:space="preserve" version="1.1" style="shape-rendering:geometricPrecision;text-rendering:geometricPrecision;image-rendering:optimizeQuality;" viewBox="0 0 3.256 2.504" x="0px" y="0px" fill-rule="evenodd" clip-rule="evenodd"><defs><style type="text/css">
   
    .fil0 {fill:black}
   
  </style></defs><g><path class="fil0" d="M0 1.252c0.196,0.22 0.423,0.439 0.682,0.607 0.033,0.021 0.066,0.042 0.1,0.061l-0.345 0.345 -0.024 0.025c-0.049,0.049 -0.049,0.128 0,0.177 0.049,0.049 0.128,0.049 0.177,0l0.024 -0.024 0 -0.001 0.406 -0.405c0.188,0.077 0.391,0.122 0.608,0.122 0.354,0 0.669,-0.121 0.946,-0.3 0.259,-0.168 0.486,-0.387 0.682,-0.607 -0.219,-0.241 -0.495,-0.481 -0.796,-0.655l0.383 -0.383c0.049,-0.049 0.049,-0.128 0,-0.177 -0.049,-0.049 -0.128,-0.049 -0.177,0l-0.442 0.442c-0.195,-0.084 -0.397,-0.135 -0.596,-0.135 -0.278,0 -0.562,0.099 -0.826,0.25 -0.304,0.174 -0.582,0.415 -0.802,0.658zm1.056 0.395c-0.077,-0.112 -0.123,-0.248 -0.123,-0.395 0,-0.191 0.078,-0.365 0.204,-0.491 0.13,-0.131 0.306,-0.204 0.491,-0.204 0.147,0 0.283,0.046 0.395,0.123l-0.136 0.136c-0.076,-0.045 -0.164,-0.071 -0.259,-0.071 -0.14,0 -0.267,0.056 -0.359,0.148l0 0c-0.091,0.092 -0.148,0.219 -0.148,0.359 0,0.094 0.026,0.183 0.071,0.259l-0.136 0.136zm1.144 -0.79l-0.136 0.136c0.045,0.076 0.071,0.164 0.071,0.259 0,0.14 -0.057,0.267 -0.148,0.359 -0.092,0.091 -0.219,0.148 -0.359,0.148 -0.095,0 -0.183,-0.026 -0.259,-0.071l-0.136 0.136c0.112,0.077 0.248,0.123 0.395,0.123 0.191,0 0.365,-0.078 0.491,-0.204l0 0c0.126,-0.126 0.204,-0.3 0.204,-0.491 0,-0.147 -0.046,-0.283 -0.123,-0.395z"></path></g></svg>