<svg xmlns="http://www.w3.org/2000/svg" xmlns:xlink="http://www.w3.org/1999/xlink" xml:space="preserve" version="1.1" style="shape-rendering:geometricPrecision;text-rendering:geometricPrecision;image-rendering:optimizeQuality;" viewBox="0 0 4.071 2.27" x="0px" y="0px" fill-rule="evenodd" clip-rule="evenodd"><defs><style type="text/css">
   
    .fil0 {fill:black}
   
  </style></defs><g><path class="fil0" d="M2.484 1.583c0.114,-0.114 0.185,-0.273 0.185,-0.448 0,-0.175 -0.071,-0.334 -0.185,-0.448 -0.115,-0.115 -0.274,-0.186 -0.449,-0.186 -0.175,0 -0.334,0.071 -0.448,0.185l0 0.001c-0.115,0.114 -0.186,0.272 -0.186,0.448 0,0.175 0.071,0.333 0.186,0.448 0.115,0.115 0.273,0.186 0.448,0.186 0.176,0 0.334,-0.071 0.449,-0.186zm0.42 -0.448c0,0.239 -0.097,0.456 -0.254,0.614l-0.001 0c-0.157,0.157 -0.374,0.254 -0.614,0.254 -0.24,0 -0.457,-0.097 -0.614,-0.254 -0.157,-0.157 -0.254,-0.374 -0.254,-0.614 0,-0.239 0.097,-0.457 0.254,-0.614l0.001 0c0.157,-0.158 0.374,-0.255 0.613,-0.255 0.24,0 0.457,0.097 0.615,0.255 0.157,0.157 0.254,0.374 0.254,0.614zm-2.052 0.758c0.347,0.225 0.741,0.377 1.183,0.377 0.443,0 0.837,-0.152 1.183,-0.377 0.324,-0.209 0.608,-0.483 0.853,-0.758 -0.275,-0.303 -0.623,-0.606 -1.003,-0.823 -0.331,-0.189 -0.685,-0.312 -1.033,-0.312 -0.348,0 -0.702,0.123 -1.033,0.312 -0.379,0.217 -0.727,0.52 -1.002,0.823 0.245,0.275 0.529,0.549 0.852,0.758z"></path></g></svg>