<svg width="16" height="16" viewBox="0 0 16 16" fill="none" xmlns="http://www.w3.org/2000/svg">
<g clip-path="url(#clip0_187_7812)">
<path d="M13.3325 5.99963H7.33289C6.59655 5.99963 5.99963 6.59655 5.99963 7.33289V13.3325C5.99963 14.0689 6.59655 14.6658 7.33289 14.6658H13.3325C14.0689 14.6658 14.6658 14.0689 14.6658 13.3325V7.33289C14.6658 6.59655 14.0689 5.99963 13.3325 5.99963Z" stroke="#242424" stroke-linecap="round" stroke-linejoin="round"/>
<path d="M3.33314 9.99942H2.66651C2.31291 9.99942 1.97379 9.85895 1.72375 9.60892C1.47372 9.35889 1.33325 9.01977 1.33325 8.66617V2.66651C1.33325 2.31291 1.47372 1.97379 1.72375 1.72375C1.97379 1.47372 2.31291 1.33325 2.66651 1.33325H8.66617C9.01977 1.33325 9.35889 1.47372 9.60892 1.72375C9.85895 1.97379 9.99942 2.31291 9.99942 2.66651V3.33314" stroke="#242424" stroke-linecap="round" stroke-linejoin="round"/>
</g>
<defs>
<clipPath id="clip0_187_7812">
<rect width="15.9991" height="15.9991" fill="white"/>
</clipPath>
</defs>
</svg>
