<svg width="14" height="10" viewBox="0 0 14 10" fill="none" xmlns="http://www.w3.org/2000/svg">
<path fill-rule="evenodd" clip-rule="evenodd" d="M0.217749 4.64874C2.06067 1.67588 4.2378 0 6.78437 0C9.33094 0 11.5081 1.67588 13.351 4.64874L13.5687 5L13.351 5.35126C11.5081 8.32412 9.33094 10 6.78437 10C4.2378 10 2.06067 8.32412 0.217749 5.35126L0 5L0.217749 4.64874ZM1.5746 5C3.24585 7.55522 4.99273 8.66667 6.78437 8.66667C8.57601 8.66667 10.3229 7.55522 11.9941 5C10.3229 2.44478 8.57601 1.33333 6.78437 1.33333C4.99273 1.33333 3.24585 2.44478 1.5746 5ZM6.78437 4C6.23209 4 5.78437 4.44772 5.78437 5C5.78437 5.55229 6.23209 6 6.78437 6C7.33666 6 7.78437 5.55229 7.78437 5C7.78437 4.44772 7.33666 4 6.78437 4ZM4.45104 5C4.45104 3.71134 5.49571 2.66667 6.78437 2.66667C8.07304 2.66667 9.11771 3.71134 9.11771 5C9.11771 6.28866 8.07304 7.33333 6.78437 7.33333C5.49571 7.33333 4.45104 6.28866 4.45104 5Z" fill="#2D2A3F"/>
</svg>
