<svg xmlns="http://www.w3.org/2000/svg" width="14" height="13" viewBox="0 0 14 13" fill="none">
  <path fill-rule="evenodd" clip-rule="evenodd" d="M9.86168 10.2073L12.0287 12.3744L12.9715 11.4316L8.80737 7.26741C9.00477 6.92492 9.11771 6.5276 9.11771 6.1039C9.11771 4.81524 8.07304 3.77057 6.78437 3.77057C6.36067 3.77057 5.96335 3.8835 5.62086 4.0809L1.53996 0L0.597148 0.942809L2.50863 2.85429C1.70863 3.58686 0.936512 4.59319 0.217749 5.75265L0 6.1039L0.217749 6.45516C2.06067 9.42802 4.2378 11.1039 6.78437 11.1039C7.86772 11.1039 8.89611 10.7973 9.86168 10.2073ZM8.8849 9.23056L7.83979 8.18545C7.52285 8.34647 7.16421 8.43723 6.78437 8.43723C5.49571 8.43723 4.45104 7.39256 4.45104 6.1039C4.45104 5.72406 4.5418 5.36542 4.70282 5.04848L3.45249 3.79815C2.84182 4.34725 2.20605 5.13034 1.5742 6.10329C3.24557 8.65894 4.99259 9.77057 6.78437 9.77057C7.49992 9.77057 8.19832 9.59579 8.8849 9.23056ZM6.7579 7.10356C6.22665 7.08975 5.79852 6.66163 5.78472 6.13038L6.7579 7.10356ZM7.77575 6.23579C7.78144 6.19264 7.78437 6.14861 7.78437 6.1039C7.78437 5.55162 7.33666 5.1039 6.78437 5.1039C6.73966 5.1039 6.69564 5.10684 6.65248 5.11252L7.77575 6.23579ZM6.76287 1.1039L6.78437 1.1039C9.33094 1.1039 11.5081 2.77978 13.351 5.75265L13.5687 6.1039L13.351 6.45516C12.7419 7.43764 12.1006 8.27336 11.4238 8.95406L10.4783 8.01398C10.9916 7.49766 11.4976 6.86276 11.9941 6.10387C10.3229 3.54868 8.576 2.43724 6.78437 2.43724C6.39899 2.43724 6.03683 2.43872 5.71194 2.4912C5.38479 2.54405 5.18557 2.636 5.07125 2.7476L4.13984 1.79354C4.53769 1.40514 5.05267 1.24709 5.4993 1.17494C5.93941 1.10384 6.40096 1.10387 6.76287 1.1039Z" fill="#2D2A3F"/>
</svg>