<?xml version="1.0" encoding="UTF-8"?>
<svg width="100pt" height="100pt" version="1.1" viewBox="0 0 100 100" xmlns="http://www.w3.org/2000/svg">
 <g>
  <path d="m100 50c0 27.613-22.387 50-50 50s-50-22.387-50-50 22.387-50 50-50 50 22.387 50 50" fill="#fff"/>
  <path d="m54.582 26.242c0 6.1133-9.1641 6.1133-9.1641 0 0-6.1094 9.1641-6.1094 9.1641 0"/>
  <path d="m40.621 78.34h18.758c0.41797 0 0.75781-0.33984 0.75781-0.75391v-3.8047c0-0.39844-0.30859-0.72656-0.70312-0.75-1.4922-0.085938-4.8516-0.89844-4.8516-6.4961v-27.918c0-0.19922-0.078125-0.39453-0.21875-0.53516-0.14453-0.14062-0.33594-0.21875-0.53516-0.21875h-13.207c-0.41797 0-0.75781 0.33594-0.75781 0.75391v3.8008c0 0.39844 0.30469 0.73047 0.70312 0.75391 1.4922 0.085937 4.8477 0.89844 4.8477 6.4961l0.003907 16.867c0 5.5938-3.3555 6.4102-4.8477 6.4961h-0.003906c-0.39844 0.023438-0.70312 0.35156-0.70312 0.75v3.8047c0 0.41406 0.33984 0.75391 0.75781 0.75391z"/>
 </g>
</svg>
