<svg xmlns="http://www.w3.org/2000/svg" viewBox="0 0 33.77 61.725" x="0px" y="0px"><title>Ресурс 51</title><g data-name="Слой 2"><g data-name="1"><path d="M16.88,22.52a5.63,5.63,0,1,1,5.63-5.63A5.64,5.64,0,0,1,16.88,22.52Zm0-9a3.37,3.37,0,1,0,3.37,3.37A3.37,3.37,0,0,0,16.88,13.52Z"/><path d="M16.85,49.38l-.86-1c-.65-.77-16-19-16-30.93C0,7.82,7.57,0,16.88,0S33.73,7.82,33.77,17.43h0c.05,11.94-15.39,30.17-16,30.94Zm0-47.12c-8.06,0-14.62,6.8-14.62,15.17C2.27,27,13.61,41.8,16.86,45.85,20.13,41.8,31.54,27,31.5,17.44h0C31.46,9.07,24.91,2.27,16.88,2.27Z"/></g></g><text x="0" y="64.38" fill="#000000" font-size="5px" font-weight="bold" font-family="'Helvetica Neue', Helvetica, Arial-Unicode, Arial, Sans-serif">Created by Evgenii Likhachov</text><text x="0" y="69.38" fill="#000000" font-size="5px" font-weight="bold" font-family="'Helvetica Neue', Helvetica, Arial-Unicode, Arial, Sans-serif">from the Noun Project</text></svg>