<svg xmlns="http://www.w3.org/2000/svg" viewBox="0 0 50.33 49.712500000000006" x="0px" y="0px"><title>Ресурс 53</title><g data-name="Слой 2"><g data-name="1"><path d="M25.17,14.27a4.13,4.13,0,1,1,4.13-4.13A4.14,4.14,0,0,1,25.17,14.27Zm0-6A1.87,1.87,0,1,0,27,10.13,1.87,1.87,0,0,0,25.17,8.27Z"/><path d="M25.15,32.93l-.88-1.08c-.41-.5-10-12.37-10-20.2C14.28,5.23,19.17,0,25.17,0S36,5.22,36.05,11.65h0c0,7.83-9.61,19.7-10,20.21Zm0-30.66c-4.75,0-8.62,4.21-8.62,9.38,0,5.74,6.25,14.54,8.6,17.64,2.36-3.1,8.65-11.9,8.63-17.63h0C33.76,6.48,29.9,2.27,25.17,2.27Z"/><polygon points="50.34 39.77 0 39.77 9.5 22.5 16.92 22.5 16.92 24.77 10.84 24.77 3.83 37.5 46.5 37.5 39.5 24.77 33.42 24.77 33.42 22.5 40.84 22.5 50.34 39.77"/></g></g><text x="0" y="54.77" fill="#000000" font-size="5px" font-weight="bold" font-family="'Helvetica Neue', Helvetica, Arial-Unicode, Arial, Sans-serif">Created by Evgenii Likhachov</text><text x="0" y="59.77" fill="#000000" font-size="5px" font-weight="bold" font-family="'Helvetica Neue', Helvetica, Arial-Unicode, Arial, Sans-serif">from the Noun Project</text></svg>