<?xml version="1.0" encoding="utf-8"?>
<!-- Generator: Adobe Illustrator 24.3.0, SVG Export Plug-In . SVG Version: 6.00 Build 0)  -->
<svg version="1.1" id="Layer_1" xmlns="http://www.w3.org/2000/svg" xmlns:xlink="http://www.w3.org/1999/xlink" x="0px" y="0px"
	 viewBox="0 0 160.7 218.4" style="enable-background:new 0 0 160.7 218.4;" xml:space="preserve">
<style type="text/css">
	.st0{fill-rule:evenodd;clip-rule:evenodd;}
</style>
<path class="st0" d="M72.5,212.7C53.9,171.5,21.9,136.5,6,94.3C-11.7,47.1,34.3-1.3,81.5,0c47.2-1.3,93,47.2,75.4,94.3
	C141,136.6,109,171.6,90.4,212.7C86.8,220.5,75.8,220.2,72.5,212.7z M-391.9,475.3 M81.5,30.2l11.3,35.2l37-0.1L99.8,87l11.5,35.2
	l-29.8-21.8l-30,21.8L63.1,87l-30-21.7l37,0.1L81.5,30.2L81.5,30.2z"/>
</svg>
