<svg xmlns="http://www.w3.org/2000/svg" xmlns:xlink="http://www.w3.org/1999/xlink" version="1.1" x="0px" y="0px" viewBox="0 0 100 125" enable-background="new 0 0 100 100" xml:space="preserve"><g><path d="M22.289,25.682c0.288,0.62,2.821,1.429,5.472,0.712c2.723-0.736,5.388-3.705,5.388-3.705s-3.798-1.222-6.521-0.486   c-0.324,0.088-0.633,0.196-0.929,0.317c0.142-0.292,0.272-0.598,0.382-0.921c0.909-2.671-0.067-6.539-0.067-6.539   s-3.133,2.469-4.043,5.139C21.107,22.74,21.702,25.261,22.289,25.682z"/><path d="M35.421,18.203c2.559-1.634,4.338-5.541,4.338-5.541s-4.293-0.031-6.852,1.603c-2.559,1.634-3.752,4.34-3.377,4.927   S32.862,19.836,35.421,18.203z"/><path d="M15.277,35.78c0.429,0.626,3.348,1.048,6.119-0.22c2.846-1.303,5.22-5.039,5.22-5.039s-4.379-0.644-7.226,0.659   c-0.339,0.155-0.657,0.331-0.959,0.517c0.102-0.346,0.188-0.705,0.25-1.078c0.507-3.089-1.267-7.144-1.267-7.144   s-2.979,3.274-3.486,6.363C13.445,32.775,14.557,35.426,15.277,35.78z"/><path d="M11.246,48.087c0.693,0.583,4.185,0.136,6.966-2.208c2.856-2.408,4.393-7.462,4.393-7.462s-5.242,0.659-8.098,3.067   c-0.339,0.285-0.649,0.587-0.936,0.896c0.007-0.428-0.01-0.868-0.059-1.315c-0.403-3.714-3.74-7.81-3.74-7.81   s-2.379,4.717-1.975,8.431C8.18,45.218,10.305,47.911,11.246,48.087z"/><path d="M11.995,59.978c0.11-0.05,0.215-0.17,0.31-0.336c1.215-0.151,3.795-1.631,5.41-4.237c1.917-3.093,1.724-8.178,1.724-8.178   s-4.741,2.255-6.658,5.348c-0.261,0.421-0.479,0.849-0.667,1.276c-0.116-0.316-0.244-0.632-0.398-0.947   c-1.59-3.252-6.078-5.926-6.078-5.926s-0.714,5.043,0.877,8.296C8.105,58.526,11.219,60.331,11.995,59.978z"/><path d="M16.822,71.673c0.081-0.083,0.133-0.229,0.16-0.415c1.035-0.545,2.83-2.779,3.368-5.737   c0.639-3.511-1.305-8.168-1.305-8.168s-3.46,3.674-4.098,7.185c-0.087,0.478-0.134,0.948-0.153,1.407   c-0.214-0.254-0.439-0.505-0.686-0.746c-2.557-2.49-7.506-3.477-7.506-3.477s1.118,4.921,3.674,7.411   C12.833,71.622,16.25,72.26,16.822,71.673z"/><path d="M23.588,80.301c0.82-0.621,1.967-2.729,1.815-5.187c-0.18-2.908-2.946-6.237-2.946-6.237s-2.338,3.572-2.158,6.48   c0.025,0.401,0.089,0.786,0.173,1.159c-0.253-0.165-0.508-0.329-0.789-0.476c-2.853-1.492-7.547-1.338-7.547-1.338   s2.075,3.695,4.928,5.187s6.084,1.351,6.475,0.777C23.595,80.585,23.604,80.455,23.588,80.301z"/><path d="M33.046,87.029c0.015-0.084-0.019-0.197-0.08-0.321c0.407-0.752,0.581-2.846-0.315-4.872   c-1.06-2.396-4.162-4.424-4.162-4.424s-0.586,3.659,0.475,6.055c0.146,0.331,0.316,0.637,0.497,0.927   c-0.239-0.068-0.48-0.135-0.734-0.18c-2.58-0.458-5.994,0.984-5.994,0.984s2.709,2.528,5.289,2.986S32.941,87.621,33.046,87.029z"/><path d="M42.087,89.318c0.172-0.778-0.258-2.689-1.686-4.253c-1.69-1.85-5.215-2.828-5.215-2.828s0.485,3.413,2.175,5.264   c0.233,0.255,0.482,0.483,0.736,0.693c-0.246,0.003-0.494,0.008-0.749,0.036c-2.583,0.28-5.416,2.474-5.416,2.474   s3.295,1.529,5.877,1.248c2.583-0.28,4.515-1.814,4.446-2.369C42.245,89.503,42.18,89.412,42.087,89.318z"/><path d="M73.195,26.394c2.651,0.717,5.184-0.091,5.472-0.712c0.588-0.421,1.183-2.943,0.318-5.482   c-0.909-2.67-4.043-5.139-4.043-5.139s-0.976,3.868-0.067,6.539c0.11,0.323,0.24,0.629,0.382,0.921   c-0.296-0.121-0.605-0.229-0.929-0.317c-2.723-0.736-6.521,0.486-6.521,0.486S70.471,25.658,73.195,26.394z"/><path d="M65.535,18.203c2.559,1.634,5.516,1.576,5.891,0.989s-0.818-3.293-3.377-4.927c-2.559-1.634-6.852-1.603-6.852-1.603   S62.976,16.569,65.535,18.203z"/><path d="M74.34,30.521c0,0,2.374,3.736,5.22,5.039c2.771,1.269,5.69,0.846,6.119,0.22c0.72-0.354,1.832-3.005,1.349-5.942   c-0.508-3.089-3.486-6.363-3.486-6.363s-1.775,4.055-1.267,7.144c0.061,0.373,0.148,0.732,0.25,1.078   c-0.302-0.186-0.621-0.362-0.959-0.517C78.719,29.877,74.34,30.521,74.34,30.521z"/><path d="M86.45,41.484c-2.856-2.408-8.098-3.067-8.098-3.067s1.536,5.054,4.393,7.462c2.781,2.344,6.273,2.791,6.966,2.208   c0.941-0.177,3.066-2.87,3.45-6.401c0.403-3.714-1.975-8.431-1.975-8.431s-3.336,4.096-3.74,7.81   c-0.049,0.447-0.065,0.886-0.059,1.315C87.099,42.07,86.788,41.769,86.45,41.484z"/><path d="M95.318,46.978c0,0-4.488,2.674-6.078,5.926c-0.154,0.315-0.282,0.631-0.398,0.947c-0.187-0.427-0.406-0.855-0.667-1.276   c-1.917-3.093-6.658-5.348-6.658-5.348s-0.193,5.085,1.724,8.178c1.615,2.606,4.195,4.086,5.41,4.237   c0.095,0.167,0.199,0.286,0.31,0.336c0.776,0.354,3.89-1.452,5.481-4.704C96.032,52.022,95.318,46.978,95.318,46.978z"/><path d="M86.162,65.944c-0.019-0.459-0.066-0.929-0.153-1.407c-0.639-3.511-4.098-7.185-4.098-7.185s-1.943,4.657-1.305,8.168   c0.538,2.958,2.333,5.192,3.368,5.737c0.027,0.187,0.079,0.332,0.16,0.416c0.572,0.587,3.988-0.051,6.545-2.541   c2.557-2.49,3.674-7.411,3.674-7.411s-4.949,0.987-7.506,3.477C86.6,65.439,86.375,65.69,86.162,65.944z"/><path d="M81.273,76.04c-0.281,0.147-0.537,0.311-0.789,0.476c0.084-0.373,0.148-0.758,0.173-1.159   c0.18-2.908-2.158-6.48-2.158-6.48s-2.766,3.329-2.946,6.237c-0.152,2.458,0.995,4.566,1.815,5.187   c-0.016,0.154-0.006,0.284,0.049,0.366c0.391,0.574,3.622,0.715,6.475-0.777s4.928-5.187,4.928-5.187S84.126,74.548,81.273,76.04z"/><path d="M72.23,84.215c-0.254,0.045-0.495,0.112-0.734,0.18c0.181-0.29,0.351-0.596,0.497-0.927   c1.06-2.396,0.475-6.055,0.475-6.055s-3.102,2.027-4.162,4.424c-0.896,2.025-0.722,4.12-0.315,4.872   c-0.061,0.125-0.095,0.237-0.08,0.321c0.105,0.592,2.444,1.614,5.024,1.156c2.58-0.458,5.289-2.986,5.289-2.986   S74.81,83.757,72.23,84.215z"/><path d="M62.859,88.193c0.254-0.21,0.503-0.437,0.736-0.693c1.69-1.851,2.175-5.264,2.175-5.264s-3.525,0.978-5.215,2.828   c-1.428,1.564-1.859,3.475-1.686,4.253c-0.093,0.095-0.158,0.186-0.168,0.265c-0.069,0.555,1.863,2.089,4.446,2.369   c2.583,0.28,5.877-1.248,5.877-1.248s-2.834-2.194-5.416-2.474C63.353,88.201,63.106,88.196,62.859,88.193z"/></g><text x="0" y="115" fill="#000000" font-size="5px" font-weight="bold" font-family="'Helvetica Neue', Helvetica, Arial-Unicode, Arial, Sans-serif">Created by Nick Abrams</text><text x="0" y="120" fill="#000000" font-size="5px" font-weight="bold" font-family="'Helvetica Neue', Helvetica, Arial-Unicode, Arial, Sans-serif">from the Noun Project</text></svg>