<?xml version="1.0" encoding="utf-8"?>
<!-- Generator: Adobe Illustrator 24.3.0, SVG Export Plug-In . SVG Version: 6.00 Build 0)  -->
<svg version="1.1" id="Layer_1" xmlns="http://www.w3.org/2000/svg" xmlns:xlink="http://www.w3.org/1999/xlink" x="0px" y="0px"
	 viewBox="0 0 846.7 1058.3" style="enable-background:new 0 0 846.7 1058.3;" xml:space="preserve">
<style type="text/css">
	.st0{fill-rule:evenodd;clip-rule:evenodd;}
</style>
<path class="st0" d="M619.9,314.6c-47.2,0-100.4,5.1-145.1,20.7c-63.8,24.3-62,68.2-14,108.2c0.1,0,53.7,37.7,25.9,55.5
	c-29.7,19.1-102.3,37.3-220.1,66.5c-21.6,5.3-13.5,38.2,8.1,32.9l0,0c121.1-30,195.9-48.7,230.2-70.8c46.8-30.1,36.7-60.7-22.5-110
	c-28.2-23.4-32.9-37,6.5-51.3c36.1-13,91.7-17.6,130.8-17.6C642.2,348.6,642.2,314.6,619.9,314.6z"/>
</svg>
