<svg xmlns="http://www.w3.org/2000/svg" xmlns:xlink="http://www.w3.org/1999/xlink" version="1.1" x="0px" y="0px" viewBox="0 0 100 125" enable-background="new 0 0 100 100" xml:space="preserve"><g><path fill="#000000" d="M34.717,13.967c-0.101-0.015-0.207-0.031-0.316-0.044c-0.109-0.009-0.221-0.017-0.337-0.027   c-0.466-0.03-1.004-0.056-1.593-0.04c-0.291,0.017-0.596,0.04-0.914,0.072c-0.159,0.016-0.321,0.034-0.487,0.055   c-0.166,0.02-0.334,0.042-0.5,0.078c-0.334,0.066-0.68,0.142-1.034,0.229c-0.177,0.044-0.357,0.089-0.537,0.141   c-0.177,0.058-0.355,0.118-0.535,0.182c-0.36,0.128-0.727,0.269-1.098,0.423c-0.36,0.17-0.723,0.355-1.087,0.554   c-0.181,0.101-0.366,0.2-0.544,0.313c-0.176,0.115-0.351,0.233-0.526,0.356c-0.175,0.122-0.349,0.248-0.523,0.378   c-0.174,0.129-0.347,0.261-0.508,0.409c-0.328,0.29-0.642,0.587-0.942,0.889c-0.153,0.148-0.287,0.312-0.425,0.471   c-0.136,0.16-0.268,0.321-0.397,0.482c-0.129,0.161-0.254,0.323-0.375,0.485c-0.119,0.164-0.227,0.335-0.335,0.501   c-0.215,0.335-0.416,0.669-0.603,0.999c-0.177,0.337-0.335,0.676-0.483,1.005c-0.146,0.331-0.287,0.649-0.392,0.977   c-0.11,0.323-0.209,0.638-0.298,0.942c-0.044,0.152-0.087,0.3-0.124,0.448c-0.032,0.15-0.063,0.296-0.094,0.44   c-0.058,0.287-0.107,0.562-0.149,0.822c-0.041,0.261-0.079,0.504-0.095,0.742c-0.039,0.471-0.055,0.878-0.06,1.211   c-0.009,0.331,0.009,0.597,0.024,0.778c0.014,0.18,0.026,0.277,0.026,0.277c6.588-2.938,13.341-7.331,16.836-14.224   c0,0-0.363-0.109-1.024-0.231C35.104,14.029,34.92,13.997,34.717,13.967z"/><path fill="#000000" d="M9.184,36.52c0.164,0.672,0.351,1.283,0.545,1.829c0.201,0.548,0.428,1.035,0.633,1.452   c0.21,0.419,0.396,0.768,0.578,1.053c0.358,0.569,0.597,0.867,0.597,0.867s0.05-0.09,0.144-0.257   c0.045-0.084,0.1-0.187,0.164-0.308c0.063-0.121,0.133-0.261,0.22-0.415c0.169-0.309,0.366-0.684,0.576-1.114   c0.053-0.107,0.104-0.219,0.162-0.332c0.058-0.113,0.118-0.229,0.18-0.348c0.121-0.238,0.244-0.489,0.368-0.751   c0.061-0.131,0.122-0.265,0.185-0.402c0.067-0.135,0.135-0.272,0.204-0.412c0.136-0.28,0.27-0.57,0.402-0.871   c0.125-0.303,0.281-0.603,0.416-0.918c0.141-0.313,0.269-0.64,0.409-0.968c0.144-0.326,0.283-0.662,0.415-1.006   c0.068-0.171,0.126-0.349,0.197-0.522c0.07-0.173,0.138-0.349,0.204-0.527c0.135-0.354,0.25-0.724,0.377-1.092   c0.13-0.366,0.25-0.742,0.36-1.129c0.103-0.39,0.227-0.762,0.323-1.143c0.05-0.19,0.097-0.379,0.142-0.569   c0.043-0.191,0.086-0.38,0.135-0.564c0.093-0.371,0.175-0.742,0.249-1.111c0.039-0.184,0.068-0.372,0.108-0.551   c0.038-0.181,0.075-0.36,0.111-0.537c0.071-0.357,0.134-0.712,0.191-1.062c0.055-0.352,0.125-0.683,0.178-1.017   c0.112-0.664,0.195-1.311,0.292-1.893c0.09-0.588,0.16-1.139,0.219-1.631c0.069-0.483,0.123-0.911,0.162-1.268   c0.08-0.713,0.101-1.133,0.101-1.133s-0.427,0.213-1.144,0.645c-0.179,0.108-0.377,0.229-0.589,0.367   c-0.205,0.142-0.426,0.299-0.66,0.471c-0.234,0.172-0.48,0.358-0.737,0.559c-0.064,0.051-0.129,0.102-0.194,0.154   c-0.063,0.054-0.126,0.109-0.19,0.165c-0.127,0.113-0.258,0.228-0.39,0.346c-0.264,0.238-0.536,0.491-0.812,0.758   c-0.271,0.271-0.535,0.564-0.806,0.867c-0.135,0.152-0.271,0.307-0.406,0.466c-0.067,0.08-0.135,0.16-0.203,0.241   c-0.064,0.083-0.128,0.167-0.193,0.252c-0.257,0.339-0.512,0.691-0.763,1.055c-0.258,0.36-0.477,0.751-0.706,1.144   c-0.112,0.197-0.223,0.397-0.331,0.599c-0.053,0.101-0.107,0.203-0.161,0.305c-0.049,0.104-0.097,0.209-0.146,0.314   C10.106,27,9.924,27.43,9.755,27.867c-0.088,0.217-0.16,0.441-0.229,0.667c-0.07,0.225-0.136,0.452-0.198,0.68   c-0.263,0.906-0.386,1.813-0.474,2.668c-0.024,0.213-0.032,0.428-0.038,0.64c-0.006,0.211-0.009,0.42-0.009,0.626   c0.002,0.412,0.01,0.809,0.041,1.198C8.925,35.127,9.033,35.851,9.184,36.52z"/><path fill="#000000" d="M9.276,57.133c0.354,0.351,0.716,0.646,1.038,0.896c0.322,0.249,0.61,0.452,0.851,0.611   c0.241,0.159,0.435,0.276,0.568,0.353c0.134,0.077,0.212,0.114,0.212,0.114s0.005-0.089,0.022-0.256   c0.015-0.167,0.034-0.41,0.05-0.715c0.016-0.306,0.028-0.673,0.031-1.09c0.02-0.42,0.031-0.889,0.026-1.396   c-0.016-0.505,0.001-1.054-0.025-1.627c-0.007-0.143-0.014-0.288-0.021-0.435c-0.009-0.147-0.02-0.295-0.023-0.445   c-0.011-0.301-0.028-0.607-0.054-0.918c-0.013-0.156-0.027-0.312-0.044-0.47c-0.009-0.079-0.018-0.158-0.026-0.238   c-0.007-0.08-0.013-0.16-0.02-0.24c-0.028-0.321-0.066-0.646-0.114-0.975c-0.024-0.164-0.05-0.329-0.079-0.495   c-0.025-0.166-0.051-0.333-0.076-0.501c-0.055-0.335-0.121-0.674-0.199-1.015c-0.085-0.341-0.152-0.676-0.237-1.007   c-0.084-0.33-0.177-0.655-0.278-0.975c-0.191-0.639-0.385-1.255-0.613-1.849c-0.417-1.182-0.9-2.272-1.308-3.201   c-0.209-0.465-0.422-0.893-0.606-1.27c-0.179-0.376-0.345-0.705-0.487-0.975c-0.283-0.541-0.471-0.846-0.471-0.846   S7.185,38.51,6.87,39.131c-0.079,0.155-0.164,0.328-0.255,0.518c-0.087,0.19-0.171,0.398-0.262,0.621   c-0.177,0.447-0.378,0.956-0.552,1.521c-0.166,0.566-0.331,1.186-0.473,1.849c-0.118,0.664-0.227,1.371-0.287,2.105   c-0.021,0.368-0.035,0.742-0.039,1.122C5,47.247,4.993,47.631,5.031,48.018c0.031,0.387,0.073,0.777,0.127,1.166   c0.027,0.195,0.057,0.39,0.091,0.585c0.041,0.194,0.085,0.389,0.132,0.582c0.191,0.775,0.412,1.505,0.714,2.178   c0.294,0.675,0.598,1.299,0.964,1.864c0.178,0.283,0.358,0.552,0.54,0.808c0.184,0.255,0.358,0.499,0.555,0.726   C8.537,56.382,8.916,56.783,9.276,57.133z"/><path fill="#000000" d="M16.232,71.694c0.311,0.094,0.583,0.164,0.808,0.215c0.45,0.102,0.713,0.132,0.713,0.132   s-0.067-0.282-0.216-0.748c-0.074-0.233-0.168-0.512-0.285-0.824c-0.108-0.317-0.229-0.674-0.377-1.051   c-0.074-0.189-0.153-0.384-0.239-0.583c-0.083-0.201-0.162-0.411-0.253-0.623c-0.089-0.212-0.185-0.427-0.288-0.645   c-0.103-0.217-0.215-0.436-0.318-0.664c-0.213-0.452-0.461-0.906-0.732-1.363c-0.257-0.463-0.547-0.923-0.878-1.375   c-0.316-0.457-0.644-0.888-0.995-1.29c-0.087-0.101-0.175-0.2-0.264-0.297c-0.084-0.099-0.169-0.196-0.254-0.292   c-0.171-0.191-0.345-0.376-0.52-0.555c-0.715-0.71-1.382-1.338-2.013-1.852c-0.156-0.129-0.309-0.25-0.455-0.365   c-0.141-0.116-0.277-0.224-0.406-0.325c-0.259-0.202-0.491-0.374-0.686-0.513c-0.39-0.279-0.63-0.424-0.63-0.424   s-0.033,0.307-0.049,0.843c-0.006,0.268-0.015,0.594,0.002,0.965c0.022,0.37,0.057,0.787,0.111,1.24   c0.027,0.227,0.059,0.462,0.096,0.705c0.046,0.241,0.099,0.489,0.158,0.743c0.059,0.254,0.124,0.514,0.196,0.778   c0.072,0.264,0.149,0.533,0.251,0.8c0.196,0.535,0.419,1.082,0.685,1.621c0.283,0.533,0.601,1.06,0.956,1.566   c0.367,0.502,0.77,0.951,1.17,1.359c0.101,0.102,0.201,0.201,0.303,0.297c0.106,0.094,0.212,0.186,0.318,0.274   c0.212,0.178,0.424,0.344,0.635,0.5c0.211,0.156,0.42,0.302,0.626,0.438c0.206,0.136,0.422,0.255,0.627,0.369   c0.412,0.226,0.807,0.414,1.174,0.571C15.565,71.485,15.924,71.598,16.232,71.694z"/><path fill="#000000" d="M25.471,80.814c0.183-0.019,0.326-0.039,0.423-0.055c0.097-0.016,0.151-0.029,0.151-0.029   s-0.032-0.048-0.092-0.136c-0.06-0.089-0.148-0.217-0.263-0.375c-0.115-0.158-0.258-0.346-0.426-0.554   c-0.084-0.104-0.174-0.213-0.271-0.326c-0.094-0.116-0.192-0.238-0.295-0.365c-0.208-0.251-0.439-0.513-0.693-0.779   c-0.13-0.13-0.254-0.273-0.387-0.413c-0.133-0.14-0.272-0.28-0.416-0.418s-0.295-0.276-0.451-0.412   c-0.155-0.137-0.307-0.281-0.47-0.417c-0.321-0.277-0.678-0.533-1.043-0.787c-0.361-0.257-0.733-0.484-1.107-0.687   c-0.094-0.051-0.188-0.1-0.282-0.147c-0.092-0.049-0.182-0.098-0.273-0.146c-0.182-0.094-0.363-0.183-0.544-0.266   c-0.361-0.167-0.722-0.31-1.064-0.442c-0.335-0.135-0.66-0.252-0.964-0.352c-0.608-0.202-1.143-0.334-1.504-0.43   c-0.367-0.092-0.585-0.129-0.585-0.129s0.062,0.238,0.2,0.639c0.145,0.397,0.386,0.948,0.716,1.588   c0.042,0.08,0.085,0.161,0.129,0.243c0.048,0.08,0.097,0.161,0.147,0.244c0.101,0.165,0.209,0.333,0.323,0.504   c0.114,0.171,0.234,0.345,0.361,0.519c0.126,0.175,0.259,0.351,0.408,0.519c0.293,0.34,0.612,0.679,0.955,1.005   c0.168,0.166,0.359,0.315,0.548,0.464c0.191,0.149,0.388,0.292,0.59,0.43c0.203,0.137,0.404,0.266,0.61,0.382   c0.21,0.112,0.418,0.216,0.626,0.31c0.416,0.188,0.819,0.347,1.217,0.468c0.404,0.115,0.792,0.201,1.158,0.264   c0.368,0.061,0.704,0.11,1.03,0.121C24.579,80.883,25.105,80.852,25.471,80.814z"/><path fill="#000000" d="M33.648,84.713c-0.176-0.123-0.381-0.245-0.596-0.395c-0.874-0.574-2.058-1.222-3.415-1.644   c-0.34-0.105-0.687-0.173-1.017-0.243c-0.329-0.07-0.655-0.119-0.973-0.153c-0.64-0.06-1.224-0.092-1.735-0.088   c-0.51,0.002-0.947,0.04-1.247,0.067c-0.299,0.025-0.473,0.054-0.473,0.054s0.028,0.04,0.078,0.115   c0.053,0.073,0.127,0.185,0.234,0.314c0.213,0.257,0.529,0.615,0.939,1.012c0.103,0.098,0.208,0.204,0.326,0.301   c0.118,0.098,0.241,0.197,0.37,0.297c0.257,0.199,0.536,0.399,0.834,0.592c0.147,0.099,0.306,0.187,0.468,0.271   c0.162,0.085,0.329,0.168,0.5,0.246c0.17,0.078,0.345,0.153,0.523,0.222c0.177,0.07,0.358,0.135,0.548,0.184   c1.5,0.428,2.905,0.305,3.893,0.065c0.499-0.126,0.895-0.271,1.167-0.385c0.272-0.113,0.42-0.195,0.42-0.195   s-0.139-0.122-0.389-0.311C33.978,84.945,33.825,84.834,33.648,84.713z"/><path fill="#000000" d="M28.174,30.12c0.071-0.135,0.137-0.26,0.194-0.375c0.231-0.462,0.344-0.76,0.344-0.76   s-0.322-0.097-0.892-0.195c-0.286-0.049-0.635-0.098-1.04-0.132c-0.397-0.024-0.844-0.029-1.341-0.006   c-0.503,0.016-1.024,0.092-1.586,0.204c-0.278,0.059-0.577,0.118-0.861,0.208c-0.287,0.088-0.58,0.189-0.879,0.303   c-0.149,0.057-0.3,0.118-0.452,0.182c-0.153,0.063-0.295,0.139-0.444,0.214c-0.295,0.152-0.593,0.318-0.892,0.5   c-0.152,0.089-0.295,0.188-0.437,0.292c-0.143,0.103-0.285,0.211-0.427,0.322c-0.281,0.225-0.575,0.456-0.832,0.724   c-0.263,0.264-0.516,0.538-0.757,0.819c-0.239,0.282-0.445,0.583-0.652,0.882c-0.102,0.15-0.201,0.301-0.298,0.452   c-0.098,0.151-0.178,0.31-0.263,0.465c-0.167,0.312-0.324,0.625-0.47,0.936c-0.141,0.313-0.255,0.632-0.369,0.942   c-0.108,0.313-0.222,0.615-0.295,0.923c-0.079,0.305-0.15,0.604-0.213,0.894c-0.03,0.145-0.06,0.288-0.089,0.428   c-0.02,0.142-0.04,0.282-0.059,0.419c-0.036,0.274-0.066,0.537-0.091,0.787c-0.011,0.125-0.022,0.247-0.033,0.365   c-0.009,0.119-0.009,0.236-0.012,0.349c-0.01,0.451-0.004,0.844,0.007,1.167c0.003,0.161,0.018,0.307,0.031,0.433   c0.015,0.126,0.027,0.234,0.037,0.321c0.022,0.174,0.038,0.268,0.038,0.268s0.332-0.165,0.867-0.473   c0.264-0.155,0.603-0.339,0.966-0.555c0.368-0.215,0.76-0.463,1.19-0.73c0.436-0.265,0.893-0.555,1.35-0.868   c0.47-0.308,0.96-0.633,1.426-0.983c0.239-0.173,0.488-0.346,0.724-0.528c0.119-0.091,0.237-0.183,0.353-0.277   c0.116-0.094,0.229-0.19,0.351-0.283c0.482-0.373,0.913-0.786,1.361-1.201c0.109-0.106,0.214-0.212,0.315-0.32   c0.101-0.108,0.197-0.218,0.301-0.321c0.202-0.21,0.39-0.424,0.565-0.642l0.129-0.164l0.134-0.157   c0.088-0.105,0.173-0.211,0.254-0.318c0.167-0.211,0.306-0.437,0.466-0.64c0.154-0.208,0.296-0.418,0.429-0.629   c0.033-0.053,0.065-0.106,0.098-0.158c0.034-0.051,0.069-0.101,0.103-0.151c0.067-0.1,0.132-0.201,0.195-0.302   c0.127-0.2,0.239-0.405,0.352-0.599c0.118-0.189,0.228-0.377,0.33-0.561c0.05-0.093,0.099-0.185,0.147-0.274   c0.023-0.046,0.046-0.091,0.069-0.135c0.025-0.043,0.049-0.085,0.073-0.127c0.095-0.167,0.183-0.33,0.263-0.486   S28.108,30.262,28.174,30.12z"/><path fill="#000000" d="M17.108,55.753c0.241-0.381,0.488-0.792,0.727-1.226c0.115-0.216,0.252-0.441,0.374-0.669   c0.125-0.228,0.247-0.462,0.364-0.699c0.222-0.474,0.476-0.968,0.679-1.476c0.194-0.507,0.409-1.029,0.561-1.566   c0.039-0.134,0.074-0.268,0.106-0.401c0.039-0.133,0.076-0.265,0.109-0.396c0.066-0.263,0.121-0.523,0.164-0.781   c0.036-0.258,0.095-0.511,0.128-0.762c0.036-0.251,0.063-0.498,0.081-0.742c0.053-0.486,0.088-0.956,0.088-1.408   c0.023-0.448,0.026-0.875,0.009-1.276c-0.009-0.399-0.012-0.766-0.038-1.099c-0.013-0.167-0.026-0.323-0.037-0.468   c-0.007-0.144-0.016-0.277-0.026-0.399c-0.04-0.485-0.091-0.776-0.091-0.776s-0.287,0.096-0.76,0.315   c-0.237,0.11-0.52,0.251-0.837,0.43c-0.314,0.179-0.645,0.4-1.005,0.66c-0.728,0.518-1.479,1.22-2.187,2.112   c-0.335,0.448-0.674,0.943-0.962,1.485c-0.139,0.272-0.271,0.554-0.395,0.848c-0.122,0.294-0.246,0.597-0.33,0.912   c-0.091,0.315-0.169,0.632-0.236,0.949c-0.032,0.159-0.067,0.318-0.089,0.476c-0.021,0.159-0.039,0.317-0.054,0.475   c-0.031,0.316-0.052,0.63-0.064,0.94c-0.002,0.078-0.005,0.155-0.007,0.232c0.002,0.077,0.004,0.154,0.006,0.23   c0.005,0.153,0.012,0.304,0.021,0.454c0.018,0.3,0.043,0.595,0.075,0.883c0.013,0.144,0.037,0.285,0.062,0.425   c0.026,0.139,0.052,0.277,0.078,0.412c0.112,0.541,0.222,1.05,0.385,1.508c0.152,0.46,0.308,0.876,0.455,1.24   c0.165,0.361,0.32,0.671,0.452,0.923c0.133,0.252,0.244,0.447,0.322,0.58c0.076,0.133,0.127,0.2,0.127,0.2s0.049-0.064,0.14-0.182   c0.092-0.12,0.225-0.296,0.385-0.52c0.161-0.224,0.349-0.495,0.554-0.805C16.646,56.483,16.86,56.136,17.108,55.753z"/><path fill="#000000" d="M16.563,64.887c0.148,0.486,0.334,0.948,0.529,1.388c0.094,0.222,0.208,0.429,0.322,0.631   c0.114,0.202,0.23,0.396,0.347,0.583c0.118,0.186,0.231,0.368,0.354,0.536c0.125,0.167,0.249,0.326,0.371,0.476   c0.244,0.3,0.475,0.569,0.693,0.798c0.225,0.224,0.429,0.412,0.6,0.564c0.342,0.303,0.554,0.461,0.554,0.461   s0.085-0.249,0.198-0.675c0.057-0.213,0.121-0.47,0.186-0.761c0.067-0.293,0.124-0.612,0.2-0.972   c0.071-0.357,0.137-0.739,0.191-1.137c0.029-0.2,0.046-0.4,0.074-0.611c0.027-0.211,0.05-0.424,0.068-0.64   c0.018-0.216,0.031-0.434,0.038-0.654c0.004-0.11,0.005-0.22,0.006-0.33c0.004-0.113,0.008-0.226,0.009-0.339   c0.008-0.455-0.023-0.908-0.076-1.368c-0.21-1.836-0.819-3.44-1.398-4.663c-0.141-0.305-0.284-0.583-0.421-0.829   c-0.132-0.247-0.242-0.465-0.345-0.643c-0.202-0.357-0.342-0.559-0.342-0.559s-0.172,0.177-0.434,0.512   c-0.131,0.167-0.284,0.375-0.449,0.62c-0.082,0.123-0.168,0.255-0.255,0.397c-0.082,0.14-0.164,0.29-0.247,0.448   c-0.325,0.632-0.677,1.418-0.872,2.303c-0.052,0.222-0.099,0.452-0.14,0.688c-0.02,0.118-0.039,0.238-0.055,0.359   c-0.012,0.12-0.022,0.241-0.029,0.363c-0.029,0.49-0.033,1.006,0.019,1.532C16.325,63.884,16.43,64.395,16.563,64.887z"/><path fill="#000000" d="M27.55,76.558c-0.05-0.279-0.092-0.598-0.158-0.916c-0.064-0.32-0.141-0.65-0.238-0.982   c-0.091-0.338-0.191-0.688-0.32-1.029c-0.064-0.171-0.133-0.34-0.209-0.508c-0.073-0.171-0.147-0.346-0.231-0.516   c-0.084-0.17-0.173-0.334-0.266-0.491c-0.092-0.159-0.196-0.305-0.288-0.46c-0.191-0.304-0.397-0.584-0.611-0.842   c-0.11-0.127-0.212-0.257-0.316-0.381c-0.104-0.124-0.209-0.243-0.315-0.356c-0.106-0.113-0.212-0.221-0.317-0.324   c-0.053-0.051-0.106-0.101-0.157-0.15c-0.05-0.051-0.099-0.1-0.147-0.149c-0.387-0.387-0.756-0.683-1.016-0.892   c-0.254-0.214-0.416-0.327-0.416-0.327s-0.076,0.186-0.174,0.517c-0.103,0.335-0.202,0.799-0.267,1.375   c-0.032,0.287-0.053,0.602-0.058,0.937c0.001,0.331,0.029,0.678,0.076,1.042c0.024,0.182,0.054,0.368,0.091,0.556   c0.019,0.094,0.039,0.19,0.061,0.285c0.025,0.093,0.052,0.187,0.081,0.281c0.116,0.376,0.263,0.76,0.445,1.143   c0.186,0.38,0.416,0.724,0.652,1.056c0.12,0.164,0.24,0.327,0.37,0.476c0.132,0.147,0.267,0.289,0.402,0.425   c0.136,0.136,0.272,0.266,0.409,0.391c0.137,0.124,0.271,0.246,0.414,0.349c0.282,0.213,0.557,0.403,0.816,0.569   c0.13,0.083,0.255,0.162,0.377,0.232c0.125,0.067,0.245,0.128,0.359,0.184c0.227,0.112,0.429,0.204,0.596,0.275   c0.168,0.072,0.302,0.124,0.394,0.158c0.091,0.035,0.144,0.049,0.144,0.049s-0.001-0.052-0.004-0.147   c-0.003-0.097-0.008-0.238-0.02-0.415C27.688,77.62,27.642,77.124,27.55,76.558z"/><path fill="#000000" d="M34.792,81.536c-0.404-0.842-0.988-1.885-1.843-2.752c-0.11-0.106-0.218-0.211-0.326-0.315   c-0.109-0.102-0.221-0.198-0.334-0.289c-0.113-0.091-0.227-0.176-0.342-0.256c-0.115-0.08-0.232-0.154-0.343-0.234   c-0.225-0.155-0.451-0.29-0.672-0.409c-0.111-0.06-0.22-0.115-0.328-0.167c-0.108-0.051-0.207-0.109-0.308-0.157   c-0.398-0.197-0.754-0.335-1.011-0.423c-0.127-0.046-0.227-0.083-0.296-0.108c-0.07-0.023-0.108-0.036-0.108-0.036   s-0.009,0.162,0.003,0.44c0.013,0.277,0.059,0.656,0.158,1.111c0.1,0.453,0.253,0.984,0.518,1.502   c0.129,0.263,0.281,0.531,0.457,0.797c0.176,0.266,0.39,0.508,0.623,0.753c0.936,0.982,2.166,1.501,3.112,1.764   c0.234,0.073,0.461,0.109,0.66,0.144c0.2,0.033,0.375,0.057,0.52,0.073c0.29,0.032,0.459,0.036,0.459,0.036   s-0.047-0.161-0.147-0.427C35.146,82.319,34.995,81.95,34.792,81.536z"/><path fill="#000000" d="M80.543,28.514c0,0,0.012-0.096,0.026-0.277c0.015-0.181,0.033-0.447,0.024-0.778   c-0.005-0.333-0.021-0.74-0.06-1.211c-0.015-0.238-0.053-0.481-0.095-0.742c-0.042-0.26-0.091-0.535-0.149-0.822   c-0.031-0.144-0.062-0.291-0.094-0.44c-0.038-0.147-0.08-0.296-0.124-0.448c-0.088-0.304-0.187-0.618-0.298-0.942   c-0.105-0.328-0.246-0.646-0.392-0.977c-0.148-0.329-0.306-0.668-0.483-1.005c-0.187-0.33-0.388-0.663-0.603-0.999   c-0.109-0.167-0.216-0.338-0.335-0.501c-0.121-0.162-0.247-0.323-0.375-0.485c-0.129-0.161-0.261-0.322-0.397-0.482   c-0.137-0.159-0.271-0.323-0.425-0.471c-0.3-0.302-0.614-0.6-0.942-0.889c-0.161-0.148-0.335-0.28-0.508-0.409   c-0.173-0.13-0.348-0.256-0.523-0.378c-0.175-0.122-0.35-0.241-0.526-0.356c-0.177-0.113-0.363-0.212-0.544-0.313   c-0.364-0.199-0.727-0.384-1.087-0.554c-0.371-0.155-0.737-0.296-1.098-0.423c-0.18-0.064-0.359-0.125-0.535-0.182   c-0.18-0.052-0.36-0.097-0.537-0.141c-0.354-0.088-0.7-0.164-1.034-0.229c-0.166-0.036-0.334-0.058-0.5-0.078   c-0.165-0.021-0.328-0.039-0.487-0.055c-0.318-0.032-0.623-0.056-0.914-0.072c-0.589-0.016-1.127,0.01-1.593,0.04   c-0.116,0.009-0.229,0.018-0.337,0.027c-0.109,0.012-0.215,0.029-0.316,0.044c-0.202,0.03-0.387,0.062-0.552,0.092   c-0.661,0.122-1.024,0.231-1.024,0.231C67.202,21.183,73.955,25.576,80.543,28.514z"/><path fill="#000000" d="M81.532,20.274c0.059,0.492,0.129,1.043,0.219,1.631c0.097,0.582,0.18,1.229,0.292,1.893   c0.053,0.334,0.123,0.665,0.178,1.017c0.057,0.35,0.12,0.705,0.191,1.062c0.037,0.177,0.074,0.356,0.111,0.537   c0.04,0.179,0.07,0.367,0.108,0.551c0.074,0.37,0.156,0.74,0.249,1.111c0.049,0.184,0.091,0.373,0.135,0.564   c0.044,0.19,0.092,0.38,0.142,0.569c0.097,0.381,0.221,0.753,0.323,1.143c0.11,0.386,0.23,0.762,0.36,1.129   c0.127,0.368,0.242,0.738,0.377,1.092c0.066,0.178,0.134,0.353,0.204,0.527c0.071,0.173,0.129,0.35,0.197,0.522   c0.132,0.345,0.271,0.68,0.415,1.006c0.139,0.329,0.267,0.655,0.409,0.968c0.136,0.315,0.291,0.616,0.416,0.918   c0.132,0.3,0.266,0.591,0.402,0.871c0.069,0.14,0.137,0.277,0.204,0.412c0.063,0.136,0.125,0.27,0.185,0.402   c0.124,0.262,0.247,0.513,0.368,0.751c0.062,0.119,0.121,0.235,0.18,0.348c0.058,0.113,0.109,0.225,0.162,0.332   c0.21,0.43,0.407,0.804,0.576,1.114c0.087,0.154,0.157,0.294,0.22,0.415c0.064,0.121,0.12,0.224,0.164,0.308   c0.093,0.167,0.144,0.257,0.144,0.257s0.239-0.298,0.597-0.867c0.182-0.285,0.368-0.634,0.578-1.053   c0.204-0.417,0.431-0.905,0.633-1.452c0.194-0.546,0.382-1.157,0.545-1.829c0.151-0.669,0.259-1.393,0.336-2.174   c0.032-0.388,0.039-0.786,0.041-1.198c0-0.206-0.003-0.414-0.009-0.626c-0.006-0.212-0.014-0.426-0.038-0.64   c-0.088-0.855-0.211-1.762-0.474-2.668c-0.062-0.228-0.128-0.455-0.198-0.68c-0.069-0.226-0.141-0.45-0.229-0.667   c-0.169-0.437-0.351-0.867-0.542-1.289c-0.049-0.105-0.098-0.21-0.146-0.314c-0.054-0.102-0.107-0.204-0.161-0.305   c-0.108-0.202-0.219-0.402-0.331-0.599c-0.228-0.393-0.447-0.784-0.706-1.144c-0.251-0.364-0.507-0.716-0.763-1.055   c-0.065-0.084-0.129-0.168-0.193-0.252c-0.068-0.081-0.136-0.161-0.203-0.241c-0.136-0.159-0.271-0.314-0.406-0.466   c-0.272-0.303-0.535-0.596-0.806-0.867c-0.276-0.267-0.548-0.52-0.812-0.758c-0.133-0.118-0.263-0.233-0.39-0.346   c-0.064-0.056-0.128-0.11-0.19-0.165c-0.066-0.052-0.13-0.103-0.194-0.154c-0.257-0.201-0.503-0.387-0.737-0.559   c-0.234-0.172-0.454-0.329-0.66-0.471c-0.211-0.137-0.41-0.258-0.589-0.367c-0.717-0.432-1.144-0.645-1.144-0.645   s0.022,0.421,0.101,1.133C81.409,19.362,81.463,19.791,81.532,20.274z"/><path fill="#000000" d="M94.999,46.868c-0.004-0.379-0.017-0.754-0.039-1.122c-0.061-0.735-0.169-1.441-0.287-2.105   c-0.141-0.663-0.307-1.282-0.473-1.849c-0.174-0.565-0.376-1.074-0.552-1.521c-0.091-0.223-0.175-0.431-0.262-0.621   c-0.091-0.19-0.176-0.362-0.255-0.518c-0.316-0.621-0.524-0.962-0.524-0.962s-0.187,0.305-0.471,0.846   c-0.142,0.27-0.308,0.599-0.487,0.975c-0.183,0.377-0.397,0.805-0.606,1.27c-0.409,0.929-0.892,2.019-1.308,3.201   c-0.228,0.594-0.422,1.21-0.613,1.849c-0.101,0.32-0.194,0.645-0.278,0.975c-0.085,0.33-0.152,0.665-0.237,1.007   c-0.078,0.341-0.144,0.68-0.199,1.015c-0.026,0.168-0.051,0.335-0.076,0.501c-0.029,0.166-0.055,0.331-0.079,0.495   c-0.048,0.329-0.085,0.654-0.114,0.975c-0.007,0.08-0.013,0.16-0.02,0.24c-0.009,0.08-0.018,0.159-0.026,0.238   c-0.017,0.158-0.032,0.315-0.044,0.47c-0.026,0.311-0.043,0.618-0.054,0.918c-0.003,0.151-0.013,0.299-0.023,0.445   c-0.007,0.147-0.014,0.292-0.021,0.435c-0.026,0.573-0.009,1.122-0.025,1.627c-0.005,0.506,0.006,0.975,0.026,1.396   c0.002,0.417,0.015,0.785,0.031,1.09c0.016,0.306,0.035,0.549,0.05,0.715c0.017,0.167,0.022,0.256,0.022,0.256   s0.078-0.037,0.212-0.114c0.134-0.077,0.327-0.194,0.568-0.353c0.241-0.16,0.529-0.362,0.851-0.611   c0.321-0.249,0.684-0.545,1.038-0.896c0.36-0.35,0.739-0.751,1.123-1.205c0.197-0.226,0.37-0.47,0.555-0.726   c0.182-0.256,0.362-0.525,0.54-0.808c0.366-0.564,0.67-1.189,0.964-1.864c0.303-0.674,0.523-1.404,0.714-2.178   c0.047-0.194,0.091-0.388,0.132-0.582c0.034-0.195,0.063-0.39,0.091-0.585c0.054-0.39,0.096-0.779,0.127-1.166   C95.007,47.631,95,47.247,94.999,46.868z"/><path fill="#000000" d="M92.055,58.253c0,0-0.24,0.146-0.63,0.424c-0.195,0.139-0.428,0.311-0.686,0.513   c-0.129,0.101-0.265,0.21-0.406,0.325c-0.146,0.115-0.299,0.236-0.455,0.365c-0.631,0.513-1.298,1.142-2.013,1.852   c-0.175,0.179-0.349,0.363-0.52,0.555c-0.086,0.096-0.17,0.193-0.254,0.292c-0.089,0.097-0.177,0.196-0.264,0.297   c-0.351,0.402-0.679,0.834-0.995,1.29c-0.33,0.451-0.621,0.912-0.878,1.375c-0.271,0.456-0.52,0.911-0.732,1.363   c-0.103,0.228-0.215,0.447-0.318,0.664c-0.103,0.218-0.198,0.433-0.288,0.645c-0.091,0.211-0.17,0.422-0.253,0.623   c-0.086,0.199-0.165,0.394-0.238,0.583c-0.148,0.377-0.269,0.734-0.378,1.051c-0.116,0.313-0.21,0.591-0.285,0.824   c-0.148,0.466-0.216,0.748-0.216,0.748s0.262-0.03,0.713-0.132c0.225-0.051,0.498-0.121,0.808-0.215   c0.308-0.096,0.667-0.21,1.028-0.369c0.367-0.157,0.761-0.345,1.174-0.571c0.204-0.114,0.421-0.233,0.627-0.369   c0.206-0.136,0.415-0.282,0.626-0.438c0.211-0.156,0.423-0.323,0.635-0.5c0.106-0.089,0.212-0.18,0.318-0.274   c0.102-0.096,0.202-0.195,0.303-0.297c0.4-0.408,0.803-0.858,1.17-1.359c0.355-0.506,0.673-1.034,0.956-1.566   c0.265-0.539,0.489-1.085,0.685-1.621c0.102-0.267,0.18-0.535,0.251-0.8c0.072-0.264,0.138-0.524,0.196-0.778   c0.059-0.254,0.111-0.502,0.158-0.743c0.037-0.243,0.069-0.479,0.096-0.705c0.054-0.453,0.089-0.87,0.111-1.24   c0.018-0.371,0.008-0.698,0.002-0.965C92.089,58.56,92.055,58.253,92.055,58.253z"/><path fill="#000000" d="M82.995,73.709c-0.304,0.101-0.629,0.217-0.964,0.352c-0.341,0.131-0.703,0.274-1.064,0.442   c-0.181,0.083-0.363,0.172-0.544,0.266c-0.09,0.048-0.181,0.097-0.273,0.146c-0.094,0.048-0.188,0.097-0.282,0.147   c-0.375,0.202-0.746,0.429-1.107,0.687c-0.365,0.254-0.721,0.51-1.043,0.787c-0.163,0.136-0.315,0.28-0.47,0.417   c-0.156,0.136-0.307,0.273-0.451,0.412s-0.283,0.278-0.416,0.418c-0.134,0.139-0.257,0.282-0.387,0.413   c-0.254,0.266-0.485,0.528-0.693,0.779c-0.102,0.127-0.201,0.249-0.295,0.365c-0.096,0.113-0.187,0.222-0.271,0.326   c-0.168,0.208-0.31,0.396-0.426,0.554c-0.115,0.158-0.204,0.287-0.263,0.375c-0.06,0.088-0.092,0.136-0.092,0.136   s0.054,0.013,0.151,0.029c0.097,0.016,0.24,0.036,0.423,0.055c0.366,0.038,0.893,0.068,1.537,0.037   c0.326-0.011,0.662-0.06,1.03-0.121c0.366-0.063,0.754-0.149,1.158-0.264c0.398-0.121,0.802-0.279,1.217-0.468   c0.207-0.095,0.416-0.198,0.626-0.31c0.206-0.116,0.407-0.245,0.61-0.382c0.202-0.137,0.399-0.281,0.59-0.43   c0.19-0.15,0.38-0.299,0.548-0.464c0.343-0.326,0.662-0.664,0.955-1.005c0.149-0.168,0.282-0.344,0.408-0.519   c0.127-0.175,0.247-0.348,0.361-0.519c0.114-0.171,0.222-0.339,0.323-0.504c0.05-0.083,0.099-0.164,0.147-0.244   c0.044-0.083,0.087-0.164,0.129-0.243c0.33-0.64,0.571-1.191,0.716-1.588c0.138-0.402,0.2-0.639,0.2-0.639   s-0.218,0.037-0.585,0.129C84.138,73.374,83.603,73.507,82.995,73.709z"/><path fill="#000000" d="M74.086,82.19c-0.511-0.004-1.095,0.028-1.735,0.088c-0.317,0.034-0.643,0.083-0.973,0.153   c-0.329,0.07-0.677,0.138-1.017,0.243c-1.357,0.422-2.54,1.07-3.415,1.644c-0.215,0.15-0.42,0.273-0.596,0.395   c-0.177,0.121-0.33,0.232-0.455,0.326c-0.25,0.189-0.389,0.311-0.389,0.311s0.148,0.081,0.42,0.195   c0.272,0.113,0.668,0.259,1.167,0.385c0.987,0.239,2.393,0.363,3.893-0.065c0.19-0.048,0.37-0.114,0.548-0.184   c0.178-0.069,0.352-0.144,0.523-0.222c0.171-0.078,0.337-0.161,0.5-0.246c0.163-0.085,0.321-0.172,0.468-0.271   c0.298-0.193,0.577-0.393,0.834-0.592c0.129-0.099,0.252-0.199,0.369-0.297c0.118-0.097,0.223-0.203,0.326-0.301   c0.409-0.397,0.725-0.754,0.939-1.012c0.106-0.129,0.181-0.241,0.234-0.314c0.051-0.075,0.078-0.115,0.078-0.115   s-0.173-0.029-0.473-0.054C75.033,82.23,74.596,82.193,74.086,82.19z"/><path fill="#000000" d="M78.335,38.313c0.236,0.182,0.485,0.355,0.724,0.528c0.466,0.351,0.956,0.675,1.426,0.983   c0.457,0.313,0.914,0.603,1.35,0.868c0.43,0.267,0.822,0.515,1.19,0.73c0.362,0.216,0.702,0.4,0.966,0.555   c0.535,0.309,0.867,0.473,0.867,0.473s0.016-0.093,0.038-0.268c0.01-0.088,0.022-0.195,0.037-0.321   c0.014-0.127,0.028-0.273,0.031-0.433c0.011-0.323,0.017-0.716,0.007-1.167c-0.003-0.113-0.004-0.23-0.012-0.349   c-0.011-0.119-0.022-0.24-0.033-0.365c-0.024-0.25-0.054-0.513-0.091-0.787c-0.019-0.137-0.039-0.277-0.059-0.419   c-0.029-0.14-0.059-0.283-0.089-0.428c-0.063-0.29-0.134-0.588-0.213-0.894c-0.073-0.308-0.187-0.61-0.295-0.923   c-0.114-0.31-0.228-0.629-0.369-0.942c-0.146-0.311-0.303-0.624-0.47-0.936c-0.086-0.155-0.166-0.314-0.263-0.465   c-0.097-0.151-0.196-0.302-0.298-0.452c-0.207-0.298-0.413-0.599-0.652-0.882c-0.241-0.281-0.494-0.555-0.757-0.819   c-0.256-0.268-0.551-0.499-0.832-0.724c-0.142-0.111-0.285-0.219-0.427-0.322c-0.142-0.104-0.285-0.203-0.437-0.292   c-0.299-0.182-0.597-0.348-0.892-0.5c-0.149-0.075-0.291-0.151-0.444-0.214c-0.152-0.064-0.302-0.124-0.452-0.182   c-0.299-0.114-0.592-0.215-0.879-0.303c-0.285-0.09-0.583-0.149-0.861-0.208c-0.562-0.112-1.083-0.187-1.586-0.204   c-0.497-0.023-0.944-0.018-1.341,0.006c-0.406,0.035-0.755,0.083-1.04,0.132c-0.571,0.098-0.893,0.195-0.893,0.195   s0.113,0.298,0.344,0.76c0.057,0.116,0.123,0.24,0.194,0.375c0.066,0.141,0.139,0.291,0.22,0.447s0.168,0.319,0.263,0.486   c0.024,0.042,0.048,0.084,0.073,0.127c0.023,0.045,0.046,0.09,0.069,0.135c0.048,0.09,0.097,0.181,0.147,0.274   c0.102,0.185,0.212,0.372,0.33,0.561c0.114,0.194,0.226,0.399,0.352,0.599c0.063,0.101,0.128,0.201,0.195,0.302   c0.034,0.05,0.068,0.1,0.103,0.151c0.032,0.053,0.065,0.105,0.098,0.158c0.133,0.211,0.275,0.421,0.429,0.629   c0.16,0.203,0.3,0.429,0.466,0.64c0.082,0.107,0.166,0.213,0.254,0.318l0.134,0.157l0.129,0.164   c0.175,0.218,0.363,0.432,0.565,0.642c0.104,0.103,0.201,0.213,0.301,0.321c0.101,0.108,0.206,0.215,0.315,0.32   c0.449,0.415,0.879,0.828,1.361,1.201c0.122,0.092,0.235,0.189,0.351,0.283C78.098,38.13,78.216,38.222,78.335,38.313z"/><path fill="#000000" d="M84.499,58.118c0.091,0.118,0.14,0.182,0.14,0.182s0.051-0.068,0.127-0.2   c0.078-0.132,0.189-0.327,0.322-0.58c0.133-0.252,0.288-0.562,0.452-0.923c0.147-0.364,0.303-0.78,0.455-1.24   c0.163-0.458,0.273-0.967,0.385-1.508c0.026-0.136,0.052-0.273,0.078-0.412c0.026-0.139,0.049-0.281,0.062-0.425   c0.031-0.288,0.057-0.582,0.075-0.883c0.009-0.15,0.016-0.302,0.022-0.454c0.002-0.076,0.004-0.153,0.006-0.23   c-0.002-0.077-0.005-0.154-0.007-0.232c-0.012-0.31-0.033-0.624-0.064-0.94c-0.015-0.158-0.033-0.316-0.054-0.475   c-0.022-0.159-0.057-0.317-0.089-0.476c-0.067-0.317-0.145-0.635-0.236-0.949c-0.084-0.315-0.208-0.619-0.33-0.912   c-0.124-0.293-0.256-0.576-0.395-0.848c-0.288-0.542-0.627-1.036-0.962-1.485c-0.708-0.892-1.459-1.594-2.187-2.112   c-0.36-0.26-0.691-0.481-1.005-0.66c-0.318-0.178-0.601-0.32-0.837-0.43c-0.473-0.219-0.76-0.315-0.76-0.315   s-0.051,0.291-0.091,0.776c-0.01,0.121-0.019,0.255-0.026,0.399c-0.012,0.145-0.024,0.302-0.037,0.468   c-0.026,0.333-0.029,0.7-0.038,1.099c-0.017,0.401-0.014,0.829,0.009,1.276c0,0.452,0.034,0.922,0.088,1.408   c0.018,0.244,0.044,0.492,0.081,0.742c0.033,0.251,0.092,0.504,0.128,0.762c0.043,0.258,0.097,0.518,0.164,0.781   c0.033,0.131,0.07,0.264,0.109,0.396c0.032,0.133,0.067,0.267,0.106,0.401c0.152,0.537,0.367,1.059,0.561,1.566   c0.203,0.507,0.457,1.001,0.679,1.476c0.117,0.237,0.239,0.471,0.364,0.699c0.122,0.228,0.26,0.453,0.374,0.669   c0.239,0.433,0.486,0.845,0.727,1.226c0.248,0.382,0.462,0.73,0.668,1.04c0.205,0.31,0.394,0.582,0.554,0.805   C84.274,57.823,84.407,57.999,84.499,58.118z"/><path fill="#000000" d="M78.713,64.873c0.007,0.22,0.02,0.438,0.038,0.654c0.018,0.216,0.041,0.43,0.068,0.64   c0.027,0.211,0.045,0.411,0.074,0.611c0.054,0.398,0.12,0.78,0.191,1.137c0.076,0.36,0.132,0.679,0.2,0.972   c0.065,0.291,0.129,0.548,0.186,0.761c0.113,0.426,0.198,0.675,0.198,0.675s0.212-0.157,0.554-0.461   c0.171-0.152,0.374-0.34,0.6-0.564c0.218-0.228,0.448-0.497,0.692-0.798c0.122-0.15,0.246-0.309,0.371-0.476   c0.122-0.168,0.236-0.35,0.354-0.536c0.117-0.187,0.233-0.382,0.347-0.583c0.114-0.201,0.228-0.409,0.322-0.631   c0.195-0.44,0.381-0.902,0.529-1.388c0.133-0.492,0.238-1.003,0.304-1.524c0.051-0.526,0.048-1.042,0.019-1.532   c-0.008-0.123-0.017-0.244-0.029-0.363c-0.017-0.121-0.035-0.241-0.055-0.359c-0.04-0.236-0.087-0.466-0.14-0.688   c-0.195-0.885-0.546-1.671-0.872-2.303c-0.083-0.158-0.165-0.308-0.247-0.448c-0.087-0.142-0.172-0.274-0.255-0.397   c-0.165-0.245-0.318-0.453-0.449-0.62c-0.261-0.335-0.434-0.512-0.434-0.512s-0.14,0.202-0.342,0.559   c-0.103,0.178-0.213,0.396-0.345,0.643c-0.136,0.246-0.28,0.523-0.421,0.829c-0.579,1.223-1.188,2.826-1.398,4.663   c-0.053,0.46-0.083,0.914-0.076,1.368c0.001,0.113,0.005,0.227,0.009,0.339C78.708,64.653,78.71,64.763,78.713,64.873z"/><path fill="#000000" d="M77.454,68.236c0,0-0.162,0.114-0.416,0.327c-0.261,0.209-0.629,0.505-1.016,0.892   c-0.048,0.049-0.097,0.098-0.147,0.149c-0.051,0.049-0.104,0.099-0.157,0.15c-0.105,0.103-0.211,0.211-0.317,0.324   c-0.106,0.113-0.211,0.232-0.315,0.356c-0.103,0.125-0.206,0.254-0.316,0.381c-0.215,0.258-0.421,0.538-0.611,0.842   c-0.092,0.155-0.195,0.301-0.288,0.46c-0.094,0.157-0.183,0.321-0.266,0.491c-0.084,0.169-0.159,0.344-0.231,0.516   c-0.076,0.168-0.146,0.337-0.209,0.508c-0.128,0.34-0.229,0.69-0.32,1.029c-0.096,0.332-0.174,0.662-0.238,0.982   c-0.066,0.317-0.108,0.637-0.158,0.916c-0.092,0.566-0.138,1.062-0.162,1.416c-0.012,0.177-0.017,0.318-0.02,0.415   c-0.003,0.096-0.004,0.147-0.004,0.147s0.053-0.013,0.144-0.049c0.092-0.034,0.226-0.087,0.394-0.158   c0.168-0.072,0.369-0.163,0.596-0.275c0.114-0.056,0.233-0.118,0.359-0.184c0.123-0.07,0.247-0.149,0.377-0.232   c0.26-0.167,0.535-0.356,0.816-0.569c0.143-0.104,0.277-0.226,0.414-0.349c0.137-0.124,0.273-0.255,0.409-0.391   c0.136-0.136,0.27-0.278,0.402-0.425c0.13-0.149,0.25-0.312,0.37-0.476c0.236-0.332,0.466-0.676,0.652-1.056   c0.182-0.383,0.329-0.767,0.445-1.143c0.029-0.094,0.056-0.188,0.081-0.281c0.023-0.095,0.042-0.191,0.061-0.285   c0.037-0.189,0.067-0.374,0.091-0.556c0.047-0.365,0.075-0.711,0.076-1.042c-0.004-0.336-0.026-0.65-0.058-0.937   c-0.065-0.576-0.163-1.04-0.267-1.375C77.53,68.422,77.454,68.236,77.454,68.236z"/><path fill="#000000" d="M66.248,82.758c0.946-0.263,2.176-0.782,3.112-1.764c0.233-0.245,0.448-0.487,0.623-0.753   c0.176-0.266,0.327-0.534,0.457-0.797c0.264-0.518,0.418-1.049,0.518-1.502c0.099-0.455,0.145-0.834,0.158-1.111   c0.012-0.278,0.003-0.44,0.003-0.44s-0.038,0.012-0.108,0.036c-0.069,0.025-0.169,0.062-0.296,0.108   c-0.257,0.089-0.613,0.226-1.011,0.423c-0.1,0.048-0.2,0.105-0.308,0.157c-0.107,0.052-0.217,0.107-0.328,0.167   c-0.221,0.119-0.447,0.255-0.672,0.409c-0.111,0.08-0.227,0.154-0.343,0.234c-0.115,0.08-0.23,0.166-0.342,0.256   c-0.113,0.091-0.224,0.187-0.334,0.289c-0.107,0.104-0.216,0.209-0.326,0.315c-0.855,0.867-1.439,1.909-1.843,2.752   c-0.203,0.413-0.354,0.782-0.453,1.048c-0.099,0.265-0.147,0.427-0.147,0.427s0.169-0.004,0.459-0.036   c0.145-0.016,0.32-0.039,0.52-0.073C65.786,82.867,66.013,82.831,66.248,82.758z"/></g><text x="0" y="115" fill="#000000" font-size="5px" font-weight="bold" font-family="'Helvetica Neue', Helvetica, Arial-Unicode, Arial, Sans-serif">Created by Nick Abrams</text><text x="0" y="120" fill="#000000" font-size="5px" font-weight="bold" font-family="'Helvetica Neue', Helvetica, Arial-Unicode, Arial, Sans-serif">from the Noun Project</text></svg>