<svg xmlns="http://www.w3.org/2000/svg" viewBox="0 0 96 120" x="0px" y="0px"><title>Map Location</title><g data-name="Layer 51"><path d="M16.08,47.45l-6,21h0l-6,21A2,2,0,0,0,6,92H90a2,2,0,0,0,1.92-2.55l-8-28.19v0h0a.64.64,0,0,0,0-.07L79.92,47.45A2,2,0,0,0,78,46H69.31c.53-1.07,1-2.14,1.5-3.2A41.51,41.51,0,0,0,74,29C74,15,62.58,4,48,4S22,15,22,29a41.51,41.51,0,0,0,3.19,13.8c.46,1.06,1,2.13,1.5,3.2H18A2,2,0,0,0,16.08,47.45ZM42.23,70A27.83,27.83,0,0,0,39,83a28.7,28.7,0,0,0,.46,5H33c0-.33,0-.67,0-1A20,20,0,0,0,14.63,67.08l.82-2.87A19.93,19.93,0,0,0,34.7,59.55C37.42,63.6,40.11,67.23,42.23,70Zm19-10.25A23.82,23.82,0,0,1,80.2,63l1.73,6.08c-.31,0-.62,0-.93,0a20,20,0,0,0-20,19H43.53A23.9,23.9,0,0,1,45,73.47c.84,1,1.38,1.69,1.49,1.82a2,2,0,0,0,3.06,0C49.9,74.85,55.45,68.23,61.18,59.73ZM8.65,88l4.86-17A16,16,0,0,1,29,87c0,.33,0,.67,0,1Zm56.4,0A16,16,0,0,1,81,73a14.87,14.87,0,0,1,2.11.16L87.35,88ZM76.49,50l2.16,7.55A27.8,27.8,0,0,0,67,55c-1,0-1.91.07-2.86.16,1.06-1.69,2.09-3.42,3.06-5.16ZM48,8c12.34,0,22,9.22,22,21a37.67,37.67,0,0,1-2.85,12.2C62.11,52.73,51.87,66,48,70.84,44.13,66,33.89,52.73,28.85,41.2A37.67,37.67,0,0,1,26,29C26,17.22,35.66,8,48,8ZM28.8,50c1.16,2.07,2.4,4.13,3.67,6.13a15.9,15.9,0,0,1-15.92,4.23l3-10.36Z"/><path d="M48,43.7A13.9,13.9,0,1,0,34,29.8,14,14,0,0,0,48,43.7Zm0-23.8a9.9,9.9,0,1,1-10,9.9A10,10,0,0,1,48,19.9Z"/></g><text x="0" y="111" fill="#000000" font-size="5px" font-weight="bold" font-family="'Helvetica Neue', Helvetica, Arial-Unicode, Arial, Sans-serif">Created by aptfahmi</text><text x="0" y="116" fill="#000000" font-size="5px" font-weight="bold" font-family="'Helvetica Neue', Helvetica, Arial-Unicode, Arial, Sans-serif">from the Noun Project</text></svg>