<svg xmlns="http://www.w3.org/2000/svg" xmlns:xlink="http://www.w3.org/1999/xlink" version="1.1" x="0px" y="0px" viewBox="0 0 100 125" enable-background="new 0 0 100 100" xml:space="preserve"><g><path fill="none" d="M15.76,56.023l7.279,2.729l-0.103-3.81C19.385,55.333,17.096,55.739,15.76,56.023z"/><path fill="none" d="M85.428,45.361c-0.005-0.043-0.014-0.085-0.008-0.129c0.001-0.008,0.006-0.014,0.008-0.022v-4.276   c-2.275-0.44-14.383-2.574-35.422-2.574c-21.04,0-33.148,2.134-35.423,2.574v14.33c2.402-0.609,11.768-2.506,35.423-2.506   c10.506,0,19.419,0.375,26.488,1.115c5.08,0.531,7.796,1.107,8.934,1.393V45.361z"/><path fill="none" d="M13.811,56.331c-0.006-0.004-0.013-0.002-0.019-0.006c-0.004-0.003-0.006-0.009-0.01-0.012   c-0.056-0.044-0.103-0.096-0.135-0.158c-0.002-0.004-0.005-0.006-0.007-0.01c-0.033-0.066-0.051-0.138-0.051-0.214   c0-0.004-0.003-0.007-0.003-0.011V45.89c-3.236,0.481-6.126,1.109-7.348,1.389l3.255,6.24c0.068,0.13,0.075,0.284,0.018,0.421   l-3.099,7.527c3.928-0.744,11.498-1.759,15.09-2.227l-7.594-2.848C13.871,56.378,13.842,56.353,13.811,56.331z"/><path fill="none" d="M77.064,54.938l-0.103,3.803l7.267-2.725C82.886,55.731,80.587,55.326,77.064,54.938z"/><path fill="none" d="M86.425,55.921c0,0.137-0.066,0.261-0.164,0.354c0,0-0.001,0.001-0.001,0.001   c-0.016,0.015-0.024,0.036-0.042,0.048c-0.031,0.023-0.07,0.028-0.105,0.043c-0.008,0.004-0.013,0.01-0.022,0.014l-7.595,2.849   c3.592,0.468,11.162,1.483,15.09,2.227l-3.099-7.527c-0.056-0.136-0.05-0.29,0.018-0.421l3.255-6.24   c-1.221-0.28-4.105-0.908-7.337-1.387V55.921z"/><path d="M94.956,46.725c-0.063-0.139-0.187-0.242-0.336-0.278c-0.039-0.009-3.818-0.932-8.195-1.574v-4.346   c0-0.235-0.164-0.437-0.392-0.487c-0.123-0.027-12.56-2.676-36.027-2.676c-23.467,0-35.905,2.649-36.028,2.676   c-0.229,0.05-0.392,0.252-0.392,0.487v4.355c-4.38,0.643-8.167,1.566-8.206,1.576c-0.149,0.036-0.273,0.139-0.336,0.278   c-0.062,0.139-0.058,0.3,0.013,0.436l3.445,6.603l-3.365,8.174c-0.071,0.171-0.041,0.367,0.078,0.509   c0.095,0.115,0.237,0.179,0.383,0.179c0.034,0,0.069-0.004,0.104-0.011c4.564-0.972,17.785-2.636,17.919-2.653   c0.076-0.01,0.143-0.04,0.203-0.079c0.006-0.004,0.013-0.002,0.018-0.006c0.012-0.008,0.017-0.023,0.029-0.032   c0.04-0.034,0.074-0.072,0.102-0.116c0.012-0.019,0.024-0.036,0.033-0.057c0.026-0.055,0.04-0.115,0.044-0.178   c0-0.009,0.006-0.017,0.006-0.026v-4.655c5.582-0.566,13.922-1.069,25.95-1.069c10.257,0,18.972,0.36,25.938,1.066v4.646   c0,0.009,0.006,0.017,0.006,0.026c0.004,0.063,0.018,0.123,0.044,0.178c0.009,0.021,0.021,0.038,0.033,0.057   c0.028,0.044,0.062,0.082,0.102,0.116c0.011,0.009,0.016,0.024,0.029,0.032c0.005,0.004,0.013,0.002,0.018,0.006   c0.061,0.039,0.128,0.069,0.203,0.079c0.133,0.017,13.355,1.681,17.919,2.653c0.035,0.007,0.07,0.011,0.104,0.011   c0.146,0,0.287-0.064,0.383-0.179c0.119-0.142,0.149-0.338,0.078-0.509l-3.365-8.174l3.445-6.603   C95.015,47.024,95.018,46.864,94.956,46.725z M6.413,61.468l3.099-7.527c0.056-0.136,0.05-0.29-0.018-0.421l-3.255-6.24   c1.222-0.28,4.112-0.908,7.348-1.389v10.031c0,0.004,0.003,0.007,0.003,0.011c0.001,0.075,0.019,0.147,0.051,0.214   c0.002,0.004,0.005,0.006,0.007,0.01c0.032,0.062,0.079,0.114,0.135,0.158c0.004,0.003,0.006,0.009,0.01,0.012   c0.005,0.004,0.013,0.002,0.019,0.006c0.032,0.022,0.06,0.047,0.098,0.061l7.594,2.848C17.91,59.708,10.34,60.723,6.413,61.468z    M15.76,56.023c1.336-0.283,3.625-0.689,7.176-1.08l0.103,3.81L15.76,56.023z M50.006,52.758c-23.656,0-33.022,1.896-35.423,2.506   v-14.33c2.275-0.44,14.384-2.574,35.423-2.574c21.04,0,33.147,2.134,35.422,2.574v4.276c-0.001,0.008-0.007,0.014-0.008,0.022   c-0.006,0.044,0.003,0.086,0.008,0.129v9.905c-1.138-0.286-3.854-0.863-8.934-1.393C69.425,53.133,60.512,52.758,50.006,52.758z    M77.064,54.938c3.523,0.388,5.822,0.793,7.164,1.078l-7.267,2.725L77.064,54.938z M90.507,53.509   c-0.068,0.13-0.075,0.284-0.018,0.421l3.099,7.527c-3.928-0.744-11.498-1.759-15.09-2.227l7.595-2.849   c0.008-0.003,0.014-0.01,0.022-0.014c0.035-0.015,0.073-0.02,0.105-0.043c0.018-0.013,0.026-0.033,0.041-0.048   c0,0,0.001-0.001,0.001-0.001c0.099-0.093,0.164-0.216,0.164-0.354v-10.04c3.232,0.48,6.117,1.107,7.337,1.387L90.507,53.509z"/></g><text x="0" y="115" fill="#000000" font-size="5px" font-weight="bold" font-family="'Helvetica Neue', Helvetica, Arial-Unicode, Arial, Sans-serif">Created by Alena Artemova</text><text x="0" y="120" fill="#000000" font-size="5px" font-weight="bold" font-family="'Helvetica Neue', Helvetica, Arial-Unicode, Arial, Sans-serif">from the Noun Project</text></svg>