<svg xmlns:dc="http://purl.org/dc/elements/1.1/" xmlns:cc="http://creativecommons.org/ns#" xmlns:rdf="http://www.w3.org/1999/02/22-rdf-syntax-ns#" xmlns:svg="http://www.w3.org/2000/svg" xmlns="http://www.w3.org/2000/svg" xmlns:sodipodi="http://sodipodi.sourceforge.net/DTD/sodipodi-0.dtd" xmlns:inkscape="http://www.inkscape.org/namespaces/inkscape" version="1.1" x="0px" y="0px" viewBox="0 0 100 125"><g transform="translate(0,-952.36218)"><path d="m 45.99133,957.36218 c -5.46184,0 -9.70801,3.6736 -14.90318,7.39554 -4.97297,3.56276 -10.84774,7.42072 -19.33975,9.43245 l -0.59363,-1.37883 c 0.51937,-0.67675 0.84358,-1.4929 0.84358,-2.41295 0,-2.21529 -1.79049,-4.01114 -3.9991801,-4.01114 -2.20868,0 -3.99917,1.79585 -3.99917,4.01114 0,2.0447 1.52764,3.70071 3.49928,3.94847 l 30.6499201,73.01534 3.68673,-1.5355 -13.80964,-32.8726 c 7.01903,-2.1426 12.12086,-5.4912 16.49659,-8.1476 4.69237,-2.8486 8.41079,-4.7997 13.2785,-4.3559 0.89154,0.081 1.12338,0.318 1.49969,1.0342 0.91071,2.2812 0.73556,4.6556 0.93731,6.9568 0.23041,2.1667 1.36996,3.4734 3.6555,2.8516 9.711771,-4.8704 19.332171,-6.8001 30.087531,-6.8001 0.7596,0.01 1.50543,-0.4553 1.83203,-1.1432 0.32661,-0.688 0.21676,-1.5621 -0.26985,-2.1472 -7.90006,-9.71891 -19.80452,-23.37552 -14.74696,-35.00347 0.45793,-1.01841 -0.13117,-2.37118 -1.18725,-2.72633 -6.43672,-2.15199 -13.409961,-0.20214 -20.183331,2.60098 -3.88775,-4.13473 -8.32468,-8.62166 -13.43472,-8.7117 z M 15.02897,981.9931 c 5.41173,5.4974 7.66819,11.85625 7.87338,18.7395 z" style="text-indent:0;text-transform:none;direction:ltr;block-progression:tb;baseline-shift:baseline;color:#000000;enable-background:accumulate;" fill="#000000" fill-opacity="1" stroke="none" marker="none" visibility="visible" display="inline" overflow="visible"/></g><text x="0" y="115" fill="#000000" font-size="5px" font-weight="bold" font-family="'Helvetica Neue', Helvetica, Arial-Unicode, Arial, Sans-serif">Created by AFY Studio</text><text x="0" y="120" fill="#000000" font-size="5px" font-weight="bold" font-family="'Helvetica Neue', Helvetica, Arial-Unicode, Arial, Sans-serif">from the Noun Project</text></svg>