<svg xmlns="http://www.w3.org/2000/svg" viewBox="0 0 512 640" x="0px" y="0px"><title>Archery_Target</title><g><path d="M489.7409,68.6918c-.0636-.0637-.1318-.1318-.1954-.2a11.2215,11.2215,0,0,0-9.7-3.1273H446.6318V30.21a11.1727,11.1727,0,0,0-19.0727-7.9L364.5455,85.3236a11.171,11.171,0,0,0-3.2728,7.9v41.7l-13.6682,13.6682a196.3186,196.3186,0,0,0-131.209-50.3455c-108.8228,0-197.3546,88.5318-197.3546,197.3546s88.5318,197.3545,197.3546,197.3545S413.75,404.4236,413.75,295.6009a196.3216,196.3216,0,0,0-50.3455-131.2091l13.6682-13.6682h41.7a11.03,11.03,0,0,0,8.8773-4.5409l60.3909-60.3864a11.1735,11.1735,0,0,0,1.7-17.1045ZM391.4045,295.6009c0,96.5-78.509,175.0091-175.009,175.0091S41.3864,392.1009,41.3864,295.6009s78.5091-175.0091,175.0091-175.0091A174.09,174.09,0,0,1,331.8114,164.385L302.8659,193.33a133.3864,133.3864,0,0,0-86.47-31.7841c-73.9137,0-134.05,60.1364-134.05,134.0546s60.1363,134.0545,134.05,134.0545c73.9181,0,134.0545-60.1364,134.0545-134.0545A133.3838,133.3838,0,0,0,318.6659,209.13l28.9455-28.9454A174.0894,174.0894,0,0,1,391.4045,295.6009Zm-124.7409,0a50.44,50.44,0,1,1-23.5591-42.5091l-34.609,34.6091a11.1723,11.1723,0,1,0,15.8,15.8l34.609-34.6091A49.9072,49.9072,0,0,1,266.6636,295.6009Zm-7.5108-58.5569a72.8857,72.8857,0,1,0,15.8,15.8l27.8881-27.8886a111.8779,111.8779,0,1,1-15.8-15.8ZM413.8591,128.3781H383.6182V97.8509l40.6682-40.6728V76.5372A11.1757,11.1757,0,0,0,435.4591,87.71h19.0727Z"/></g><text x="0" y="527" fill="#000000" font-size="5px" font-weight="bold" font-family="'Helvetica Neue', Helvetica, Arial-Unicode, Arial, Sans-serif">Created by Chanut is Industries</text><text x="0" y="532" fill="#000000" font-size="5px" font-weight="bold" font-family="'Helvetica Neue', Helvetica, Arial-Unicode, Arial, Sans-serif">from the Noun Project</text></svg>