<svg xmlns="http://www.w3.org/2000/svg" xmlns:xlink="http://www.w3.org/1999/xlink" xml:space="preserve" version="1.1" style="shape-rendering:geometricPrecision;text-rendering:geometricPrecision;image-rendering:optimizeQuality;" viewBox="0 0 846.66 1058.325" x="0px" y="0px" fill-rule="evenodd" clip-rule="evenodd"><defs><style type="text/css">
   
    .fil0 {fill:black}
   
  </style></defs><g><path class="fil0" d="M677.61 356.74c-18.62,-41.14 -50.62,-76.12 -66.53,-118.33 -17.65,-47.2 28.3,-95.59 75.49,-94.3 47.24,-1.29 93.01,47.24 75.41,94.3 -15.91,42.29 -47.91,77.28 -66.54,118.37 -3.52,7.8 -14.53,7.53 -17.83,-0.04zm-513.63 179.51c45.86,0 83.16,37.3 83.16,83.16 0,45.86 -37.3,83.16 -83.16,83.16 -45.86,0 -83.16,-37.3 -83.16,-83.16 0,-45.86 37.3,-83.16 83.16,-83.16zm0 54.64c15.74,0 28.53,12.79 28.53,28.52 0,15.73 -12.79,28.52 -28.53,28.52 -15.73,0 -28.52,-12.79 -28.52,-28.52 0,-15.73 12.79,-28.52 28.52,-28.52zm0 -20.68c-27.18,0 -49.2,22.02 -49.2,49.2 0,27.19 22.02,49.2 49.2,49.2 27.19,0 49.2,-22.01 49.2,-49.2 0,-27.18 -22.01,-49.2 -49.2,-49.2zm110.75 28.12c-21.61,5.35 -29.72,-27.59 -8.11,-32.89 117.79,-29.15 190.39,-47.33 220.07,-66.45 27.77,-17.82 -25.8,-55.48 -25.94,-55.48 -47.91,-39.94 -49.78,-83.88 14.04,-108.17 44.75,-15.64 97.87,-20.72 145.11,-20.72 22.33,0 22.33,33.96 0,33.96 -39.17,0 -94.7,4.59 -130.85,17.56 -39.48,14.3 -34.71,27.9 -6.55,51.34 59.19,49.33 69.21,79.91 22.46,110.03 -34.31,22.15 -109.1,40.83 -230.23,70.82zm411.84 -424.01l11.32 35.17 36.99 -0.09 -29.99 21.7 11.45 35.16 -29.77 -21.79 -29.95 21.79 11.55 -35.16 -30 -21.7 36.99 0.09 11.41 -35.17z"/></g><text x="0" y="861.66" fill="#000000" font-size="5px" font-weight="bold" font-family="'Helvetica Neue', Helvetica, Arial-Unicode, Arial, Sans-serif">Created by dewadesign</text><text x="0" y="866.66" fill="#000000" font-size="5px" font-weight="bold" font-family="'Helvetica Neue', Helvetica, Arial-Unicode, Arial, Sans-serif">from the Noun Project</text></svg>