<svg width="23" height="27" viewBox="0 0 23 27" fill="none" xmlns="http://www.w3.org/2000/svg">
<path d="M7.31837 0.0171727C7.38547 0.0162012 7.45257 0.0152297 7.52171 0.0142288C7.61802 0.0139988 7.61802 0.0139988 7.71628 0.013764C7.77537 0.0134381 7.83446 0.0131121 7.89533 0.0127763C8.04469 0.0320467 8.04469 0.0320467 8.20498 0.190703C8.22063 0.449139 8.22063 0.449139 8.215 0.755916C8.21355 0.857562 8.2121 0.959207 8.21062 1.06393C8.20876 1.14226 8.2069 1.22059 8.20498 1.3013C8.28196 1.3005 8.28196 1.3005 8.3605 1.2997C8.89485 1.29443 9.42918 1.29084 9.96355 1.28822C10.163 1.28703 10.3624 1.2854 10.5617 1.28334C10.8484 1.28046 11.1351 1.27911 11.4218 1.27806C11.5109 1.27683 11.6 1.2756 11.6917 1.27433C11.7752 1.27432 11.8586 1.2743 11.9445 1.27428C12.0542 1.27349 12.0542 1.27349 12.1662 1.27268C12.6188 1.33544 12.9441 1.66937 13.2792 1.95575C13.3248 1.99435 13.3704 2.03295 13.4174 2.07271C13.5503 2.18543 13.6828 2.29856 13.8152 2.41189C13.9165 2.49856 13.9165 2.49856 14.0199 2.58697C14.6105 3.09551 14.6105 3.09551 14.6667 3.37375C14.5917 3.83415 14.3248 4.02177 13.9755 4.31577C13.9041 4.3759 13.8327 4.43602 13.7591 4.49797C13.5397 4.67852 13.3186 4.8557 13.0939 5.02972C13.0516 5.06935 13.0093 5.10898 12.9657 5.14982C12.4891 5.56478 12.077 5.56906 11.4609 5.55217C11.3675 5.5515 11.2741 5.55083 11.1779 5.55013C10.8815 5.54748 10.5852 5.54151 10.2888 5.53544C10.087 5.53305 9.88533 5.53088 9.68361 5.52893C9.19066 5.5237 8.69785 5.51549 8.20498 5.50569C8.20498 5.89837 8.20498 6.29104 8.20498 6.69561C8.33926 6.69395 8.47354 6.69229 8.61189 6.69058C9.10956 6.68484 9.60723 6.68119 10.1049 6.67818C10.3204 6.67676 10.5359 6.67456 10.7514 6.67168C11.061 6.66783 11.3705 6.66603 11.68 6.66463C11.7766 6.66299 11.8731 6.66135 11.9725 6.65966C12.0624 6.65964 12.1522 6.65961 12.2447 6.65959C12.3238 6.65889 12.4028 6.65818 12.4842 6.65745C12.7559 6.70708 12.8493 6.79618 13.0137 7.01293C13.055 7.17791 13.055 7.17791 13.0565 7.35578C13.0584 7.45627 13.0584 7.45627 13.0603 7.55878C13.0599 7.63051 13.0595 7.70224 13.0591 7.77615C13.0596 7.85047 13.0601 7.9248 13.0606 8.00137C13.0612 8.1584 13.0609 8.31543 13.0599 8.47246C13.0588 8.71244 13.0615 8.95217 13.0646 9.19213C13.0647 9.34484 13.0645 9.49756 13.0641 9.65028C13.0652 9.72185 13.0663 9.79342 13.0673 9.86716C13.0663 9.9344 13.0653 10.0016 13.0643 10.0709C13.0642 10.1297 13.0641 10.1884 13.0641 10.249C12.9786 10.546 12.8713 10.6438 12.613 10.8207C12.2724 10.876 11.9364 10.8667 11.5921 10.8594C11.493 10.8589 11.394 10.8583 11.2919 10.8577C11.0295 10.8559 10.7673 10.8523 10.5049 10.8479C10.2369 10.8438 9.96877 10.8421 9.70067 10.84C9.17535 10.8357 8.6501 10.829 8.12483 10.8207C8.12491 10.8881 8.12498 10.9554 8.12506 11.0249C8.12683 12.6621 8.12815 14.2992 8.12899 15.9364C8.1294 16.7281 8.12996 17.5198 8.13088 18.3116C8.13168 19.0014 8.1322 19.6912 8.13237 20.3809C8.13248 20.7464 8.13273 21.1119 8.13331 21.4774C8.13385 21.821 8.13402 22.1646 8.1339 22.5081C8.13392 22.6346 8.13408 22.7611 8.13439 22.8876C8.13478 23.0595 8.13469 23.2314 8.13447 23.4034C8.13455 23.4998 8.13462 23.5963 8.1347 23.6956C8.12483 23.9098 8.12483 23.9098 8.04469 23.9892C7.93806 23.997 7.83103 23.9995 7.72411 23.9997C7.65964 23.9998 7.59517 23.9999 7.52875 24C7.46098 23.9997 7.3932 23.9994 7.32338 23.9991C7.2556 23.9994 7.18783 23.9997 7.118 24C7.05354 23.9999 6.98907 23.9998 6.92265 23.9997C6.83339 23.9996 6.83339 23.9996 6.74232 23.9994C6.60207 23.9892 6.60207 23.9892 6.52192 23.9098C6.51415 23.7412 6.51215 23.5722 6.51228 23.4034C6.51221 23.3499 6.51214 23.2963 6.51207 23.2412C6.51194 23.0606 6.51238 22.8799 6.51282 22.6993C6.51284 22.5703 6.51283 22.4413 6.51279 22.3124C6.51276 21.9611 6.51323 21.6099 6.51379 21.2587C6.51429 20.8921 6.51434 20.5254 6.51444 20.1588C6.51469 19.464 6.51534 18.7692 6.51615 18.0744C6.51704 17.2837 6.51748 16.4929 6.51789 15.7021C6.51872 14.075 6.52014 12.4478 6.52192 10.8207C6.46977 10.8214 6.41762 10.8221 6.3639 10.8228C5.82044 10.8298 5.277 10.8346 4.73351 10.8381C4.53077 10.8397 4.32803 10.8419 4.1253 10.8446C3.83364 10.8485 3.54203 10.8503 3.25035 10.8517C3.15991 10.8533 3.06948 10.8549 2.97631 10.8566C2.47401 10.8568 2.17594 10.8358 1.79332 10.5034C1.74425 10.4651 1.69519 10.4269 1.64463 10.3875C1.60371 10.3523 1.5628 10.3171 1.52064 10.2809C1.4741 10.2411 1.42755 10.2013 1.3796 10.1603C1.33264 10.1197 1.28569 10.0791 1.23731 10.0373C1.19066 9.99733 1.14402 9.95735 1.09596 9.91615C1.00197 9.83559 0.908181 9.7548 0.814589 9.67379C0.715755 9.5894 0.615749 9.50635 0.514825 9.42442C0.464486 9.3833 0.414147 9.34218 0.362282 9.29981C0.293757 9.24478 0.293757 9.24478 0.223847 9.18864C0.110261 9.07546 0.110261 9.07546 6.10352e-05 8.80773C0.0725655 8.114 0.856575 7.64224 1.37005 7.22023C1.41126 7.18816 1.45247 7.15608 1.49492 7.12303C1.62278 7.0211 1.74538 6.9128 1.86738 6.80407C2.27481 6.51965 2.71488 6.56683 3.19556 6.57755C3.29083 6.57811 3.38609 6.57867 3.48425 6.57925C3.78723 6.58146 4.0901 6.58644 4.39305 6.5915C4.59899 6.59349 4.80494 6.59529 5.01089 6.59692C5.51461 6.60128 6.01825 6.60812 6.52192 6.61628C6.52192 6.22361 6.52192 5.83094 6.52192 5.42636C6.38764 5.42802 6.25336 5.42969 6.11501 5.4314C5.61734 5.43714 5.11967 5.44078 4.62198 5.44379C4.40647 5.44521 4.19099 5.44742 3.97549 5.4503C3.66594 5.45414 3.35643 5.45595 3.04685 5.45735C2.95033 5.45899 2.85381 5.46063 2.75437 5.46231C2.61962 5.46235 2.61962 5.46235 2.48215 5.46239C2.40313 5.46309 2.32411 5.46379 2.2427 5.46452C1.97522 5.41567 1.88281 5.31457 1.71318 5.10905C1.58144 4.84827 1.61824 4.55879 1.61675 4.27208C1.61629 4.20457 1.61584 4.13707 1.61537 4.06752C1.61461 3.92448 1.61408 3.78144 1.61378 3.6384C1.613 3.42006 1.61051 3.20178 1.60798 2.98346C1.60746 2.84448 1.60704 2.7055 1.60673 2.56652C1.60574 2.50139 1.60475 2.43626 1.60373 2.36916C1.60555 1.90492 1.69386 1.63773 2.03376 1.3013C2.22342 1.28222 2.22342 1.28222 2.46396 1.28329C2.59872 1.2833 2.59872 1.2833 2.73621 1.28332C2.83356 1.28414 2.9309 1.28496 3.0312 1.2858C3.13059 1.28603 3.22998 1.28625 3.33239 1.28648C3.5967 1.28722 3.861 1.28865 4.12531 1.2904C4.39498 1.29203 4.66466 1.29275 4.93435 1.29355C5.46354 1.2953 5.99273 1.29796 6.52192 1.3013C6.52099 1.21632 6.52006 1.13134 6.5191 1.04379C6.51835 0.932959 6.51762 0.822127 6.51691 0.711294C6.51624 0.655205 6.51557 0.599116 6.51488 0.541327C6.51418 0.397993 6.51774 0.254651 6.52192 0.111375C6.69482 -0.059762 7.07877 0.0173544 7.31837 0.0171727Z" fill="white"/>
<path d="M20.0461 7.95327C20.1723 8.00546 20.2986 8.05763 20.4249 8.10977C20.4846 8.13489 20.5444 8.16 20.606 8.18587C20.8098 8.2689 21.0178 8.33748 21.2262 8.40808C21.695 8.59583 22.0058 8.95525 22.2244 9.40392C22.3774 9.88148 22.3779 10.4504 22.1712 10.912C21.5993 11.878 20.4755 12.6391 19.491 13.1311C19.4854 13.7145 19.4812 14.2979 19.4786 14.8813C19.4774 15.1524 19.4756 15.4235 19.4729 15.6946C19.4607 16.9846 19.4996 18.2315 19.7026 19.5065C19.7399 19.7448 19.7698 19.9837 19.7986 20.2231C19.8074 20.2943 19.8162 20.3655 19.8253 20.4389C19.8338 20.5079 19.8423 20.5769 19.8511 20.648C19.9291 21.2763 20.009 21.9044 20.0911 22.5322C20.1008 22.6072 20.1105 22.6821 20.1206 22.7594C20.1716 23.1514 20.2243 23.543 20.2795 23.9344C20.581 26.0922 20.581 26.0922 20.3489 26.5093C20.1459 26.7574 19.9671 26.9428 19.6401 26.99C19.2769 27.0084 18.997 27.0046 18.696 26.7854C18.194 26.2626 18.1743 25.3673 18.1009 24.6763C18.0814 24.5042 18.0618 24.3321 18.0422 24.1599C18.0313 24.0627 18.0204 23.9654 18.0092 23.8652C17.9382 23.2339 17.8629 22.6031 17.7881 21.9723C17.7611 21.7446 17.7345 21.5169 17.708 21.2892C17.6912 21.1474 17.6745 21.0056 17.6578 20.8638C17.6502 20.7983 17.6426 20.7329 17.6348 20.6654C17.6017 20.3874 17.5629 20.1188 17.4909 19.8483C17.4303 20.2714 17.3704 20.6945 17.3109 21.1178C17.3018 21.1819 17.2928 21.246 17.2835 21.3121C17.1818 22.0362 17.0843 22.7605 17.0015 23.4871C16.9945 23.5477 16.9876 23.6082 16.9805 23.6706C16.9478 23.9582 16.9161 24.2458 16.8854 24.5336C16.6803 26.3808 16.6803 26.3808 16.3258 26.7454C15.9549 27.0115 15.6197 27.0383 15.1707 26.9653C14.896 26.8054 14.6737 26.6116 14.5307 26.3256C14.5206 26.1442 14.5166 25.9625 14.5157 25.7808C14.5145 25.683 14.5134 25.5852 14.5122 25.4844C14.5224 25.1101 14.5856 24.7468 14.6456 24.3778C14.6938 24.0664 14.7336 23.7544 14.7707 23.4415C14.7773 23.386 14.7838 23.3306 14.7906 23.2735C14.8175 23.0458 14.8442 22.8181 14.8707 22.5904C14.9443 21.9606 15.0244 21.334 15.1328 20.7091C15.3179 19.6285 15.4452 18.5446 15.4907 17.4493C15.4331 17.4425 15.3754 17.4357 15.316 17.4287C15.0435 17.3569 14.9003 17.2405 14.6857 17.0595C14.5853 16.9757 14.5853 16.9757 14.4828 16.8902C14.4194 16.8372 14.356 16.7842 14.2906 16.7296C14.2297 16.6865 14.1687 16.6434 14.1059 16.599C14.0613 16.563 14.0166 16.5269 13.9706 16.4897C13.9706 16.4369 13.9706 16.3842 13.9706 16.3298C13.8386 16.277 13.7066 16.2242 13.5706 16.1698C13.5706 16.1171 13.5706 16.0643 13.5706 16.0099C13.5227 15.9868 13.4749 15.9637 13.4256 15.9399C13.2506 15.85 13.2506 15.85 13.0105 15.69C13.0105 15.6373 13.0105 15.5845 13.0105 15.5301C12.9313 15.5037 12.8521 15.4773 12.7705 15.4501C12.4826 15.0416 12.3031 14.6058 12.3377 14.1032C12.4938 13.2828 13.1174 12.8717 13.7676 12.4275C14.0196 12.2584 14.2745 12.0943 14.5307 11.9316C14.5998 11.8873 14.6688 11.843 14.74 11.7973C15.6017 11.2793 16.5921 11.3435 17.5647 11.3354C17.7388 11.3336 17.9128 11.3305 18.0869 11.3272C18.1894 11.3261 18.292 11.325 18.3977 11.3239C18.9285 11.2659 19.3026 11.0391 19.711 10.6971C19.7849 10.6362 19.8587 10.5753 19.9348 10.5125C20.1065 10.3548 20.24 10.2041 20.3711 10.0124C20.2325 9.98767 20.2325 9.98767 20.0911 9.96244C19.7128 9.87741 19.3506 9.75795 18.986 9.62757C18.9305 9.6087 18.875 9.58982 18.8179 9.57037C18.3931 9.41384 18.172 9.2148 17.9709 8.81292C17.9354 8.50041 17.96 8.35347 18.1109 8.07322C18.6317 7.43702 19.3832 7.66951 20.0461 7.95327ZM14.8807 13.9158C14.8004 13.9724 14.7202 14.029 14.6375 14.0873C14.5759 14.1412 14.5142 14.1951 14.4506 14.2506C14.4506 14.3298 14.4506 14.409 14.4506 14.4905C14.5034 14.4905 14.5563 14.4905 14.6107 14.4905C14.6107 14.5433 14.6107 14.5961 14.6107 14.6505C14.738 14.7655 14.8706 14.8746 15.0057 14.9803C15.079 15.0383 15.1523 15.0962 15.2279 15.1559C15.3836 15.2981 15.3836 15.2981 15.4907 15.2902C15.4907 14.736 15.4907 14.1819 15.4907 13.6109C15.2341 13.6109 15.0856 13.7689 14.8807 13.9158Z" fill="white"/>
<path d="M18.7644 6.98652C18.9226 7.09839 18.9226 7.09839 19.087 7.34042C18.7583 7.44798 18.4297 7.55555 18.1011 7.66311C17.9046 8.00598 17.8518 8.40319 17.8546 8.79256C17.9787 9.21506 18.21 9.38116 18.5825 9.59111C18.8284 9.71538 19.0763 9.82204 19.3334 9.92201C19.1752 10.4087 18.8664 10.5676 18.4297 10.8094C17.943 11.0331 17.413 11.0504 16.8969 10.9125C16.2255 10.6672 15.7688 10.3283 15.4656 9.68061C15.2724 9.06163 15.2835 8.38004 15.549 7.78413C16.2297 6.64488 17.6183 6.37316 18.7644 6.98652Z" fill="white"/>
<path d="M20.1868 4.01141C20.4858 4.19186 20.5668 4.29858 20.6667 4.65639C20.6618 4.95738 20.6618 4.95738 20.535 5.13576C20.3101 5.3319 20.1097 5.40553 19.8355 5.50024C19.3563 5.68739 19.1569 5.84744 18.9201 6.33333C18.8417 6.30495 18.7633 6.27658 18.6826 6.24734C18.6271 5.54303 18.7079 5.03147 19.0784 4.4414C19.419 4.08029 19.7109 3.95972 20.1868 4.01141Z" fill="white"/>
<path d="M20.7986 6.20142C20.9657 6.38759 20.9657 6.38759 21.0001 6.59445C20.9657 6.78477 20.9657 6.78477 20.8084 6.98335C20.3558 7.04432 20.1456 6.93318 19.7915 6.72607C19.5228 6.60419 19.2992 6.62989 19.0001 6.65237C19.0001 6.565 19.0001 6.47762 19.0001 6.38759C19.5185 6.01656 20.2216 5.83178 20.7986 6.20142Z" fill="white"/>
</svg>
