<svg xmlns="http://www.w3.org/2000/svg" width="13" height="12" viewBox="0 0 13 12" fill="none">
  <path d="M2.98395 12C2.74746 12 2.54909 11.921 2.38883 11.7629C2.22913 11.6054 2.14928 11.4099 2.14928 11.1767C2.14928 10.9434 2.22913 10.748 2.38883 10.5905C2.54909 10.4324 2.74746 10.3533 2.98395 10.3533H8.07544C8.95185 10.3533 9.71334 10.0789 10.3599 9.53002C11.0071 8.98113 11.3307 8.29503 11.3307 7.4717C11.3307 6.64837 11.0071 5.96226 10.3599 5.41338C9.71334 4.86449 8.95185 4.59005 8.07544 4.59005H2.81701L4.40289 6.15437C4.55591 6.30532 4.63242 6.49743 4.63242 6.7307C4.63242 6.96398 4.55591 7.15609 4.40289 7.30703C4.24987 7.45798 4.05511 7.53345 3.81862 7.53345C3.58213 7.53345 3.38737 7.45798 3.23435 7.30703L0.229534 4.34305C0.146067 4.26072 0.0868056 4.17153 0.0517494 4.07547C0.0172497 3.97942 0 3.8765 0 3.76672C0 3.65695 0.0172497 3.55403 0.0517494 3.45798C0.0868056 3.36192 0.146067 3.27273 0.229534 3.19039L3.23435 0.226415C3.38737 0.0754714 3.58213 0 3.81862 0C4.05511 0 4.24987 0.0754714 4.40289 0.226415C4.55591 0.377358 4.63242 0.569468 4.63242 0.802744C4.63242 1.03602 4.55591 1.22813 4.40289 1.37907L2.81701 2.9434H8.07544C9.42483 2.9434 10.5831 3.37564 11.5502 4.24014C12.5167 5.10463 13 6.18182 13 7.4717C13 8.76158 12.5167 9.83876 11.5502 10.7033C10.5831 11.5678 9.42483 12 8.07544 12H2.98395Z" fill="black"/>
</svg>