<?xml version="1.0" encoding="UTF-8" standalone="no"?>
<!-- Created with Inkscape (http://www.inkscape.org/) -->

<svg
   xmlns:dc="http://purl.org/dc/elements/1.1/"
   xmlns:cc="http://creativecommons.org/ns#"
   xmlns:rdf="http://www.w3.org/1999/02/22-rdf-syntax-ns#"
   xmlns:svg="http://www.w3.org/2000/svg"
   xmlns="http://www.w3.org/2000/svg"
   xmlns:sodipodi="http://sodipodi.sourceforge.net/DTD/sodipodi-0.dtd"
   xmlns:inkscape="http://www.inkscape.org/namespaces/inkscape"
   version="1.1"
   id="svg850"
   xml:space="preserve"
   width="746.66669"
   height="746.66669"
   viewBox="0 0 746.66669 746.66669"
   sodipodi:docname="Icon_NoSidewalk2.svg"
   inkscape:version="0.92.2 5c3e80d, 2017-08-06"><metadata
     id="metadata856"><rdf:RDF><cc:Work
         rdf:about=""><dc:format>image/svg+xml</dc:format><dc:type
           rdf:resource="http://purl.org/dc/dcmitype/StillImage" /><dc:title></dc:title></cc:Work></rdf:RDF></metadata><defs
     id="defs854"><clipPath
       clipPathUnits="userSpaceOnUse"
       id="clipPath868"><path
         d="M 0,560 H 560 V 0 H 0 Z"
         id="path866"
         inkscape:connector-curvature="0" /></clipPath><clipPath
       clipPathUnits="userSpaceOnUse"
       id="clipPath884"><path
         d="M 0,560 H 560 V 0 H 0 Z"
         id="path882"
         inkscape:connector-curvature="0" /></clipPath><clipPath
       clipPathUnits="userSpaceOnUse"
       id="clipPath896"><path
         d="M 0,560 H 560 V 0 H 0 Z"
         id="path894"
         inkscape:connector-curvature="0" /></clipPath><clipPath
       clipPathUnits="userSpaceOnUse"
       id="clipPath904"><path
         d="M 78.4601,270.861 H 297.413 V 53.6781 H 78.4601 Z"
         id="path902"
         inkscape:connector-curvature="0" /></clipPath></defs><sodipodi:namedview
     pagecolor="#ffffff"
     bordercolor="#666666"
     borderopacity="1"
     objecttolerance="10"
     gridtolerance="10"
     guidetolerance="10"
     inkscape:pageopacity="0"
     inkscape:pageshadow="2"
     inkscape:window-width="1126"
     inkscape:window-height="706"
     id="namedview852"
     showgrid="false"
     inkscape:zoom="0.62812498"
     inkscape:cx="373.33334"
     inkscape:cy="373.33334"
     inkscape:window-x="0"
     inkscape:window-y="0"
     inkscape:window-maximized="0"
     inkscape:current-layer="g858" /><g
     id="g858"
     inkscape:groupmode="layer"
     inkscape:label="Icon_NoSidewalk"
     transform="matrix(1.3333333,0,0,-1.3333333,0,746.66667)"><path
       d="m 11.559,164.467 h 282.32 V 109.376 H 11.559 Z"
       style="fill:#000000;fill-opacity:1;fill-rule:evenodd;stroke:#000000;stroke-width:1;stroke-linecap:butt;stroke-linejoin:miter;stroke-miterlimit:8;stroke-dasharray:none;stroke-opacity:1"
       id="path860"
       inkscape:connector-curvature="0" /><g
       id="g862"><g
         id="g864"
         clip-path="url(#clipPath868)"><g
           id="g870"
           transform="translate(87.92,337.9431)"><path
             d="m 0,0 h -5.054 c -0.013,-0.644 -0.037,-1.27 -0.037,-1.896 -0.002,-18.058 -0.002,-36.115 -0.002,-54.173 0,-2.601 0.02,-5.202 -0.005,-7.803 -0.051,-5.337 -3.758,-9.456 -9.025,-10.062 -5.371,-0.618 -10.392,3.552 -10.765,8.949 -0.038,0.548 -0.036,1.1 -0.036,1.65 -0.002,23.309 0.032,46.619 -0.02,69.929 -0.017,7.436 2.406,13.948 7.118,19.584 4.173,4.991 9.559,8.167 15.931,9.503 2.184,0.457 4.459,0.661 6.693,0.669 16.557,0.054 33.114,0.02 49.671,0.033 8.322,0.006 15.509,-2.846 21.278,-8.818 5.299,-5.483 8.294,-12.105 8.359,-19.823 0.087,-10.304 0.032,-20.609 0.034,-30.913 0.003,-13.305 0.005,-26.611 -0.007,-39.916 -10e-4,-0.997 0.007,-2.018 -0.193,-2.985 -1.007,-4.888 -5.439,-8.291 -10.208,-7.912 -5.214,0.416 -9.177,4.439 -9.413,9.566 -0.028,0.599 -0.012,1.2 -0.012,1.8 -0.001,20.159 -0.001,40.317 -0.001,60.475 v 2.141 c -1.681,0.111 -3.3,0.036 -5.136,0.049 v -1.842 -27.911 c 0,-49.171 0.004,-98.341 -0.018,-147.511 -10e-4,-1.488 -0.085,-3.022 -0.443,-4.456 -1.52,-6.078 -7.261,-10.309 -13.457,-10.049 -6.342,0.266 -11.672,4.921 -12.704,11.168 -0.186,1.126 -0.164,2.294 -0.164,3.442 -0.008,33.414 -0.007,66.828 -0.007,100.242 v 1.998 h -5.541 c 0,-0.696 0,-1.331 0,-1.965 0,-33.414 0.004,-66.828 -0.013,-100.242 -0.001,-1.392 -0.04,-2.818 -0.333,-4.169 -1.363,-6.279 -7.054,-10.684 -13.397,-10.477 -6.459,0.21 -11.831,4.962 -12.808,11.376 -0.158,1.031 -0.199,2.089 -0.2,3.135 C 0.051,-118.99 0.026,-60.766 0,-2.542 0,-1.75 0,-0.958 0,0"
             style="fill:#000000;fill-opacity:1;fill-rule:nonzero;stroke:none"
             id="path872"
             inkscape:connector-curvature="0" /></g><g
           id="g874"
           transform="translate(140.3286,403.1577)"><path
             d="m 0,0 c 0.007,-12.746 -10.125,-22.934 -22.806,-22.932 -12.682,10e-4 -22.791,10.182 -22.782,22.945 0.008,12.637 10.154,22.772 22.795,22.769 C -10.161,22.78 -0.007,12.63 0,0"
             style="fill:#000000;fill-opacity:1;fill-rule:nonzero;stroke:none"
             id="path876"
             inkscape:connector-curvature="0" /></g></g></g><g
       id="g878"><g
         id="g880"
         clip-path="url(#clipPath884)"><g
           id="g886"
           transform="translate(527.5598,201.328)"><path
             d="m 0,0 c -0.046,9.104 -6.865,16.088 -15.712,16.094 -9.107,0.005 -16.029,-7.224 -15.85,-16.553 0.172,-8.974 7.22,-15.952 16.022,-15.862 C -6.808,-16.232 0.046,-9.034 0,0 m -158.011,-0.56 c 0.194,9.685 -6.454,16.424 -16.417,16.64 -9.012,0.196 -15.903,-6.52 -16.108,-15.698 -0.204,-9.188 6.386,-16.442 15.168,-16.696 9.857,-0.285 17.168,6.351 17.357,15.754 m -12.233,35.858 h 150.159 c -4.807,13.017 -9.359,25.486 -14.022,37.912 -2.814,7.497 -5.126,9.03 -13.196,9.034 -29.138,0.016 -58.277,-0.012 -87.416,0.015 -17.287,0.015 -16.761,1.376 -23.248,-15.975 -3.819,-10.215 -8.023,-20.287 -12.277,-30.986 M 21.44,13.46 V -54.044 H 1.986 c 0,-6.434 0.07,-12.317 -0.014,-18.199 -0.168,-11.739 -7.099,-19.318 -17.384,-19.124 -10.171,0.192 -16.812,7.565 -16.972,18.968 -0.085,6.039 -0.015,12.08 -0.015,18.259 h -124.677 c 0,-6.31 0.044,-12.19 -0.008,-18.069 -0.118,-13.233 -7.328,-18.68 -18.652,-19.048 -10.126,-0.33 -16.626,7.439 -16.764,19.005 -0.072,6.037 -0.013,12.076 -0.013,18.208 H -210.82 V 13.46 c 3.266,9.892 8.765,17.602 19.339,20.844 1.323,0.405 2.264,2.836 2.922,4.51 5.365,13.637 11.036,27.174 15.791,41.023 4.684,13.645 17.462,20.43 29.775,20.349 32.22,-0.212 64.443,-0.004 96.664,-0.102 14.732,-0.044 22.496,-5.544 27.814,-19.221 C -13.066,66.85 -7.711,52.8 -2.172,38.823 -1.468,37.048 -0.22,34.727 1.323,34.168 11.469,30.491 18.39,23.918 21.44,13.46"
             style="fill:#000000;fill-opacity:1;fill-rule:nonzero;stroke:none"
             id="path888"
             inkscape:connector-curvature="0" /></g></g></g><g
       id="g890"><g
         id="g892"
         clip-path="url(#clipPath896)"><g
           id="g898"><g
             id="g900" /><g
             id="g916"><g
               clip-path="url(#clipPath904)"
               id="g914"
               style="opacity:0.80000299"><g
                 transform="translate(83.4098,234.6729)"
                 id="g908"><path
                   d="M 0,0 30.862,31.238 104.527,-41.539 178.192,31.238 209.054,0 l -73.287,-72.404 73.287,-72.403 -30.862,-31.238 -73.665,72.777 L 30.862,-176.045 0,-144.807 73.286,-72.404 Z"
                   style="fill:#ff0000;fill-opacity:1;fill-rule:evenodd;stroke:none"
                   id="path906"
                   inkscape:connector-curvature="0" /></g><g
                 transform="translate(83.4098,234.6729)"
                 id="g912"><path
                   d="M 0,0 30.862,31.238 104.527,-41.539 178.192,31.238 209.054,0 l -73.287,-72.404 73.287,-72.403 -30.862,-31.238 -73.665,72.777 L 30.862,-176.045 0,-144.807 73.286,-72.404 Z"
                   style="fill:none;stroke:#ffffff;stroke-width:7;stroke-linecap:butt;stroke-linejoin:miter;stroke-miterlimit:8;stroke-dasharray:none;stroke-opacity:1"
                   id="path910"
                   inkscape:connector-curvature="0" /></g></g></g></g></g></g></g></svg>