<?xml version="1.0" encoding="utf-8"?>
<!-- Generator: Adobe Illustrator 19.1.1, SVG Export Plug-In . SVG Version: 6.00 Build 0)  -->
<svg version="1.1" id="Layer_1" xmlns="http://www.w3.org/2000/svg" xmlns:xlink="http://www.w3.org/1999/xlink" x="0px" y="0px"
	 viewBox="-25 117 560 560" style="enable-background:new -25 117 560 560;" xml:space="preserve">
<style type="text/css">
	.st0{fill:#00A1CB;stroke:#000000;stroke-width:17;stroke-miterlimit:10;}
	.st1{display:none;}
	.st2{display:inline;fill:#CCCCCC;}
	.st3{display:inline;fill:#FFFFFF;}
	.st4{clip-path:url(#SVGID_2_);}
	.st5{fill:#CCCCCC;stroke:#AAAAAA;stroke-miterlimit:10;}
	.st6{clip-path:url(#SVGID_4_);}
	.st7{fill:none;}
	.st8{clip-path:url(#SVGID_6_);}
	.st9{clip-path:url(#SVGID_8_);}
	.st10{fill:none;stroke:#000000;stroke-width:20;stroke-miterlimit:10;}
</style>
<g id="Layer_3">
	<circle class="st0" cx="255" cy="397" r="270"/>
</g>
<g id="Layer_1_1_">
	<g id="Sidewalk" class="st1">
		<polygon class="st2" points="43.4,302 -43.9,302 -44.5,302.7 -46,307 41.7,307 		"/>
		
			<rect x="-7.3" y="296.8" transform="matrix(0.9394 0.3428 -0.3428 0.9394 104.0828 20.7332)" class="st3" width="1.4" height="15.9"/>
		
			<rect x="33" y="296.8" transform="matrix(0.9395 0.3426 -0.3426 0.9395 106.4579 6.8981)" class="st3" width="1.5" height="15.9"/>
	</g>
	<g id="Layer_5">
	</g>
</g>
<g id="Layer_2">
	<g>
		<g>
			<defs>
				<circle id="SVGID_1_" cx="255" cy="397" r="262.5"/>
			</defs>
			<clipPath id="SVGID_2_">
				<use xlink:href="#SVGID_1_"  style="overflow:visible;"/>
			</clipPath>
			<g id="Sidewalk_copy" class="st4">
				<g>
					<polygon class="st5" points="222.8,615.3 472.8,615.3 484.5,544.3 234.6,544.3 					"/>
					<polygon class="st5" points="494.5,544.3 482.7,615.3 534.1,615.3 545.3,544.3 					"/>
					<polygon class="st5" points="224.6,544.3 -17.5,544.3 -21.1,555.6 -30.8,615.3 212.9,615.3 					"/>
				</g>
			</g>
		</g>
		<g>
			<defs>
				<circle id="SVGID_3_" cx="255" cy="397" r="262.5"/>
			</defs>
			<clipPath id="SVGID_4_">
				<use xlink:href="#SVGID_3_"  style="overflow:visible;"/>
			</clipPath>
			<g id="Wheelchair_1_" class="st6">
				<g id="Wheelchair_3_">
					<g>
						<path class="st7" d="M34.9,585.1c0-82.3,0-164.7,0-247c72.1,0,144.1,0,216.2,0c0,82.3,0,164.7,0,247
							C179,585.1,106.9,585.1,34.9,585.1z M244.1,525.6c-8.2,3-16.2,5.8-24.2,8.7c-0.4-0.9-0.7-1.6-1-2.3c-10-23.1-20-46.2-30-69.4
							c-0.7-1.6-1.5-2.1-3.2-2.1c-23.3,0.2-46.5,0.3-69.8,0.5c-0.9,0-1.8,0-2.8,0c-0.3-4.7-0.7-9.2-1-13.9c18.2,0,36,0,54,0
							c0-6.9,0-13.6,0-20.6c-18.7,0-37.3,0-56,0c-0.1-1-0.2-1.7-0.2-2.5c-0.7-13.2-1.5-26.3-2.3-39.5c-0.1-1.7,0.3-2.2,2-2.5
							c11-2.1,18.7-12.5,17.6-23.6c-1.1-11.2-10.6-19.9-21.7-20c-15.5,0-26.2,15.8-20.5,30.3c0.8,2,1.3,4.1,1.4,6.2
							c2.5,34.4,4.9,68.8,7.4,103.2c0.2,3.3-0.2,3,3.2,3c25,0,50,0,75,0c2,0,2.9,0.7,3.6,2.4c10.2,24.2,20.6,48.3,30.9,72.4
							c0.3,0.8,0.7,1.6,1.1,2.5c14.5-5.7,28.8-11.3,43.3-17C248.5,536.1,246.4,531,244.1,525.6z M82.5,430.8
							c-0.5,0.1-0.7,0.1-0.9,0.2c-0.5,0.2-1,0.5-1.5,0.7c-8.1,4.1-15.4,9.3-21.7,16c-16.3,17.4-24.4,37.9-22.7,61.8
							c1.5,21.6,10.5,39.7,26.4,54.2c16.7,15.3,36.7,22.4,59.3,20.6c29.6-2.3,51.7-17,66.3-42.8c0.4-0.7,0.5-2.1,0.1-2.8
							c-4.2-8.7-8.4-17.4-12.7-26c-0.2-0.4-0.5-0.7-0.9-1.2c-0.2,1.2-0.3,2-0.5,2.8c-4.7,26.2-27.6,46.7-53.9,48.3
							c-28.4,1.7-53.5-16.7-60.5-44.3c-5.7-22.6,2.6-47.2,21.2-60.9c3.2-2.4,4.1-4.6,3.6-8.3C83.2,443.1,83,437,82.5,430.8z"/>
						<path d="M244.1,525.6c2.3,5.4,4.4,10.6,6.7,16c-14.5,5.7-28.8,11.3-43.3,17c-0.4-0.9-0.8-1.7-1.1-2.5
							c-10.3-24.1-20.6-48.3-30.9-72.4c-0.8-1.8-1.6-2.5-3.6-2.4c-25,0.1-50,0-75,0c-3.4,0-2.9,0.3-3.2-3
							c-2.5-34.4-4.9-68.8-7.4-103.2c-0.2-2.1-0.7-4.2-1.4-6.2c-5.6-14.5,5-30.3,20.5-30.2c11.2,0.1,20.6,8.8,21.7,20
							c1.1,11.1-6.6,21.5-17.6,23.6c-1.7,0.3-2.1,0.8-2,2.5c0.8,13.2,1.5,26.3,2.3,39.5c0,0.7,0.1,1.5,0.2,2.5c18.7,0,37.3,0,56,0
							c0,7,0,13.7,0,20.6c-18,0-35.9,0-54,0c0.3,4.7,0.7,9.2,1,13.9c1,0,1.9,0,2.8,0c23.3-0.2,46.5-0.3,69.8-0.5
							c1.7,0,2.5,0.5,3.2,2.1c10,23.1,20,46.3,30,69.4c0.3,0.7,0.6,1.4,1,2.3C227.9,531.4,235.9,528.5,244.1,525.6z"/>
						<path d="M82.5,430.8C83,437,83.2,443.1,84,449c0.5,3.7-0.4,6-3.6,8.3c-18.6,13.7-26.9,38.3-21.2,60.9
							c7,27.6,32.1,46,60.5,44.3c26.4-1.5,49.3-22,53.9-48.3c0.1-0.8,0.3-1.6,0.5-2.8c0.4,0.6,0.8,0.9,0.9,1.2
							c4.2,8.7,8.5,17.3,12.7,26c0.4,0.8,0.3,2.1-0.1,2.8c-14.7,25.8-36.7,40.5-66.3,42.8c-22.5,1.7-42.5-5.3-59.3-20.6
							c-15.9-14.5-24.9-32.7-26.4-54.2c-1.6-23.9,6.5-44.4,22.7-61.8c6.2-6.7,13.5-11.9,21.7-16c0.5-0.2,1-0.5,1.5-0.7
							C81.7,430.9,82,430.9,82.5,430.8z"/>
					</g>
				</g>
			</g>
		</g>
		<g>
			<defs>
				<circle id="SVGID_5_" cx="255" cy="397" r="262.5"/>
			</defs>
			<clipPath id="SVGID_6_">
				<use xlink:href="#SVGID_5_"  style="overflow:visible;"/>
			</clipPath>
			<g id="Obstacle" class="st8">
				<g>
					<g>
						<path class="st7" d="M256.7,596c0-89.5,0-179.1,0-268.6c86.3,0,172.5,0,258.8,0c0,89.5,0,179.1,0,268.6
							C429.3,596,343,596,256.7,596z M344.5,582.1c1.7,0,3,0,4.4,0c24.7,0,49.4,0,74.2,0c5,0,5,0,5-4.9c0-31.9,0-63.8,0-95.7
							c0-1.6,0-3.2,0-5.2c3.4,0,6.3,0.2,9.2-0.1c0.9-0.1,2.5-1.4,2.5-2.2c0.2-13.5,0.1-27,0.1-40.8c-2-0.1-3.7-0.3-5.4-0.4
							c-7.1-0.1-6.4,0.7-6.4-6.6c0-4.2,0-8.3,0-12.5c0-5.1,0-5.1-4.9-5.1c-24.7,0-49.4,0-74.2,0c-1.4,0-2.7,0-4.5,0
							c0,5.6,0,10.7,0,15.8c0,7.9,0,7.9-8,8.3c-0.1,0-0.3,0-0.4,0c-2-0.1-2.9,0.7-2.9,2.9c0.1,12.5,0.1,25,0,37.5
							c0,2.5,1,3.3,3.4,3.2c2.6-0.1,5.1,0,8,0C344.5,511.9,344.5,546.8,344.5,582.1z M379.5,341.3c0,4.2-0.1,7.9,0,11.7
							c0.1,2.3-0.4,3.5-3.1,4.1c-3.4,0.7-6.7,2.1-9.8,3.7c-11.1,6-17.3,16-21.1,27.6c-1.1,3.2-0.9,6.8-1.3,10.5c27.5,0,54.2,0,81,0
							c2.3,0,2.8-1.1,2.6-3c-0.7-6.8-2.4-13.2-6-19.2c-6-10-14.3-16.5-25.4-19.5c-2.2-0.6-2.8-1.6-2.8-3.6c0.1-4,0-8,0-12.2
							C388.7,341.3,384.4,341.3,379.5,341.3z M291,461.5c3.7,0,7.2-0.1,10.7,0.1c1,0.1,2.4,0.8,2.8,1.7c3.2,6.4,8,10.6,15.1,12.3
							c4,1,4.5,0.9,4.5-3.2c0-12,0-23.9,0-35.9c0-1.1-0.2-2.1-0.4-3.6c-2.2,0.3-4.1,0.3-5.9,0.8c-5.9,1.7-9.9,5.7-12.6,10.9
							c-1.1,2.1-2.2,2.6-4.3,2.5c-3.2-0.1-6.5,0-9.9,0C291,452,291,456.4,291,461.5z M449.3,433.5c0,14.1,0,28.2,0,42.7
							c7.8-1.2,14.2-4,17.3-11.3c1.2-2.8,2.9-3.7,5.8-3.4c2.7,0.2,5.5,0.1,8.3,0.1c0-5,0-9.5,0-14.4c-2.1,0-3.9-0.2-5.6,0
							c-4.7,0.6-7.8-0.6-9.9-5.5C462.9,436,455.3,432.7,449.3,433.5z"/>
						<path d="M344.5,582.1c0-35.3,0-70.2,0-105.8c-2.9,0-5.4-0.1-8,0c-2.4,0.1-3.4-0.7-3.4-3.2c0.1-12.5,0.1-25,0-37.5
							c0-2.1,0.9-3,2.9-2.9c0.1,0,0.3,0,0.4,0c8-0.4,8-0.4,8-8.3c0-5.1,0-10.3,0-15.8c1.8,0,3.2,0,4.5,0c24.7,0,49.4,0,74.2,0
							c4.9,0,4.9,0,4.9,5.1c0,4.2,0,8.3,0,12.5c0,7.3-0.7,6.5,6.4,6.6c1.7,0,3.4,0.2,5.4,0.4c0,13.8,0,27.3-0.1,40.8
							c0,0.8-1.6,2.1-2.5,2.2c-2.9,0.3-5.8,0.1-9.2,0.1c0,2,0,3.6,0,5.2c0,31.9,0,63.8,0,95.7c0,4.9,0,4.9-5,4.9
							c-24.7,0-49.4,0-74.2,0C347.5,582.1,346.2,582.1,344.5,582.1z M411.5,454.3c0.6-15-12.5-26.4-25.3-26.3
							c-14.4,0-25.8,12.8-25.7,26.6c0.1,13.5,11.3,26.4,25.9,26.2C399.5,480.6,412.2,469,411.5,454.3z"/>
						<path d="M379.5,341.3c4.9,0,9.3,0,14.1,0c0,4.2,0.1,8.2,0,12.2c-0.1,2.1,0.6,3,2.8,3.6c11.1,3,19.5,9.6,25.4,19.5
							c3.6,6,5.3,12.4,6,19.2c0.2,2-0.3,3-2.6,3c-26.7,0-53.4,0-81,0c0.4-3.7,0.2-7.3,1.3-10.5c3.8-11.6,10-21.6,21.1-27.6
							c3.1-1.7,6.4-3,9.8-3.7c2.7-0.5,3.2-1.8,3.1-4.1C379.4,349.2,379.5,345.5,379.5,341.3z"/>
						<path d="M291,461.5c0-5.1,0-9.4,0-14.4c3.4,0,6.6-0.1,9.9,0c2.1,0.1,3.2-0.4,4.3-2.5c2.7-5.2,6.8-9.2,12.6-10.9
							c1.8-0.5,3.7-0.5,5.9-0.8c0.1,1.5,0.4,2.5,0.4,3.6c0,12,0,23.9,0,35.9c0,4-0.4,4.1-4.5,3.2c-7.1-1.7-11.9-5.9-15.1-12.3
							c-0.4-0.8-1.8-1.6-2.8-1.7C298.3,461.4,294.8,461.5,291,461.5z"/>
						<path d="M449.3,433.5c5.9-0.8,13.6,2.5,16,8.2c2.1,4.9,5.2,6.1,9.9,5.5c1.7-0.2,3.5,0,5.6,0c0,4.8,0,9.4,0,14.4
							c-2.8,0-5.6,0.2-8.3-0.1c-2.9-0.3-4.5,0.6-5.8,3.4c-3.2,7.3-9.5,10.1-17.3,11.3C449.3,461.7,449.3,447.6,449.3,433.5z"/>
						<path class="st7" d="M411.5,454.3c0.7,14.7-12,26.3-25,26.5c-14.6,0.2-25.9-12.7-25.9-26.2c-0.1-13.8,11.2-26.6,25.7-26.6
							C398.9,427.9,412.1,439.3,411.5,454.3z M402.3,454.3c0.5-8.2-7.1-16.9-16.2-16.7c-8.9,0.2-15.7,7.3-15.8,16.8
							c0,9.4,6.6,16.9,15.9,16.9C395.1,471.2,402.3,463.7,402.3,454.3z"/>
						<path d="M402.3,454.3c0,9.3-7.2,16.9-16,16.9c-9.3,0-16-7.4-15.9-16.9c0-9.4,6.8-16.6,15.8-16.8
							C395.2,437.4,402.8,446.2,402.3,454.3z"/>
					</g>
				</g>
			</g>
		</g>
		<g>
			<defs>
				<circle id="SVGID_7_" cx="255" cy="397" r="262.5"/>
			</defs>
			<clipPath id="SVGID_8_">
				<use xlink:href="#SVGID_7_"  style="overflow:visible;"/>
			</clipPath>
			<g id="Arrow" class="st9">
				<g>
					<g>
						<line class="st10" x1="417.4" y1="291.2" x2="452.3" y2="206.8"/>
						<g>
							<polygon points="446.2,283.7 420.4,283.9 402.3,265.5 402.8,326.6 							"/>
						</g>
					</g>
				</g>
			</g>
		</g>
	</g>
</g>
</svg>
