<?xml version="1.0" encoding="utf-8"?>
<!-- Generator: Adobe Illustrator 19.1.1, SVG Export Plug-In . SVG Version: 6.00 Build 0)  -->
<svg version="1.1" xmlns="http://www.w3.org/2000/svg" xmlns:xlink="http://www.w3.org/1999/xlink" x="0px" y="0px"
	 viewBox="-25 117 560 560" style="enable-background:new -25 117 560 560;" xml:space="preserve">
<style type="text/css">
	.st0{display:none;}
	.st1{display:inline;fill:#BCBCBC;stroke:#000000;stroke-width:17;stroke-miterlimit:10;}
	.st2{display:inline;stroke:#000000;stroke-miterlimit:10;}
	.st3{fill:#E8E8E8;}
	.st4{fill:none;}
	.st5{display:inline;}
	.st6{fill:none;stroke:#000000;stroke-width:20;stroke-miterlimit:10;}
</style>
<g id="Layer_2" class="st0">
	<circle class="st1" cx="253" cy="397" r="270"/>
</g>
<g id="Layer_1" class="st0">
	<g id="Layer_4">
		<polygon class="st2" points="54.7,183.5 51.8,187.1 48.8,183.5 46.7,183.5 43.8,187.1 40.8,183.5 38.7,183.5 35.8,187.1 
			32.8,183.5 30.7,183.5 27.4,187.5 35.4,187.5 36.1,187.5 43.4,187.5 44.1,187.5 51.4,187.5 52.1,187.5 60.1,187.5 56.8,183.5 		
			"/>
	</g>
</g>
<g id="Layer_3">
	<g>
		<g id="Layer_7">
			<rect x="-24.2" y="520.5" class="st3" width="553.8" height="92.1"/>
		</g>
		<g id="Wheelchair_1_">
			<g id="Wheelchair_3_">
				<g>
					<path class="st4" d="M66.3,519.1c0-68.9,0-137.8,0-206.6c60.3,0,120.6,0,180.9,0c0,68.9,0,137.8,0,206.6
						C186.9,519.1,126.6,519.1,66.3,519.1z M241.3,469.3c-6.9,2.5-13.5,4.9-20.3,7.3c-0.3-0.8-0.6-1.3-0.9-1.9
						c-8.4-19.3-16.8-38.7-25.1-58c-0.6-1.3-1.2-1.8-2.7-1.8c-19.4,0.2-38.9,0.3-58.4,0.4c-0.7,0-1.5,0-2.3,0
						c-0.3-3.9-0.6-7.7-0.9-11.6c15.2,0,30.1,0,45.2,0c0-5.8,0-11.4,0-17.2c-15.6,0-31.2,0-46.8,0c-0.1-0.8-0.2-1.4-0.2-2.1
						c-0.6-11-1.2-22-1.9-33c-0.1-1.4,0.3-1.8,1.7-2.1c9.2-1.8,15.7-10.5,14.7-19.7c-0.9-9.4-8.8-16.6-18.2-16.7
						c-12.9-0.1-21.8,13.1-17.1,25.3c0.6,1.6,1.1,3.4,1.2,5.2c2.1,28.8,4.1,57.6,6.2,86.4c0.2,2.8-0.2,2.5,2.7,2.5
						c20.9,0,41.8,0,62.7,0c1.7,0,2.4,0.6,3,2c8.6,20.2,17.2,40.4,25.8,60.6c0.3,0.7,0.6,1.3,0.9,2.1c12.1-4.8,24.1-9.5,36.2-14.2
						C245.1,478.1,243.2,473.8,241.3,469.3z M106.1,390c-0.4,0.1-0.6,0.1-0.8,0.1c-0.4,0.2-0.8,0.4-1.3,0.6
						c-6.8,3.4-12.9,7.8-18.1,13.4c-13.6,14.6-20.4,31.7-19,51.7c1.2,18,8.8,33.2,22.1,45.4c14,12.8,30.7,18.7,49.6,17.2
						c24.8-1.9,43.2-14.2,55.5-35.8c0.4-0.6,0.4-1.7,0.1-2.4c-3.5-7.3-7-14.5-10.6-21.8c-0.2-0.3-0.4-0.6-0.8-1
						c-0.2,1-0.3,1.7-0.4,2.4c-3.9,21.9-23.1,39.1-45.1,40.4c-23.8,1.4-44.8-14-50.6-37.1c-4.8-18.9,2.2-39.4,17.7-50.9
						c2.7-2,3.4-3.9,3-7C106.8,400.3,106.5,395.2,106.1,390z"/>
					<path d="M241.3,469.3c1.9,4.5,3.7,8.8,5.6,13.4c-12.1,4.7-24.1,9.4-36.2,14.2c-0.3-0.8-0.7-1.4-0.9-2.1
						c-8.6-20.2-17.2-40.4-25.8-60.6c-0.6-1.5-1.4-2.1-3-2c-20.9,0.1-41.8,0-62.7,0c-2.8,0-2.4,0.3-2.7-2.5
						c-2.1-28.8-4.1-57.6-6.2-86.4c-0.1-1.8-0.5-3.5-1.2-5.2c-4.7-12.1,4.2-25.4,17.1-25.3c9.3,0.1,17.2,7.3,18.2,16.7
						c0.9,9.3-5.5,18-14.7,19.7c-1.4,0.3-1.7,0.7-1.7,2.1c0.7,11,1.3,22,1.9,33c0,0.6,0.1,1.2,0.2,2.1c15.7,0,31.2,0,46.8,0
						c0,5.8,0,11.4,0,17.2c-15,0-30,0-45.2,0c0.3,3.9,0.6,7.7,0.9,11.6c0.9,0,1.6,0,2.3,0c19.5-0.1,38.9-0.2,58.4-0.4
						c1.5,0,2.1,0.4,2.7,1.8c8.3,19.4,16.7,38.7,25.1,58c0.3,0.6,0.5,1.1,0.9,1.9C227.8,474.1,234.4,471.8,241.3,469.3z"/>
					<path d="M106.1,390c0.4,5.2,0.6,10.2,1.2,15.2c0.4,3.1-0.3,5-3,7c-15.5,11.5-22.5,32-17.7,50.9c5.9,23.1,26.9,38.4,50.6,37.1
						c22.1-1.3,41.2-18.4,45.1-40.4c0.1-0.7,0.2-1.4,0.4-2.4c0.4,0.5,0.6,0.7,0.8,1c3.6,7.2,7.1,14.5,10.6,21.8
						c0.3,0.6,0.3,1.7-0.1,2.4c-12.3,21.6-30.7,33.9-55.5,35.8c-18.9,1.5-35.6-4.5-49.6-17.2c-13.3-12.1-20.9-27.3-22.1-45.4
						c-1.4-20,5.4-37.2,19-51.7c5.2-5.6,11.3-9.9,18.1-13.4c0.4-0.2,0.8-0.4,1.3-0.6C105.5,390.1,105.7,390.1,106.1,390z"/>
				</g>
			</g>
		</g>
		<g id="Arrow" class="st0">
			<g class="st5">
				<g>
					<line class="st6" x1="414.3" y1="442.1" x2="454.9" y2="330.4"/>
					<g>
						<polygon points="403,473 436.6,435.9 415.1,439.8 401.1,423 						"/>
					</g>
				</g>
			</g>
		</g>
		<g id="Layer_5" class="st0">
			<g class="st5">
				<polygon points="457.6,521.2 457.3,522.7 458,522.7 				"/>
				<polygon points="401.5,521.3 401.1,522.7 401.8,522.7 				"/>
				<polygon points="345.3,521.8 345,522.7 345.5,522.7 				"/>
				<polygon points="386.2,582.6 401.1,522.5 399.3,522.5 347.4,522.5 345.5,522.5 360.5,582.6 				"/>
				<polygon points="274.7,582.6 289.1,523.5 304,582.6 330.2,582.6 345,522.5 343.1,522.5 291.2,522.5 287,522.5 230.8,522.5 
					246.4,582.6 				"/>
				<polygon points="442.3,582.6 457.3,522.5 455.5,522.5 403.6,522.5 401.8,522.5 416.8,582.6 				"/>
				<polygon points="500.3,582.6 516,522.5 459.8,522.5 458,522.5 472.3,582.6 				"/>
			</g>
		</g>
		<circle class="st4" cx="254.1" cy="397.4" r="261.9"/>
	</g>
</g>
<g id="Layer_4_1_">
	<g>
		<path d="M424.1,396.7l-25.6,5.2l17.7,22.7l-10.3,7.1L391.5,407l-14.7,24.7l-10.3-7.1l17.7-22.7l-25.7-5.2l4.2-11.7l24.4,9.2
			l-2.1-28.4h12.9l-2.1,28.4l24.5-9.2L424.1,396.7z"/>
	</g>
	<rect x="308.4" y="520.5" width="165.6" height="15"/>
</g>
</svg>
