<svg xmlns="http://www.w3.org/2000/svg" viewBox="0 0 90 90"><defs><style>.cls-1{fill:#fabf1c;}.cls-2{fill:#2d2a3f;}.cls-3{fill:none;}</style></defs><g id="图层_2" data-name="图层 2"><g id="图层_1-2" data-name="图层 1"><path class="cls-1" d="M90,45a44,44,0,0,1-.25,4.76A45,45,0,0,1,5.36,66.32a44.64,44.64,0,0,1-3.59-8.8A45.14,45.14,0,0,1,0,46.17c0-.39,0-.78,0-1.17A45,45,0,0,1,86.86,28.46,44.31,44.31,0,0,1,89.29,37,45.06,45.06,0,0,1,90,45Z"/><path class="cls-2" d="M89.75,49.76a44.74,44.74,0,0,1-5.11,16.56h-10Z"/><path class="cls-2" d="M89.29,37,62.61,66.32H47.72L82.15,28.46h4.71A44.31,44.31,0,0,1,89.29,37Z"/><polygon class="cls-2" points="55.18 28.46 20.75 66.32 35.63 66.32 70.06 28.46 55.18 28.46"/><path class="cls-2" d="M43.09,28.46,8.66,66.32H5.36a44.64,44.64,0,0,1-3.59-8.8L28.2,28.46Z"/><path class="cls-2" d="M16.12,28.46,0,46.17c0-.39,0-.78,0-1.17A44.77,44.77,0,0,1,3.14,28.46Z"/><path class="cls-3" d="M90,45a44,44,0,0,1-.25,4.76A45,45,0,0,1,5.36,66.32a44.64,44.64,0,0,1-3.59-8.8A45.14,45.14,0,0,1,0,46.17c0-.39,0-.78,0-1.17A45,45,0,0,1,86.86,28.46,44.31,44.31,0,0,1,89.29,37,45.06,45.06,0,0,1,90,45Z"/></g></g></svg>