<svg xmlns="http://www.w3.org/2000/svg" viewBox="0 0 90 90"><defs><style>.cls-1{fill:#90c31f;}.cls-2{fill:#aecf65;}.cls-3{fill:#2d2a3f;}.cls-4{fill:#605e6e;}.cls-5{fill:#7f7d8f;}.cls-6{fill:#6b697a;}.cls-7{fill:none;}</style></defs><g id="图层_2" data-name="图层 2"><g id="图层_1-2" data-name="图层 1"><path class="cls-1" d="M90,45A45,45,0,0,1,9.07,72.1a45.69,45.69,0,0,1-3.41-5.24.56.56,0,0,1,0-.08l-.14-.26a43.51,43.51,0,0,1-2-4.13A45,45,0,0,1,76.82,13.18a45.3,45.3,0,0,1,7.87,10.59,44.09,44.09,0,0,1,1.89,4c.09.21.18.43.26.64s.08.19.11.29,0,0,0,0a44.16,44.16,0,0,1,2,6.39A45.51,45.51,0,0,1,90,45Z"/><path class="cls-2" d="M86.84,28.4q-2,2.21-3.93,4.42a95.46,95.46,0,0,1-10,10h0c-1.19,1-2.42,2-3.69,2.87s-2.62,1.78-4,2.59A130.49,130.49,0,0,1,36.33,60.58c-1,.3-2,.58-2.94.84h0a3.9,3.9,0,0,1-.46.12h0q-8.33,2.25-17,3.66l-1.83.29Q11,66,7.85,66.3c-.79.08-1.58.16-2.38.22a43.51,43.51,0,0,1-2-4.13A45,45,0,0,1,76.82,13.18a45.3,45.3,0,0,1,7.87,10.59,44.09,44.09,0,0,1,1.89,4C86.67,28,86.76,28.19,86.84,28.4Z"/><path class="cls-3" d="M88.91,35.1A152.41,152.41,0,0,1,76.63,48.21l0,0,0-.06a1.44,1.44,0,0,1,.11-.2l.08-.13.3-.52.2-.35c.9-1.63,2.51-4.5,3.88-6.94l.6-1.1.33-.61.51-.95.11-.2c.3-.58.6-1.15.88-1.71s.65-1.28.94-1.88c.85-1.75,1.79-3.71,2.32-4.83,0,0,0,0,0,0A44.16,44.16,0,0,1,88.91,35.1Z"/><path class="cls-4" d="M86.58,27.76H81.1l3.59-4A44.09,44.09,0,0,1,86.58,27.76Z"/><path class="cls-4" d="M8.56,62.37,7.85,66.3l-.09.47v.08H5.66a.56.56,0,0,1,0-.08l-.14-.26a43.51,43.51,0,0,1-2-4.13Z"/><path class="cls-5" d="M45.87,29.17l-24.32,12L36.72,61.1l.84.58A141.52,141.52,0,0,0,70.44,46.57Z"/><path class="cls-5" d="M70.44,46.57h0C59.91,52.58,51.3,56,36.72,61.1l5.39,3.74S50.17,62,59.65,57.43s17-9.21,17-9.21Z"/><path class="cls-4" d="M87,28.71c-.46,1-1.27,2.71-2.33,4.81-.29.6-.6,1.23-.94,1.88s-.58,1.13-.88,1.71l-.11.2-.51.95-.33.61-.6,1.1c-1.68,3.15-3.07,5.56-3.88,6.94l-.2.35-.3.52-.08.13a1.44,1.44,0,0,0-.11.2l0,.06,0,0h0l-6.18-1.65.69-1,.31-.46c.4-.61.9-1.37,1.46-2.25h0C74,41.11,75.33,39,76.62,36.72l.17-.31c1.56-2.8,2.95-5.71,3.73-7.33.14-.3.25-.56.34-.76s.07-.17.11-.24.13-.32.13-.32h5.48c.09.21.18.43.26.64s.08.19.11.29S87,28.7,87,28.71Z"/><path class="cls-6" d="M81.1,27.76,45.87,29.17l24.57,17.4s3.22-4.7,6.18-9.85A85.89,85.89,0,0,0,81.1,27.76Z"/><path class="cls-6" d="M8.56,62.37l13-21.19L36.72,61.1s-7.76,1-14,1.28C16.31,62.66,8.56,62.37,8.56,62.37Z"/><path class="cls-4" d="M42.11,64.84,36.72,61.1s-3.7.45-12.87,1c-8.64.54-15.29.25-15.29.25l-.81,4.48s8.6-.19,17.19-.77S42.11,64.84,42.11,64.84Z"/><path class="cls-3" d="M42.11,64.84s-10.76,5.33-33,7.26a45.69,45.69,0,0,1-3.41-5.24.56.56,0,0,1,0-.08H8.35c1.07,0,2.29,0,3.61,0l.57,0,.59,0,1.26-.05,1,0,1.81-.08,1.48-.07,4.7-.26,1.7-.11L26.4,66c.47,0,.94,0,1.4-.09l1.14-.08.84-.06c3.66-.23,6.92-.48,9.17-.67l.91-.07,1-.07.49,0,.36,0Z"/><path class="cls-3" d="M33.91,51.08c-.48.22-.73.56-.55.78s.71.23,1.2,0,.73-.56.54-.78S34.39,50.87,33.91,51.08Z"/><path class="cls-3" d="M37.3,49.59c-.48.21-.72.55-.53.76s.73.22,1.22,0,.72-.56.53-.78A1.21,1.21,0,0,0,37.3,49.59Z"/><path class="cls-3" d="M40.69,48.09c-.47.21-.7.55-.51.76a1.27,1.27,0,0,0,1.24,0c.49-.21.71-.56.51-.76A1.27,1.27,0,0,0,40.69,48.09Z"/><path class="cls-3" d="M44.09,46.59c-.48.21-.7.55-.5.75a1.29,1.29,0,0,0,1.26,0c.49-.21.7-.55.49-.75A1.33,1.33,0,0,0,44.09,46.59Z"/><path class="cls-3" d="M47.48,45.09c-.48.21-.69.54-.47.74a1.37,1.37,0,0,0,1.27,0c.49-.22.7-.55.47-.75A1.41,1.41,0,0,0,47.48,45.09Z"/><path class="cls-3" d="M50.87,43.59c-.48.21-.68.54-.45.74a1.45,1.45,0,0,0,1.3,0c.48-.21.68-.54.44-.74A1.46,1.46,0,0,0,50.87,43.59Z"/><path class="cls-3" d="M54.26,42.09c-.48.21-.67.54-.43.73a1.53,1.53,0,0,0,1.32,0c.48-.22.67-.54.43-.73A1.53,1.53,0,0,0,54.26,42.09Z"/><path class="cls-3" d="M58.58,41.26c.48-.21.67-.54.41-.72a1.6,1.6,0,0,0-1.33.05c-.48.22-.67.54-.42.72A1.54,1.54,0,0,0,58.58,41.26Z"/><path class="cls-3" d="M35.18,52.63c-.49.21-.74.57-.56.8s.74.24,1.23,0,.75-.58.56-.81S35.67,52.41,35.18,52.63Z"/><path class="cls-3" d="M38.65,51.09c-.49.22-.73.58-.54.8a1.23,1.23,0,0,0,1.25,0c.5-.22.74-.58.54-.8A1.25,1.25,0,0,0,38.65,51.09Z"/><path class="cls-3" d="M42.12,49.56c-.49.22-.73.57-.52.79a1.28,1.28,0,0,0,1.27,0c.5-.22.73-.57.52-.79A1.3,1.3,0,0,0,42.12,49.56Z"/><path class="cls-3" d="M45.58,48c-.49.22-.71.56-.49.78a1.37,1.37,0,0,0,1.3,0c.49-.22.71-.57.49-.78A1.37,1.37,0,0,0,45.58,48Z"/><path class="cls-3" d="M49.05,46.5c-.49.21-.7.56-.47.76a1.41,1.41,0,0,0,1.32,0c.49-.22.7-.57.47-.77A1.42,1.42,0,0,0,49.05,46.5Z"/><path class="cls-3" d="M52.52,45c-.49.22-.69.56-.45.76a1.46,1.46,0,0,0,1.34,0c.49-.22.69-.56.45-.77A1.53,1.53,0,0,0,52.52,45Z"/><path class="cls-3" d="M56,43.43c-.49.22-.68.55-.43.75a1.54,1.54,0,0,0,1.36,0c.49-.22.68-.56.43-.76A1.58,1.58,0,0,0,56,43.43Z"/><path class="cls-3" d="M59.46,41.9c-.49.22-.67.55-.41.74a1.63,1.63,0,0,0,1.38,0c.49-.22.68-.56.41-.75A1.63,1.63,0,0,0,59.46,41.9Z"/><path class="cls-3" d="M36.5,54.24c-.5.22-.75.6-.56.83s.76.26,1.27,0,.76-.6.56-.84S37,54,36.5,54.24Z"/><path class="cls-3" d="M40.05,52.67c-.5.23-.74.59-.54.83a1.28,1.28,0,0,0,1.29,0c.51-.23.75-.6.54-.83A1.28,1.28,0,0,0,40.05,52.67Z"/><path class="cls-3" d="M43.6,51.11c-.5.22-.73.58-.52.81a1.31,1.31,0,0,0,1.32,0c.51-.22.74-.59.51-.82A1.33,1.33,0,0,0,43.6,51.11Z"/><path class="cls-3" d="M47.15,49.54c-.5.22-.72.58-.49.8a1.34,1.34,0,0,0,1.33,0c.51-.22.73-.58.49-.81A1.4,1.4,0,0,0,47.15,49.54Z"/><path class="cls-3" d="M50.7,48c-.5.22-.71.58-.47.79a1.46,1.46,0,0,0,1.36,0c.5-.23.71-.59.47-.8A1.46,1.46,0,0,0,50.7,48Z"/><path class="cls-3" d="M54.25,46.4c-.5.22-.7.57-.45.79a1.54,1.54,0,0,0,1.38,0c.51-.23.71-.58.45-.79A1.54,1.54,0,0,0,54.25,46.4Z"/><path class="cls-3" d="M57.8,44.83c-.5.22-.69.57-.43.78a1.56,1.56,0,0,0,1.4,0c.51-.22.7-.57.43-.78A1.63,1.63,0,0,0,57.8,44.83Z"/><path class="cls-3" d="M61.35,43.26c-.5.23-.68.57-.41.77a1.67,1.67,0,0,0,1.43,0c.5-.22.68-.57.4-.77A1.68,1.68,0,0,0,61.35,43.26Z"/><path class="cls-3" d="M37.89,55.93c-.51.23-.77.62-.57.87a1.23,1.23,0,0,0,1.31,0c.52-.23.78-.62.57-.87S38.4,55.71,37.89,55.93Z"/><path class="cls-3" d="M41.53,54.33c-.52.22-.76.61-.55.85a1.28,1.28,0,0,0,1.33,0c.52-.23.77-.61.54-.86A1.29,1.29,0,0,0,41.53,54.33Z"/><path class="cls-3" d="M45.16,52.72c-.51.23-.75.61-.52.85a1.34,1.34,0,0,0,1.35,0c.52-.23.76-.61.52-.85A1.37,1.37,0,0,0,45.16,52.72Z"/><path class="cls-3" d="M48.8,51.12c-.52.22-.74.6-.5.83a1.41,1.41,0,0,0,1.38,0c.52-.23.74-.6.49-.84A1.42,1.42,0,0,0,48.8,51.12Z"/><path class="cls-3" d="M52.43,49.51c-.51.23-.73.6-.48.82a1.5,1.5,0,0,0,1.41,0c.52-.23.73-.6.47-.83A1.48,1.48,0,0,0,52.43,49.51Z"/><path class="cls-3" d="M56.07,47.91c-.52.22-.72.59-.46.81a1.58,1.58,0,0,0,1.43,0c.52-.23.72-.6.44-.82A1.55,1.55,0,0,0,56.07,47.91Z"/><path class="cls-3" d="M59.7,46.3c-.51.23-.71.59-.43.8a1.66,1.66,0,0,0,1.45,0c.52-.23.71-.6.42-.81A1.61,1.61,0,0,0,59.7,46.3Z"/><path class="cls-3" d="M63.34,44.69c-.52.23-.7.59-.41.8a1.72,1.72,0,0,0,1.47,0c.52-.23.7-.59.4-.8A1.73,1.73,0,0,0,63.34,44.69Z"/><path class="cls-3" d="M39.35,57.71c-.53.23-.78.63-.57.89s.82.29,1.35.06.78-.64.56-.9S39.87,57.48,39.35,57.71Z"/><path class="cls-3" d="M43.07,56.06c-.53.24-.77.63-.55.89a1.32,1.32,0,0,0,1.38,0c.53-.23.77-.63.54-.89A1.35,1.35,0,0,0,43.07,56.06Z"/><path class="cls-3" d="M46.79,54.42c-.52.23-.76.62-.52.87a1.38,1.38,0,0,0,1.4,0c.53-.24.76-.63.52-.88A1.41,1.41,0,0,0,46.79,54.42Z"/><path class="cls-3" d="M50.52,52.77c-.53.24-.75.62-.5.87a1.43,1.43,0,0,0,1.42,0c.53-.23.76-.62.5-.87A1.49,1.49,0,0,0,50.52,52.77Z"/><path class="cls-3" d="M54.24,51.13c-.52.23-.74.61-.47.85a1.52,1.52,0,0,0,1.44,0c.54-.24.75-.63.47-.86A1.53,1.53,0,0,0,54.24,51.13Z"/><path class="cls-3" d="M58,49.48c-.53.24-.73.61-.46.85a1.63,1.63,0,0,0,1.47,0c.54-.24.74-.62.45-.85A1.61,1.61,0,0,0,58,49.48Z"/><path class="cls-3" d="M61.69,47.84c-.53.23-.72.6-.43.83a1.67,1.67,0,0,0,1.5,0c.53-.23.72-.61.42-.84A1.72,1.72,0,0,0,61.69,47.84Z"/><path class="cls-3" d="M65.41,46.19c-.52.24-.7.6-.4.83a1.78,1.78,0,0,0,1.52,0c.53-.24.71-.61.4-.83A1.79,1.79,0,0,0,65.41,46.19Z"/><path class="cls-7" d="M90,45A45,45,0,0,1,9.07,72.1a45.69,45.69,0,0,1-3.41-5.24.56.56,0,0,1,0-.08l-.14-.26a43.51,43.51,0,0,1-2-4.13A45,45,0,0,1,76.82,13.18a45.3,45.3,0,0,1,7.87,10.59,44.09,44.09,0,0,1,1.89,4c.09.21.18.43.26.64s.08.19.11.29,0,0,0,0a44.16,44.16,0,0,1,2,6.39A45.51,45.51,0,0,1,90,45Z"/></g></g></svg>