<svg xmlns="http://www.w3.org/2000/svg" viewBox="0 0 90 90"><defs><style>.cls-1{fill:#e679b6;}.cls-2{fill:#2d2a3f;}.cls-3{fill:#605e6e;}.cls-4{fill:#ed95c6;}.cls-5,.cls-6{fill:none;}.cls-5{stroke:#2d2a3f;stroke-linecap:round;stroke-miterlimit:10;stroke-width:2px;}</style></defs><g id="图层_2" data-name="图层 2"><g id="图层_1-2" data-name="图层 1"><path class="cls-1" d="M90,45A45,45,0,0,1,5.25,66.12a45.55,45.55,0,0,1-2.87-6.64,44,44,0,0,1-1.25-4.43A45,45,0,0,1,76.82,13.18,44.3,44.3,0,0,1,82,19.32a3.62,3.62,0,0,1,.22.32,41.94,41.94,0,0,1,2.24,3.62A45,45,0,0,1,90,45Z"/><path class="cls-2" d="M87.37,29.82l-.56.63C76.65,40.61,52.08,66.11,6.94,66.11H5.25a45.55,45.55,0,0,1-2.87-6.64,44,44,0,0,1-1.25-4.43A45,45,0,0,1,76.82,13.18,44.3,44.3,0,0,1,82,19.32a3.62,3.62,0,0,1,.22.32,41.94,41.94,0,0,1,2.24,3.62A44.56,44.56,0,0,1,87.37,29.82Z"/><path class="cls-3" d="M84.41,23.26l-.5.55A159.38,159.38,0,0,1,70.29,36.33a102.47,102.47,0,0,1-44,20.94,110.13,110.13,0,0,1-22.21,2.2H2.38a44,44,0,0,1-1.25-4.43L7,55c35.41,0,60.85-21.32,71.4-31.88L82,19.32a3.62,3.62,0,0,1,.22.32A41.94,41.94,0,0,1,84.41,23.26Z"/><path class="cls-4" d="M82.17,19.64,79,23.15C68.42,33.71,43,55,7.58,55H7l-5.91,0A45,45,0,0,1,76.82,13.18,44.3,44.3,0,0,1,82,19.32,3.62,3.62,0,0,1,82.17,19.64Z"/><line class="cls-5" x1="32" y1="45.82" x2="24.51" y2="44.46"/><line class="cls-5" x1="29.39" y1="54.19" x2="23.14" y2="57.22"/><line class="cls-5" x1="36.5" y1="62.24" x2="32.93" y2="68.37"/><line class="cls-5" x1="50.31" y1="61.95" x2="52.15" y2="68.37"/><line class="cls-5" x1="63.11" y1="54.38" x2="67.71" y2="59.81"/><line class="cls-5" x1="71.03" y1="45.14" x2="78.52" y2="46.84"/><line class="cls-5" x1="67.12" y1="36.21" x2="73.42" y2="32.6"/><line class="cls-5" x1="57.53" y1="33" x2="60.08" y2="26.02"/><line class="cls-5" x1="47.27" y1="33.5" x2="45.43" y2="27.09"/><line class="cls-5" x1="37.93" y1="38.93" x2="33.33" y2="33.5"/><path class="cls-6" d="M90,45A45,45,0,0,1,5.25,66.12a45.55,45.55,0,0,1-2.87-6.64,44,44,0,0,1-1.25-4.43A45,45,0,0,1,76.82,13.18,44.3,44.3,0,0,1,82,19.32a3.62,3.62,0,0,1,.22.32,41.94,41.94,0,0,1,2.24,3.62A45,45,0,0,1,90,45Z"/></g></g></svg>