<svg xmlns="http://www.w3.org/2000/svg" viewBox="0 0 90 90"><defs><style>.cls-1{fill:#d6bce3;}.cls-2{fill:#be87d8;}.cls-3,.cls-4{fill:#2d2a3f;}.cls-4{stroke:#be87d8;stroke-miterlimit:10;}.cls-5{fill:none;}</style></defs><g id="图层_2" data-name="图层 2"><g id="图层_1-2" data-name="图层 1"><path class="cls-1" d="M90,45A44.85,44.85,0,0,1,79.39,74c-.82,1-1.68,1.9-2.57,2.79A45,45,0,0,1,0,45c0-1,0-2.1.11-3.13a45,45,0,0,1,89.78,0C90,42.9,90,44,90,45Z"/><path class="cls-2" d="M90,45A44.85,44.85,0,0,1,79.39,74c-.82,1-1.68,1.9-2.57,2.79A45,45,0,0,1,0,45c0-1,0-2.1.11-3.13H89.89C90,42.9,90,44,90,45Z"/><path class="cls-3" d="M89.89,41.87H83.66l0,.65H81.52l0-.65H69.5L30.68,87.67A45,45,0,0,0,76.82,76.82c.89-.89,1.75-1.82,2.57-2.79l.87-12.83H85l.27,4A44.89,44.89,0,0,0,90,45C90,44,90,42.9,89.89,41.87Zm-8.48,2.3h2.4l.2,3h-2.8Zm-.76,11.24L81,49.93H84.2l.37,5.48Z"/><path class="cls-3" d="M15.3,47.74C17.64,55.3,46.89,61.48,54.81,44,59,34.74,48.57,9.58,36.36,10.1,27.7,10.47,9.65,29.46,15.3,47.74Z"/><path class="cls-4" d="M25.24,45.24s4.88,5.36,7.59,6.47L31.61,69.13h0a4,4,0,0,0,6.16,0h0s-.81-21.29-1-23.85c0-.22,5.91-8.22,5.91-8.22l-6.5,4.68-1.1-12.08s-1.29,14.17-1.76,18.11Z"/><path class="cls-5" d="M90,45A44.85,44.85,0,0,1,79.39,74c-.82,1-1.68,1.9-2.57,2.79A45,45,0,0,1,0,45c0-1,0-2.1.11-3.13a45,45,0,0,1,89.78,0C90,42.9,90,44,90,45Z"/></g></g></svg>