<svg xmlns="http://www.w3.org/2000/svg" viewBox="0 0 90 90"><defs><style>.cls-1{fill:#78b0ea;}.cls-2{fill:#2d2a3f;}.cls-3{fill:none;}</style></defs><g id="图层_2" data-name="图层 2"><g id="图层_1-2" data-name="图层 1"><circle class="cls-1" cx="45" cy="45" r="45"/><path class="cls-2" d="M57.12,36.64c-1.76,0-1.59.18-1.6-1.64,0-1,0-2.08,0-3.12,0-1.26,0-1.27-1.23-1.27H34.64v4c0,2,0,2-2,2.07h-.1c-.51,0-.73.19-.73.72,0,3.12,0,6.24,0,9.36,0,.63.26.82.85.79s1.29,0,2,0V73.93c.21,0,5.36,2.36,10.48,2.27a27.9,27.9,0,0,0,10.31-2.64s.07-16.8.07-24.77V47.5a21.34,21.34,0,0,0,2.29,0c.24,0,.63-.35.63-.55,0-3.36,0-6.73,0-10.19C58,36.7,57.55,36.65,57.12,36.64Zm-12,12a6.6,6.6,0,0,1-.07-13.2,6.61,6.61,0,0,1,.07,13.2Z"/><path class="cls-2" d="M54.82,28.18c.57,0,.7-.27.65-.76A11.26,11.26,0,0,0,54,22.63a10.29,10.29,0,0,0-6.34-4.88.79.79,0,0,1-.7-.91c0-1,0-2,0-3H43.4c0,1,0,2,0,2.91,0,.58-.1.88-.79,1a8.7,8.7,0,0,0-2.44.92,11.39,11.39,0,0,0-5.26,6.89,12.71,12.71,0,0,0-.31,2.62Z"/><path class="cls-2" d="M29.47,36.67a9.94,9.94,0,0,0-1.48.21,5.1,5.1,0,0,0-3.15,2.72,1,1,0,0,1-1.07.64c-.8,0-1.61,0-2.46,0v3.59c.93,0,1.81,0,2.68,0a.93.93,0,0,1,.69.41,5.44,5.44,0,0,0,3.77,3.08c1,.24,1.11.22,1.11-.79v-9C29.56,37.3,29.51,37,29.47,36.67Z"/><path class="cls-2" d="M67.3,40.24a2,2,0,0,1-2.47-1.38,4,4,0,0,0-4-2V47.48c2-.3,3.54-1,4.33-2.82a1.25,1.25,0,0,1,1.44-.86c.68.06,1.37,0,2.09,0V40.23A10.76,10.76,0,0,0,67.3,40.24Z"/><path class="cls-2" d="M45.05,37.85A4,4,0,0,0,41.11,42a4,4,0,0,0,4,4.21,4.12,4.12,0,0,0,4-4.22A4.17,4.17,0,0,0,45.05,37.85Z"/><circle class="cls-3" cx="45" cy="45" r="45"/></g></g></svg>