<svg xmlns="http://www.w3.org/2000/svg" viewBox="0 0 90 90"><defs><style>.cls-1{fill:#b3b3b3;}.cls-2{fill:#2d2a3f;}</style></defs><g id="图层_2" data-name="图层 2"><g id="图层_1-2" data-name="图层 1"><rect class="cls-1" width="90" height="90" rx="45"/><path class="cls-2" d="M65.94,45.76A22.52,22.52,0,0,1,60.05,54l-6.92-6.93A7.86,7.86,0,0,0,53.44,45,8.46,8.46,0,0,0,51,39a9.48,9.48,0,0,0-1.09-.92A8.23,8.23,0,0,0,47.6,37a8.14,8.14,0,0,0-2.6-.42,6,6,0,0,0-.74,0h0a8,8,0,0,0-1.36.27l-1.31-1.31-4.1-4.08A22.6,22.6,0,0,1,50.86,31h0a20.41,20.41,0,0,1,2.7.91l.67.28a18.18,18.18,0,0,1,1.65.83,22.57,22.57,0,0,1,10,11.17A1.94,1.94,0,0,1,65.94,45.76Z"/><path class="cls-2" d="M52.52,58.5A22.94,22.94,0,0,1,45,59.78,22.46,22.46,0,0,1,32.41,56a21.32,21.32,0,0,1-1.86-1.38A21.86,21.86,0,0,1,28.81,53a20.19,20.19,0,0,1-1.61-1.84h0A20.72,20.72,0,0,1,25.71,49a21.88,21.88,0,0,1-1.66-3.23,2,2,0,0,1,0-1.61,22.6,22.6,0,0,1,5.89-8.27l5.13,5.15,1.8,1.81v0h0a7.39,7.39,0,0,0-.2,3.39,8.53,8.53,0,0,0,.76,2.42A8.82,8.82,0,0,0,39,51a8.46,8.46,0,0,0,6,2.48,8,8,0,0,0,2.11-.32Z"/><path class="cls-2" d="M66.12,64a2.13,2.13,0,0,1-.62,1.51,2.15,2.15,0,0,1-1.48.61h0a2.15,2.15,0,0,1-1.5-.61L46.08,49.08a4.27,4.27,0,0,1-1.08.15,4.21,4.21,0,0,1-4.14-3.43,3.5,3.5,0,0,1-.08-.8,4.32,4.32,0,0,1,.14-1.08l-.68-.67-1.73-1.74-14-14a2.12,2.12,0,0,1,3-3L43.92,40.92A4.77,4.77,0,0,1,45,40.78a4.08,4.08,0,0,1,1.44.26,4.21,4.21,0,0,1,2.64,5L65.5,62.51A2.08,2.08,0,0,1,66.12,64Z"/></g></g></svg>