<svg xmlns="http://www.w3.org/2000/svg" viewBox="0 0 90 90"><defs><style>.cls-1{fill:#63c0ab;}.cls-2{fill:#9cd6c9;}.cls-3{fill:#2d2a3f;}.cls-4{fill:none;}</style></defs><g id="图层_2" data-name="图层 2"><g id="图层_1-2" data-name="图层 1"><circle class="cls-1" cx="45" cy="45" r="45"/><rect class="cls-2" x="25.21" y="16.34" width="39.58" height="60.29" rx="9.55"/><path class="cls-3" d="M55.24,18.34a7.56,7.56,0,0,1,7.55,7.55v41.2a7.56,7.56,0,0,1-7.55,7.55H34.76a7.56,7.56,0,0,1-7.55-7.55V25.89a7.56,7.56,0,0,1,7.55-7.55Zm0-4H34.76A11.58,11.58,0,0,0,23.21,25.89v41.2A11.58,11.58,0,0,0,34.76,78.64H55.24A11.58,11.58,0,0,0,66.79,67.09V25.89A11.58,11.58,0,0,0,55.24,14.34Z"/><path class="cls-3" d="M56.75,45.66a13.92,13.92,0,0,0-2.23-1.4A8.35,8.35,0,0,1,50.43,40a33.27,33.27,0,0,0-1.74-3.14A3.73,3.73,0,0,0,43,35.76c-2.08,1.46-4.15,2.94-6.17,4.48a3.07,3.07,0,0,0-1,1.47c-.53,1.78-.94,3.58-1.37,5.39A1.43,1.43,0,0,0,35.48,49a1.57,1.57,0,0,0,1.92-1.31,22.07,22.07,0,0,0,.79-3.43c.16-1.61,1.35-2.37,2.75-3.21a5.11,5.11,0,0,1-.07.71c-.78,3.11-1.69,6.2-2.3,9.34a21.2,21.2,0,0,1-4.13,8.94,17.75,17.75,0,0,0-1.55,2.39,1.88,1.88,0,0,0,.85,2.68,2.51,2.51,0,0,0,3-.47,6.12,6.12,0,0,0,.66-.88c1.23-1.86,2.53-3.69,3.66-5.6a21.52,21.52,0,0,0,1.57-3.62c.33-.91.5-1.87.79-3,1.53,1.51,2.92,2.81,4.21,4.19a3.85,3.85,0,0,1,.92,1.66c.48,2,.84,4,1.29,6a2.41,2.41,0,0,0,2.95,2,2.17,2.17,0,0,0,1.67-2.85c-.46-2.23-.89-4.47-1.42-6.69a4.53,4.53,0,0,0-1-1.86c-1.57-1.78-3.25-3.48-4.86-5.23-.25-.28-.57-.7-.51-1C47,46,47.52,44.19,48,42.37c.69.67.94,1.57,1.58,2a53.79,53.79,0,0,0,5.74,3.53c.35.19,1.35-.21,1.77-.59C57.63,46.81,57.36,46.11,56.75,45.66Z"/><path class="cls-3" d="M46.45,34.23a3.38,3.38,0,0,0-.1-6.76,3.38,3.38,0,1,0,.1,6.76Z"/><circle class="cls-4" cx="45" cy="45" r="45"/></g></g></svg>