<svg xmlns="http://www.w3.org/2000/svg" viewBox="0 0 90 90"><defs><style>.cls-1{fill:#f68d3e;}.cls-2{fill:#2d2a3f;}.cls-3{fill:#7a4c2a;}.cls-4{fill:none;}</style></defs><g id="图层_2" data-name="图层 2"><g id="图层_1-2" data-name="图层 1"><path class="cls-1" d="M90,45A45,45,0,0,1,35,88.88a43.81,43.81,0,0,1-6-1.84A45,45,0,0,1,60.25,2.65a47.81,47.81,0,0,1,4.82,2.06A45,45,0,0,1,90,45Z"/><path class="cls-2" d="M76.14,44.28h0a24.41,24.41,0,0,1-2,2.72l-.09.11h0C69.32,53,58.49,66,57.22,67.46L74,45.2,65.73,32.13l-1.13-.26c-.63-.15-1.46-.36-2.33-.62-.52-.15-1-.29-1.37-.43A8.82,8.82,0,0,1,58,29.34h0a1,1,0,0,1-.24-.31.2.2,0,0,1,0-.08v0a19.38,19.38,0,0,0-1.94-2.69l0-.07c-.44-.54-.89-1.06-1.26-1.5l-1-1.14L31.91,29.25,20.67,34.51l3.44,3-5.2-3.3,11.8-9.5,1.18-13.36L58.15,4.53l.66-1.86,1.44,0a47.81,47.81,0,0,1,4.82,2.06L55.72,22,58,27.24l8.57,2.67.5.76c1.89,2.9,8.53,13.08,9.06,13.59Z"/><polygon class="cls-1" points="31.98 27.77 32.42 18.45 58.33 9.45 60.76 10.34 54.24 21.81 31.98 27.77"/><path class="cls-2" d="M46.8,52.92l8.11,6.69-2.55,1-18,7L46.41,79.15l-5.6,4.76-5.84,5a43.81,43.81,0,0,1-6-1.84l11.9-8.23-.49-.54-.56-.62-.73-.81c-.8-.88-1.81-2-2.86-3.18l-1-1.09-.91-1c-2.75-3.13-5.24-6.08-4.85-6.08.82,0,22.9-6,22.9-6l-5.58-3.85L42,52.3l20.41-2.15Z"/><polygon class="cls-3" points="34.34 67.61 34.32 71.56 40.84 78.81 40.81 83.91 46.41 79.15 34.34 67.61"/><polygon class="cls-3" points="52.37 59.45 52.37 60.6 54.91 59.61 46.8 52.92 46.79 55.59 52.37 59.45"/><path class="cls-3" d="M58,27.24,55.72,22l0,4.14L58,29.33s.1,1,7.75,2.8L74,45.2v1.93l2.13-2.85L66.56,29.91Z"/><polygon class="cls-3" points="31.98 27.77 31.91 29.25 53.43 23.52 54.44 24.66 54.24 21.81 31.98 27.77"/><path class="cls-4" d="M90,45A45,45,0,0,1,35,88.88a43.81,43.81,0,0,1-6-1.84A45,45,0,0,1,60.25,2.65a47.81,47.81,0,0,1,4.82,2.06A45,45,0,0,1,90,45Z"/></g></g></svg>